<?xml version="1.0" encoding="iso-8859-1"?>
<!-- Generator: Adobe Illustrator 19.0.0, SVG Export Plug-In . SVG Version: 6.00 Build 0)  -->
<svg version="1.1" id="Capa_1" xmlns="http://www.w3.org/2000/svg" xmlns:xlink="http://www.w3.org/1999/xlink" x="0px" y="0px"
	 viewBox="0 0 512 512" style="enable-background:new 0 0 512 512;" xml:space="preserve">
<path style="fill:#498A68;" d="M341.168,383.64c-4.354,0-8.673-1.861-11.677-5.467c-5.369-6.445-4.496-16.022,1.949-21.39
	c4.637-3.862,13.052-9.337,29.049-18.897c7.202-4.301,16.527-1.953,20.829,5.246c4.302,7.2,1.954,16.525-5.246,20.829
	c-5.603,3.349-20.485,12.242-25.19,16.161C348.042,382.486,344.594,383.64,341.168,383.64z"/>
<path style="fill:#5CB38E;" d="M235.544,435.364c-70.876,0-152.442,0-212.154-38.123c-10.218-6.524-4.308-22.279,7.708-20.675
	c47.287,6.313,87.007-5.724,109.656-25.222L235.544,435.364z"/>
<path style="opacity:0.1;enable-background:new    ;" d="M114.018,367.428c0.79,22.635,4.264,45.228,18.217,64.015
	c34.552,3.92,70.104,3.921,103.309,3.921l-94.79-84.02C133.494,357.593,124.473,363.07,114.018,367.428z"/>
<g>
	<path style="fill:#498A68;" d="M203.814,504.5c-0.601,0-1.207-0.023-1.816-0.07c-12.866-0.989-22.496-12.222-21.506-25.089
		c0.898-11.677-0.065-50.623-1.74-59.246c-3.845-11.577,1.905-24.312,13.367-28.982c11.951-4.866,25.586,0.873,30.456,12.824
		c6.298,15.462,4.8,75.246,4.512,78.986C226.145,495.181,215.906,504.5,203.814,504.5z M179.285,421.543
		c0.003,0.008,0.007,0.017,0.01,0.026C179.292,421.561,179.288,421.551,179.285,421.543z"/>
	<path style="fill:#498A68;" d="M288.556,504.5c-0.602,0-1.208-0.023-1.819-0.07c-12.866-0.99-22.495-12.224-21.504-25.091
		c0.899-11.674-0.064-50.612-1.74-59.241c-3.846-11.577,1.903-24.311,13.365-28.983c11.945-4.869,25.585,0.869,30.457,12.821
		c6.302,15.466,4.801,75.25,4.513,78.991C310.884,495.182,300.646,504.5,288.556,504.5z M264.028,421.547
		c0.002,0.008,0.006,0.017,0.009,0.025C264.035,421.564,264.03,421.555,264.028,421.547z"/>
</g>
<path style="opacity:0.1;enable-background:new    ;" d="M312.189,461.272c-0.018-19.861-0.875-47.521-4.874-57.336
	c-4.872-11.951-18.512-17.69-30.457-12.821c-11.462,4.672-17.211,17.406-13.365,28.983c1.344,6.919,2.228,33.318,2.063,49.53
	C283.595,468.444,299.052,465.686,312.189,461.272z"/>
<path style="opacity:0.1;enable-background:new    ;" d="M192.119,391.114c-11.462,4.67-17.212,17.405-13.367,28.982
	c1.17,6.027,1.992,26.858,2.075,42.847c13.257,3.833,28.71,6.133,46.577,6.984c0.216-19.418-0.207-54.641-4.829-65.988
	C217.705,391.987,204.07,386.248,192.119,391.114z"/>
<path style="fill:#5CB38E;" d="M350.526,352.922c0,54.55-7.41,94.021-106.68,94.021s-106.68-39.471-106.68-94.021
	s47.762-98.771,106.68-98.771S350.526,298.372,350.526,352.922z"/>
<path style="fill:#9BDFC1;" d="M350.526,352.922c0-0.435-0.012-0.867-0.018-1.3c-22.22-5.702-66.293-7.361-96.963,25.233
	c-22.35,23.752-25.584,49.383-23.186,69.824c4.297,0.174,8.788,0.264,13.487,0.264C343.116,446.943,350.526,407.472,350.526,352.922
	z"/>
<path style="opacity:0.05;enable-background:new    ;" d="M223.594,255.936c-49.231,8.761-86.428,48.848-86.428,96.986
	c0,50.51,6.365,88.088,86.116,93.377C179.003,401.355,187.567,308.556,223.594,255.936z"/>
<path style="fill:#5CB38E;" d="M341.767,111.901L341.767,111.901c-18.217-27.548-49.04-44.118-82.066-44.118h-40.598
	c-57.718,0-104.508,46.79-104.508,104.508v48.049c0,51.801,41.993,93.795,93.795,93.795h215.208
	c38.806,0,70.264-31.458,70.264-70.264v-32.702c0-38.806-31.458-70.264-70.264-70.264h-27.879
	C374.007,140.905,353.743,130.012,341.767,111.901z"/>
<ellipse style="fill:#495059;" cx="409.69" cy="250.37" rx="32.83" ry="37.06"/>
<g style="opacity:0.1;">
	<circle cx="171.36" cy="243.18" r="7.192"/>
	<circle cx="222.5" cy="254.15" r="7.192"/>
	<circle cx="193.24" cy="278.68" r="7.192"/>
</g>
<g>
	<ellipse style="fill:#FFA8CB;" cx="182.3" cy="155.63" rx="18.13" ry="9.3"/>
	<ellipse style="fill:#FFA8CB;" cx="304" cy="155.63" rx="18.13" ry="9.3"/>
</g>
<path style="opacity:0.05;enable-background:new    ;" d="M195.886,70.375c-46.543,10.559-81.291,52.177-81.291,101.915v48.049
	c0,51.801,41.993,93.795,93.795,93.795h56.915C182.417,265.907,168.367,133.337,195.886,70.375z"/>
<g>
	<circle style="fill:#FFFFFF;" cx="200.43" cy="118.42" r="33.966"/>
	<circle style="fill:#FFFFFF;" cx="285.88" cy="118.42" r="33.966"/>
</g>
<path style="fill:#498A68;" d="M228.911,383.64c-3.674,0-7.358-1.325-10.275-4.007c-3.777-3.472-11.779-10.591-22.934-19.262
	c-6.622-5.149-7.816-14.691-2.669-21.314c5.149-6.623,14.689-7.816,21.314-2.669c12.015,9.342,20.724,17.093,24.846,20.882
	c6.176,5.676,6.58,15.284,0.902,21.46C237.102,381.988,233.012,383.64,228.911,383.64z"/>
<path d="M332.767,60.352c1.986,0,3.969-0.784,5.443-2.34l16.783-17.701c2.851-3.006,2.724-7.753-0.282-10.603
	c-3.005-2.852-7.753-2.724-10.603,0.282l-16.783,17.701c-2.851,3.006-2.724,7.753,0.282,10.603
	C329.058,59.67,330.915,60.352,332.767,60.352z M42.247,145.18l34.465,5.258c0.383,0.059,0.764,0.087,1.14,0.087
	c3.643,0,6.839-2.658,7.405-6.37c0.625-4.095-2.188-7.92-6.283-8.545l-34.465-5.258c-4.096-0.625-7.92,2.188-8.545,6.283
	C35.339,140.73,38.152,144.555,42.247,145.18z M233.588,39.534c4.143,0,7.5-3.357,7.5-7.5V7.5c0-4.143-3.357-7.5-7.5-7.5
	s-7.5,3.357-7.5,7.5v24.534C226.088,36.177,229.445,39.534,233.588,39.534z M80.835,45.796l22.975,18.59
	c1.389,1.124,3.056,1.67,4.713,1.67c2.187,0,4.354-0.951,5.835-2.782c2.605-3.22,2.107-7.942-1.112-10.548L90.27,34.136
	c-3.221-2.607-7.943-2.106-10.548,1.112C77.117,38.468,77.615,43.19,80.835,45.796z M409.692,205.81
	c-22.238,0-40.33,19.989-40.33,44.559s18.092,44.561,40.33,44.561c22.237,0,40.329-19.99,40.329-44.561
	C450.021,225.799,431.929,205.81,409.692,205.81z M409.692,279.93c-13.967,0-25.33-13.261-25.33-29.561
	c0-16.299,11.363-29.559,25.33-29.559s25.329,13.261,25.329,29.559C435.021,266.669,423.659,279.93,409.692,279.93z
	 M386.774,184.799c3.972,0,7.192-3.22,7.192-7.192s-3.22-7.192-7.192-7.192s-7.192,3.22-7.192,7.192
	S382.802,184.799,386.774,184.799z M432.61,184.799c3.972,0,7.192-3.22,7.192-7.192s-3.22-7.192-7.192-7.192
	s-7.192,3.22-7.192,7.192S428.638,184.799,432.61,184.799z M423.598,133.405h-27.88c-19.248,0-37.078-9.585-47.695-25.641
	c-19.66-29.732-52.678-47.482-88.322-47.482h-40.598c-61.762,0-112.008,50.246-112.008,112.008v48.05
	c0,31.64,14.767,60.372,38.079,79.087c-9.71,15.478-15.007,32.919-15.459,50.975c-23.87,16.756-60.015,23.754-97.625,18.729
	c-9.003-1.201-17.145,3.714-20.258,12.23c-3.085,8.438-0.061,17.359,7.521,22.201c46.7,29.815,104.615,36.184,150.259,38.264
	c1.078,0.521,2.177,1.027,3.304,1.514c0.512,14.136,0.569,29.292,0.097,35.425c-1.305,16.97,11.439,31.837,28.42,33.143
	c0.798,0.06,1.599,0.091,2.38,0.091c16.015,0,29.521-12.52,30.75-28.501c0.146-1.893,0.506-14.326,0.342-29.165
	c2.91,0.073,5.889,0.11,8.94,0.11c4.887,0,9.584-0.098,14.111-0.287c0.208,10.626,0.14,20.159-0.202,24.606
	c-1.308,16.97,11.435,31.839,28.419,33.147c0.798,0.06,1.6,0.091,2.381,0.091c10.064,0,19.522-4.94,25.299-13.213
	c2.371-3.397,1.541-8.071-1.855-10.443c-3.397-2.372-8.07-1.539-10.443,1.855c-3.208,4.596-8.616,7.177-14.242,6.754
	c-8.724-0.673-15.274-8.315-14.603-17.039c0.436-5.661,0.436-16.573,0.228-26.789c11.939-1.186,22.427-3.184,31.584-6.021
	c0.151,6.499,0.178,12.54,0.164,17.076c-0.013,4.143,3.335,7.511,7.477,7.523h0.023c4.132,0,7.487-3.343,7.5-7.477
	c0.018-5.906-0.032-14.311-0.327-23.034c8.415-4.245,15.289-9.536,20.754-15.931c9.624-11.262,14.109-25.122,16.18-39.868
	c4.915-3.813,18.872-12.156,23.625-14.997c10.737-6.418,14.253-20.375,7.837-31.113c-6.415-10.735-20.369-14.253-31.116-7.837
	c-0.289,0.172-0.554,0.332-0.836,0.501c-0.749-3.479-1.687-6.919-2.811-10.315h70.606c42.879,0,77.764-34.885,77.764-77.764v-32.701
	C501.362,168.29,466.477,133.405,423.598,133.405z M357.909,348.194c1.981-1.203,4.097-2.478,6.425-3.87
	c3.638-2.176,8.372-0.985,10.545,2.653c2.175,3.64,0.983,8.37-2.684,10.562c-4.663,2.787-9.782,5.879-14.362,8.767
	c0.15-4.462,0.193-8.937,0.193-13.384C358.026,351.34,357.982,349.765,357.909,348.194z M27.427,390.92
	c-2.199-1.404-1.888-3.364-1.506-4.408c0.322-0.881,1.379-2.88,4.186-2.513c37.141,4.958,73.321-1.006,99.813-16.02
	c0.841,21.048,4.31,41.663,17.659,57.282c0.051,0.06,0.106,0.118,0.158,0.178C108.526,422.255,63.912,414.213,27.427,390.92z
	 M219.609,482.349c-0.632,8.216-7.57,14.651-15.795,14.651c-0.407,0-0.829-0.017-1.241-0.047
	c-8.723-0.671-15.273-8.314-14.604-17.036c0.491-6.373,0.447-19.338,0.116-31.407c9.304,2.459,19.875,4.137,31.811,5.063
	C220.086,468.677,219.704,481.073,219.609,482.349z M486.362,243.87c0,34.608-28.155,62.764-62.764,62.764H231.932
	c-4.143,0-7.5,3.357-7.5,7.5s3.357,7.5,7.5,7.5H337.04c3.974,10.001,5.986,20.504,5.986,31.288c0,28.303-2.395,48.646-14.315,62.594
	c-4.828,5.649-11.217,10.252-19.327,13.859c-0.453,0.145-0.885,0.331-1.295,0.554c-11.091,4.686-25.284,7.589-42.967,8.821
	c-0.032,0.001-0.063-0.002-0.094-0.001c-0.216,0.007-0.427,0.028-0.637,0.052c-6.393,0.427-13.228,0.642-20.544,0.642
	c-5.513,0-10.759-0.12-15.746-0.362c-0.272-0.03-0.547-0.049-0.827-0.049c-0.016,0-0.031,0-0.047,0
	c-17.751-0.917-32.178-3.4-43.645-7.548c-0.485-0.244-0.999-0.437-1.535-0.571c-2.313-0.888-4.501-1.847-6.566-2.878
	c-0.339-0.21-0.697-0.391-1.069-0.546c-6.288-3.285-11.405-7.265-15.431-11.975c-8.838-10.341-14.315-24.418-14.315-62.594
	c0-15.904,4.435-31.331,12.884-45.01c11.241,6.561,23.873,11.046,37.419,12.84c4.102,0.549,7.876-2.343,8.42-6.449
	c0.545-4.106-2.344-7.876-6.449-8.42c-42.668-5.653-74.844-42.429-74.844-85.543v-48.05c0-53.49,43.518-97.008,97.008-97.008h40.598
	c30.595,0,58.936,15.236,75.811,40.756c13.401,20.268,35.909,32.367,60.207,32.367h27.88c34.608,0,62.764,28.155,62.764,62.764
	v32.703H486.362z M285.876,109.74c-4.794,0-8.68,3.886-8.68,8.68s3.886,8.68,8.68,8.68s8.68-3.886,8.68-8.68
	S290.67,109.74,285.876,109.74z M187.112,334.454c-7.677,9.877-5.888,24.159,3.987,31.837c10.953,8.516,18.774,15.474,22.461,18.863
	c1.441,1.324,3.26,1.979,5.074,1.979c2.025,0,4.045-0.815,5.523-2.424c2.803-3.05,2.604-7.794-0.445-10.598
	c-3.857-3.546-12.028-10.816-23.406-19.662c-3.347-2.602-3.952-7.442-1.352-10.789c2.602-3.346,7.443-3.951,10.789-1.351
	c11.799,9.173,20.335,16.771,24.374,20.482c3.048,2.802,7.793,2.604,10.597-0.446c2.804-3.049,2.604-7.794-0.446-10.597
	c-4.208-3.869-13.094-11.778-25.318-21.282C209.072,322.791,194.791,324.577,187.112,334.454z M209.109,118.42
	c0-4.794-3.886-8.68-8.68-8.68s-8.68,3.886-8.68,8.68s3.886,8.68,8.68,8.68C205.222,127.1,209.109,123.214,209.109,118.42z"/>
<g>
</g>
<g>
</g>
<g>
</g>
<g>
</g>
<g>
</g>
<g>
</g>
<g>
</g>
<g>
</g>
<g>
</g>
<g>
</g>
<g>
</g>
<g>
</g>
<g>
</g>
<g>
</g>
<g>
</g>
</svg>
