<?xml version="1.0" encoding="iso-8859-1"?>
<!-- Generator: Adobe Illustrator 19.0.0, SVG Export Plug-In . SVG Version: 6.00 Build 0)  -->
<svg version="1.1" id="Capa_1" xmlns="http://www.w3.org/2000/svg" xmlns:xlink="http://www.w3.org/1999/xlink" x="0px" y="0px"
	 viewBox="0 0 511.999 511.999" style="enable-background:new 0 0 511.999 511.999;" xml:space="preserve">
<path style="fill:#CD5B5B;" d="M410.785,471.194l-4.551-9.589c-5.461-11.51-13.62-21.258-23.55-28.595
	c-2.192-1.619-3.68-4.021-4.026-6.723c-3.456-27.016-26.534-47.898-54.49-47.898c-20.325,0-38.07,11.039-47.572,27.446
	c-1.328,2.293-3.918,3.547-6.546,3.217l0,0c-27.18-3.407-52.346,14.841-57.558,41.734l-2.148,11.085
	c-3.097,15.98,9.144,30.822,25.422,30.822h161.425C408.243,492.693,415.524,481.178,410.785,471.194z"/>
<path style="opacity:0.1;enable-background:new    ;" d="M311.374,379.889c-14.835,3.54-27.335,13.096-34.777,25.947
	c-1.328,2.293-3.918,3.547-6.546,3.217l0,0c-27.18-3.407-52.346,14.841-57.558,41.734l-2.148,11.085
	c-3.097,15.98,9.144,30.822,25.422,30.822h122.859C308.779,474.726,302.479,407.995,311.374,379.889z"/>
<g>
	<path style="fill:#FAE17C;" d="M360.685,454.196c-2.152,0-4.289-0.922-5.771-2.707c-14.14-17.016-18.836-36.306-18.515-48.684
		c0.105-4.142,3.556-7.433,7.69-7.302c4.141,0.107,7.409,3.55,7.302,7.69c-0.238,9.211,3.564,24.876,15.059,38.711
		c2.647,3.185,2.211,7.913-0.975,10.56C364.072,453.629,362.374,454.196,360.685,454.196z"/>
	<path style="fill:#FAE17C;" d="M330.34,459.437c-0.433,0-0.871-0.037-1.313-0.115c-4.079-0.72-6.801-4.609-6.081-8.688
		c2.742-15.539-0.744-32.528-1.89-38.11c-0.145-0.705-0.259-1.269-0.335-1.677c-0.754-4.073,1.936-7.985,6.009-8.739
		c4.063-0.751,7.984,1.936,8.739,6.009c0.063,0.339,0.159,0.807,0.279,1.393c1.288,6.275,5.205,25.374,1.967,43.731
		C337.074,456.877,333.91,459.437,330.34,459.437z"/>
</g>
<path style="fill:#498A68;" d="M354.774,411.024c-2.295,0-4.622-0.549-6.787-1.706c-14.555-7.778-23.874-19.544-26.937-23.411
	l-0.256-0.323c-4.959-6.239-3.921-15.315,2.318-20.274c6.241-4.958,15.317-3.921,20.274,2.318l0.287,0.363
	c2.367,2.989,8.655,10.927,17.916,15.875c7.028,3.756,9.681,12.498,5.925,19.527C364.915,408.254,359.929,411.024,354.774,411.024z"
	/>
<path style="fill:#5CB38E;" d="M233.107,438.818c-67.335,0-144.824,0-201.553-36.218c-9.708-6.197-4.094-21.166,7.323-19.642
	c44.924,5.997,82.659-5.438,104.177-23.961L233.107,438.818z"/>
<path style="opacity:0.1;enable-background:new    ;" d="M117.653,374.277c0.751,21.504,4.052,42.968,17.307,60.816
	c32.825,3.725,66.601,3.725,98.147,3.725l-90.054-79.822C136.156,364.934,127.585,370.137,117.653,374.277z"/>
<g>
	<path style="fill:#498A68;" d="M202.962,504.501c-0.572,0-1.146-0.022-1.726-0.066c-12.224-0.941-21.371-11.612-20.431-23.836
		c0.853-11.093-0.061-48.092-1.653-56.284c-3.654-10.999,1.809-23.098,12.698-27.534c11.357-4.626,24.308,0.828,28.934,12.181
		c5.985,14.69,4.561,71.488,4.287,75.043C224.175,495.647,214.448,504.5,202.962,504.501z M179.659,425.688
		c0.003,0.009,0.007,0.017,0.01,0.026C179.666,425.705,179.662,425.697,179.659,425.688z"/>
	<path style="fill:#498A68;" d="M283.469,504.501c-0.572,0-1.148-0.022-1.727-0.066c-12.225-0.941-21.371-11.613-20.431-23.836
		c0.854-11.092-0.061-48.086-1.653-56.283c-3.654-10.999,1.808-23.096,12.697-27.535c11.35-4.627,24.306,0.826,28.935,12.18
		c5.987,14.692,4.562,71.49,4.288,75.044C304.683,495.649,294.956,504.501,283.469,504.501z M260.167,425.69
		c0.003,0.009,0.007,0.016,0.01,0.025C260.173,425.706,260.17,425.699,260.167,425.69z"/>
</g>
<path style="opacity:0.1;enable-background:new    ;" d="M305.922,463.431c-0.018-18.869-0.831-45.147-4.632-54.471
	c-4.629-11.354-17.585-16.807-28.935-12.18c-10.889,4.439-16.351,16.536-12.697,27.535c1.277,6.573,2.117,31.653,1.96,47.055
	C278.757,470.245,293.441,467.626,305.922,463.431z"/>
<path style="opacity:0.1;enable-background:new    ;" d="M191.85,396.78c-10.889,4.437-16.351,16.535-12.698,27.534
	c1.113,5.725,1.893,25.515,1.972,40.705c12.595,3.643,27.275,5.826,44.249,6.635c0.206-18.449-0.196-51.91-4.589-62.692
	C216.158,397.608,203.207,392.154,191.85,396.78z"/>
<path style="fill:#5CB38E;" d="M342.343,360.495c0,51.824-7.039,89.323-101.349,89.323s-101.349-37.499-101.349-89.323
	s45.376-93.836,101.349-93.836C296.968,266.659,342.343,308.672,342.343,360.495z"/>
<path style="fill:#9BDFC1;" d="M342.343,360.495c0-0.413-0.011-0.824-0.017-1.236c-21.11-5.417-62.981-6.993-92.118,23.972
	c-21.233,22.566-24.305,46.915-22.028,66.336c4.082,0.166,8.349,0.25,12.814,0.25C335.303,449.819,342.343,412.32,342.343,360.495z"
	/>
<path style="opacity:0.05;enable-background:new    ;" d="M221.754,268.356c-46.771,8.323-82.109,46.408-82.109,92.14
	c0,47.987,6.047,83.686,81.813,88.71C179.39,406.508,187.526,318.347,221.754,268.356z"/>
<path style="fill:#5CB38E;" d="M334.023,131.518L334.023,131.518c-17.306-26.171-46.59-41.913-77.966-41.913h-38.569
	c-54.834,0-99.286,44.452-99.286,99.286v45.648c0,49.213,39.895,89.108,89.108,89.108h204.454c36.867,0,66.753-29.887,66.753-66.753
	v-31.069c0-36.867-29.887-66.753-66.753-66.753h-26.486C364.651,159.073,345.399,148.723,334.023,131.518z"/>
<g style="opacity:0.1;">
	<circle cx="172.131" cy="256.232" r="6.833"/>
	<circle cx="220.716" cy="266.661" r="6.833"/>
	<circle cx="192.909" cy="289.969" r="6.833"/>
</g>
<g>
	<ellipse style="fill:#FFA8CB;" cx="182.52" cy="169.452" rx="17.222" ry="8.835"/>
	<ellipse style="fill:#FFA8CB;" cx="298.147" cy="169.452" rx="17.222" ry="8.835"/>
</g>
<path style="opacity:0.05;enable-background:new    ;" d="M195.43,92.067c-44.217,10.031-77.229,49.571-77.229,96.823v45.648
	c0,49.213,39.895,89.108,89.108,89.108h54.071C182.634,277.828,169.286,151.883,195.43,92.067z"/>
<path style="fill:#498A68;" d="M204.646,404.128c-6.346,0-12.162-4.219-13.913-10.636c-2.097-7.688,2.436-15.62,10.124-17.718
	c10.142-2.766,18.041-9.114,21.015-11.504l0.355-0.284c6.219-4.983,15.3-3.978,20.282,2.242c4.981,6.22,3.978,15.3-2.243,20.282
	l-0.316,0.255c-3.848,3.093-15.557,12.503-31.5,16.85C207.181,403.964,205.903,404.128,204.646,404.128z"/>
<path style="fill:#DEE2E5;" d="M486.604,291.242c-2.377-3.4-3.196-7.598-2.445-11.677c2.083-11.309-1.244-23.418-9.991-32.164
	c-6.871-6.871-15.817-10.395-24.821-10.582c-4.161-0.086-8.187-1.561-11.2-4.433c-10.3-9.818-24.242-15.846-39.595-15.846
	s-29.296,6.029-39.595,15.846c-3.013,2.872-7.038,4.347-11.2,4.433c-9.004,0.187-17.95,3.711-24.821,10.582
	c-8.746,8.746-12.073,20.855-9.991,32.165c0.751,4.079-0.068,8.278-2.445,11.677c-5.252,7.512-8.337,16.65-8.337,26.513
	c0,20.375,13.147,37.669,31.418,43.885c5.432,1.848,9.924,5.758,12.18,11.035c8.762,20.492,29.095,34.852,52.791,34.852
	c23.696,0,44.029-14.361,52.79-34.852c2.256-5.276,6.747-9.187,12.18-11.035c18.271-6.216,31.418-23.51,31.418-43.885
	C494.941,307.892,491.857,298.755,486.604,291.242z"/>
<path style="fill:#495059;" d="M398.553,301.305L398.553,301.305c-12.391,0-22.435-10.045-22.435-22.435v-12.076
	c0-5.721,4.638-10.359,10.359-10.359h24.151c5.721,0,10.359,4.638,10.359,10.359v12.076
	C420.987,291.261,410.943,301.305,398.553,301.305z"/>
<path style="fill:#CD5B5B;" d="M287.716,77.117c-6.792-46.43-95.105-94.921-188.516-54.415
	c-64.593,28.01-79.086,95.97-40.569,142.413c15.512-45.734,27.265-81.111,72.391-59.434L287.716,77.117z"/>
<path style="opacity:0.1;enable-background:new    ;" d="M87.827,70.768c-10.932,6.559-13.24,12.011-18.125,18.196
	c-11.215,14.197-26.005,8.976-28.173-6.35c-8.786,27.468-3.233,57.983,17.102,82.501c15.512-45.734,27.265-81.111,72.391-59.434
	l44.236-8.064C151.398,57.671,107.698,58.846,87.827,70.768z"/>
<g>
	<path style="fill:#DEE2E5;" d="M294.603,109.952l-160.048,28.221c-10.839,1.911-21.174-5.325-23.086-16.164l-2.375-13.469
		c-1.911-10.839,5.326-21.174,16.164-23.086l160.049-28.221c10.839-1.911,21.174,5.325,23.086,16.164l2.375,13.469
		C312.679,97.705,305.442,108.041,294.603,109.952z"/>
	<path style="fill:#DEE2E5;" d="M46.825,138.513L46.825,138.513c5.928-7.819,17.682-7.819,23.611,0l0,0
		c1.193,1.573,3.142,2.38,5.097,2.111l0,0c9.721-1.337,18.032,6.975,16.695,16.695l0,0c-0.269,1.956,0.538,3.905,2.112,5.097l0,0
		c7.818,5.928,7.818,17.682,0,23.611l0,0c-1.573,1.193-2.38,3.142-2.112,5.097l0,0c1.337,9.721-6.974,18.032-16.695,16.695l0,0
		c-1.956-0.269-3.905,0.538-5.097,2.112l0,0c-5.928,7.819-17.682,7.819-23.611,0l0,0c-1.193-1.573-3.142-2.38-5.097-2.112l0,0
		c-9.721,1.337-18.032-6.975-16.695-16.695l0,0c0.269-1.956-0.538-3.905-2.111-5.097l0,0c-7.819-5.928-7.819-17.682,0-23.611l0,0
		c1.573-1.193,2.38-3.142,2.111-5.097l0,0c-1.337-9.721,6.975-18.032,16.695-16.695l0,0
		C43.684,140.893,45.633,140.086,46.825,138.513z"/>
</g>
<path d="M183.5,395.466c2.596,9.515,11.292,16.16,21.147,16.16c1.953,0,3.899-0.262,5.777-0.776
	c17.448-4.758,30.075-14.904,34.231-18.244l0.316-0.255c3.226-2.599,3.734-7.319,1.136-10.545
	c-2.599-3.227-7.318-3.733-10.545-1.136l-0.309,0.25c-3.547,2.851-14.34,11.524-28.781,15.461c-0.596,0.163-1.21,0.246-1.826,0.246
	c-3.111,0-5.856-2.102-6.677-5.108c-1.006-3.686,1.176-7.504,4.862-8.51c11.645-3.177,20.429-10.233,23.731-12.888l0.355-0.284
	c3.232-2.591,3.751-7.31,1.161-10.542c-2.591-3.232-7.31-3.752-10.541-1.16l-0.364,0.291c-2.641,2.122-9.656,7.758-18.288,10.113
	C187.22,371.723,180.318,383.802,183.5,395.466z M492.751,286.945c-1.187-1.698-1.619-3.836-1.216-6.022
	c1.953-10.608-0.093-21.42-5.519-30.449v-24.648c0-40.943-33.309-74.252-74.252-74.252h-26.486c-18.16,0-34.982-9.044-45-24.192
	c-6.579-9.95-14.735-18.485-24.26-25.501c2.362-5.057,3.126-10.704,2.136-16.315l-2.375-13.469
	c-2.626-14.893-16.879-24.869-31.77-22.248c-14.35-20.13-40.474-36.56-71.06-44.46C186.452-1.455,144.696-5.201,96.216,15.822
	C68.727,27.742,48.554,46.86,37.878,71.109c-8.802,19.994-10.235,41.924-4.268,62.713c-3.602,1.02-6.929,2.949-9.681,5.7
	c-4.702,4.702-7.021,11.079-6.457,17.65c-5.045,4.249-7.915,10.397-7.915,17.049c0,6.649,2.87,12.799,7.915,17.048
	c-0.564,6.57,1.755,12.948,6.457,17.65c4.702,4.702,11.082,7.014,17.652,6.459c4.248,5.044,10.397,7.914,17.048,7.914
	c6.65,0,12.8-2.87,17.048-7.914c6.573,0.566,12.95-1.757,17.652-6.459c4.702-4.702,7.02-11.08,6.457-17.65
	c5.044-4.249,7.915-10.397,7.915-17.048c0-6.65-2.87-12.8-7.915-17.049c0.563-6.57-1.755-12.947-6.457-17.65
	c-4.016-4.017-9.256-6.284-14.791-6.515c7.036-15.531,14.016-23.46,22.847-25.686c0.07,0.84,0.175,1.681,0.323,2.521l2.375,13.469
	c1.272,7.214,5.278,13.503,11.279,17.704c1.666,1.167,3.434,2.125,5.267,2.886c-6.517,14.028-9.929,29.391-9.929,44.989v45.647
	c0,29.937,13.796,57.336,36.023,75.264c-9.096,14.625-14.068,31.075-14.528,48.101c-22.603,15.789-56.768,22.372-92.328,17.623
	c-8.738-1.167-16.628,3.602-19.647,11.861c-2.992,8.185-0.059,16.839,7.296,21.534c44.414,28.358,99.457,34.426,142.856,36.408
	c0.939,0.452,1.892,0.894,2.87,1.32c0.478,13.35,0.529,27.594,0.085,33.374c-1.256,16.327,11.005,30.633,27.329,31.889
	c0.761,0.059,1.537,0.089,2.306,0.089c10.016-0.001,19.008-5.093,24.403-12.88c2.718,0.706,5.523,1.072,8.401,1.072h23.999
	c4.956,6.552,12.582,11.041,21.396,11.719c0.76,0.059,1.536,0.089,2.307,0.089c9.549,0,18.168-4.629,23.626-11.808h90.095
	c7.776,0,14.899-3.924,19.057-10.496c4.156-6.572,4.647-14.69,1.313-21.718l-4.551-9.589c-5.88-12.391-14.825-23.251-25.869-31.411
	c-0.585-0.432-0.965-1.03-1.043-1.644c-0.529-4.135-1.485-8.201-2.828-12.136c4.933,1.192,10.054,1.827,15.282,1.827
	c10.52,0,20.971-2.578,30.221-7.454c3.664-1.933,5.067-6.468,3.137-10.132c-1.932-3.663-6.465-5.068-10.132-3.137
	c-7.203,3.799-15.018,5.724-23.226,5.724c-20.01,0-38.024-11.894-45.895-30.303c-1.16-2.713-2.771-5.196-4.737-7.375
	c-0.119-0.136-0.242-0.268-0.371-0.395c-3.113-3.315-7.066-5.889-11.551-7.415c-15.751-5.358-26.334-20.141-26.334-36.785
	c0-7.999,2.415-15.681,6.983-22.216c3.505-5.012,4.809-11.168,3.675-17.333c-1.713-9.299,1.248-18.832,7.919-25.503
	c5.253-5.254,12.24-8.232,19.673-8.388c6.192-0.128,11.953-2.436,16.218-6.501c9.32-8.884,21.545-13.776,34.421-13.776
	c12.878,0,25.102,4.892,34.422,13.777c4.265,4.065,10.024,6.372,16.216,6.5c7.434,0.155,14.42,3.135,19.675,8.389
	c6.67,6.67,9.631,16.203,7.919,25.501c-1.136,6.162,0.168,12.318,3.674,17.332c4.569,6.536,6.984,14.219,6.984,22.218
	c0,16.644-10.583,31.427-26.335,36.785c-7.561,2.573-13.633,8.108-16.659,15.187c-0.764,1.787-1.643,3.548-2.612,5.233
	c-2.064,3.591-0.827,8.174,2.764,10.239c3.589,2.064,8.174,0.828,10.239-2.764c1.262-2.194,2.406-4.487,3.401-6.814
	c1.355-3.171,4.162-5.68,7.699-6.883c21.833-7.428,36.502-27.917,36.502-50.985C502.44,306.667,499.09,296.013,492.751,286.945z
	 M82.726,150.129c1.633,1.633,2.389,3.882,2.074,6.169c-0.638,4.635,1.283,9.269,5.009,12.095c1.841,1.395,2.897,3.52,2.897,5.83
	c0,2.31-1.056,4.435-2.895,5.828c-3.729,2.826-5.648,7.461-5.01,12.096c0.315,2.288-0.441,4.537-2.074,6.169
	c-1.633,1.634-3.878,2.391-6.168,2.076c-4.634-0.632-9.27,1.28-12.097,5.009c-1.396,1.84-3.521,2.895-5.83,2.895
	s-4.436-1.056-5.83-2.895c-2.468-3.255-6.313-5.13-10.331-5.13c-0.585,0-1.175,0.039-1.763,0.12
	c-2.286,0.317-4.538-0.441-6.17-2.075c-1.633-1.633-2.389-3.882-2.075-6.169c0.638-4.634-1.283-9.269-5.009-12.094
	c-1.84-1.396-2.896-3.521-2.896-5.83c0-2.311,1.056-4.436,2.895-5.829c3.729-2.826,5.648-7.461,5.01-12.096
	c-0.314-2.288,0.441-4.537,2.075-6.169c1.634-1.633,3.883-2.392,6.167-2.076c1.783,0.246,3.564,0.111,5.242-0.357
	c0.003-0.001,0.005-0.002,0.008-0.003c2.686-0.751,5.107-2.356,6.845-4.649c1.396-1.84,3.521-2.895,5.83-2.895
	c1.809,0,3.499,0.655,4.819,1.82c0.136,0.139,0.281,0.27,0.429,0.399c0.205,0.212,0.4,0.436,0.581,0.676
	c2.827,3.728,7.462,5.643,12.094,5.01C78.847,147.743,81.093,148.495,82.726,150.129z M106.254,89.348
	c-0.537,0.767-1.031,1.555-1.482,2.361c-20.163,1.007-31.537,16.824-39.585,34.418c-2.092-0.637-4.294-0.977-6.556-0.977
	c-3.954,0-7.726,1.021-11.031,2.903c-4.465-16.936-3.135-34.68,4.006-50.9c9.126-20.73,26.616-37.18,50.578-47.571
	c44.57-19.328,82.794-15.929,107.013-9.672c24.194,6.249,45.047,18.2,58.03,32.897L123.958,78.07
	C116.743,79.341,110.456,83.347,106.254,89.348z M118.856,120.706l-2.375-13.468c-0.356-2.019-0.192-4.008,0.381-5.841
	c0.015-0.051,0.029-0.101,0.043-0.152c1.38-4.227,4.982-7.581,9.657-8.406L281.6,65.502c0.005-0.001,0.01-0.002,0.016-0.003
	l4.993-0.881c0.726-0.128,1.449-0.189,2.164-0.189c5.914,0,11.172,4.25,12.234,10.271l2.375,13.468
	c0.692,3.927-0.559,7.748-3.048,10.498c-0.034,0.035-0.066,0.07-0.099,0.105c-1.779,1.921-4.165,3.307-6.935,3.796
	c-0.001,0-0.001,0-0.001,0l-160.048,28.221c-0.449,0.079-0.898,0.129-1.346,0.159c-0.155,0.002-0.309,0.002-0.464,0.013
	c-2.658,0.081-5.26-0.678-7.477-2.231C121.247,126.825,119.432,123.976,118.856,120.706z M35.589,396.277
	c-1.775-1.133-1.676-2.66-1.281-3.743c0.341-0.934,1.255-2.451,3.576-2.145c35.123,4.691,69.34-0.883,94.529-14.966
	c0.835,19.623,4.146,38.814,16.414,53.52C111.838,425.874,69.91,418.191,35.589,396.277z M217.594,483.429
	c-0.585,7.61-7.012,13.572-14.631,13.573c-0.384,0-0.771-0.015-1.151-0.044c-8.081-0.622-14.15-7.702-13.529-15.784
	c0.46-5.978,0.426-18.044,0.125-29.379c8.655,2.251,18.447,3.799,29.464,4.67C218.04,470.603,217.684,482.218,217.594,483.429z
	 M253.894,485.194h-18.127c-1.105,0-2.19-0.096-3.253-0.285c0.01-0.111,0.025-0.22,0.033-0.331
	c0.137-1.788,0.476-13.419,0.331-27.358c2.646,0.064,5.347,0.097,8.114,0.097c4.513,0,8.852-0.088,13.039-0.255
	c0.188,9.931,0.122,18.8-0.199,22.961C253.699,481.776,253.729,483.502,253.894,485.194z M298.102,483.429
	c-0.586,7.61-7.014,13.573-14.633,13.573c-0.385,0-0.771-0.015-1.151-0.044c-8.081-0.622-14.151-7.703-13.53-15.782
	c0.411-5.323,0.416-15.523,0.224-25.143c11.03-1.109,20.751-2.946,29.265-5.541C298.642,466.783,298.227,481.735,298.102,483.429z
	 M348.216,391.093c3.276,4.029,7.002,7.629,11.094,10.736c-1.24,1.072-2.835,1.697-4.535,1.697c-1.14,0-2.233-0.276-3.255-0.822
	c-1.625-0.868-3.246-1.841-4.851-2.892C347.301,396.948,347.808,394.037,348.216,391.093z M341.97,414.537
	c0.825,0.482,1.652,0.95,2.482,1.394c3.172,1.696,6.742,2.593,10.324,2.593c4.71,0,9.181-1.506,12.854-4.163
	c1.792,4.1,3.023,8.436,3.592,12.88c0.595,4.65,3.149,8.951,7.008,11.803c9.064,6.697,16.406,15.61,21.232,25.778l4.551,9.588
	c1.133,2.388,0.973,5.037-0.44,7.271c-1.412,2.233-3.737,3.514-6.379,3.514h-84.198c0.02-0.205,0.047-0.409,0.062-0.615
	c0.209-2.718,0.665-21.718,0.061-39.983c6.872-3.498,12.665-7.736,17.464-12.753C335.544,426.655,339.228,420.814,341.97,414.537z
	 M471.017,235.499c-6.449-3.868-13.824-6.018-21.516-6.177c-2.439-0.051-4.635-0.89-6.18-2.363
	c-12.121-11.555-28.02-17.918-44.769-17.918c-16.748,0-32.646,6.363-44.768,17.917c-1.547,1.475-3.742,2.313-6.182,2.364
	c-11.322,0.235-21.965,4.772-29.967,12.777c-10.161,10.159-14.67,24.673-12.065,38.825c0.402,2.187-0.029,4.325-1.216,6.021
	c-6.032,8.627-9.352,18.693-9.66,29.202H217.7c-4.142,0-7.499,3.357-7.499,7.499c0,4.143,3.358,7.499,7.499,7.499h78.659
	c4.441,17.318,17.321,31.646,34.805,37.595c1.298,0.441,2.496,1.062,3.561,1.824c-0.262,10.705-1.036,20.596-3.408,29.397
	c-0.288,0.649-0.481,1.325-0.575,2.01c-7.518,24.733-28.863,40.35-89.751,40.35c-5.226,0-10.198-0.113-14.923-0.342
	c-0.27-0.03-0.543-0.048-0.82-0.048c-0.013,0-0.027,0-0.04,0c-16.829-0.87-30.501-3.222-41.356-7.151
	c-0.458-0.227-0.942-0.409-1.445-0.538c-2.173-0.835-4.23-1.735-6.17-2.704c-0.34-0.211-0.699-0.391-1.073-0.547
	c-5.914-3.095-10.726-6.841-14.512-11.271c-8.34-9.76-13.51-23.071-13.51-59.224c0-14.904,4.125-29.363,11.976-42.212
	c7.251,4.176,15.122,7.468,23.505,9.677c0.641,0.169,1.284,0.25,1.917,0.25c3.323,0,6.36-2.226,7.247-5.59
	c1.056-4.005-1.336-8.106-5.34-9.162c-9.098-2.398-17.494-6.293-24.962-11.368c-0.043-0.032-0.081-0.069-0.125-0.101
	c-0.095-0.069-0.194-0.127-0.292-0.191c-21.649-14.908-35.368-39.82-35.368-67.261V188.89c0-15.216,3.778-30.166,10.942-43.47
	l60.207-10.616c-7.745,3.023-13.257,10.545-13.257,19.348c0,4.143,3.358,7.499,7.499,7.499c4.142,0,7.499-3.357,7.499-7.499
	c0-3.188,2.593-5.779,5.779-5.779c3.187,0,5.779,2.593,5.779,5.779c0,4.143,3.358,7.499,7.499,7.499
	c4.142,0,7.499-3.357,7.499-7.499c0-11.302-9.075-20.507-20.318-20.755l91.074-16.059h-0.001c3.734-0.658,7.216-2.054,10.293-4.074
	c8.509,6.096,15.757,13.602,21.57,22.391c12.803,19.36,34.301,30.919,57.511,30.919h26.486c32.672,0,59.254,26.581,59.254,59.254
	v9.672H471.017z M386.477,248.935c-9.848,0-17.858,8.011-17.858,17.858v12.077c0,16.506,13.429,29.935,29.935,29.935
	c16.506,0,29.935-13.429,29.935-29.935v-12.076c0-9.848-8.011-17.858-17.858-17.858L386.477,248.935L386.477,248.935z
	 M413.488,266.793v12.077c0,8.235-6.7,14.936-14.936,14.936c-8.235,0-14.936-6.7-14.936-14.936v-12.076
	c0-1.577,1.283-2.86,2.86-2.86h24.151C412.205,263.934,413.488,265.216,413.488,266.793z M276.297,133.373
	c-11.457,0-20.777,9.321-20.777,20.778c0,4.143,3.357,7.499,7.499,7.499c4.143,0,7.499-3.357,7.499-7.499
	c0-3.188,2.593-5.779,5.778-5.779c3.188,0,5.779,2.593,5.779,5.779c0,4.143,3.357,7.499,7.499,7.499s7.499-3.357,7.499-7.499
	C297.076,142.694,287.754,133.373,276.297,133.373z M376.78,187.108c-3.774,0-6.833,3.059-6.833,6.833
	c0,3.775,3.06,6.832,6.833,6.832s6.833-3.059,6.833-6.832C383.613,190.168,380.554,187.108,376.78,187.108z M420.325,187.108
	c-3.774,0-6.833,3.059-6.833,6.833c0,3.775,3.059,6.832,6.833,6.832c3.774,0,6.833-3.059,6.833-6.832
	C427.159,190.168,424.1,187.108,420.325,187.108z"/>
<g>
</g>
<g>
</g>
<g>
</g>
<g>
</g>
<g>
</g>
<g>
</g>
<g>
</g>
<g>
</g>
<g>
</g>
<g>
</g>
<g>
</g>
<g>
</g>
<g>
</g>
<g>
</g>
<g>
</g>
</svg>
