<?xml version="1.0" encoding="iso-8859-1"?>
<!-- Generator: Adobe Illustrator 19.0.0, SVG Export Plug-In . SVG Version: 6.00 Build 0)  -->
<svg version="1.1" id="Capa_1" xmlns="http://www.w3.org/2000/svg" xmlns:xlink="http://www.w3.org/1999/xlink" x="0px" y="0px"
	 viewBox="0 0 511.999 511.999" style="enable-background:new 0 0 511.999 511.999;" xml:space="preserve">
<path style="fill:#498A68;" d="M347.4,419.953c-6.043,0-11.593-3.998-13.296-10.104c-2.702-9.688-8.816-17.21-11.118-20.043
	l-0.274-0.337c-4.801-5.928-3.887-14.625,2.041-19.426c5.928-4.8,14.625-3.887,19.426,2.041l0.245,0.302
	c2.978,3.664,12.04,14.815,16.288,30.041c2.05,7.347-2.245,14.966-9.593,17.015C349.879,419.788,348.629,419.953,347.4,419.953z"/>
<path style="fill:#5CB38E;" d="M237.399,441.627c-64.456,0-138.632,0-192.935-34.669c-9.292-5.933-3.918-20.261,7.01-18.802
	c43.003,5.741,79.125-5.206,99.722-22.937L237.399,441.627z"/>
<path style="opacity:0.1;enable-background:new    ;" d="M126.882,379.845c0.718,20.584,3.878,41.131,16.567,58.216
	c31.422,3.565,63.753,3.566,93.95,3.566l-86.203-76.409C144.593,370.901,136.389,375.882,126.882,379.845z"/>
<g>
	<path style="fill:#498A68;" d="M208.543,504.5c-0.547,0-1.098-0.021-1.652-0.063c-11.701-0.901-20.457-11.115-19.557-22.817
		c0.817-10.618-0.059-46.035-1.582-53.878c-3.498-10.529,1.732-22.109,12.156-26.356c10.87-4.429,23.268,0.793,27.696,11.661
		c5.729,14.063,4.365,68.431,4.103,71.833C228.85,496.025,219.538,504.499,208.543,504.5z M186.236,429.058
		c0.003,0.007,0.006,0.016,0.009,0.023C186.242,429.074,186.239,429.066,186.236,429.058z"/>
	<path style="fill:#498A68;" d="M285.608,504.5c-0.547,0-1.098-0.021-1.652-0.063c-11.701-0.901-20.457-11.115-19.557-22.817
		c0.817-10.618-0.059-46.035-1.583-53.878c-3.498-10.529,1.732-22.109,12.156-26.356c10.871-4.429,23.268,0.793,27.696,11.661
		c5.729,14.064,4.366,68.432,4.104,71.833C305.915,496.025,296.603,504.499,285.608,504.5z M263.3,429.056
		c0.003,0.008,0.007,0.017,0.01,0.025C263.307,429.073,263.303,429.065,263.3,429.056z"/>
</g>
<path style="opacity:0.1;enable-background:new    ;" d="M307.1,465.187c-0.017-18.062-0.796-43.215-4.432-52.14
	c-4.428-10.868-16.825-16.091-27.696-11.661c-10.424,4.247-15.654,15.827-12.156,26.356c1.222,6.289,2.026,30.299,1.876,45.044
	C281.097,471.709,295.154,469.201,307.1,465.187z"/>
<path style="opacity:0.1;enable-background:new    ;" d="M197.907,401.385c-10.424,4.247-15.654,15.827-12.156,26.356
	c1.065,5.481,1.812,24.424,1.887,38.964c12.056,3.486,26.109,5.577,42.357,6.352c0.197-17.66-0.187-49.689-4.392-60.011
	C221.176,402.178,208.777,396.956,197.907,401.385z"/>
<path style="fill:#5CB38E;" d="M341.964,366.653c0,49.608-6.738,85.504-97.016,85.504c-90.277,0-97.016-35.896-97.016-85.504
	s43.435-89.823,97.016-89.823C298.529,276.83,341.964,317.045,341.964,366.653z"/>
<path style="fill:#9BDFC1;" d="M341.964,366.653c0-0.395-0.011-0.788-0.016-1.183c-20.207-5.186-60.288-6.694-88.179,22.948
	c-20.325,21.6-23.266,44.909-21.086,63.499c3.907,0.159,7.992,0.24,12.266,0.24C335.226,452.157,341.964,416.262,341.964,366.653z"
	/>
<path style="opacity:0.05;enable-background:new    ;" d="M226.531,278.453c-44.771,7.967-78.598,44.423-78.598,88.2
	c0,45.935,5.788,80.108,78.314,84.917C185.979,410.698,193.767,326.307,226.531,278.453z"/>
<path style="fill:#A3E3FF;" d="M206.375,418.152h-24.071c-5.419,0-9.812-4.393-9.812-9.812v-65.674h43.695v65.674
	C216.187,413.759,211.794,418.152,206.375,418.152z"/>
<path style="opacity:0.1;enable-background:new    ;" d="M172.492,370.081c14.5,2.365,29.08,4.075,43.695,5.135v-32.55h-43.695
	V370.081z"/>
<path style="fill:#FFFFFF;" d="M172.492,388.728v19.613c0,5.419,4.393,9.812,9.812,9.812h24.071c5.419,0,9.812-4.393,9.812-9.812
	v-19.613H172.492z"/>
<path style="fill:#A3E3FF;" d="M341.338,355.591L341.338,355.591c-59.134,10.904-119.763,10.904-178.896,0l0,0
	c-12.121-2.235-20.919-12.804-20.919-25.129v-18.517c0-14.112,11.44-25.553,25.553-25.553h169.629
	c14.112,0,25.553,11.44,25.553,25.553v18.517C362.257,342.787,353.459,353.356,341.338,355.591z"/>
<g>
	<path style="fill:#FFFFFF;" d="M184.357,359.122c14.893,2.058,29.856,3.433,44.843,4.123v-76.854h-44.843V359.122z"/>
	<path style="fill:#FFFFFF;" d="M274.579,363.246c14.987-0.69,29.95-2.065,44.843-4.123v-72.73h-44.843V363.246z"/>
</g>
<path style="fill:#5CB38E;" d="M333.999,147.467L333.999,147.467c-16.567-25.052-44.598-40.122-74.632-40.122h-36.92
	c-52.489,0-95.04,42.551-95.04,95.04v43.696c0,47.109,38.189,85.298,85.298,85.298h195.712c35.29,0,63.899-28.608,63.899-63.899
	v-29.739c0-35.29-28.608-63.899-63.899-63.899h-25.353C363.318,173.843,344.89,163.936,333.999,147.467z"/>
<g style="opacity:0.1;">
	<circle cx="179.03" cy="266.85" r="6.541"/>
	<circle cx="225.53" cy="276.83" r="6.541"/>
	<circle cx="198.92" cy="299.14" r="6.541"/>
</g>
<g>
	<ellipse style="fill:#FFA8CB;" cx="188.98" cy="177.4" rx="16.486" ry="8.458"/>
	<ellipse style="fill:#FFA8CB;" cx="299.66" cy="177.4" rx="16.486" ry="8.458"/>
</g>
<path style="opacity:0.05;enable-background:new    ;" d="M201.333,109.702c-42.327,9.602-73.927,47.451-73.927,92.683v43.696
	c0,47.109,38.189,85.298,85.298,85.298h51.759C189.084,287.521,176.307,166.961,201.333,109.702z"/>
<path style="fill:#498A68;" d="M256.063,425.619c-5.743,0-11.106-3.61-13.068-9.347c-3.256-9.523-9.798-16.684-12.261-19.38
	l-0.293-0.321c-5.136-5.64-4.727-14.376,0.914-19.512c5.64-5.137,14.376-4.727,19.511,0.914l0.262,0.286
	c3.187,3.489,12.886,14.106,18.004,29.074c2.468,7.217-1.382,15.07-8.6,17.538C259.052,425.378,257.545,425.619,256.063,425.619z"/>
<circle style="fill:#DEE2E5;" cx="238.77" cy="33.19" r="25.693"/>
<path style="fill:#A3E3FF;" d="M316.948,134.613H160.591c-10.532,0-19.069-8.538-19.069-19.07v-12.472
	c0-10.532,8.538-19.07,19.069-19.07h156.357c10.532,0,19.069,8.538,19.069,19.07v12.472
	C336.018,126.075,327.48,134.613,316.948,134.613z"/>
<path style="fill:#80B0E3;" d="M316.948,84.002c-9.884-23.527-37.984-42.627-78.178-42.627s-68.294,19.1-78.178,42.627H316.948z"/>
<path d="M413.745,272.632c-3.124-2.722-7.86-2.397-10.582,0.728c-1.867,2.143-4.562,3.371-7.393,3.371s-5.526-1.229-7.394-3.372
	c-2.723-3.122-7.46-3.447-10.582-0.727c-3.123,2.722-3.448,7.459-0.727,10.582c4.717,5.412,11.534,8.517,18.702,8.517
	s13.985-3.104,18.702-8.518C417.193,280.091,416.867,275.353,413.745,272.632z M416.612,200.679c-3.612,0-6.541,2.928-6.541,6.541
	s2.928,6.541,6.541,6.541c3.612,0,6.541-2.928,6.541-6.541S420.225,200.679,416.612,200.679z M408.417,166.343h-25.354
	c-17.276,0-33.279-8.603-42.809-23.013c-1.786-2.7-3.719-5.319-5.781-7.841c5.539-4.873,9.044-12.005,9.044-19.945v-12.473
	c0-12.945-9.308-23.751-21.581-26.093c-6.048-11.886-15.966-22.06-28.945-29.599c-6.541-3.799-13.74-6.823-21.428-9.041
	c0.264-1.691,0.399-3.408,0.399-5.146C271.964,14.891,257.073,0,238.77,0s-33.194,14.891-33.194,33.193
	c0,1.727,0.134,3.434,0.395,5.116c-5.761,1.669-11.264,3.801-16.477,6.404c-3.706,1.851-5.21,6.354-3.36,10.06
	c1.85,3.704,6.355,5.21,10.06,3.359c12.132-6.057,26.854-9.259,42.575-9.259c28.226,0,52.483,10.547,65.269,27.627H173.552
	c0.229-0.304,0.438-0.616,0.674-0.917c2.559-3.258,1.992-7.973-1.265-10.531c-3.256-2.558-7.971-1.992-10.531,1.266
	c-2.657,3.383-4.943,6.955-6.835,10.66c-12.269,2.345-21.573,13.149-21.573,26.092v12.473c0,8.393,3.916,15.884,10.011,20.756
	c-15.627,18.456-24.127,41.563-24.127,66.085v43.697c0,19.716,6.185,38.013,16.711,53.06c-1.698,4.035-2.596,8.378-2.596,12.802
	v18.518c0,7.979,2.85,15.389,7.663,21.163c-0.682,4.095-1.09,8.238-1.211,12.383c-21.572,14.996-54.123,21.237-88.008,16.714
	c-8.515-1.138-16.208,3.509-19.151,11.561c-2.917,7.979-0.059,16.417,7.113,20.995c42.558,27.171,95.268,32.996,136.84,34.898
	c0.823,0.395,1.659,0.782,2.513,1.157c0.451,12.706,0.497,26.213,0.075,31.711c-1.215,15.806,10.654,29.654,26.456,30.87
	c0.735,0.057,1.486,0.086,2.232,0.086c14.915-0.001,27.497-11.661,28.642-26.547c0.131-1.703,0.451-12.686,0.321-25.883
	c2.43,0.056,4.906,0.087,7.443,0.087c4.202,0,8.256-0.077,12.167-0.229c0.173,9.353,0.108,17.681-0.194,21.616
	c-1.215,15.806,10.654,29.654,26.456,30.87c0.735,0.057,1.486,0.086,2.232,0.086c8.92-0.001,17.186-4.051,22.681-11.11
	c2.544-3.27,1.956-7.981-1.313-10.525c-3.269-2.543-7.981-1.955-10.525,1.313c-2.632,3.383-6.585,5.322-10.844,5.323
	c-0.355,0-0.713-0.013-1.077-0.041c-7.559-0.582-13.236-7.205-12.654-14.765c0.389-5.061,0.398-14.681,0.22-23.803
	c10.273-1.052,19.368-2.77,27.373-5.176c0.119,5.538,0.14,10.656,0.128,14.55c-0.012,4.142,3.335,7.51,7.478,7.522h0.023
	c4.131,0,7.487-3.343,7.499-7.478c0.016-5.261-0.027-12.706-0.282-20.471c7.559-3.868,13.751-8.672,18.697-14.459
	c2.019-2.363,3.786-4.851,5.342-7.441c2.784,1.307,5.861,2.013,9.046,2.013c1.934,0,3.864-0.266,5.734-0.787
	c5.483-1.529,10.043-5.102,12.839-10.063c2.795-4.959,3.493-10.709,1.963-16.193c-4.671-16.737-14.472-28.794-17.686-32.747
	l-0.242-0.298c-0.175-0.216-0.361-0.425-0.545-0.635c0-0.026,0-0.052,0-0.077c0-1.864-0.064-3.74-0.18-5.614
	c9.625-3.92,16.778-12.108,19.377-22.159h39.755c39.369,0,71.398-32.029,71.398-71.399v-29.738
	C479.815,198.372,447.786,166.343,408.417,166.343z M256.854,35.173c-5.85-0.857-11.896-1.298-18.085-1.298
	c-6.236,0-12.268,0.434-18.088,1.278c-0.069-0.647-0.106-1.301-0.106-1.96c0-10.032,8.162-18.193,18.194-18.193
	s18.193,8.161,18.193,18.193C256.964,33.859,256.925,34.52,256.854,35.173z M149.022,103.071c0-6.372,5.178-11.557,11.548-11.568
	c0.006,0,0.012,0.001,0.018,0.001c0.009,0,0.018-0.002,0.027-0.002h156.31c0.009,0,0.018,0.002,0.027,0.002
	c0.006,0,0.012-0.001,0.018-0.001c6.37,0.012,11.548,5.197,11.548,11.568v12.473c0,6.379-5.19,11.569-11.569,11.569H160.591
	c-0.857,0-1.689-0.101-2.494-0.278c-0.075-0.018-0.148-0.042-0.223-0.057c-5.071-1.227-8.853-5.792-8.853-11.234v-12.473H149.022z
	 M48.5,400.636c-1.22-0.779-1.589-1.856-1.097-3.202c0.268-0.732,0.946-1.88,2.569-1.88c0.161,0,0.33,0.012,0.509,0.035
	c33.471,4.468,66.102-0.777,90.231-14.1c0.827,18.398,3.983,36.37,15.282,50.306C120.813,428.817,81.064,421.426,48.5,400.636z
	 M222.229,484.305c-0.547,7.118-6.56,12.694-13.686,12.695c-0.355,0-0.713-0.013-1.077-0.041
	c-7.559-0.582-13.236-7.205-12.654-14.765c0.435-5.66,0.41-16.995,0.132-27.728c8.125,2.081,17.284,3.524,27.553,4.35
	C222.648,472.168,222.314,483.148,222.229,484.305z M321.609,423.136c-4.31,5.043-10.013,9.16-17.255,12.393
	c-0.458,0.146-0.895,0.333-1.31,0.56c-9.996,4.213-22.8,6.826-38.76,7.939c-0.032,0.001-0.063-0.003-0.094-0.001
	c-0.204,0.006-0.404,0.027-0.603,0.049c-5.798,0.386-11.998,0.581-18.638,0.581c-4.992,0-9.74-0.108-14.253-0.326
	c-0.269-0.029-0.541-0.047-0.817-0.047c-0.012,0-0.025,0-0.038,0c-16.005-0.827-29.012-3.057-39.345-6.777
	c-0.508-0.26-1.048-0.464-1.613-0.601c-2.013-0.777-3.922-1.612-5.724-2.51c-0.186-0.116-0.378-0.225-0.577-0.326
	c-1.074-0.546-2.117-1.108-3.13-1.692c-4.435-2.638-8.145-5.711-11.163-9.243c-1.484-1.737-2.863-3.592-4.123-5.687
	c-5.334-9.383-8.296-23.18-8.684-45.229c-0.006-0.33-0.01-0.667-0.014-1.001c-0.013-0.939-0.022-1.891-0.026-2.86
	c-0.003-0.567-0.008-1.125-0.008-1.705c0-1.728,0.081-3.457,0.199-5.184c1.747,0.643,3.566,1.15,5.45,1.497
	c1.303,0.24,2.607,0.469,3.911,0.698v44.676c0,9.546,7.766,17.312,17.312,17.312h24.071c9.546,0,17.312-7.766,17.312-17.312v-8.883
	c0.326,0.896,0.827,1.746,1.51,2.494c2.174,2.379,7.949,8.699,10.701,16.747c2.95,8.626,11.053,14.421,20.165,14.421
	c2.341,0,4.661-0.387,6.898-1.15c11.119-3.804,17.071-15.942,13.269-27.062c-5.62-16.435-16.11-27.923-19.557-31.698l-3.798,3.459
	l-7.28,6.655c2.926,3.205,11.831,12.956,16.441,26.438c1.126,3.293-0.637,6.889-3.927,8.014c-0.669,0.228-1.358,0.345-2.047,0.345
	c-2.697,0-5.097-1.718-5.971-4.274c-3.764-11.006-11.07-19.002-13.821-22.013c-2.794-3.058-7.538-3.271-10.596-0.478
	c-0.927,0.847-1.588,1.874-1.987,2.977v-23.833c9.396,0.534,18.799,0.801,28.202,0.801c27.562-0.001,55.133-2.302,82.537-6.887
	c0.022,0.748,0.037,1.495,0.037,2.24C334.464,392.237,332.314,410.61,321.609,423.136z M179.992,408.341v-42.263
	c9.551,1.389,19.118,2.501,28.695,3.335v38.928c0,1.274-1.037,2.312-2.312,2.312h-24.071
	C181.029,410.652,179.992,409.615,179.992,408.341z M353.488,404.44c0.453,1.625,0.246,3.328-0.582,4.797s-2.178,2.527-3.804,2.98
	c-1.566,0.436-3.223,0.202-4.621-0.53c2.014-6.335,3.227-13.022,3.949-19.868C350.37,395.541,352.189,399.783,353.488,404.44z
	 M339.978,348.215c-40.712,7.508-81.823,9.78-122.778,6.829c-0.332-0.045-0.668-0.076-1.013-0.076c-0.002,0-0.004,0-0.006,0
	c-17.504-1.298-34.978-3.544-52.38-6.753c-3.504-0.646-6.604-2.289-9.057-4.589c-0.041-0.037-0.079-0.077-0.122-0.113
	c-3.47-3.314-5.6-7.965-5.6-13.051v-16.947c16.631,15.715,39.05,25.365,63.683,25.365H352.67
	C350.175,343.658,345.603,347.178,339.978,348.215z M464.815,267.48c0,31.099-25.3,56.399-56.398,56.399H212.705
	c-42.898,0-77.798-34.9-77.798-77.798v-43.697c0-22.705,8.551-43.98,24.129-60.321c0.515,0.03,1.033,0.049,1.555,0.049h156.357
	c1.107,0,2.196-0.076,3.268-0.208c2.756,3.051,5.28,6.3,7.527,9.699c12.314,18.622,32.995,29.739,55.32,29.739h25.354
	c31.098,0,56.398,25.301,56.398,56.399L464.815,267.48L464.815,267.48z M278.742,144.917c-4.142,0-7.5,3.357-7.5,7.5v8.215
	c0,4.143,3.358,7.5,7.5,7.5s7.5-3.357,7.5-7.5v-8.215C286.242,148.274,282.884,144.917,278.742,144.917z M209.892,144.917
	c-4.142,0-7.5,3.357-7.5,7.5v8.215c0,4.143,3.358,7.5,7.5,7.5s7.5-3.357,7.5-7.5v-8.215
	C217.392,148.274,214.034,144.917,209.892,144.917z M381.469,207.22c0-3.612-2.928-6.541-6.541-6.541s-6.541,2.928-6.541,6.541
	s2.928,6.541,6.541,6.541S381.469,210.832,381.469,207.22z M251.129,378.26l1.747-1.591l3.792-3.466L251.129,378.26z"/>
<g>
</g>
<g>
</g>
<g>
</g>
<g>
</g>
<g>
</g>
<g>
</g>
<g>
</g>
<g>
</g>
<g>
</g>
<g>
</g>
<g>
</g>
<g>
</g>
<g>
</g>
<g>
</g>
<g>
</g>
</svg>
