<?xml version="1.0" encoding="iso-8859-1"?>
<!-- Generator: Adobe Illustrator 19.0.0, SVG Export Plug-In . SVG Version: 6.00 Build 0)  -->
<svg version="1.1" id="Capa_1" xmlns="http://www.w3.org/2000/svg" xmlns:xlink="http://www.w3.org/1999/xlink" x="0px" y="0px"
	 viewBox="0 0 512.001 512.001" style="enable-background:new 0 0 512.001 512.001;" xml:space="preserve">
<path style="fill:#DEE2E5;" d="M334.403,131.029l-28.762-16.605l11.647-53.009c3.409-15.518,10.74-29.904,21.291-41.784l0,0
	c11.418-12.855,30.299-15.912,45.19-7.316l0,0c14.89,8.597,21.684,26.477,16.26,42.793l0,0
	c-5.012,15.077-13.806,28.618-25.541,39.33L334.403,131.029z"/>
<path style="fill:#FFA8CB;" d="M401.572,40.402c-14.89-8.597-33.773-5.54-45.19,7.316l0,0
	c-10.551,11.88-17.881,26.265-21.291,41.784l-8.175,37.206l7.486,4.322l40.084-36.591c11.735-10.712,20.529-24.253,25.541-39.33l0,0
	c1.604-4.826,2.132-9.789,1.705-14.608C401.679,40.468,401.627,40.433,401.572,40.402L401.572,40.402z"/>
<path style="fill:#DEE2E5;" d="M213.672,131.029l28.762-16.605l-11.647-53.009c-3.409-15.518-10.74-29.904-21.291-41.784l0,0
	c-11.418-12.855-30.299-15.912-45.19-7.316l0,0c-14.89,8.597-21.685,26.477-16.26,42.793l0,0
	c5.012,15.077,13.806,28.618,25.541,39.33L213.672,131.029z"/>
<path style="fill:#FFA8CB;" d="M146.503,40.402c14.89-8.597,33.773-5.54,45.19,7.316l0,0c10.551,11.88,17.881,26.265,21.291,41.784
	l8.175,37.206l-7.486,4.322l-40.085-36.592c-11.735-10.712-20.529-24.253-25.541-39.33l0,0c-1.605-4.826-2.132-9.789-1.705-14.608
	C146.396,40.468,146.448,40.433,146.503,40.402L146.503,40.402z"/>
<path style="fill:#498A68;" d="M135.776,399.643c-5.332,0-10.413-3.1-12.682-8.3c-3.056-7.001,0.14-15.153,7.141-18.21
	c14.506-6.334,28.895-6.353,33.624-6.359l0.389-0.001c0.014,0,0.028,0,0.042,0c7.62,0,13.807,6.165,13.83,13.789
	c0.023,7.639-6.151,13.849-13.79,13.872l-0.435,0.001c-3.654,0.004-13.361,0.018-22.591,4.048
	C139.501,399.271,137.623,399.643,135.776,399.643z"/>
<path style="fill:#5CB38E;" d="M260.465,441.538c64.543,0,138.82,0,193.197-34.717c9.305-5.94,3.923-20.289-7.02-18.827
	c-43.061,5.748-79.232-5.212-99.857-22.969L260.465,441.538z"/>
<path style="opacity:0.1;enable-background:new    ;" d="M371.133,379.673c-0.719,20.613-3.883,41.187-16.589,58.295
	c-31.465,3.57-63.839,3.57-94.078,3.57l86.321-76.512C353.396,370.716,361.612,375.704,371.133,379.673z"/>
<g>
	<path style="fill:#498A68;" d="M293.883,504.027c-6.533,0.001-12.977-2.996-17.149-8.659
		c-21.235-28.827-10.061-79.219-9.938-79.716c2.818-11.408,14.35-18.378,25.76-15.553c11.408,2.817,18.372,14.348,15.555,25.757l0,0
		c-2.188,9.008-3.392,35.75,2.885,44.272c6.97,9.462,4.95,22.783-4.511,29.752C302.686,502.677,298.264,504.027,293.883,504.027z"/>
	<path style="fill:#498A68;" d="M212.225,504.5c-8.136,0.001-15.901-4.691-19.437-12.598c-14.707-32.892,2.14-78.543,2.319-78.984
		c4.434-10.882,16.849-16.11,27.734-11.676c10.88,4.433,16.108,16.845,11.679,27.726c-2.547,6.435-8.42,33.181-2.883,45.563
		c4.796,10.729-0.011,23.314-10.739,28.11C218.079,503.903,215.127,504.5,212.225,504.5z"/>
</g>
<path style="opacity:0.1;enable-background:new    ;" d="M222.842,401.243c-10.885-4.434-23.3,0.794-27.734,11.676
	c-0.131,0.322-9.178,24.835-8.273,50.849c12.237,4.625,26.829,7.537,44.074,8.823c-4.228-13.037,1.191-37.504,3.613-43.622
	C238.95,418.088,233.723,405.676,222.842,401.243z"/>
<path style="opacity:0.1;enable-background:new    ;" d="M308.111,425.855c2.817-11.409-4.147-22.94-15.555-25.757
	c-11.411-2.824-22.942,4.145-25.76,15.553c-0.095,0.383-6.762,30.455-0.06,57.417c16.308-0.71,30.418-2.736,42.551-6.137
	C304.983,456.257,306.149,433.931,308.111,425.855z"/>
<path style="fill:#5CB38E;" d="M155.759,366.462c0,49.676,6.748,85.62,97.148,85.62s97.148-35.945,97.148-85.62
	c0-49.676-43.494-89.945-97.148-89.945S155.759,316.787,155.759,366.462z"/>
<path style="fill:#9BDFC1;" d="M155.759,366.463c0-0.396,0.011-0.789,0.016-1.184c20.235-5.192,60.37-6.703,88.299,22.979
	c20.353,21.63,23.298,44.971,21.115,63.585c-3.912,0.159-8.003,0.24-12.282,0.24C162.506,452.083,155.759,416.138,155.759,366.463z"
	/>
<path style="opacity:0.05;enable-background:new    ;" d="M271.348,278.143c44.832,7.979,78.704,44.484,78.704,88.32
	c0,45.997-5.796,80.216-78.421,85.033C311.955,410.567,304.156,326.062,271.348,278.143z"/>
<path style="fill:#5CB38E;" d="M163.734,146.978L163.734,146.978c16.589-25.086,44.658-40.176,74.733-40.176h36.97
	c52.56,0,95.17,42.608,95.17,95.17v43.756c0,47.173-38.241,85.414-85.414,85.414H89.215c-35.338,0-63.985-28.647-63.985-63.985
	v-29.779c0-35.338,28.647-63.985,63.985-63.985h25.388C134.375,173.39,152.828,163.471,163.734,146.978z"/>
<path style="fill:#FFFFFF;" d="M101.879,287.198c-6.318,0-12.251-1.621-17.425-4.455v22.554c0,3.076,2.494,5.569,5.569,5.569h23.711
	c3.076,0,5.57-2.494,5.57-5.569v-22.554C114.13,285.576,108.197,287.198,101.879,287.198z"/>
<g style="opacity:0.1;">
	<circle cx="318.906" cy="266.522" r="6.55"/>
	<circle cx="272.342" cy="276.513" r="6.55"/>
	<circle cx="298.994" cy="298.855" r="6.55"/>
</g>
<g>
	<ellipse style="fill:#FFA8CB;" cx="308.955" cy="176.955" rx="16.508" ry="8.469"/>
	<ellipse style="fill:#FFA8CB;" cx="198.126" cy="176.955" rx="16.508" ry="8.469"/>
</g>
<path style="opacity:0.05;enable-background:new    ;" d="M296.58,109.162c42.384,9.616,74.027,47.515,74.027,92.808v43.756
	c0,47.173-38.241,85.414-85.414,85.414h-51.829C308.846,287.223,321.64,166.499,296.58,109.162z"/>
<path style="fill:#498A68;" d="M274.978,396.389c-6.225,0-11.879-4.231-13.424-10.549c-1.814-7.42,2.729-14.905,10.149-16.72
	l0.381-0.094c4.594-1.131,18.576-4.576,34.184-1.912c7.53,1.285,12.592,8.432,11.306,15.961
	c-1.285,7.531-8.428,12.599-15.961,11.306c-9.928-1.692-19.361,0.63-22.913,1.503l-0.427,0.105
	C277.17,396.261,276.066,396.389,274.978,396.389z"/>
<path style="fill:#DEE2E5;" d="M454.585,358.676L454.585,358.676c7.408-4.333,16.905-0.399,19.079,7.903l0,0
	c0.437,1.67,1.742,2.975,3.412,3.412l0,0c8.303,2.173,12.236,11.672,7.903,19.08l0,0c-0.872,1.49-0.872,3.335,0,4.825l0,0
	c4.333,7.408,0.399,16.905-7.903,19.08l0,0c-1.67,0.437-2.974,1.742-3.412,3.412l0,0c-2.173,8.303-11.672,12.236-19.079,7.903l0,0
	c-1.49-0.872-3.335-0.872-4.825,0l0,0c-7.408,4.333-16.905,0.399-19.079-7.903l0,0c-0.437-1.67-1.742-2.975-3.412-3.412l0,0
	c-8.303-2.173-12.236-11.672-7.903-19.08l0,0c0.872-1.49,0.872-3.335,0-4.825l0,0c-4.333-7.408-0.399-16.905,7.903-19.08l0,0
	c1.67-0.437,2.974-1.742,3.412-3.412l0,0c2.173-8.303,11.672-12.236,19.079-7.903l0,0
	C451.25,359.548,453.095,359.548,454.585,358.676z"/>
<path d="M492.696,374.697c-2.271-5.482-6.679-9.609-12.226-11.511c-1.902-5.548-6.028-9.956-11.512-12.227
	c-5.482-2.271-11.517-2.071-16.785,0.505c-5.267-2.576-11.301-2.777-16.785-0.505c-5.482,2.271-9.61,6.679-11.512,12.227
	c-5.547,1.901-9.955,6.027-12.226,11.51c-0.902,2.177-1.408,4.44-1.537,6.709c-20.518-1.885-38.823-7.991-52.612-17.588
	c-0.465-16.214-5.181-31.884-13.794-45.836c21.255-17.192,34.401-43.397,34.401-72.254v-43.756
	c0-28.475-11.655-54.276-30.441-72.893l31.879-29.1c12.652-11.549,22.197-26.246,27.602-42.503
	c1.822-5.481,2.487-11.129,2.112-16.646c0.028-0.647-0.035-1.291-0.171-1.919c-1.516-13.489-9.263-25.986-21.568-33.091
	c-17.891-10.329-40.832-6.614-54.548,8.83c-11.377,12.809-19.333,28.423-23.009,45.156l-9.364,42.62
	c-8.055-2.036-16.482-3.123-25.161-3.123H246.79l-8.678-39.496c-3.676-16.732-11.632-32.348-23.008-45.156
	c-13.717-15.443-36.658-19.157-54.548-8.83c-12.392,7.154-20.156,19.777-21.595,33.374c-0.072,0.406-0.108,0.817-0.113,1.231
	c-0.437,5.646,0.213,11.435,2.079,17.05c5.404,16.257,14.949,30.954,27.601,42.503l16.664,15.212
	c-10.849,7.124-20.317,16.459-27.717,27.651c-9.544,14.432-25.572,23.049-42.874,23.049H89.215
	c-39.417,0-71.486,32.068-71.486,71.486v29.779c0,39.417,32.069,71.486,71.486,71.486h63.376
	c-2.255,7.045-3.633,14.297-4.123,21.694c-7.615,1.11-14.737,3.087-21.236,5.925c-10.779,4.707-15.719,17.306-11.013,28.083
	c3.393,7.776,11.07,12.8,19.557,12.8c2.948,0,5.818-0.601,8.529-1.785c2.062-0.9,4.326-1.621,6.761-2.167
	c2.276,10.882,6.359,21.036,13.665,29.583c4.205,4.92,9.316,9.127,15.394,12.657c-1.021,9.163-1.127,17.825-0.289,25.803
	c0.405,3.854,3.66,6.719,7.451,6.719c0.262,0,0.526-0.014,0.793-0.042c4.119-0.433,7.109-4.123,6.676-8.243
	c-0.579-5.512-0.626-11.455-0.169-17.735c7.918,2.713,16.983,4.688,27.294,5.949c-0.252,8.194,0.718,14.809,2.911,19.712
	c3.101,6.936-0.018,15.101-6.953,18.201c-1.79,0.8-3.678,1.205-5.614,1.205h-0.002c-3.574,0-7.091-1.432-9.646-3.928
	c-2.963-2.895-7.711-2.841-10.607,0.123c-2.895,2.963-2.839,7.712,0.123,10.606c5.333,5.211,12.67,8.2,20.129,8.2h0.005
	c4.058,0,8.007-0.845,11.735-2.512c14.486-6.479,21.002-23.533,14.524-38.021c-1.171-2.619-1.724-6.934-1.628-12.294
	c5.093,0.273,10.439,0.409,16.048,0.409c1.338,0,2.66-0.008,3.968-0.024c1.594,16.434,6.23,29.953,13.821,40.257
	c5.402,7.334,14.068,11.711,23.183,11.711h0.004c6.173,0,12.07-1.939,17.051-5.608c6.19-4.559,10.233-11.256,11.385-18.857
	s-0.724-15.194-5.283-21.385c-0.991-1.344-2.561-5.866-3.039-14.744c2.328-0.88,4.556-1.826,6.677-2.844
	c29.264-1.342,71.079-5.02,108.38-20.237c1.809,1.733,3.932,3.159,6.336,4.154c5.483,2.272,11.517,2.073,16.785-0.505
	c2.825,1.383,5.87,2.08,8.933,2.08c2.648,0,5.309-0.522,7.853-1.575c5.482-2.271,9.61-6.679,11.512-12.227
	c5.547-1.901,9.955-6.027,12.226-11.511c2.271-5.483,2.073-11.519-0.505-16.786C494.769,386.215,494.967,380.18,492.696,374.697z
	 M138.3,391.611c-0.806,0.352-1.655,0.53-2.524,0.53c-2.52,0-4.8-1.491-5.808-3.8c-1.396-3.198,0.07-6.939,3.268-8.335
	c4.626-2.02,9.691-3.502,15.11-4.457c0.094,4.266,0.282,8.53,0.631,12.747C145.156,389.073,141.581,390.178,138.3,391.611z
	 M392.911,52.742c-4.597,13.829-12.717,26.332-23.48,36.157l-33.182,30.29l6.168-28.079c3.127-14.233,9.896-27.516,19.574-38.412
	c8.139-9.166,21.215-12.017,32.334-7.483C394.196,47.732,393.735,50.263,392.911,52.742z M324.613,63.024
	c3.127-14.233,9.896-27.517,19.574-38.413c9.01-10.145,24.079-12.585,35.832-5.8c4.21,2.431,7.604,5.826,10.034,9.771
	c-14.305-2.145-29.253,2.868-39.277,14.155c-11.376,12.809-19.333,28.423-23.009,45.155l-5.045,22.967
	c-2.544-1.326-5.149-2.548-7.812-3.661L324.613,63.024z M168.057,18.81c11.751-6.785,26.82-4.345,35.832,5.8
	c9.678,10.897,16.445,24.18,19.573,38.413l8.027,36.535c-2.827,0.202-5.631,0.52-8.405,0.961l-2.775-12.63
	c-3.676-16.731-11.632-32.347-23.008-45.155c-10.025-11.287-24.973-16.3-39.276-14.156C160.454,24.636,163.846,21.241,168.057,18.81
	z M178.643,88.899c-10.763-9.825-18.882-22.328-23.48-36.157c-0.824-2.478-1.285-5.008-1.414-7.528
	c11.116-4.533,24.194-1.682,32.334,7.484c9.678,10.897,16.445,24.179,19.573,38.412l2.837,12.912
	c-3.186,1.031-6.309,2.231-9.36,3.581L178.643,88.899z M307.487,484.813c-0.551,3.638-2.487,6.845-5.45,9.026
	c-2.385,1.758-5.205,2.687-8.156,2.687h-0.002c-4.433,0-8.482-2.044-11.106-5.606c-5.837-7.925-9.478-18.647-10.872-31.924
	c10.131-0.663,19.231-1.89,27.356-3.71c0.782,8.736,2.69,15.204,5.7,19.291C307.141,477.538,308.039,481.174,307.487,484.813z
	 M315.875,433.751c-0.367,0.153-0.721,0.33-1.056,0.537c-3.018,1.505-6.33,2.838-9.943,4.006c-0.533,0.106-1.044,0.269-1.53,0.482
	c-10.592,3.21-23.682,5.059-39.567,5.62c-0.074,0-0.147-0.006-0.222-0.004c-0.06,0.002-0.117,0.012-0.177,0.016
	c-3.367,0.114-6.856,0.172-10.476,0.172c-7.953,0-15.279-0.278-22.031-0.833c-0.076-0.01-0.149-0.027-0.225-0.035
	c-0.184-0.019-0.367-0.024-0.549-0.03c-15.856-1.362-28.442-4.299-38.13-8.918c-0.295-0.171-0.605-0.32-0.926-0.451
	c-6.136-3.052-11.077-6.803-14.911-11.289c-7.949-9.301-12.875-22.007-12.875-56.565c0-9.585,1.772-18.919,5.249-27.82h103.206
	c4.142,0,7.501-3.357,7.501-7.501s-3.358-7.501-7.501-7.501H89.215c-31.145,0-56.485-25.339-56.485-56.485v-29.779
	c0-31.145,25.339-56.485,56.485-56.485h25.388c22.352,0,43.057-11.131,55.386-29.775c7.863-11.891,18.485-21.301,30.717-27.634
	c0.36-0.15,0.707-0.333,1.044-0.54c5.392-2.694,11.089-4.789,16.991-6.245c0.07-0.013,0.139-0.019,0.209-0.034
	c0.142-0.031,0.278-0.075,0.416-0.114c6.181-1.472,12.583-2.247,19.101-2.247h2.337c0.029,0,0.057,0.001,0.085,0h34.547
	c48.341,0,87.669,39.328,87.669,87.669v43.756c0,26.084-12.8,49.592-33.125,63.825c-0.319,0.168-0.633,0.353-0.933,0.572
	c-0.169,0.124-0.327,0.257-0.483,0.391c-7.402,4.942-15.744,8.687-24.804,10.901c-4.023,0.983-6.489,5.042-5.505,9.066
	c0.984,4.024,5.042,6.493,9.067,5.505c8.573-2.095,16.601-5.345,23.966-9.536c7.382,12.197,11.263,25.894,11.263,40.01
	c0,25.621-2.154,44.021-12.875,56.565C326.077,427.24,321.501,430.804,315.875,433.751z M342.002,431.651
	c11.291-13.95,14.445-31.935,15.272-50.344c14.995,8.32,33.28,13.543,53.193,15.164c-0.779,3.904-0.398,7.985,1.182,11.799
	c1.315,3.176,3.365,5.876,5.92,7.973C396.628,424.013,372.021,429.032,342.002,431.651z M450.802,352.2
	c-0.001,0-0.002,0.001-0.004,0.002h-0.001C450.799,352.201,450.8,352.2,450.802,352.2z M478.504,397.683
	c0.87,1.487,0.991,3.253,0.331,4.845c-0.659,1.591-1.993,2.754-3.66,3.191c-4.286,1.122-7.646,4.482-8.768,8.768
	c-0.436,1.666-1.6,3-3.191,3.659c-1.592,0.659-3.357,0.538-4.843-0.33c-1.913-1.12-4.057-1.679-6.201-1.679
	c-2.143,0-4.288,0.559-6.199,1.678c-1.486,0.869-3.252,0.991-4.844,0.331c-1.18-0.488-2.121-1.349-2.709-2.438
	c-0.015-0.034-0.025-0.069-0.04-0.103c-0.039-0.089-0.088-0.171-0.13-0.257c-0.124-0.276-0.233-0.56-0.312-0.86
	c-1.122-4.286-4.481-7.648-8.769-8.771c-1.666-0.436-2.999-1.599-3.659-3.19c-0.66-1.592-0.539-3.357,0.331-4.844
	c2.009-3.433,2.199-7.606,0.603-11.191c-0.104-0.239-0.22-0.471-0.347-0.697c-0.089-0.17-0.158-0.346-0.256-0.513
	c-0.87-1.487-0.991-3.253-0.331-4.845c0.659-1.591,1.993-2.754,3.66-3.19c4.286-1.122,7.646-4.482,8.768-8.768
	c0.437-1.666,1.6-3,3.191-3.659c1.59-0.66,3.356-0.539,4.843,0.33c3.825,2.238,8.577,2.238,12.402,0
	c1.486-0.867,3.251-0.99,4.843-0.33c1.592,0.659,2.755,1.993,3.191,3.658c1.122,4.286,4.481,7.647,8.77,8.771
	c1.666,0.436,3,1.599,3.659,3.189c0.659,1.592,0.539,3.357-0.332,4.846C476.267,389.108,476.267,393.859,478.504,397.683z
	 M219.066,144.434c-4.142,0-7.501,3.357-7.501,7.501v8.227c0,4.143,3.358,7.501,7.501,7.501c4.142,0,7.501-3.357,7.501-7.501v-8.227
	C226.566,147.792,223.208,144.434,219.066,144.434z M288.009,167.662c4.142,0,7.501-3.357,7.501-7.501v-8.227
	c0-4.143-3.358-7.501-7.501-7.501s-7.501,3.357-7.501,7.501v8.227C280.509,164.304,283.867,167.662,288.009,167.662z
	 M122.749,213.363c3.617,0,6.55-2.932,6.55-6.55c0-3.617-2.932-6.55-6.55-6.55c-3.617,0-6.55,2.932-6.55,6.55
	C116.199,210.429,119.132,213.363,122.749,213.363z M307.53,359.721c-17.146-2.927-32.27,0.799-37.219,2.019l-0.381,0.093
	c-4.025,0.978-6.495,5.035-5.515,9.061c0.98,4.025,5.032,6.498,9.062,5.515l0.403-0.098c4.218-1.04,17.059-4.202,31.126-1.801
	c1.667,0.284,3.123,1.2,4.1,2.58c0.978,1.38,1.359,3.058,1.074,4.725c-0.285,1.668-1.201,3.126-2.581,4.103
	c-1.378,0.976-3.053,1.355-4.726,1.069c-11.463-1.952-21.998,0.638-25.959,1.613l-0.425,0.104c-0.499,0.122-1.007,0.184-1.512,0.184
	c-4.142,0-7.501,3.358-7.501,7.501c0,4.143,3.358,7.501,7.501,7.501c1.707,0,3.416-0.207,5.082-0.615l0.435-0.106
	c3.136-0.773,11.47-2.822,19.849-1.395c5.62,0.965,11.278-0.32,15.93-3.616c4.647-3.294,7.735-8.202,8.694-13.818
	c0.959-5.616-0.327-11.271-3.62-15.921C318.054,363.77,313.147,360.68,307.53,359.721z M81.009,213.363
	c3.617,0,6.55-2.932,6.55-6.55c0-3.617-2.932-6.55-6.55-6.55s-6.55,2.932-6.55,6.55C74.459,210.429,77.391,213.363,81.009,213.363z
	 M134.227,269.051c-3.123-2.722-7.861-2.396-10.583,0.727c-5.494,6.304-13.428,9.92-21.766,9.92s-16.271-3.615-21.766-9.92
	c-2.722-3.122-7.46-3.447-10.583-0.727c-3.123,2.722-3.448,7.461-0.726,10.583c8.344,9.574,20.399,15.064,33.075,15.064
	s24.731-5.49,33.075-15.064C137.675,276.512,137.35,271.772,134.227,269.051z"/>
<g>
</g>
<g>
</g>
<g>
</g>
<g>
</g>
<g>
</g>
<g>
</g>
<g>
</g>
<g>
</g>
<g>
</g>
<g>
</g>
<g>
</g>
<g>
</g>
<g>
</g>
<g>
</g>
<g>
</g>
</svg>
