<?xml version="1.0" encoding="iso-8859-1"?>
<!-- Generator: Adobe Illustrator 19.0.0, SVG Export Plug-In . SVG Version: 6.00 Build 0)  -->
<svg version="1.1" id="Capa_1" xmlns="http://www.w3.org/2000/svg" xmlns:xlink="http://www.w3.org/1999/xlink" x="0px" y="0px"
	 viewBox="0 0 512.004 512.004" style="enable-background:new 0 0 512.004 512.004;" xml:space="preserve">
<path style="fill:#498A68;" d="M366.963,382.826c-5.668,0-11.151-3.044-14.008-8.393c-5.443-10.184-14.172-17.098-17.458-19.7
	l-0.399-0.317c-6.86-5.452-8.002-15.433-2.548-22.294c5.451-6.86,15.432-8.004,22.294-2.548l0.355,0.281
	c4.253,3.369,17.191,13.616,25.746,29.623c4.13,7.729,1.213,17.341-6.517,21.473C372.047,382.221,369.486,382.826,366.963,382.826z"
	/>
<path style="fill:#5CB38E;" d="M234.63,411.898c-74.046,0-159.26,0-221.644-39.828c-10.675-6.816-4.501-23.276,8.053-21.6
	c49.402,6.595,90.898-5.98,114.561-26.35L234.63,411.898z"/>
<path style="opacity:0.1;enable-background:new    ;" d="M107.668,340.925c0.825,23.647,4.455,47.251,19.032,66.878
	c36.097,4.096,73.239,4.096,107.93,4.096L135.6,324.12C128.015,330.649,118.59,336.371,107.668,340.925z"/>
<g>
	<path style="fill:#498A68;" d="M201.481,484.127c-0.628,0-1.261-0.024-1.898-0.073c-13.442-1.034-23.502-12.769-22.468-26.211
		c0.938-12.2-0.068-52.887-1.818-61.896c-4.017-12.095,1.991-25.399,13.964-30.278c12.486-5.084,26.731,0.912,31.818,13.397
		c6.58,16.153,5.015,78.612,4.714,82.519C224.81,474.391,214.114,484.127,201.481,484.127z M175.854,397.46
		c0.004,0.008,0.007,0.018,0.011,0.027C175.861,397.478,175.857,397.469,175.854,397.46z"/>
	<path style="fill:#498A68;" d="M290.012,484.127c-0.629,0-1.262-0.024-1.9-0.073c-13.441-1.035-23.5-12.771-22.466-26.213
		c0.939-12.197-0.067-52.876-1.818-61.891c-4.018-12.095,1.988-25.398,13.962-30.279c12.48-5.087,26.729,0.908,31.819,13.394
		c6.585,16.158,5.016,78.615,4.716,82.524C313.34,474.392,302.643,484.127,290.012,484.127z M264.388,397.464
		c0.002,0.008,0.006,0.018,0.009,0.026C264.395,397.482,264.39,397.472,264.388,397.464z"/>
</g>
<path style="opacity:0.1;enable-background:new    ;" d="M314.703,438.965c-0.019-20.749-0.914-49.646-5.093-59.901
	c-5.09-12.486-19.339-18.481-31.819-13.394c-11.975,4.881-17.98,18.184-13.962,30.279c1.404,7.229,2.328,34.809,2.155,51.746
	C284.829,446.458,300.978,443.577,314.703,438.965z"/>
<path style="opacity:0.1;enable-background:new    ;" d="M189.262,365.669c-11.975,4.879-17.981,18.183-13.964,30.278
	c1.223,6.296,2.081,28.059,2.168,44.763c13.85,4.005,29.994,6.407,48.66,7.296c0.226-20.286-0.216-57.085-5.045-68.94
	C215.992,366.581,201.748,360.586,189.262,365.669z"/>
<path style="fill:#5CB38E;" d="M354.754,325.77c0,56.99-7.741,98.226-111.451,98.226S131.853,382.76,131.853,325.77
	S181.751,222.58,243.303,222.58S354.754,268.78,354.754,325.77z"/>
<path style="fill:#9BDFC1;" d="M354.754,325.77c0-0.454-0.012-0.906-0.018-1.359c-23.214-5.958-69.258-7.69-101.3,26.362
	c-23.349,24.814-26.728,51.591-24.223,72.947c4.489,0.182,9.182,0.275,14.09,0.275C347.013,423.996,354.754,382.76,354.754,325.77z"
	/>
<path style="opacity:0.05;enable-background:new    ;" d="M222.144,224.445c-51.433,9.153-90.293,51.033-90.293,101.324
	c0,52.77,6.65,92.028,89.968,97.553C175.559,376.369,184.507,279.419,222.144,224.445z"/>
<path style="fill:#5CB38E;" d="M345.604,73.968L345.604,73.968c-19.031-28.78-51.233-46.091-85.737-46.091h-42.413
	c-60.3,0-109.182,48.882-109.182,109.182v50.198c0,54.118,43.871,97.99,97.99,97.99h224.833c40.541,0,73.406-32.865,73.406-73.406
	v-34.164c0-40.542-32.866-73.406-73.406-73.406h-29.126C379.285,104.27,358.115,92.889,345.604,73.968z"/>
<g style="opacity:0.1;">
	<circle cx="167.584" cy="211.114" r="7.514"/>
	<circle cx="221.002" cy="222.583" r="7.514"/>
	<circle cx="190.433" cy="248.212" r="7.514"/>
</g>
<g>
	<ellipse style="fill:#FFA8CB;" cx="179.004" cy="108.358" rx="18.939" ry="9.717"/>
	<ellipse style="fill:#FFA8CB;" cx="306.149" cy="108.358" rx="18.939" ry="9.717"/>
</g>
<path style="opacity:0.05;enable-background:new    ;" d="M193.198,30.585c-48.625,11.031-84.927,54.511-84.927,106.474v50.198
	c0,54.118,43.871,97.99,97.99,97.99h59.461C179.126,234.862,164.447,96.363,193.198,30.585z"/>
<path style="fill:#CD5B5B;" d="M303.972,395.462h-31.495c-3.791,0-6.978-2.845-7.407-6.612l-5.486-48.196h57.28l-5.486,48.196
	C310.95,392.617,307.763,395.462,303.972,395.462z"/>
<path style="fill:#A3E3FF;" d="M430.904,224.927c-3.619,3.779-8.692,6.155-14.337,6.155c-4.301,0-8.269-1.384-11.521-3.707
	l7.843,29.887c2.745,10.459-2.78,21.312-12.85,25.248c-10.174,3.974-21.722,2.805-30.892-3.134l-33.226-21.523
	c-12.068-7.814-27.408-8.401-40.04-1.535c-12.629,6.867-20.474,20.064-20.474,34.439v33.127c0,7.078,5.738,12.816,12.816,12.816
	c7.078,0,12.816-5.738,12.816-12.816v-33.127c0-7.282,4.956-10.763,7.088-11.921c2.131-1.16,7.748-3.427,13.861,0.53l33.226,21.523
	c16.074,10.411,36.319,12.462,54.155,5.493c22.188-8.671,34.359-32.585,28.312-55.626L430.904,224.927z"/>
<path style="fill:#806C6C;" d="M371.131,280.558c-0.671-0.372-1.334-0.762-1.982-1.182l-33.226-21.523
	c-12.068-7.813-27.408-8.401-40.04-1.535c-12.629,6.867-20.474,20.064-20.474,34.439v33.127c0,7.078,5.738,12.816,12.816,12.816
	c7.078,0,12.816-5.738,12.816-12.816v-33.127c0-7.282,4.956-10.763,7.088-11.921c2.132-1.16,7.748-3.427,13.861,0.53l33.226,21.523
	c4.942,3.201,10.28,5.604,15.818,7.205C367.785,299.545,367.554,288.265,371.131,280.558z"/>
<path style="fill:#FFFFFF;" d="M324.369,315.927H252.08c-2.693,0-4.875,2.183-4.875,4.875v14.976c0,2.692,2.183,4.875,4.875,4.875
	h72.289c2.692,0,4.875-2.183,4.875-4.875v-14.976C329.244,318.11,327.061,315.927,324.369,315.927z"/>
<path style="fill:#498A68;" d="M258.919,381.269c-0.895,0-1.801-0.075-2.712-0.232c-14.438-2.486-34.067-11.883-40.714-17.005
	c-6.942-5.35-8.232-15.313-2.882-22.254c5.339-6.928,15.273-8.228,22.214-2.912c2.965,2.137,17.434,9.29,26.768,10.897
	c8.636,1.488,14.432,9.695,12.945,18.33C273.206,375.817,266.5,381.269,258.919,381.269z"/>
<path d="M392.623,135.099c-4.15,0-7.514,3.364-7.514,7.514s3.364,7.514,7.514,7.514s7.514-3.364,7.514-7.514
	C400.137,138.463,396.773,135.099,392.623,135.099z M282.126,72.155c-4.143,0-7.5,3.357-7.5,7.5v9.438c0,4.143,3.357,7.5,7.5,7.5
	s7.5-3.357,7.5-7.5v-9.438C289.626,75.513,286.268,72.155,282.126,72.155z M431.094,96.769h-29.126
	c-20.222,0-38.955-10.071-50.109-26.938c-20.477-30.967-54.868-49.454-91.993-49.454h-42.413
	c-64.339,0-116.682,52.344-116.682,116.682v50.197c0,32.859,15.294,63,39.87,82.588c-10.229,16.22-15.796,34.522-16.24,53.471
	c-25.007,17.622-62.926,24.987-102.369,19.723c-9.24-1.231-17.606,3.813-20.805,12.559c-3.167,8.664-0.063,17.823,7.724,22.795
	c48.759,31.129,109.245,37.767,156.901,39.934c1.197,0.579,2.421,1.14,3.678,1.681c0.542,14.84,0.604,30.813,0.109,37.262
	c-1.349,17.545,11.827,32.915,29.372,34.265c0.823,0.063,1.655,0.095,2.472,0.095c16.555,0,30.52-12.943,31.792-29.469
	c0.152-1.995,0.531-15.155,0.351-30.789c3.148,0.082,6.372,0.126,9.679,0.126c5.226,0,10.241-0.108,15.071-0.315
	c0.225,11.251,0.156,21.38-0.206,26.085c-1.35,17.544,11.825,32.916,29.371,34.267c0.824,0.063,1.656,0.095,2.473,0.095
	c11.781,0,22.558-6.464,28.124-16.868c1.954-3.652,0.577-8.197-3.075-10.151c-3.656-1.956-8.198-0.576-10.151,3.075
	c-3.157,5.904-9.453,9.403-16.223,8.895c-9.297-0.716-16.278-8.862-15.563-18.159c0.46-5.963,0.456-17.515,0.232-28.268
	c12.765-1.251,23.941-3.387,33.664-6.441c0.117,4.832,0.18,9.929,0.184,15.264c0.004,4.14,3.36,7.493,7.5,7.493h0.007
	c4.142-0.004,7.497-3.364,7.493-7.507c-0.006-7.538-0.125-14.63-0.35-21.175c8.838-4.431,16.047-9.963,21.769-16.657
	c4.005-4.686,7.147-9.812,9.623-15.253c3.919,2.841,8.691,4.452,13.72,4.452c3.814,0,7.617-0.955,10.999-2.762
	c11.364-6.073,15.668-20.259,9.597-31.622c-8.01-14.988-19.396-25.195-25.305-30.037c0-0.045,0-0.09,0-0.134
	c0-4.407-0.296-8.795-0.851-13.147c16.006,6.779,34.259,7.166,50.697,0.745c10.919-4.266,19.734-11.723,25.744-20.926
	c19.489-1.607,37.578-10.128,51.307-24.265c14.735-15.172,22.851-35.181,22.851-56.336v-34.164
	C512,133.064,475.706,96.769,431.094,96.769z M17.022,365.75c-2.588-1.652-2.057-4.049-1.708-5.003
	c0.365-0.995,1.557-3.264,4.733-2.843c38.964,5.203,76.893-1.115,104.547-16.964c0.839,22.118,4.395,43.809,18.391,60.187
	c0.235,0.275,0.483,0.541,0.724,0.812C102.505,398.655,55.465,390.293,17.022,365.75z M218.317,461.011
	c-0.707,9.191-8.815,16.261-18.159,15.565c-9.298-0.715-16.279-8.861-15.565-18.158c0.517-6.727,0.465-20.499,0.108-33.223
	c9.883,2.648,21.153,4.441,33.914,5.416C218.822,446.576,218.418,459.678,218.317,461.011z M361.774,345.891
	c4.263,4.489,8.872,10.228,12.556,17.12c2.175,4.068,0.633,9.148-3.436,11.323c-1.23,0.658-2.553,0.991-3.93,0.991
	c-3.102,0-5.936-1.696-7.394-4.425c-0.274-0.514-0.579-1.035-0.88-1.554C360.398,361.788,361.306,353.893,361.774,345.891z
	 M426.757,281.811c-0.002,0.005-0.005,0.01-0.008,0.015c-4.32,7.775-11.265,14.115-20.108,17.571
	c-15.596,6.094-33.297,4.298-47.348-4.802l-4.472-2.896c-0.012-0.009-0.025-0.016-0.038-0.025l-19.523-12.647
	c-0.001-0.001-0.003-0.002-0.004-0.003l-9.193-5.955c-6.59-4.267-14.634-4.571-21.516-0.824c-4.034,2.191-7.107,5.475-8.97,9.39
	c-0.188,0.341-0.343,0.701-0.476,1.072c-1.016,2.491-1.562,5.208-1.562,8.048v17.67h-10.633v-17.67
	c0-11.626,6.345-22.297,16.555-27.849c10.219-5.554,22.627-5.077,32.382,1.24l33.228,21.524c11.189,7.246,25.283,8.676,37.698,3.823
	c13.616-5.321,21.085-19.997,17.373-34.138l-4.409-16.799c0.278,0.008,0.554,0.022,0.833,0.022c3.352,0,6.633-0.621,9.699-1.785
	l4.163,15.863C433.097,262.831,431.536,273.2,426.757,281.811z M277.986,351.92c-0.983-1.391-2.107-2.642-3.333-3.766h33.816
	l-4.498,39.809l-31.449,0.041l-0.38-3.339c5.039-3.464,8.68-8.874,9.786-15.298C282.987,363.213,281.587,357.018,277.986,351.92z
	 M254.705,333.154v-9.728h67.04v9.728H254.705z M497.001,211.841c0,17.231-6.61,33.528-18.611,45.886
	c-9.182,9.455-20.758,15.814-33.39,18.518c2.255-8.733,2.369-18.122-0.064-27.391l-6.047-23.041c0.545-2.575-0.281-5.36-2.406-7.212
	c-3.123-2.722-7.86-2.396-10.582,0.727c-0.037,0.042-0.079,0.078-0.116,0.119c-0.181,0.169-0.353,0.346-0.516,0.531
	c-2.314,2.294-5.431,3.605-8.703,3.605c-2.551,0-5.005-0.801-7.063-2.235c-0.115-0.085-0.235-0.163-0.354-0.241
	c-0.694-0.52-1.338-1.114-1.918-1.78c-2.723-3.122-7.46-3.447-10.582-0.727c-3.123,2.722-3.447,7.459-0.727,10.582
	c0.782,0.897,1.622,1.729,2.501,2.508l7.212,27.477c1.778,6.776-1.801,13.809-8.325,16.358c-7.933,3.098-16.937,2.186-24.085-2.443
	l-33.228-21.524c-14.374-9.307-32.651-10.007-47.699-1.828c-11.118,6.046-19.108,16.213-22.53,28.018h-55.283
	c-4.143,0-7.5,3.357-7.5,7.5s3.357,7.5,7.5,7.5h53.423v15.681h-15.828c-6.823,0-12.375,5.552-12.375,12.375v12.306
	c-0.196-0.122-0.366-0.233-0.496-0.327c-3.357-2.42-8.047-1.661-10.47,1.7c-2.421,3.36-1.66,8.048,1.7,10.47
	c3.931,2.832,19.294,10.381,29.879,12.204c2.203,0.379,4.126,1.594,5.416,3.42c1.289,1.825,1.791,4.044,1.411,6.246
	c-0.515,2.989-2.555,5.367-5.237,6.395c-0.13,0.04-0.257,0.085-0.384,0.132c-0.823,0.271-1.698,0.423-2.606,0.423
	c-0.479,0-0.963-0.041-1.439-0.124c-13.761-2.369-32.041-11.418-37.409-15.554c-3.283-2.529-7.991-1.918-10.519,1.362
	c-2.528,3.28-1.919,7.99,1.362,10.518c7.409,5.711,28.241,15.738,44.017,18.455c0.85,0.146,1.712,0.229,2.575,0.281l0.113,0.991
	c0.861,7.561,7.249,13.263,14.858,13.263h31.494c7.61,0,13.997-5.702,14.858-13.263l4.729-41.545h0.81
	c6.823,0,12.375-5.552,12.375-12.375v-14.977c0-6.823-5.552-12.375-12.375-12.375h-15.829v-15.681h20.308l15.349,9.944
	c2.023,7.52,3.057,15.269,3.057,23.08c0,29.646-2.516,50.961-15.035,65.611c-5.083,5.948-11.811,10.79-20.347,14.58
	c-0.453,0.145-0.885,0.332-1.296,0.556c-11.635,4.919-26.518,7.966-45.057,9.256c-0.026,0.001-0.05-0.002-0.076-0.002
	c-0.194,0.006-0.384,0.026-0.573,0.047c-6.711,0.45-13.885,0.678-21.566,0.678c-5.774,0-11.267-0.126-16.489-0.38
	c-0.271-0.03-0.545-0.048-0.824-0.048c-0.014,0-0.028,0-0.042,0.001c-18.603-0.96-33.728-3.566-45.751-7.921
	c-0.488-0.246-1.006-0.44-1.547-0.574c-2.443-0.936-4.754-1.949-6.934-3.038c-0.336-0.209-0.691-0.388-1.06-0.542
	c-6.63-3.457-12.025-7.648-16.268-12.614c-12.52-14.649-15.035-35.966-15.035-65.611c0-16.774,4.707-33.039,13.665-47.445
	c7.903,4.632,16.488,8.296,25.637,10.771c3.994,1.079,8.116-1.283,9.198-5.282c1.081-3.998-1.283-8.116-5.282-9.198
	c-9.922-2.684-19.085-6.98-27.247-12.555c-0.011-0.008-0.021-0.018-0.032-0.026c-0.02-0.014-0.041-0.025-0.061-0.039
	c-24.136-16.529-39.459-44.272-39.459-74.739V137.06c0-56.068,45.614-101.682,101.682-101.682h42.413
	c32.076,0,61.789,15.973,79.481,42.729c13.939,21.079,37.35,33.664,62.621,33.664h29.126c36.342,0,65.907,29.566,65.907,65.908
	v34.163H497.001z M203.031,72.155c-4.143,0-7.5,3.357-7.5,7.5v9.438c0,4.143,3.357,7.5,7.5,7.5s7.5-3.357,7.5-7.5v-9.438
	C210.531,75.513,207.173,72.155,203.031,72.155z M440.51,135.099c-4.15,0-7.514,3.364-7.514,7.514s3.364,7.514,7.514,7.514
	s7.514-3.364,7.514-7.514C448.024,138.463,444.66,135.099,440.51,135.099z"/>
<g>
</g>
<g>
</g>
<g>
</g>
<g>
</g>
<g>
</g>
<g>
</g>
<g>
</g>
<g>
</g>
<g>
</g>
<g>
</g>
<g>
</g>
<g>
</g>
<g>
</g>
<g>
</g>
<g>
</g>
</svg>
