<?xml version="1.0" encoding="iso-8859-1"?>
<!-- Generator: Adobe Illustrator 19.0.0, SVG Export Plug-In . SVG Version: 6.00 Build 0)  -->
<svg version="1.1" id="Capa_1" xmlns="http://www.w3.org/2000/svg" xmlns:xlink="http://www.w3.org/1999/xlink" x="0px" y="0px"
	 viewBox="0 0 512.004 512.004" style="enable-background:new 0 0 512.004 512.004;" xml:space="preserve">
<path style="fill:#498A68;" d="M377.93,380.575c-1.877,0-3.786-0.336-5.644-1.044c-10.799-4.112-21.921-3.593-26.107-3.401
	l-0.501,0.024c-8.741,0.391-16.17-6.387-16.562-15.141c-0.392-8.755,6.387-16.17,15.141-16.562l0.447-0.02
	c5.418-0.255,21.908-1.019,38.877,5.445c8.19,3.119,12.3,12.287,9.181,20.475C390.351,376.681,384.325,380.574,377.93,380.575z"/>
<path style="fill:#5CB38E;" d="M234.629,430.207c-74.046,0-159.26,0-221.643-39.828c-10.675-6.816-4.501-23.276,8.053-21.6
	c49.402,6.595,90.898-5.98,114.56-26.35L234.629,430.207z"/>
<path style="opacity:0.1;enable-background:new    ;" d="M107.667,359.232c0.825,23.647,4.455,47.251,19.031,66.878
	c36.097,4.096,73.239,4.096,107.93,4.096l-99.03-87.778C128.015,348.958,118.589,354.68,107.667,359.232z"/>
<g>
	<path style="fill:#498A68;" d="M201.433,502.439c-3.762,0-7.58-0.872-11.156-2.713c-11.987-6.172-16.699-20.892-10.528-32.879
		c5.844-11.349,0.169-41.03-3.887-51.053c-5.054-12.488,0.954-26.733,13.435-31.802c12.485-5.065,26.698,0.908,31.781,13.383
		c0.217,0.535,20.953,55.165,2.078,91.824C218.825,497.609,210.285,502.439,201.433,502.439z"/>
	<path style="fill:#498A68;" d="M289.978,502.44c-3.004,0.001-6.057-0.557-9.017-1.736c-12.528-4.984-18.642-19.179-13.657-31.706
		c5.015-12.603-0.126-45.224-2.987-53.399c-4.945-12.437,1.055-26.559,13.474-31.62c12.481-5.087,26.73,0.908,31.819,13.395
		c3.99,9.79,15.282,58.949,3.057,89.675C308.861,496.612,299.681,502.44,289.978,502.44z M264.356,415.695
		c0.014,0.036,0.027,0.07,0.04,0.103C264.383,415.763,264.369,415.73,264.356,415.695z"/>
</g>
<path style="opacity:0.1;enable-background:new    ;" d="M318.139,456.064c0.638-25.636-5.734-51.831-8.53-58.691
	c-5.09-12.486-19.338-18.481-31.819-13.395c-12.419,5.061-18.418,19.183-13.474,31.62c2.647,7.566,7.242,36.059,3.938,50.255
	C287.714,464.423,304.229,461.189,318.139,456.064z"/>
<path style="opacity:0.1;enable-background:new    ;" d="M189.298,383.993c-12.481,5.068-18.488,19.313-13.435,31.802
	c3.41,8.425,7.961,30.739,5.854,44.38c13.876,3.573,29.927,5.649,48.369,6.305c4.7-33.015-8.833-68.672-9.008-69.104
	C215.996,384.901,201.783,378.929,189.298,383.993z"/>
<path style="fill:#5CB38E;" d="M354.753,344.078c0,56.99-7.741,98.226-111.451,98.226s-111.451-41.236-111.451-98.226
	s49.898-103.189,111.451-103.189S354.753,287.088,354.753,344.078z"/>
<path style="fill:#9BDFC1;" d="M354.753,344.078c0-0.454-0.012-0.906-0.018-1.359c-23.214-5.958-69.258-7.69-101.3,26.362
	c-23.349,24.814-26.728,51.592-24.223,72.947c4.489,0.182,9.182,0.275,14.09,0.275C347.012,442.304,354.753,401.067,354.753,344.078
	z"/>
<path style="opacity:0.05;enable-background:new    ;" d="M222.143,242.754c-51.433,9.153-90.293,51.033-90.293,101.324
	c0,52.77,6.65,92.028,89.968,97.553C175.558,394.676,184.506,297.728,222.143,242.754z"/>
<path style="fill:#5CB38E;" d="M345.603,92.276L345.603,92.276c-19.031-28.78-51.233-46.091-85.737-46.091h-42.413
	c-60.3,0-109.182,48.882-109.182,109.182v50.198c0,54.118,43.871,97.989,97.99,97.989h224.833c40.541,0,73.406-32.865,73.406-73.406
	v-34.164c0-40.541-32.866-73.406-73.406-73.406h-29.126C379.284,122.577,358.114,111.197,345.603,92.276z"/>
<g style="opacity:0.1;">
	<circle cx="167.583" cy="229.425" r="7.514"/>
	<circle cx="221.001" cy="240.885" r="7.514"/>
	<circle cx="190.432" cy="266.514" r="7.514"/>
</g>
<g>
	<ellipse style="fill:#FFA8CB;" cx="208.372" cy="126.669" rx="18.939" ry="9.717"/>
	<ellipse style="fill:#FFA8CB;" cx="335.527" cy="126.669" rx="18.939" ry="9.717"/>
</g>
<path style="opacity:0.05;enable-background:new    ;" d="M193.197,48.893c-48.625,11.031-84.927,54.511-84.927,106.474v50.198
	c0,54.118,43.871,97.989,97.99,97.989h59.461C179.125,253.17,164.446,114.671,193.197,48.893z"/>
<path style="fill:#498A68;" d="M254.589,401.153c-5.67,0-11.155-3.047-14.011-8.398c-5.444-10.196-14.179-17.112-17.468-19.717
	l-0.396-0.313c-6.861-5.451-8.003-15.432-2.551-22.294c5.452-6.86,15.432-8.003,22.294-2.551l0.352,0.279
	c4.257,3.37,17.207,13.625,25.763,29.65c4.128,7.731,1.206,17.343-6.524,21.471C259.669,400.549,257.11,401.153,254.589,401.153z"/>
<path style="fill:#80B0E3;" d="M252.869,46.185h6.997c28.792,0,55.975,12.063,75.246,32.777l-10.801-23.554
	c-12.766-27.846-40.808-45.839-71.442-45.839h-40.562c-30.632,0-58.675,17.992-71.442,45.837l-16.552,36.103l33.284,15.261
	l16.552-36.103c6.821-14.873,26.943-24.483,43.303-24.483h18.956L252.869,46.185L252.869,46.185z"/>
<ellipse style="fill:#A3E3FF;" cx="132.025" cy="127.079" rx="47.228" ry="53.368"/>
<ellipse style="fill:#80B0E3;" cx="111.395" cy="127.079" rx="38.289" ry="43.268"/>
<path style="fill:#A3E3FF;" d="M261.907,10.099c-2.979-0.347-5.995-0.532-9.038-0.532h-37.157v36.656
	c0.584-0.024,1.165-0.039,1.74-0.039h18.956h16.46h6.997c0.682,0,1.361,0.013,2.041,0.027V10.099z"/>
<path style="fill:#FF85B6;" d="M83.019,235.88v47.061c0,1.814-1.437,3.301-3.25,3.354c-2.108,0.061-4.297,0.299-6.543,0.73
	c-17.05,3.273-30.872,16.292-30.872,29.079c0,12.786,13.821,20.499,30.872,17.226s30.872-16.292,30.872-29.079v-43.106
	c0-2.577,1.829-4.79,4.36-5.276l23.862-4.581c5.072-0.974,8.738-5.411,8.738-10.575v-20.091c0-2.948-2.685-5.167-5.581-4.611
	l-42.833,8.223C87.058,225.305,83.019,230.192,83.019,235.88z"/>
<path style="fill:#A9A6DE;" d="M420.738,362.029v47.06c0,1.814-1.437,3.301-3.25,3.354c-2.109,0.061-4.297,0.299-6.543,0.73
	c-17.05,3.273-30.872,16.292-30.872,29.079c0,12.787,13.821,20.499,30.872,17.226s30.872-16.292,30.872-29.079v-43.106
	c0-2.577,1.829-4.791,4.36-5.276l23.862-4.581c5.072-0.974,8.738-5.411,8.738-10.575v-20.091c0-2.948-2.685-5.167-5.581-4.611
	l-42.833,8.223C424.776,351.455,420.738,356.342,420.738,362.029z"/>
<path d="M431.093,115.077h-29.126c-20.222,0-38.955-10.07-50.109-26.937c-3.164-4.784-6.661-9.269-10.448-13.434l-10.282-22.424
	c-13.983-30.503-44.702-50.213-78.26-50.213h-40.562c-33.556,0-64.275,19.709-78.26,50.212l-6.481,14.135
	c-10.138,0.897-19.685,4.863-27.921,11.606c-19.571,5.767-34.037,25.573-34.037,49.061s14.465,43.294,34.037,49.061
	c0.372,0.305,0.748,0.602,1.126,0.895v28.524c0,3.126,0.155,6.264,0.432,9.389l-9.973,1.914c-9.104,1.747-15.71,9.743-15.71,19.013
	v43.21c-1.232,0.142-2.471,0.331-3.707,0.568c-20.724,3.978-36.958,19.986-36.958,36.444c0,7.184,3.097,13.699,8.721,18.346
	c5.662,4.679,13.369,7.138,21.929,7.138c2.96,0,6.022-0.294,9.137-0.892c20.724-3.978,36.958-19.986,36.958-36.444v-41.348
	l5.443-1.045c6.393,10.119,14.396,18.982,23.595,26.3c-10.227,16.218-15.793,34.519-16.236,53.465
	c-25.006,17.621-62.927,24.986-102.369,19.723c-9.236-1.231-17.606,3.813-20.805,12.56c-3.167,8.664-0.063,17.823,7.724,22.795
	c48.759,31.129,109.245,37.767,156.901,39.934c2.536,1.227,5.206,2.364,8.008,3.415c1.698,12.688,0.723,20.456-0.775,23.364
	c-8.055,15.644-1.882,34.926,13.762,42.979c4.505,2.319,9.55,3.545,14.588,3.545c12.015,0,22.894-6.632,28.392-17.306
	c6.075-11.8,8.997-26.191,8.734-42.857c1.563,0.019,3.144,0.029,4.744,0.029c6.48,0,12.649-0.16,18.523-0.478
	c0.281,7.658-0.232,13.739-1.49,16.899c-3.151,7.92-3.029,16.593,0.343,24.421c3.372,7.829,9.592,13.875,17.507,17.024
	c3.779,1.505,7.744,2.268,11.783,2.268h0.011c11.245,0,21.772-6.006,27.477-15.673c2.105-3.567,0.92-8.166-2.647-10.271
	c-3.565-2.103-8.165-0.92-10.271,2.647c-3.02,5.118-8.6,8.297-14.562,8.297h-0.005c-2.132,0-4.229-0.405-6.237-1.205
	c-4.198-1.67-7.493-4.874-9.28-9.022c-1.787-4.149-1.852-8.746-0.182-12.941c2.13-5.353,2.975-13.301,2.527-23.68
	c12.755-1.443,23.865-3.814,33.467-7.148c0.407,5.67,0.526,11.104,0.348,16.231c-0.145,4.14,3.095,7.612,7.234,7.756
	c0.089,0.004,0.177,0.005,0.266,0.005c4.021,0,7.35-3.189,7.49-7.239c0.253-7.252-0.034-15.017-0.835-23.136
	c7.522-4.155,13.772-9.183,18.852-15.125c8.671-10.145,13.332-22.33,15.825-35.392c3.695,0.495,7.102,1.327,10.172,2.496
	c2.674,1.019,5.472,1.535,8.315,1.535c9.634-0.002,18.409-6.052,21.839-15.054c4.586-12.041-1.478-25.567-13.519-30.154
	c-7.464-2.843-15.591-4.69-24.224-5.545c-0.577-8.971-2.297-17.756-5.158-26.266h74.224c44.611,0,80.906-36.295,80.906-80.906
	v-34.164C511.999,151.372,475.705,115.077,431.093,115.077z M362.19,352.418c6.692,0.785,12.968,2.274,18.721,4.466
	c4.312,1.643,6.484,6.486,4.842,10.798c-1.229,3.227-4.373,5.394-7.823,5.395c-1.012,0-2.012-0.186-2.975-0.553
	c-4.152-1.581-8.686-2.693-13.536-3.342C361.884,363.64,362.099,358.026,362.19,352.418z M147.681,58.532
	c11.55-25.188,36.916-41.464,64.626-41.464h40.562c25.746,0,49.46,14.054,61.957,36.249c-16.452-9.456-35.323-14.631-54.96-14.631
	h-42.413c-9.492,0-19.713,2.684-28.78,7.558c-9.905,5.323-17.483,12.888-21.341,21.299l-4.314,9.411
	c-5.791-4.442-12.383-7.675-19.484-9.372L147.681,58.532z M132.026,81.216c0.033,0,0.066,0.003,0.1,0.003
	c0.077,0.003,0.154,0.006,0.231,0.007c10.71,0.102,20.419,5.118,27.521,13.191c0.071,0.081,0.143,0.162,0.218,0.24
	c7.199,8.307,11.658,19.777,11.658,32.428c0,25.292-17.821,45.868-39.728,45.868c-0.33,0-0.659-0.014-0.988-0.023
	c15.443-8.167,26.143-25.645,26.143-45.845S146.482,89.406,131.04,81.24C131.368,81.229,131.696,81.216,132.026,81.216z
	 M80.608,127.083c0-19.721,13.811-35.765,30.787-35.765c16.974,0,30.786,16.043,30.786,35.765s-13.811,35.765-30.786,35.765
	C94.42,162.847,80.608,146.804,80.608,127.083z M130.907,243.924l-11.654,2.237c-0.015,0.003-0.031,0.006-0.046,0.009l-12.162,2.335
	c-6.053,1.16-10.446,6.477-10.446,12.642v43.105c0,9.992-13.063,19.463-24.786,21.714c-7.6,1.456-14.584,0.307-18.683-3.078
	c-2.174-1.797-3.275-4.079-3.275-6.784c0-9.992,13.063-19.463,24.784-21.713c1.806-0.347,3.605-0.548,5.349-0.599
	c5.906-0.172,10.532-4.939,10.532-10.851V235.88c0-2.088,1.488-3.89,3.539-4.283l39.501-7.583v16.698
	C133.559,242.278,132.444,243.629,130.907,243.924z M17.021,384.057c-2.588-1.652-2.057-4.049-1.708-5.003
	c0.364-0.995,1.557-3.261,4.733-2.843c38.96,5.202,76.893-1.115,104.547-16.964c0.839,22.118,4.395,43.81,18.391,60.187
	c0.235,0.275,0.483,0.541,0.724,0.812C102.504,416.963,55.465,408.602,17.021,384.057z M216.489,485.765
	c-2.914,5.658-8.684,9.174-15.056,9.174c-2.7,0-5.299-0.633-7.723-1.881c-8.29-4.269-11.562-14.486-7.293-22.777
	c3.395-6.593,3.775-16.336,3.029-25.596c10.015,2.311,21.351,3.823,34.106,4.568C223.88,463.746,221.513,476.007,216.489,485.765z
	 M497,230.148c0,36.342-29.565,65.907-65.907,65.907H221.541c-4.143,0-7.5,3.358-7.5,7.5c0,4.143,3.357,7.5,7.5,7.5h119.35
	c4.223,10.549,6.361,21.636,6.361,33.023c0,29.645-2.516,50.961-15.035,65.611c-4.616,5.401-10.588,9.891-18.037,13.51
	c-0.433,0.158-0.847,0.35-1.236,0.579c-11.31,5.236-25.909,8.549-44.22,10.061c-0.19,0.003-0.381,0.006-0.574,0.024
	c-0.147,0.013-0.288,0.04-0.432,0.061c-7.514,0.589-15.639,0.881-24.416,0.881c-4.193,0-8.234-0.068-12.135-0.201
	c-0.151-0.009-0.303-0.015-0.456-0.015c-18.951-0.675-34.474-2.949-46.942-6.916c-0.529-0.247-1.09-0.427-1.671-0.545
	c-3.748-1.266-7.205-2.695-10.388-4.286c-0.333-0.207-0.686-0.384-1.052-0.538c-6.632-3.457-12.029-7.649-16.272-12.616
	c-12.52-14.649-15.035-35.966-15.035-65.611c0-16.769,4.704-33.03,13.656-47.431c9.565,5.6,20.039,9.71,31.084,12.073
	c0.529,0.113,1.057,0.168,1.577,0.168c3.461,0,6.572-2.411,7.326-5.933c0.867-4.051-1.714-8.036-5.765-8.903
	c-21.846-4.674-41.092-17.319-54.154-35.272l0.659-0.126c8.59-1.648,14.823-9.194,14.823-17.939v-20.092
	c0-3.649-1.613-7.076-4.427-9.401c-2.813-2.325-6.483-3.267-10.068-2.575l-18.047,3.465c-0.157-2.181-0.246-4.367-0.246-6.546
	V185.23c5.199,1.793,10.655,2.721,16.255,2.721c30.177,0,54.727-27.306,54.727-60.868c0-14.67-4.691-28.144-12.492-38.666
	l6.705-14.623c4.436-9.672,19.647-20.109,36.487-20.109h42.413c26.682,0,51.722,11.061,69.575,30.179
	c0.067,0.077,0.139,0.148,0.209,0.222c3.529,3.803,6.78,7.915,9.697,12.328c13.939,21.079,37.35,33.664,62.621,33.664h29.126
	c36.342,0,65.907,29.566,65.907,65.908v34.164H497z M481.848,337.369c-2.814-2.324-6.478-3.264-10.066-2.574l-42.834,8.223
	c-9.102,1.747-15.709,9.743-15.709,19.012v43.21c-1.234,0.142-2.472,0.332-3.707,0.569c-20.724,3.979-36.958,19.986-36.958,36.444
	c0,7.184,3.098,13.7,8.721,18.346c5.663,4.679,13.368,7.138,21.928,7.138c2.96,0,6.023-0.294,9.138-0.892
	c20.724-3.979,36.958-19.986,36.958-36.444v-41.348l22.136-4.25c8.59-1.648,14.823-9.194,14.823-17.939v-20.093
	C486.276,343.121,484.661,339.693,481.848,337.369z M471.277,366.862c0,1.565-1.115,2.915-2.652,3.21l-23.864,4.581
	c-6.051,1.163-10.443,6.479-10.443,12.642V430.4c0,9.992-13.064,19.463-24.786,21.714c-7.6,1.456-14.584,0.309-18.683-3.078
	c-2.173-1.796-3.275-4.078-3.275-6.783c0-9.992,13.063-19.463,24.787-21.714c1.804-0.347,3.603-0.548,5.346-0.599
	c5.906-0.172,10.532-4.939,10.532-10.851v-47.061c0-2.088,1.488-3.889,3.538-4.282l39.502-7.583v16.698H471.277z M440.509,153.407
	c-4.15,0-7.514,3.364-7.514,7.514c0,4.15,3.364,7.514,7.514,7.514s7.514-3.364,7.514-7.514S444.659,153.407,440.509,153.407z
	 M400.137,160.921c0-4.15-3.364-7.514-7.514-7.514s-7.514,3.364-7.514,7.514c0,4.15,3.364,7.514,7.514,7.514
	S400.137,165.071,400.137,160.921z M232.402,85.201c-11.769,0-21.343,9.575-21.343,21.343c0,4.143,3.357,7.5,7.5,7.5
	s7.5-3.357,7.5-7.5c0-3.498,2.846-6.344,6.344-6.344c3.498,0,6.344,2.846,6.344,6.344c0,4.143,3.357,7.5,7.5,7.5s7.5-3.357,7.5-7.5
	C253.745,94.775,244.17,85.201,232.402,85.201z M436.482,236.908c-3.122-2.722-7.86-2.395-10.582,0.727
	c-2.358,2.705-5.76,4.256-9.335,4.256c-3.576,0-6.979-1.551-9.336-4.256c-2.723-3.122-7.46-3.447-10.582-0.727
	c-3.123,2.722-3.447,7.459-0.727,10.582c5.207,5.974,12.731,9.4,20.644,9.4c7.912,0,15.435-3.427,20.643-9.4
	C439.929,244.367,439.605,239.63,436.482,236.908z M311.497,85.201c-11.769,0-21.343,9.575-21.343,21.343c0,4.143,3.357,7.5,7.5,7.5
	s7.5-3.357,7.5-7.5c0-3.498,2.846-6.344,6.344-6.344s6.344,2.846,6.344,6.344c0,4.143,3.357,7.5,7.5,7.5s7.5-3.357,7.5-7.5
	C332.839,94.775,323.264,85.201,311.497,85.201z M218.055,378.602l0.398,0.315c2.953,2.339,10.8,8.552,15.507,17.369
	c4.073,7.628,11.977,12.366,20.627,12.366c3.812,0,7.612-0.954,10.993-2.759c11.365-6.069,15.674-20.253,9.606-31.618
	c-9.296-17.408-23.165-28.39-27.724-31.998l-0.352-0.278c-3.247-2.57-7.965-2.023-10.535,1.225
	c-2.571,3.248-2.023,7.965,1.225,10.535l0.352,0.278c3.952,3.129,15.978,12.651,23.802,27.303c2.173,4.07,0.63,9.15-3.44,11.323
	c-1.23,0.657-2.552,0.99-3.928,0.99c-3.102,0-5.936-1.698-7.396-4.431c-6.18-11.574-15.804-19.194-19.426-22.062l-0.396-0.314
	c-3.245-2.572-7.964-2.026-10.536,1.22C214.264,371.312,214.809,376.029,218.055,378.602z"/>
<g>
</g>
<g>
</g>
<g>
</g>
<g>
</g>
<g>
</g>
<g>
</g>
<g>
</g>
<g>
</g>
<g>
</g>
<g>
</g>
<g>
</g>
<g>
</g>
<g>
</g>
<g>
</g>
<g>
</g>
</svg>
