<?xml version="1.0" encoding="iso-8859-1"?>
<!-- Generator: Adobe Illustrator 19.0.0, SVG Export Plug-In . SVG Version: 6.00 Build 0)  -->
<svg version="1.1" id="Capa_1" xmlns="http://www.w3.org/2000/svg" xmlns:xlink="http://www.w3.org/1999/xlink" x="0px" y="0px"
	 viewBox="0 0 511.999 511.999" style="enable-background:new 0 0 511.999 511.999;" xml:space="preserve">
<path style="fill:#5CB38E;" d="M292.48,307.968L292.48,307.968c-17.703-26.771-47.658-42.875-79.753-42.875h-39.453
	c-56.091,0-101.561,45.471-101.561,101.561v46.694c0,50.341,40.809,91.15,91.15,91.15h209.14c37.712,0,68.283-30.571,68.283-68.283
	v-31.779c0-37.712-30.571-68.283-68.283-68.283H344.91C323.811,336.155,304.118,325.568,292.48,307.968z"/>
<path style="fill:#495059;" d="M378.637,450.94c0-15.11-7.833-27.36-20.148-27.36s-20.148,12.249-20.148,27.36
	c0,15.11,9.02,22.067,20.148,22.067S378.637,466.05,378.637,450.94z"/>
<g style="opacity:0.1;">
	<circle cx="126.88" cy="435.54" r="6.99"/>
	<circle cx="176.57" cy="446.21" r="6.99"/>
	<circle cx="148.14" cy="470.05" r="6.99"/>
</g>
<g>
	<ellipse style="fill:#FFA8CB;" cx="137.51" cy="339.96" rx="17.617" ry="9.04"/>
	<ellipse style="fill:#FFA8CB;" cx="255.78" cy="339.96" rx="17.617" ry="9.04"/>
</g>
<path style="opacity:0.05;enable-background:new    ;" d="M150.712,267.613c-45.231,10.261-78.999,50.706-78.999,99.042v46.694
	c0,50.341,40.809,91.15,91.15,91.15h55.31C137.622,457.632,123.968,328.8,150.712,267.613z"/>
<path style="fill:#FAE17C;" d="M219.361,167.658c0-26.663,27.075-29.615,27.075-70.088c0-31.582-25.602-57.184-57.184-57.184
	s-57.184,25.602-57.184,57.184c0,40.474,27.075,43.425,27.075,70.088H219.361z"/>
<circle style="fill:#495059;" cx="189.25" cy="218.68" r="25.18"/>
<path style="opacity:0.05;enable-background:new    ;" d="M187.645,193.545c-12.62,0.783-22.858,11.112-23.539,23.738
	c-0.799,14.821,11.225,27.04,25.978,26.564c0.002-0.006,0.001-0.002,0.003-0.008c-4.706-3.999-8.407-9.598-9.87-14.266
	c-0.607-1.937,0.865-3.902,2.895-3.902h30.33c0.641-2.221,0.992-4.566,0.992-6.994C214.435,204.238,202.281,192.636,187.645,193.545
	z"/>
<path style="fill:#959BA0;" d="M222.946,167.658h-67.389c-4.741,0-8.585,3.844-8.585,8.585v33.85c0,4.741,3.844,8.585,8.585,8.585
	h67.389c4.741,0,8.585-3.844,8.585-8.585v-33.85C231.531,171.501,227.688,167.658,222.946,167.658z"/>
<path style="opacity:0.05;enable-background:new    ;" d="M155.557,167.658c-4.741,0-8.585,3.844-8.585,8.585v33.85
	c0,4.741,3.844,8.585,8.585,8.585h23.981c-10.595-10.559-13.741-31.809-9.228-51.02L155.557,167.658L155.557,167.658z"/>
<rect x="146.97" y="185.67" style="opacity:0.1;enable-background:new    ;" width="84.56" height="15"/>
<path style="opacity:0.05;enable-background:new    ;" d="M164.069,124.096c-21.142-22.551-14.31-64.052,7.155-80.793
	c-22.745,7.553-39.156,28.986-39.156,54.267c0,40.473,27.075,43.425,27.075,70.088h22.792
	C182.04,154.152,179.076,140.102,164.069,124.096z"/>
<path d="M141.727,145.116c4.23,5.593,7.59,10.051,9.078,15.76c-6.557,2.031-11.333,8.151-11.333,15.367v33.851
	c0,8.869,7.216,16.085,16.085,16.085h1.89c3.4,14.417,16.364,25.183,31.804,25.183s28.405-10.766,31.805-25.183h1.89
	c8.869,0,16.085-7.216,16.085-16.085v-33.851c0-7.212-4.771-13.329-11.323-15.364c0.782-2.969,2.13-5.849,4.209-9.036
	c2.264-3.469,1.287-8.116-2.182-10.38c-3.467-2.263-8.115-1.286-10.379,2.183c-2.64,4.045-5.571,9.36-6.845,16.513h-46.508
	c-1.801-10.188-7.128-17.235-12.312-24.09c-7.263-9.604-14.123-18.675-14.123-38.499c0-27.396,22.288-49.684,49.684-49.684
	s49.684,22.288,49.684,49.684c0,7.02-0.874,13.12-2.67,18.65c-1.28,3.939,0.876,8.171,4.815,9.45
	c3.939,1.277,8.171-0.876,9.45-4.815c2.291-7.051,3.404-14.668,3.404-23.285c0-35.667-29.017-64.684-64.684-64.684
	s-64.684,29.017-64.684,64.684C124.568,122.427,134.082,135.008,141.727,145.116z M189.252,236.36
	c-7.067,0-13.161-4.177-15.99-10.183h31.98C202.413,232.184,196.319,236.36,189.252,236.36z M154.472,176.242
	c0-0.598,0.487-1.084,1.085-1.084h67.389c0.598,0,1.085,0.486,1.085,1.084v33.851c0,0.599-0.487,1.085-1.085,1.085h-67.389
	c-0.598,0-1.085-0.486-1.085-1.085V176.242z M129.907,48.831c1.464,1.465,3.384,2.197,5.303,2.197c1.919,0,3.839-0.732,5.303-2.196
	c2.929-2.929,2.929-7.678,0-10.606l-9.647-9.648c-2.928-2.929-7.677-2.93-10.606-0.001s-2.929,7.678,0,10.607L129.907,48.831z
	 M189.252,28.644c4.142,0,7.5-3.358,7.5-7.5V7.5c0-4.143-3.358-7.5-7.5-7.5s-7.5,3.357-7.5,7.5v13.644
	C181.752,25.286,185.11,28.644,189.252,28.644z M258.178,97.569c0,4.143,3.357,7.5,7.5,7.5h13.644c4.143,0,7.5-3.357,7.5-7.5
	c0-4.142-3.357-7.5-7.5-7.5h-13.644C261.536,90.069,258.178,93.427,258.178,97.569z M243.294,51.028
	c1.919,0,3.839-0.732,5.303-2.197l9.647-9.647c2.929-2.929,2.929-7.678,0-10.607c-2.929-2.928-7.678-2.929-10.606,0.001
	l-9.647,9.648c-2.929,2.929-2.929,7.678,0,10.606C239.455,50.296,241.374,51.028,243.294,51.028z M372.004,328.654h-27.093
	c-18.635,0-35.896-9.279-46.175-24.822c-19.146-28.953-51.298-46.238-86.009-46.238h-39.453
	c-60.137,0-109.062,48.925-109.062,109.061v46.694c0,24.891,9.297,48.66,26.178,66.931c16.783,18.165,39.55,29.306,64.107,31.369
	c4.139,0.335,7.754-2.719,8.102-6.846c0.347-4.127-2.718-7.755-6.846-8.102c-20.812-1.749-40.112-11.196-54.346-26.602
	c-14.313-15.49-22.195-35.645-22.195-56.751v-46.694c0-51.865,42.196-94.061,94.062-94.061h39.453
	c29.661,0,57.137,14.77,73.497,39.512c13.064,19.755,35.003,31.549,58.687,31.549h27.093c33.516,0,60.783,27.268,60.783,60.783
	v31.779c0,33.516-27.268,60.783-60.783,60.783H190.925c-4.142,0-7.5,3.357-7.5,7.5s3.358,7.5,7.5,7.5h181.079
	c41.787,0,75.783-33.996,75.783-75.783v-31.779C447.787,362.65,413.791,328.654,372.004,328.654z M99.182,105.069h13.643
	c4.142,0,7.5-3.357,7.5-7.5c0-4.142-3.358-7.5-7.5-7.5H99.182c-4.142,0-7.5,3.358-7.5,7.5
	C91.682,101.712,95.04,105.069,99.182,105.069z M336.218,364.832c-3.86,0-6.99,3.129-6.99,6.99c0,3.86,3.129,6.99,6.99,6.99
	c3.86,0,6.99-3.129,6.99-6.99C343.207,367.961,340.078,364.832,336.218,364.832z M330.842,450.94
	c0,17.685,11.111,29.568,27.648,29.568s27.647-11.883,27.647-29.568c0-20.199-11.627-34.859-27.647-34.859
	S330.842,430.74,330.842,450.94z M371.137,450.94c0,9.53-4.373,14.568-12.647,14.568s-12.648-5.038-12.648-14.568
	c0-9.869,4.345-19.859,12.648-19.859C366.793,431.08,371.137,441.07,371.137,450.94z M387.751,371.822c0-3.86-3.129-6.99-6.99-6.99
	c-3.86,0-6.99,3.129-6.99,6.99c0,3.86,3.129,6.99,6.99,6.99C384.622,378.811,387.751,375.682,387.751,371.822z M240.932,322.037
	v-8.779c0-4.143-3.358-7.5-7.5-7.5s-7.5,3.357-7.5,7.5v8.779c0,4.143,3.358,7.5,7.5,7.5S240.932,326.18,240.932,322.037z
	 M159.858,305.758c-4.142,0-7.5,3.357-7.5,7.5v8.779c0,4.143,3.358,7.5,7.5,7.5s7.5-3.357,7.5-7.5v-8.779
	C167.358,309.115,164,305.758,159.858,305.758z"/>
<g>
</g>
<g>
</g>
<g>
</g>
<g>
</g>
<g>
</g>
<g>
</g>
<g>
</g>
<g>
</g>
<g>
</g>
<g>
</g>
<g>
</g>
<g>
</g>
<g>
</g>
<g>
</g>
<g>
</g>
</svg>
