<?xml version="1.0" encoding="iso-8859-1"?>
<!-- Generator: Adobe Illustrator 19.0.0, SVG Export Plug-In . SVG Version: 6.00 Build 0)  -->
<svg version="1.1" id="Capa_1" xmlns="http://www.w3.org/2000/svg" xmlns:xlink="http://www.w3.org/1999/xlink" x="0px" y="0px"
	 viewBox="0 0 512 512" style="enable-background:new 0 0 512 512;" xml:space="preserve">
<path style="fill:#498A68;" d="M145.039,374.781c-2.524,0-5.083-0.604-7.465-1.876c-7.73-4.13-10.647-13.745-6.517-21.473
	c8.557-16.012,21.499-26.26,25.752-29.627l0.352-0.279c6.861-5.45,16.842-4.309,22.293,2.553c5.452,6.861,4.309,16.842-2.553,22.294
	l-0.394,0.312c-3.287,2.602-12.018,9.515-17.461,19.703C156.189,371.735,150.705,374.781,145.039,374.781z"/>
<path style="fill:#5CB38E;" d="M277.371,403.854c74.046,0,159.26,0,221.643-39.828c10.675-6.816,4.501-23.276-8.053-21.6
	c-49.402,6.595-90.898-5.98-114.56-26.35L277.371,403.854z"/>
<path style="opacity:0.1;enable-background:new    ;" d="M404.332,332.88c-0.825,23.647-4.455,47.251-19.031,66.878
	c-36.097,4.096-73.239,4.096-107.93,4.096l99.03-87.778C383.986,322.605,393.41,328.326,404.332,332.88z"/>
<g>
	<path style="fill:#498A68;" d="M310.521,476.082c-12.633,0-23.328-9.735-24.313-22.54c-0.301-3.909-1.868-66.367,4.714-82.521
		c5.087-12.485,19.331-18.481,31.818-13.396c11.975,4.879,17.981,18.183,13.963,30.278c-1.75,9.01-2.756,49.695-1.818,61.894
		c1.034,13.443-9.025,25.178-22.467,26.212C311.782,476.058,311.148,476.082,310.521,476.082z M336.147,389.415
		c-0.004,0.01-0.008,0.019-0.011,0.029C336.139,389.434,336.143,389.425,336.147,389.415z"/>
	<path style="fill:#498A68;" d="M209.226,474.005c-12.55,0-23.217-9.618-24.297-22.35c-2.621-30.919,16.639-78.618,17.461-80.633
		c5.088-12.485,19.331-18.481,31.818-13.396c12.486,5.087,18.482,19.332,13.395,31.818c-5.47,13.423-15.199,44.244-14.025,58.086
		c1.138,13.435-8.829,25.248-22.263,26.386C210.614,473.976,209.916,474.005,209.226,474.005z"/>
</g>
<path style="opacity:0.1;enable-background:new    ;" d="M322.74,357.626c-12.487-5.086-26.731,0.911-31.818,13.396
	c-4.831,11.857-5.272,48.654-5.046,68.941c18.665-0.889,34.81-3.291,48.659-7.297c0.086-16.702,0.945-38.465,2.168-44.761
	C340.721,375.809,334.715,362.504,322.74,357.626z"/>
<path style="opacity:0.1;enable-background:new    ;" d="M234.208,357.626c-12.487-5.086-26.731,0.911-31.818,13.396
	c-0.619,1.519-11.703,28.973-16.01,55.644c13.113,5.907,28.852,9.848,47.54,11.929c1.855-15.449,9.199-38.144,13.682-49.149
	C252.691,376.959,246.693,362.713,234.208,357.626z"/>
<path style="fill:#5CB38E;" d="M157.247,317.725c0,56.99,7.741,98.226,111.451,98.226s111.451-41.236,111.451-98.226
	s-49.898-103.189-111.451-103.189S157.247,260.735,157.247,317.725z"/>
<path style="fill:#9BDFC1;" d="M157.247,317.725c0-0.454,0.012-0.906,0.018-1.359c23.214-5.958,69.258-7.69,101.3,26.362
	c23.349,24.814,26.728,51.592,24.223,72.947c-4.489,0.182-9.182,0.275-14.09,0.275C164.988,415.951,157.247,374.715,157.247,317.725
	z"/>
<path style="opacity:0.05;enable-background:new    ;" d="M289.856,216.401c51.433,9.153,90.294,51.033,90.294,101.324
	c0,52.77-6.65,92.028-89.968,97.553C336.442,368.324,327.495,271.375,289.856,216.401z"/>
<path style="fill:#959BA0;" d="M359.834,305.161h-196.14c-15.804,0-28.616-12.812-28.616-28.616v-15.277
	c0-15.804,12.812-28.616,28.616-28.616h196.14c15.804,0,28.616,12.812,28.616,28.616v15.277
	C388.45,292.35,375.637,305.161,359.834,305.161z"/>
<g style="opacity:0.1;">
	<rect x="254.261" y="232.651" width="14.999" height="72.507"/>
	<rect x="207.672" y="232.651" width="14.999" height="72.507"/>
	<rect x="166.264" y="232.651" width="14.999" height="72.507"/>
	<rect x="300.859" y="232.651" width="14.999" height="72.507"/>
	<rect x="342.267" y="232.651" width="14.999" height="72.507"/>
</g>
<path style="fill:#495059;" d="M166.397,65.923L166.397,65.923c19.031-28.78,51.233-46.091,85.737-46.091h42.413
	c60.3,0,109.182,48.882,109.182,109.182v50.198c0,54.118-43.871,97.989-97.99,97.989H80.906c-40.541,0-73.406-32.865-73.406-73.406
	v-34.164c0-40.541,32.865-73.406,73.406-73.406h29.126C132.715,96.225,153.885,84.843,166.397,65.923z"/>
<path style="fill:#5CB38E;" d="M315.041,109.679h-91.238c-18.418,0-33.35-14.931-33.35-33.35l0,0c0-18.418,14.931-33.35,33.35-33.35
	h91.238c18.418,0,33.35,14.931,33.35,33.35l0,0C348.392,94.748,333.461,109.679,315.041,109.679z"/>
<g style="opacity:0.1;">
	<circle cx="344.417" cy="203.072" r="7.514"/>
	<circle cx="290.999" cy="214.532" r="7.514"/>
	<circle cx="321.568" cy="240.171" r="7.514"/>
</g>
<g>
	<path style="fill:#FFFFFF;" d="M95.434,230.537c-7.913,0-15.437-3.427-20.643-9.402c-2.721-3.123-2.396-7.86,0.727-10.581
		c3.124-2.721,7.86-2.396,10.581,0.728c2.357,2.704,5.76,4.256,9.336,4.256c3.576,0,6.978-1.552,9.335-4.257
		c2.721-3.123,7.46-3.448,10.582-0.727c3.123,2.722,3.448,7.459,0.727,10.582C110.871,227.111,103.347,230.537,95.434,230.537z"/>
	<circle style="fill:#FFFFFF;" cx="119.376" cy="134.565" r="7.514"/>
	<circle style="fill:#FFFFFF;" cx="71.487" cy="134.565" r="7.514"/>
</g>
<path style="opacity:0.05;enable-background:new    ;" d="M318.803,22.54c48.625,11.031,84.927,54.511,84.927,106.474v50.198
	c0,54.118-43.871,97.99-97.99,97.99h-59.461C332.875,226.817,347.553,88.318,318.803,22.54z"/>
<path style="fill:#DEE2E5;" d="M273.813,373.231l-15.402-37.773c-2.796-6.856-12.018-8.01-16.416-2.054l0,0
	c-7.582,10.266-17.493,18.582-28.919,24.266l0,0c-6.629,3.298-7.094,12.58-0.828,16.523l34.525,21.727L273.813,373.231z"/>
<path style="opacity:0.05;enable-background:new    ;" d="M273.813,373.231l-15.402-37.773c-2.796-6.856-12.018-8.01-16.416-2.054
	l0,0c-7.582,10.266-17.493,18.582-28.919,24.266l0,0c-6.629,3.298-7.094,12.58-0.828,16.523l34.525,21.727L273.813,373.231z"/>
<path style="fill:#DEE2E5;" d="M348.514,377.019c24.063,28.677,21.155,57.596-18.391,90.779
	c-39.546,33.183-68.53,31.025-92.594,2.348c-24.063-28.677-18.725-72.772,11.923-98.488
	C280.1,345.941,324.451,348.342,348.514,377.019z"/>
<path style="fill:#498A68;" d="M261.778,375.836c-5.613,0-11.053-2.985-13.935-8.257c-4.205-7.69-1.381-17.329,6.307-21.535
	c6.132-3.354,9.031-10.53,9.406-12.546c0.238-8.555,7.249-15.416,15.86-15.416c8.764,0,15.867,7.104,15.867,15.867
	c0,10.701-8.038,30.165-25.905,39.937C266.96,375.208,264.351,375.836,261.778,375.836z M263.548,333.938c0,0.004,0,0.007,0,0.011
	C263.548,333.945,263.548,333.942,263.548,333.938z"/>
<path d="M223.804,35.479c-22.524,0-40.849,18.325-40.849,40.85s18.325,40.849,40.849,40.849h91.238
	c22.524,0,40.85-18.324,40.85-40.849s-18.325-40.85-40.85-40.85C315.041,35.479,223.804,35.479,223.804,35.479z M340.892,76.329
	c0,14.253-11.597,25.85-25.851,25.85h-91.238c-14.253,0-25.85-11.597-25.85-25.85c0-14.254,11.597-25.851,25.85-25.851h91.238
	C329.296,50.479,340.892,62.075,340.892,76.329z M510.774,347.553c-3.198-8.748-11.56-13.803-20.805-12.561
	c-39.44,5.26-77.347-2.097-102.351-19.709c-0.113-4.747-0.559-9.499-1.321-14.196c5.984-6.448,9.652-15.072,9.652-24.541v-15.277
	c0-6.852-1.934-13.479-5.524-19.192c8.644-11.645,14.883-25.008,18.135-39.191c0.926-4.037-1.596-8.061-5.633-8.987
	c-4.038-0.922-8.061,1.596-8.987,5.634c-4.501,19.624-15.666,37.438-31.439,50.159c-16.233,13.093-35.862,20.012-56.763,20.012
	H80.906c-36.341-0.002-65.907-29.567-65.907-65.909v-34.164c0-36.342,29.566-65.907,65.907-65.907h29.126
	c25.271,0,48.681-12.585,62.621-33.665c17.692-26.756,47.405-42.728,79.481-42.728h42.413c56.068,0,101.683,45.614,101.683,101.683
	v38.593c0,4.143,3.358,7.5,7.5,7.5c4.142,0,7.5-3.357,7.5-7.5v-38.593c0-64.339-52.343-116.683-116.683-116.683h-42.413
	c-37.125,0-71.514,18.487-91.993,49.455c-11.155,16.867-29.887,26.938-50.109,26.938H80.906C36.295,88.725,0,125.02,0,169.631
	v34.164c0,44.611,36.295,80.906,80.906,80.906h47.627c2.682,11.424,10.861,20.822,21.514,25.239c-0.193,2.592-0.3,5.193-0.3,7.785
	c0,0.044,0,0.09,0,0.135c-5.916,4.85-17.297,15.054-25.305,30.037c-2.942,5.506-3.564,11.827-1.752,17.799
	c1.813,5.973,5.843,10.883,11.351,13.825c3.383,1.806,7.186,2.761,10.997,2.761c5.033,0,9.807-1.613,13.727-4.458
	c0.716,1.578,1.468,3.137,2.301,4.65c5.202,9.445,12.534,17.172,22.11,23.265c-1.974,7.655-3.484,14.876-4.484,21.518
	c-0.617,4.096,2.204,7.917,6.299,8.533c0.379,0.058,0.755,0.085,1.127,0.085c3.648,0,6.847-2.667,7.407-6.384
	c0.783-5.198,1.914-10.813,3.359-16.752c5.684,2.308,11.93,4.225,18.744,5.765c-1.801,14.286,0.363,28.817,6.684,41.822
	c-2.864,3.5-7.013,5.726-11.645,6.119c-0.469,0.04-0.954,0.061-1.443,0.061c-6.27,0-11.992-3.453-14.932-9.012
	c-1.937-3.663-6.477-5.059-10.136-3.123c-3.662,1.938-5.06,6.476-3.123,10.137c5.546,10.485,16.348,16.997,28.191,16.997
	c0.918,0,1.838-0.039,2.722-0.115c7.049-0.597,13.509-3.453,18.581-8.005c0.418,0.527,0.821,1.062,1.256,1.581
	c13.753,16.392,29.287,24.702,46.166,24.702h0.081c17.376-0.027,35.993-8.573,56.912-26.126
	c20.919-17.552,32.568-34.401,35.612-51.51c0.791-4.446,0.961-8.9,0.55-13.354c56.466-4.771,98.559-17.016,131.944-38.332
	C510.836,365.376,513.941,356.215,510.774,347.553z M152.432,362.853c-1.46,2.732-4.293,4.429-7.395,4.429
	c-1.375,0-2.698-0.334-3.931-0.992c-1.971-1.053-3.414-2.811-4.063-4.949c-0.649-2.14-0.426-4.403,0.627-6.374
	c3.687-6.898,8.301-12.642,12.568-17.132c0.469,7.876,1.386,15.799,3.099,23.42C153.027,361.788,152.715,362.323,152.432,362.853z
	 M144.26,284.701h161.48c24.017,0,47.519-8.288,66.179-23.336c2.741-2.211,5.347-4.569,7.842-7.032
	c0.769,2.21,1.19,4.545,1.19,6.934v15.277c0,11.645-9.473,21.116-21.116,21.116h-196.14
	C155.027,297.662,147.484,292.287,144.26,284.701z M271.047,333.834c0.001-0.042,0.003-0.085,0.004-0.127
	c0.127-4.557,3.801-8.126,8.364-8.126c4.614,0,8.368,3.754,8.368,8.367c0,4.197-1.679,10.288-5.13,16.377
	c-0.138,0.215-0.264,0.439-0.38,0.668c-3.626,6.163-9.078,12.256-16.493,16.311c-1.251,0.684-2.597,1.03-4.001,1.03
	c-3.068,0-5.886-1.669-7.356-4.355c-2.214-4.049-0.722-9.144,3.327-11.357c3.882-2.124,6.757-5.161,8.825-8.172
	c0.009-0.014,0.019-0.027,0.028-0.041c1.744-2.547,2.912-5.072,3.601-7.003c0.54-1.035,0.844-2.212,0.844-3.46v-0.011
	C271.048,333.903,271.048,333.868,271.047,333.834z M218.901,403.875c-9.174-2.058-16.984-4.809-23.555-8.324
	c-0.013-0.007-0.026-0.014-0.04-0.021c-9.5-5.09-16.41-11.779-21.1-20.293c-7.851-14.252-9.459-33.3-9.459-57.513
	c0-1.686,0.06-3.376,0.155-5.064h104.854c-5.168,2.324-9.311,6.455-11.638,11.637c-1.919-1.097-4.075-1.824-6.384-2.113
	c-6.174-0.769-12.075,1.755-15.774,6.764c-6.843,9.267-15.912,16.876-26.226,22.007c-5.575,2.773-9.089,8.142-9.4,14.358
	c-0.311,6.219,2.648,11.911,7.917,15.226l16.215,10.206C222.21,394.991,220.356,399.388,218.901,403.875z M240.502,369.642
	c-2.832,2.709-5.439,5.568-7.808,8.559l-16.452-10.355c-0.814-0.512-0.953-1.251-0.926-1.781c0.026-0.529,0.239-1.251,1.1-1.68
	c12.433-6.185,23.364-15.356,31.612-26.525c0.571-0.773,1.319-0.853,1.846-0.791c0.526,0.065,1.23,0.331,1.593,1.222l0.184,0.45
	c-0.348,0.27-0.715,0.514-1.098,0.724C239.754,345.37,235.475,358.613,240.502,369.642z M355.788,419.404
	c-2.369,13.313-12.626,27.661-30.486,42.647c-17.86,14.985-33.772,22.595-47.293,22.616h-0.058
	c-12.411,0-23.755-6.329-34.677-19.345c-20.416-24.332-16.802-61.416,7.495-84.751c3.331,1.777,7.095,2.763,11.009,2.763
	c3.892,0,7.764-0.992,11.198-2.87c8.618-4.713,15.464-11.547,20.414-18.969c19.255-1.261,37.507,6.194,49.378,20.343
	c4.036,4.81,7.156,9.517,9.385,14.157c0.01,0.021,0.021,0.041,0.031,0.062C355.975,403.976,357.159,411.699,355.788,419.404z
	 M354.259,372.197c-13.234-15.772-32.651-24.952-53.577-25.775c1.387-4.403,2.1-8.664,2.1-12.474c0-9.458-5.651-17.614-13.75-21.287
	h70.801c4.388,0,8.595-0.789,12.489-2.228c0.201,2.429,0.327,4.862,0.327,7.292c0,27.941-2.216,47.965-12.473,62.33
	C358.407,377.429,356.45,374.808,354.259,372.197z M494.979,357.704c-31.56,20.149-71.939,31.691-126.667,36.158
	c14.503-16.448,18.216-38.436,19.087-60.972c27.654,15.852,65.591,22.169,104.555,16.969c3.18-0.427,4.369,1.847,4.733,2.842
	C497.035,353.656,497.567,356.052,494.979,357.704z M240.556,59.353l-20.827-1.765c-4.135-0.342-7.756,2.714-8.107,6.841
	c-0.35,4.127,2.713,7.756,6.84,8.106l6.7,0.568c-1.699,1.375-2.787,3.475-2.787,5.831v9.438c0,4.143,3.358,7.5,7.5,7.5
	c4.142,0,7.5-3.357,7.5-7.5v-9.438c0-1.902-0.714-3.633-1.88-4.955l3.795,0.322c0.215,0.018,0.43,0.026,0.642,0.026
	c3.855,0,7.133-2.955,7.465-6.867C247.746,63.332,244.684,59.703,240.556,59.353z M315.092,438.216
	c6.872-6.89,7.473-18.039,1.102-25.632c-6.738-8.031-18.753-9.083-26.785-2.343l-8.897,7.467c-1.695,1.422-4.232,1.199-5.654-0.494
	c-0.689-0.821-1.017-1.862-0.924-2.93c0.094-1.067,0.597-2.035,1.418-2.725l3.299-2.768c0.437-0.237,0.86-0.509,1.255-0.84
	c0.408-0.343,0.769-0.72,1.085-1.124l12.078-10.135c3.173-2.662,3.587-7.394,0.924-10.566c-2.662-3.172-7.394-3.585-10.566-0.924
	l-7.523,6.313l-3.867-4.609c-2.662-3.172-7.394-3.588-10.566-0.924c-3.173,2.662-3.587,7.393-0.924,10.566l3.92,4.671
	c-3.151,3.151-5.083,7.264-5.476,11.757c-0.442,5.059,1.111,9.987,4.376,13.878c6.739,8.031,18.753,9.082,26.786,2.343l8.897-7.467
	c1.695-1.421,4.231-1.199,5.654,0.495c1.422,1.695,1.2,4.232-0.495,5.654l-4.439,3.725c-0.003,0.003-0.007,0.005-0.01,0.008
	c-0.003,0.003-0.006,0.006-0.009,0.008l-13.259,11.125c-3.173,2.662-3.587,7.393-0.925,10.566c1.484,1.767,3.609,2.679,5.749,2.679
	c1.701,0,3.412-0.575,4.817-1.755l7.523-6.313l3.867,4.608c1.483,1.768,3.608,2.679,5.749,2.679c1.701,0,3.412-0.576,4.817-1.755
	c3.173-2.662,3.587-7.393,0.924-10.566L315.092,438.216z M291.449,67.459c0.331,3.912,3.609,6.867,7.465,6.867
	c0.212,0,0.426-0.009,0.642-0.026l3.796-0.322c-1.167,1.322-1.88,3.053-1.88,4.955v9.438c0,4.143,3.358,7.5,7.5,7.5
	s7.5-3.357,7.5-7.5v-9.438c0-2.356-1.088-4.456-2.787-5.831l6.699-0.568c4.127-0.351,7.189-3.979,6.84-8.106
	c-0.35-4.127-3.978-7.183-8.107-6.841l-20.827,1.766C294.161,59.703,291.099,63.332,291.449,67.459z"/>
<g>
</g>
<g>
</g>
<g>
</g>
<g>
</g>
<g>
</g>
<g>
</g>
<g>
</g>
<g>
</g>
<g>
</g>
<g>
</g>
<g>
</g>
<g>
</g>
<g>
</g>
<g>
</g>
<g>
</g>
</svg>
