<?xml version="1.0" encoding="iso-8859-1"?>
<!-- Generator: Adobe Illustrator 19.0.0, SVG Export Plug-In . SVG Version: 6.00 Build 0)  -->
<svg version="1.1" id="Capa_1" xmlns="http://www.w3.org/2000/svg" xmlns:xlink="http://www.w3.org/1999/xlink" x="0px" y="0px"
	 viewBox="0 0 512.003 512.003" style="enable-background:new 0 0 512.003 512.003;" xml:space="preserve">
<path style="fill:#498A68;" d="M354.358,413.839c-0.073,0.012-0.146,0.023-0.22,0.034c-8.165,1.178-15.738-4.484-16.917-12.649
	c-1.554-10.762-7.066-19.677-9.141-23.033l-0.248-0.402c-4.326-7.024-2.14-16.224,4.884-20.55c7.026-4.322,16.224-2.139,20.55,4.884
	l0.221,0.359c2.685,4.343,10.856,17.559,13.299,34.475C367.954,405.045,362.404,412.557,354.358,413.839z"/>
<path style="fill:#5CB38E;" d="M235.887,436.515c-69.699,0-149.911,0-208.631-37.49c-10.048-6.415-4.237-21.909,7.58-20.332
	c46.502,6.208,85.562-5.629,107.835-24.803L235.887,436.515z"/>
<path style="opacity:0.1;enable-background:new    ;" d="M116.379,369.707c0.777,22.259,4.194,44.478,17.915,62.952
	c33.978,3.855,68.939,3.855,101.594,3.855l-93.216-82.625C135.531,360.036,126.659,365.421,116.379,369.707z"/>
<g>
	<path style="fill:#498A68;" d="M204.683,504.503c-0.592,0-1.187-0.022-1.787-0.068c-12.653-0.974-22.122-12.02-21.148-24.673
		c0.883-11.482-0.063-49.779-1.711-58.26c-3.782-11.385,1.873-23.908,13.144-28.5c11.756-4.788,25.162,0.857,29.95,12.609
		c6.196,15.206,4.721,73.998,4.437,77.677C226.642,495.338,216.573,504.502,204.683,504.503z M180.562,422.924
		c0.003,0.009,0.007,0.018,0.011,0.027C180.569,422.942,180.565,422.933,180.562,422.924z"/>
	<path style="fill:#498A68;" d="M288.018,504.503c-0.592,0-1.187-0.022-1.787-0.068c-12.653-0.974-22.121-12.02-21.148-24.673
		c0.883-11.482-0.064-49.779-1.712-58.26c-3.782-11.385,1.873-23.908,13.144-28.5c11.754-4.788,25.163,0.857,29.95,12.609
		c6.196,15.207,4.721,73.998,4.438,77.677C309.977,495.338,299.908,504.502,288.018,504.503z M263.896,422.925
		c0.003,0.008,0.007,0.017,0.011,0.026C263.903,422.942,263.899,422.933,263.896,422.925z"/>
</g>
<path style="opacity:0.1;enable-background:new    ;" d="M311.259,461.992c-0.018-19.531-0.861-46.732-4.793-56.383
	c-4.787-11.752-18.196-17.396-29.95-12.609c-11.271,4.592-16.926,17.116-13.144,28.5c1.321,6.801,2.191,32.764,2.029,48.709
	C283.14,469.045,298.34,466.334,311.259,461.992z"/>
<path style="opacity:0.1;enable-background:new    ;" d="M193.181,393.001c-11.271,4.592-16.926,17.116-13.144,28.5
	c1.152,5.927,1.96,26.412,2.041,42.134c13.037,3.77,28.233,6.031,45.803,6.868c0.213-19.096-0.202-53.733-4.75-64.894
	C218.343,393.858,204.937,388.213,193.181,393.001z"/>
<path style="fill:#5CB38E;" d="M348.959,355.442c0,53.644-7.287,92.46-104.908,92.46s-104.909-38.816-104.909-92.46
	s46.969-97.131,104.908-97.131C301.99,258.311,348.959,301.798,348.959,355.442z"/>
<path style="fill:#9BDFC1;" d="M348.959,355.442c0-0.427-0.011-0.852-0.017-1.279c-21.851-5.608-65.192-7.238-95.353,24.814
	c-21.979,23.357-25.159,48.563-22.801,68.665c4.225,0.171,8.642,0.259,13.263,0.259
	C341.672,447.902,348.959,409.086,348.959,355.442z"/>
<path style="opacity:0.05;enable-background:new    ;" d="M224.134,260.066c-48.414,8.616-84.992,48.037-84.992,95.375
	c0,49.672,6.259,86.625,84.686,91.826C180.284,403.07,188.706,311.813,224.134,260.066z"/>
<path style="fill:#5CB38E;" d="M340.346,118.423L340.346,118.423c-17.914-27.091-48.226-43.386-80.704-43.386h-39.924
	c-56.76,0-102.772,46.013-102.772,102.772v47.251c0,50.941,41.296,92.237,92.237,92.237h211.634
	c38.161,0,69.097-30.936,69.097-69.097v-32.158c0-38.161-30.936-69.097-69.097-69.097h-27.416
	C372.05,146.945,352.123,136.233,340.346,118.423z"/>
<g style="opacity:0.1;">
	<circle cx="172.772" cy="247.522" r="7.07"/>
	<circle cx="223.052" cy="258.312" r="7.07"/>
	<circle cx="194.282" cy="282.432" r="7.07"/>
</g>
<path style="opacity:0.05;enable-background:new    ;" d="M196.887,77.587c-45.77,10.383-79.941,51.311-79.941,100.223v47.251
	c0,50.941,41.296,92.237,92.237,92.237h55.97C183.641,269.871,169.825,139.503,196.887,77.587z"/>
<path style="fill:#498A68;" d="M237.185,416.812c-0.641,0-1.288-0.04-1.939-0.126c-8.18-1.06-13.952-8.552-12.891-16.732
	c1.398-10.789-1.517-20.864-2.615-24.658l-0.131-0.456c-2.28-7.928,2.299-16.202,10.227-18.482
	c7.929-2.276,16.202,2.299,18.481,10.227l0.118,0.407c1.42,4.909,5.742,19.846,3.544,36.803
	C251.002,411.324,244.578,416.812,237.185,416.812z"/>
<path d="M212.402,376.922l0.133,0.461c0.979,3.383,3.579,12.369,2.381,21.607c-0.771,5.943,0.819,11.831,4.477,16.578
	c3.658,4.748,8.945,7.786,14.872,8.554c0.958,0.126,1.94,0.191,2.92,0.191c11.228,0,20.785-8.405,22.23-19.551
	c2.399-18.507-2.249-34.573-3.778-39.858l-0.118-0.407c-1.155-3.979-5.315-6.267-9.293-5.113s-6.268,5.315-5.113,9.293l0.117,0.402
	c1.313,4.537,5.308,18.346,3.311,33.754c-0.48,3.694-3.641,6.48-7.355,6.48c-0.326,0-0.649-0.021-0.976-0.064
	c-1.969-0.256-3.721-1.263-4.933-2.836s-1.739-3.525-1.484-5.494c1.599-12.336-1.632-23.502-2.847-27.702l-0.131-0.455
	c-1.149-3.979-5.307-6.271-9.286-5.126C213.549,368.784,211.254,372.942,212.402,376.922z M223.431,14.969l15.415,1.453
	l-17.208,16.28c-2.231,2.11-2.95,5.368-1.814,8.222s3.897,4.726,6.968,4.726h14.713l-8.312,9.066
	c-2.799,3.054-2.592,7.798,0.461,10.597c1.44,1.32,3.255,1.972,5.066,1.972c2.029,0,4.052-0.818,5.531-2.432l19.832-21.635
	c2.01-2.193,2.534-5.366,1.336-8.088c-1.198-2.723-3.891-4.481-6.865-4.481h-12.921l15.534-14.695
	c2.138-2.022,2.895-5.109,1.936-7.892c-0.959-2.783-3.457-4.747-6.387-5.023l-31.877-3.005c-4.121-0.391-7.782,2.64-8.17,6.763
	C216.279,10.923,219.307,14.581,223.431,14.969z M420.818,139.445h-27.416c-18.888,0-36.383-9.405-46.8-25.159
	c-19.358-29.272-51.866-46.749-86.959-46.749h-39.924c-60.804,0-110.272,49.468-110.272,110.272v47.252
	c0,31.106,14.295,59.413,37.355,77.88c-9.48,15.178-14.653,32.266-15.108,49.955c-23.449,16.434-58.936,23.29-95.865,18.363
	c-8.913-1.192-16.973,3.675-20.056,12.106c-3.054,8.354-0.061,17.187,7.447,21.98c45.94,29.331,102.9,35.6,147.8,37.648
	c1.031,0.497,2.081,0.982,3.158,1.449c0.501,13.873,0.556,28.725,0.093,34.742c-1.289,16.757,11.295,31.438,28.054,32.728
	c0.782,0.06,1.576,0.09,2.359,0.09c15.813-0.001,29.149-12.362,30.362-28.14c0.143-1.855,0.497-14.017,0.339-28.566
	c2.822,0.07,5.709,0.105,8.665,0.105c4.762,0,9.34-0.094,13.755-0.276c0.201,10.391,0.135,19.702-0.2,24.06
	c-1.289,16.756,11.294,31.438,28.054,32.728c0.782,0.06,1.576,0.09,2.36,0.09c10.573-0.001,20.235-5.369,25.845-14.358
	c2.193-3.514,1.122-8.141-2.392-10.333c-3.513-2.195-8.141-1.123-10.333,2.392c-2.852,4.57-7.757,7.299-13.121,7.3
	c-0.403,0-0.811-0.016-1.212-0.046c-8.509-0.655-14.9-8.111-14.245-16.621c0.427-5.555,0.428-16.229,0.225-26.241
	c11.633-1.161,21.866-3.108,30.813-5.866c0.088,3.841,0.141,7.867,0.155,12.056c0.014,4.133,3.37,7.474,7.499,7.474h0.026
	c4.142-0.015,7.488-3.384,7.474-7.526c-0.022-6.349-0.129-12.349-0.317-17.91c8.257-4.176,15.006-9.378,20.376-15.661
	c1.835-2.147,3.47-4.393,4.945-6.719c2.612,1.034,5.41,1.582,8.256,1.582c1.064,0,2.135-0.075,3.205-0.229l0.318-0.05
	c12.038-1.917,20.413-13.294,18.671-25.361c-2.666-18.46-11.455-32.675-14.335-37.334l-0.223-0.361
	c-0.913-1.481-1.995-2.823-3.21-4.04c-0.13-10.048-1.767-19.876-4.886-29.349h69.262c42.236,0,76.597-34.361,76.597-76.598v-32.158
	C497.415,173.806,463.053,139.445,420.818,139.445z M31.291,392.703c-2.089-1.334-1.793-3.195-1.431-4.186
	c0.306-0.837,1.312-2.741,3.983-2.39c36.475,4.873,71.997-0.966,98.057-15.67c0.842,20.627,4.272,40.819,17.342,56.149
	C110.772,423.459,67.054,415.536,31.291,392.703z M220.091,482.711c-0.616,8.014-7.384,14.291-15.407,14.292
	c-0.403,0-0.811-0.016-1.212-0.046c-8.509-0.655-14.899-8.111-14.245-16.621c0.48-6.243,0.44-18.907,0.119-30.731
	c9.089,2.39,19.4,4.025,31.03,4.933C220.558,469.324,220.185,481.456,220.091,482.711z M355.324,382.764
	c1.717,4.512,3.232,9.675,4.039,15.263c0.577,4-2.197,7.77-6.19,8.405l-0.106,0.018c-0.933,0.135-1.868,0.084-2.762-0.128
	C352.933,398.876,354.454,390.928,355.324,382.764z M482.415,248.201c0,33.965-27.632,61.598-61.597,61.598H222.03
	c-4.142,0-7.5,3.357-7.5,7.5s3.358,7.5,7.5,7.5h113.582c3.881,9.796,5.847,20.081,5.847,30.644c0,27.805-2.35,47.786-14.047,61.474
	c-4.732,5.537-10.994,10.05-18.942,13.588c-0.458,0.146-0.895,0.334-1.309,0.56c-10.889,4.597-24.825,7.447-42.189,8.657
	c-0.032,0.001-0.063-0.002-0.096-0.001c-0.212,0.007-0.42,0.027-0.627,0.051c-6.285,0.419-13.005,0.631-20.199,0.631
	c-5.462,0-10.654-0.121-15.59-0.362c-0.173-0.017-0.348-0.024-0.524-0.029c-17.538-0.891-31.78-3.332-43.089-7.421
	c-0.489-0.247-1.006-0.441-1.547-0.576c-2.259-0.868-4.397-1.804-6.414-2.812c-0.34-0.211-0.7-0.392-1.074-0.548
	c-6.163-3.222-11.178-7.124-15.123-11.74c-8.672-10.147-14.047-23.971-14.047-61.474c0-15.555,4.322-30.641,12.553-44.033
	c7.884,4.555,16.486,8.1,25.672,10.402c4.017,1.007,8.091-1.435,9.098-5.452c1.007-4.018-1.434-8.092-5.452-9.099
	c-9.757-2.445-18.744-6.53-26.719-11.9c-0.109-0.089-0.214-0.182-0.329-0.267c-0.247-0.18-0.503-0.337-0.762-0.483
	c-22.228-15.48-36.257-41.14-36.257-69.549v-47.252c0-52.533,42.739-95.272,95.272-95.272h39.924
	c30.044,0,57.875,14.962,74.448,40.023c13.202,19.965,35.375,31.885,59.311,31.885h27.416c33.965,0,61.597,27.633,61.597,61.598
	v32.159H482.415z M391.677,183.038c0-3.906-3.167-7.073-7.073-7.073s-7.073,3.167-7.073,7.073c0,3.906,3.167,7.073,7.073,7.073
	C388.511,190.111,391.677,186.944,391.677,183.038z M407.142,252.385c-7.575,0-14.779,3.28-19.764,9
	c-2.721,3.123-2.396,7.86,0.727,10.582c3.122,2.72,7.86,2.396,10.582-0.727c2.135-2.45,5.217-3.855,8.455-3.855
	c3.238,0,6.32,1.405,8.455,3.855c1.483,1.701,3.565,2.572,5.657,2.572c1.748,0,3.503-0.607,4.925-1.846
	c3.122-2.722,3.448-7.459,0.727-10.582C421.921,255.666,414.718,252.385,407.142,252.385z M429.68,175.965
	c-3.906,0-7.073,3.167-7.073,7.073c0,3.906,3.167,7.073,7.073,7.073s7.073-3.167,7.073-7.073S433.586,175.965,429.68,175.965z
	 M217.488,105.568l-18.697-5.164c-3.99-1.104-8.123,1.24-9.226,5.232c-1.102,3.993,1.24,8.124,5.233,9.227l7.997,2.209
	c-2.459,1.231-4.152,3.767-4.152,6.704v8.883c0,4.143,3.358,7.5,7.5,7.5s7.5-3.357,7.5-7.5v-8.883c0-1.487-0.438-2.87-1.185-4.035
	l1.037,0.286c0.668,0.185,1.34,0.272,2.001,0.272c3.289,0,6.307-2.181,7.225-5.505C223.823,110.801,221.48,106.671,217.488,105.568z
	 M287.946,100.404l-18.697,5.164c-3.993,1.103-6.335,5.233-5.233,9.227c0.919,3.324,3.936,5.505,7.225,5.505
	c0.661,0,1.333-0.088,2.001-0.272l1.037-0.286c-0.746,1.166-1.185,2.548-1.185,4.035v8.883c0,4.143,3.358,7.5,7.5,7.5
	s7.5-3.357,7.5-7.5v-8.883c0-2.938-1.693-5.474-4.152-6.704l7.997-2.209c3.993-1.103,6.336-5.233,5.233-9.227
	C296.068,101.644,291.936,99.299,287.946,100.404z"/>
<g>
</g>
<g>
</g>
<g>
</g>
<g>
</g>
<g>
</g>
<g>
</g>
<g>
</g>
<g>
</g>
<g>
</g>
<g>
</g>
<g>
</g>
<g>
</g>
<g>
</g>
<g>
</g>
<g>
</g>
</svg>
