<?xml version="1.0" encoding="iso-8859-1"?>
<!-- Generator: Adobe Illustrator 19.0.0, SVG Export Plug-In . SVG Version: 6.00 Build 0)  -->
<svg version="1.1" id="Capa_1" xmlns="http://www.w3.org/2000/svg" xmlns:xlink="http://www.w3.org/1999/xlink" x="0px" y="0px"
	 viewBox="0 0 512 512" style="enable-background:new 0 0 512 512;" xml:space="preserve">
<path style="fill:#498A68;" d="M164.812,390.826c-4.803,0-9.514-2.324-12.377-6.62c-4.551-6.828-2.703-16.052,4.125-20.603
	c14.146-9.426,29.36-12.156,34.359-13.052l0.413-0.075c8.074-1.464,15.806,3.899,17.268,11.971
	c1.462,8.075-3.897,15.805-11.971,17.268l-0.462,0.083c-3.864,0.693-14.128,2.535-23.13,8.533
	C170.504,390.02,167.643,390.826,164.812,390.826z"/>
<path style="fill:#5CB38E;" d="M310.714,401.581c66.97-17.944,144.039-38.596,190.807-89.734c8.004-8.751-1.57-22.142-12.517-17.584
	c-43.082,17.937-83.66,16.62-109.997,3.931L310.714,401.581z"/>
<path style="opacity:0.1;enable-background:new    ;" d="M408.341,306.623c4.984,21.587,7.422,43.815-1.006,65.098
	c-31.655,12.452-65.247,21.453-96.622,29.86l68.293-103.388C387.449,302.26,397.359,305.152,408.341,306.623z"/>
<g>
	<path style="fill:#498A68;" d="M324.416,478.727c-11.828,0.001-21.843-9.113-22.766-21.104c-0.281-3.66-1.75-62.141,4.415-77.27
		c4.766-11.69,18.106-17.302,29.793-12.541c11.212,4.571,16.836,17.027,13.073,28.351c-1.64,8.437-2.582,46.531-1.702,57.951
		c0.969,12.587-8.449,23.576-21.036,24.544C325.598,478.705,325.004,478.727,324.416,478.727z M348.41,397.579
		c-0.003,0.008-0.007,0.017-0.01,0.026C348.403,397.596,348.406,397.587,348.41,397.579z"/>
	<path style="fill:#498A68;" d="M231.212,474.813c-10.302,0-19.655-7.015-22.194-17.47c-7.785-32.062,0.043-66.158,19.48-84.842
		c9.1-8.751,23.571-8.463,32.318,0.637c8.748,9.1,8.463,23.569-0.637,32.318c-8.37,8.048-10.014,27.6-6.737,41.101
		c2.979,12.266-4.552,24.626-16.819,27.604C234.81,474.602,232.996,474.813,231.212,474.813z"/>
</g>
<path style="opacity:0.1;enable-background:new    ;" d="M260.178,405.457c9.1-8.748,9.386-23.218,0.637-32.318
	c-8.747-9.1-23.218-9.388-32.318-0.637c-14.903,14.326-22.971,37.715-22.419,62.299c12.98,7.345,28.538,10.953,46.983,10.954
	c0.006,0,0.008,0,0.013,0c0.06,0,0.122-0.002,0.183-0.002C250.233,432.291,251.971,413.347,260.178,405.457z"/>
<path style="opacity:0.1;enable-background:new    ;" d="M335.859,367.812c-11.687-4.761-25.027,0.85-29.793,12.541
	c-4.111,10.086-4.828,39.441-4.766,58.973c3.392-0.801,6.856-1.67,10.417-2.624c13.198-3.536,24.963-7.454,35.397-11.794
	c0.323-12.315,0.979-24.421,1.819-28.744C352.694,384.838,347.07,372.382,335.859,367.812z"/>
<path style="fill:#5CB38E;" d="M181.198,352.794c13.811,51.543,30.805,86.963,124.603,61.829
	c93.798-25.133,90.806-64.305,76.995-115.848c-13.811-51.543-70.137-81.234-125.806-66.318
	C201.321,247.376,167.387,301.251,181.198,352.794z"/>
<path style="fill:#9BDFC1;" d="M181.198,352.795c-0.11-0.411-0.208-0.822-0.312-1.233c19.551-11.013,60.775-23.739,98.007-0.707
	c27.131,16.784,36.676,40.184,39.587,60.105c-4.016,1.253-8.236,2.474-12.677,3.664
	C212.003,439.757,195.009,404.338,181.198,352.795z"/>
<path style="opacity:0.05;enable-background:new    ;" d="M276.578,229.019c48.736-4.186,94.03,24.274,106.218,69.758
	c12.788,47.726,16.288,84.844-57.727,110.032C355.528,355.131,323.942,269.616,276.578,229.019z"/>
<path style="fill:#CD5B5B;" d="M353.115,62.523c0,0,63.696,81.403,81.86,129.492c1.831,4.847,1.584,10.231-0.584,14.937
	l-13.673,29.682c-3.2,6.947-11.797,9.468-18.243,5.351l-20.617-13.17c-4.44-2.836-7.576-7.307-8.728-12.446
	c-5.694-25.384-16.975-84.156-33.439-123.93L353.115,62.523z"/>
<g>
	<path style="fill:#FAE17C;" d="M369.04,197.527l67.048,3.054c0.274-2.881-0.073-5.809-1.114-8.565
		c-0.756-2.002-1.598-4.066-2.504-6.174l-66.659-3.037C366.974,188.004,368.05,192.942,369.04,197.527z"/>
	<path style="fill:#FAE17C;" d="M347.592,114c1.555,4.729,3.053,9.565,4.49,14.459l47.347-1.099
		c-3.202-4.892-6.424-9.694-9.599-14.341L347.592,114z"/>
</g>
<path style="fill:#CD5B5B;" d="M354.744,71.498l-8.656,14.993c-3.337,5.781-10.105,8.643-16.578,7.014l-22.373-5.635
	c-8.055-2.029-11.935-11.199-7.782-18.394l17.286-29.94c4.154-7.195,14.035-8.419,19.821-2.458l16.066,16.557
	C357.177,58.424,358.082,65.718,354.744,71.498z"/>
<path style="opacity:0.2;enable-background:new    ;" d="M354.744,71.498l-8.656,14.993c-3.337,5.781-10.105,8.643-16.578,7.014
	l-22.373-5.635c-8.055-2.029-11.935-11.199-7.782-18.394l17.286-29.94c4.154-7.195,14.035-8.419,19.821-2.458l16.066,16.557
	C357.177,58.424,358.082,65.718,354.744,71.498z"/>
<path style="fill:#5CB38E;" d="M128.452,122.842L128.452,122.842C138.69,92.2,163.619,68.74,194.825,60.378l38.36-10.278
	c54.537-14.613,110.593,17.751,125.206,72.287l12.165,45.4c13.115,48.946-15.932,99.257-64.878,112.371l-203.344,54.487
	c-36.667,9.824-74.355-11.934-84.18-48.601l-8.279-30.899c-9.824-36.667,11.935-74.355,48.601-84.18l26.342-7.059
	C105.333,158.409,121.722,142.986,128.452,122.842z"/>
<g style="opacity:0.1;">
	<circle cx="322.7" cy="203.737" r="7.04"/>
	<circle cx="277.163" cy="227.056" r="7.04"/>
	<circle cx="311.021" cy="242.825" r="7.04"/>
</g>
<g>
	
		<ellipse transform="matrix(0.2588 0.9659 -0.9659 0.2588 344.8595 -184.3517)" style="fill:#FFA8CB;" cx="292.554" cy="132.536" rx="15.019" ry="21.927"/>
	
		<ellipse transform="matrix(0.2588 0.9659 -0.9659 0.2588 289.3906 -50.4308)" style="fill:#FFA8CB;" cx="177.556" cy="163.353" rx="15.019" ry="21.927"/>
</g>
<path style="opacity:0.05;enable-background:new    ;" d="M255.778,46.671c46.651-1.807,90.019,28.72,102.613,75.716l12.165,45.4
	c13.115,48.946-15.932,99.257-64.878,112.371l-53.778,14.41C318.009,228.014,297.721,99.195,255.778,46.671z"/>
<path style="fill:#CD5B5B;" d="M324.941,76.437L139.522,106.76c-8.401,1.374-14.847-7.316-11.094-14.957l9.661-19.671
	c3.89-7.919,11.369-13.467,20.077-14.891l136.899-22.389c8.205-1.342,16.558,1.323,22.47,7.169l13.976,13.82
	C338.561,62.813,334.724,74.837,324.941,76.437z"/>
<g>
	<polygon style="fill:#FAE17C;" points="150.441,104.975 172.653,101.343 218.606,47.357 196.395,50.99 	"/>
	<path style="fill:#FAE17C;" d="M303.583,34.885c-2.785-0.47-5.659-0.5-8.517-0.032l-12.285,2.009l-45.954,53.985l22.212-3.633
		L303.583,34.885z"/>
</g>
<path style="fill:#498A68;" d="M315.338,355.627c-11.411,0-21.146-2.281-25.387-4.031c-7.585-3.132-11.194-11.818-8.063-19.403
	c3.118-7.553,11.74-11.161,19.304-8.103c1.929,0.679,14.26,3.491,25.625,0.448c7.93-2.127,16.073,2.581,18.196,10.504
	c2.124,7.926-2.579,16.072-10.504,18.196C328.03,354.974,321.444,355.627,315.338,355.627z"/>
<path style="fill:#DEE2E5;" d="M357.256,359.594h-18.864c-4.573,0-8.462-3.334-9.162-7.854l-8.387-54.212
	c-0.366-2.363,1.462-4.496,3.854-4.496h46.257c2.391,0,4.219,2.133,3.854,4.496l-8.387,54.212
	C365.718,356.26,361.829,359.594,357.256,359.594z"/>
<path d="M508.555,293.823c-5.143-7.322-14.157-9.927-22.435-6.483c-34.196,14.238-70.041,16.786-96.79,7.044
	c-4.989-16.86-14.345-31.933-27.339-44.068c4.379-5.955,8.068-12.359,11.001-19.096c1.442,1.466,3.054,2.784,4.829,3.917
	l20.616,13.17c3.268,2.088,7.029,3.164,10.826,3.164c1.896,0,3.803-0.269,5.661-0.813c5.579-1.637,10.173-5.604,12.604-10.884
	l13.673-29.681c3.01-6.532,3.297-14.086,0.789-20.726c-15.302-40.511-61.305-103.004-77.781-124.704
	c0.156-5.91-2-11.821-6.298-16.25l-16.067-16.559c-4.411-4.544-10.548-6.702-16.827-5.924c-4.021,0.499-7.685,2.154-10.634,4.715
	c-6.266-3.165-13.459-4.348-20.528-3.193L156.957,49.84c-11.079,1.811-20.648,8.908-25.597,18.985l-9.663,19.672
	c-2.979,6.066-2.328,13.206,1.698,18.634c0.686,0.925,1.451,1.767,2.276,2.528c-1.638,3.527-3.104,7.134-4.331,10.806
	c-5.95,17.808-20.328,31.339-38.463,36.198l-26.342,7.059c-19.669,5.271-36.107,17.884-46.288,35.519
	C0.065,216.874-2.64,237.417,2.63,257.086l8.278,30.898c9.115,34.019,39.996,56.511,73.652,56.51c6.513,0,13.13-0.843,19.713-2.606
	l66.498-17.818c-0.441,7.891,0.078,15.755,1.555,23.525c-7.299,2.538-13.981,5.807-19.927,9.767
	c-10.259,6.838-13.043,20.745-6.207,31.001c4.156,6.238,11.115,9.961,18.618,9.961c4.418,0,8.699-1.298,12.385-3.754
	c2.602-1.734,5.596-3.219,8.938-4.444c3.799,7.89,8.457,15.138,14.454,21.231c-1.785,9.02-2.409,18.369-1.841,27.856
	c0.237,3.982,3.542,7.053,7.479,7.053c0.15,0,0.302-0.004,0.454-0.014c4.135-0.247,7.286-3.799,7.039-7.934
	c-0.337-5.639-0.18-11.208,0.44-16.662c8.528,4.706,18.538,7.503,30.268,8.404c-0.216,6.267,0.355,12.625,1.725,18.267
	c0.968,3.985,0.326,8.108-1.809,11.612c-2.135,3.503-5.507,5.966-9.491,6.934c-1.2,0.292-2.426,0.44-3.642,0.44
	c-3.979,0-7.76-1.53-10.646-4.309c-2.985-2.871-7.732-2.781-10.604,0.204c-2.872,2.984-2.781,7.732,0.204,10.603
	c5.696,5.481,13.17,8.499,21.047,8.499c2.406,0,4.821-0.29,7.18-0.862c7.88-1.914,14.543-6.781,18.763-13.705
	c4.22-6.926,5.489-15.078,3.575-22.957c-1.067-4.395-1.501-9.537-1.3-14.553c10.327-0.49,21.783-2.15,34.473-4.971
	c-0.292,16.112,0.096,30.649,0.272,32.934c1.209,15.718,14.494,28.028,30.242,28.027c0.781,0,1.572-0.03,2.354-0.091
	c16.689-1.284,29.222-15.907,27.937-32.597c-0.699-9.083-0.164-35.969,0.883-49.544c7.417-3.965,13.78-8.237,19.14-12.856
	c42.614-13.527,95.73-34.217,132.325-74.23C513.048,310.356,513.65,301.078,508.555,293.823z M352.583,90.24l5.254-9.099
	c19.152,25.685,56.962,78.685,70.123,113.526c1.098,2.907,0.959,6.241-0.38,9.148l-13.674,29.682
	c-0.846,1.838-2.37,2.521-3.203,2.767c-0.836,0.243-2.486,0.49-4.191-0.598l-20.617-13.171c-2.789-1.78-4.724-4.539-5.447-7.769
	c-0.312-1.387-0.642-2.886-0.988-4.472c2.737-14.362,2.336-29.495-1.66-44.409l-12.165-45.399
	c-2.866-10.695-7.315-20.817-13.136-30.07C352.525,90.33,352.556,90.286,352.583,90.24z M331.08,42.299l16.066,16.558
	c2.302,2.373,2.756,6.029,1.103,8.892l-5.465,9.465c-0.89-1.032-1.803-2.045-2.732-3.045c0.662-1.17,1.211-2.42,1.631-3.737
	c2.256-7.071,0.378-14.705-4.9-19.924l-9.812-9.704C327.924,40.708,329.622,40.795,331.08,42.299z M135.16,95.11l9.662-19.672
	c2.814-5.73,8.255-9.766,14.556-10.796l136.897-22.389c0.987-0.161,1.978-0.24,2.965-0.24c4.83,0,9.541,1.898,13.022,5.341
	l13.976,13.82c1.821,1.801,1.415,3.887,1.155,4.699c-0.259,0.813-1.135,2.749-3.664,3.163L138.312,99.36
	c-1.56,0.255-2.468-0.621-2.872-1.165C135.038,97.651,134.464,96.526,135.16,95.11z M168.878,382.091
	c-1.213,0.809-2.619,1.235-4.066,1.235c-2.475,0-4.768-1.226-6.137-3.279c-1.09-1.636-1.478-3.597-1.092-5.524
	c0.386-1.927,1.499-3.589,3.135-4.679c4.556-3.036,9.682-5.593,15.295-7.645c1.35,4.73,2.799,9.436,4.423,14.041
	C176.186,377.841,172.318,379.798,168.878,382.091z M339.753,454.69c0.649,8.443-5.69,15.842-14.132,16.492
	c-0.4,0.03-0.806,0.046-1.206,0.046c-7.96,0.001-14.675-6.228-15.287-14.18c-0.123-1.647-0.586-18.032-0.143-35.522
	c11.61-3.154,21.965-6.583,31.131-10.322C339.367,426.162,339.114,446.39,339.753,454.69z M377.884,363.372
	c-2.6,5.446-6.409,10.48-11.494,15.157c-0.322,0.248-0.625,0.517-0.9,0.811c-5.224,4.626-11.725,8.898-19.599,12.862
	c-0.481,0.179-0.94,0.404-1.371,0.674c-10.943,5.356-24.419,10.15-40.661,14.503c-19.917,5.337-36.572,8.022-50.425,8.066
	c-0.574-0.064-1.14-0.064-1.692,0c-14.191-0.179-25.354-3.232-33.994-9.165c-1.243-0.853-2.456-1.768-3.646-2.764
	c-0.276-0.276-0.571-0.535-0.891-0.767c-8.892-7.851-16.483-20.98-24.758-51.848c-0.012-0.046-0.022-0.086-0.034-0.131
	c-2.697-10.108-3.451-20.456-2.252-30.825l109.09-29.23c4.001-1.071,6.375-5.185,5.303-9.184c-1.072-4.001-5.185-6.377-9.185-5.303
	l-113.62,30.444c-0.025,0.006-0.05,0.014-0.075,0.02l-77.289,20.71c-32.614,8.739-66.255-10.685-74.995-43.299l-8.278-30.898
	c-4.233-15.799-2.061-32.3,6.118-46.465s21.383-24.297,37.182-28.53l26.342-7.059c23.012-6.166,41.256-23.337,48.806-45.932
	c1.251-3.743,2.769-7.419,4.516-10.977c0.218-0.028,0.435-0.044,0.653-0.08l185.418-30.323c0.673-0.11,1.33-0.264,1.978-0.439
	c10.957,11.45,18.883,25.5,23.018,40.93l12.165,45.399c3.442,12.845,3.75,25.885,1.314,38.237c-0.141,0.447-0.24,0.91-0.294,1.383
	c-2.869,13.355-8.957,25.855-17.794,36.369c-0.267,0.247-0.524,0.508-0.759,0.799c-0.13,0.161-0.247,0.329-0.361,0.497
	c-6.382,7.285-14.099,13.569-23.01,18.439c-3.635,1.986-4.971,6.543-2.984,10.177c1.362,2.493,3.934,3.904,6.588,3.904
	c1.215,0,2.448-0.296,3.59-0.92c8.481-4.635,16.043-10.361,22.605-16.911c7.326,6.942,13.265,14.983,17.63,23.833h-45.141
	c-3.333,0-6.487,1.451-8.655,3.981c-2.168,2.53-3.119,5.87-2.609,9.16l3.053,19.731c-6.316,0.149-11.73-1.048-12.801-1.391
	c-3.905-1.377-8.188,0.677-9.563,4.584c-1.376,3.907,0.677,8.188,4.584,9.563c1.747,0.615,8.531,2.247,16.769,2.247
	c1.082,0,2.195-0.04,3.319-0.103l2.257,14.586c-1.873,0.145-3.773,0.234-5.706,0.234c-10.367,0-19.152-2.071-22.527-3.464
	c-3.829-1.583-8.213,0.242-9.792,4.072c-1.58,3.829,0.243,8.214,4.072,9.792c5.547,2.289,16.432,4.599,28.247,4.599
	c3.879,0,7.683-0.261,11.373-0.747c3.029,2.937,7.148,4.715,11.678,4.715h18.864c8.329,0,15.3-5.975,16.573-14.206l5.606-36.23
	C383.45,335.575,383.975,350.613,377.884,363.372z M366.752,300.533l-7.747,50.061c-0.134,0.869-0.87,1.5-1.75,1.5h-18.864
	c-0.88,0-1.616-0.632-1.751-1.5l-7.746-50.061H366.752z M495.987,306.786c-28.457,31.115-68.376,49.976-104.501,62.901
	c8.561-18.066,6.672-38.303,2.185-58.294c28.821,7.401,64.438,3.857,98.214-10.205c2.449-1.021,3.891,0.539,4.396,1.257
	C496.877,303.292,497.633,304.986,495.987,306.786z M429.036,108.883c6.722,0.917,13.392-0.837,18.792-4.938
	c5.305-4.03,8.331-10.097,8.099-16.229c-0.218-5.714-3.265-10.877-8.358-14.168c-3.477-2.246-8.121-1.25-10.368,2.23
	c-2.248,3.479-1.249,8.121,2.23,10.368c1.464,0.945,1.496,1.813,1.509,2.141c0.047,1.214-0.811,2.673-2.184,3.715
	c-2.208,1.68-4.939,2.397-7.689,2.021c-2.749-0.376-5.188-1.799-6.865-4.009c-2.401-3.16-3.428-7.067-2.891-10.998
	c0.537-3.933,2.573-7.421,5.734-9.82c4.35-3.304,9.729-4.718,15.136-3.978c5.412,0.739,10.211,3.542,13.515,7.892
	c4.434,5.835,6.328,13.047,5.337,20.308c-0.992,7.262-4.752,13.7-10.587,18.133c-3.298,2.506-3.94,7.211-1.436,10.509
	c1.475,1.941,3.714,2.963,5.979,2.963c1.581,0,3.175-0.498,4.531-1.527c9.024-6.856,14.841-16.816,16.374-28.047
	c1.534-11.229-1.396-22.386-8.252-31.41c-5.728-7.541-14.048-12.399-23.43-13.68c-9.382-1.283-18.701,1.167-26.239,6.895
	c-6.351,4.825-10.441,11.833-11.521,19.735c-1.079,7.902,0.983,15.751,5.808,22.103
	C416.359,104.486,422.318,107.966,429.036,108.883z M120.551,373.364c-4.104,0.561-6.977,4.342-6.416,8.444
	c0.991,7.262-0.903,14.473-5.337,20.309c-4.433,5.836-10.872,9.595-18.133,10.587c-5.414,0.736-10.786-0.673-15.136-3.978
	c-4.35-3.304-7.152-8.104-7.892-13.516c-0.537-3.932,0.489-7.838,2.89-10.997c2.401-3.161,5.89-5.197,9.82-5.735
	c5.687-0.765,10.922,3.212,11.697,8.886c0.233,1.708-0.192,3.346-1.084,4.172c-0.239,0.221-0.88,0.809-2.579,0.445
	c-4.045-0.869-8.039,1.704-8.909,5.754c-0.871,4.05,1.705,8.039,5.754,8.909c5.932,1.277,11.735-0.222,15.93-4.106
	c4.502-4.172,6.651-10.603,5.75-17.203c-0.917-6.719-4.396-12.678-9.795-16.779c-5.4-4.104-12.072-5.857-18.793-4.939
	c-7.902,1.079-14.91,5.172-19.734,11.521c-4.824,6.352-6.887,14.2-5.807,22.102c1.281,9.381,6.139,17.702,13.678,23.43
	c6.232,4.733,13.677,7.228,21.369,7.228c1.615,0,3.242-0.11,4.87-0.333c11.23-1.534,21.191-7.35,28.047-16.375
	c6.857-9.024,9.787-20.181,8.253-31.41C128.435,375.675,124.651,372.805,120.551,373.364z M275.099,103.536
	c-1.071-4.001-5.185-6.378-9.185-5.303c-4.001,1.072-6.375,5.185-5.303,9.185l2.913,10.87c0.898,3.351,3.928,5.561,7.239,5.561
	c0.643,0,1.296-0.083,1.946-0.258c4.001-1.072,6.375-5.185,5.303-9.185L275.099,103.536z M104.383,203.116
	c3.753-1.006,5.981-4.864,4.975-8.616c-1.006-3.753-4.864-5.981-8.616-4.975c-3.754,1.006-5.981,4.864-4.975,8.616
	C96.772,201.894,100.63,204.122,104.383,203.116z M185.401,127.494c-4.004,1.061-6.389,5.168-5.328,9.171l0.021,0.081
	c0.889,3.352,3.905,5.542,7.215,5.542c0.642,0,1.295-0.082,1.946-0.255c4.004-1.061,6.378-5.208,5.317-9.211
	C193.511,128.818,189.404,126.437,185.401,127.494z M146.453,245.31c-1.778,0.887-3.77,1.217-5.751,0.954
	c-1.984-0.264-3.818-1.1-5.305-2.419c-3.1-2.749-7.837-2.469-10.587,0.631c-2.749,3.098-2.467,7.838,0.631,10.587
	c1.909,1.694,4.046,3.066,6.34,4.095c-2.222,14.52-12.875,26.697-27.396,30.589c-14.519,3.888-29.835-1.329-39.019-12.793
	c1.472-2.038,2.636-4.294,3.443-6.717c1.308-3.93-0.817-8.176-4.748-9.483c-3.933-1.309-8.175,0.817-9.483,4.748
	c-0.628,1.886-1.798,3.527-3.386,4.747c-1.586,1.22-3.473,1.929-5.455,2.05c-4.135,0.254-7.28,3.811-7.027,7.945
	c0.244,3.979,3.547,7.041,7.479,7.041c0.154,0,0.31-0.005,0.466-0.014c2.296-0.141,4.533-0.608,6.672-1.353
	c10.005,12.751,25.377,20.104,41.391,20.104c4.5,0,9.053-0.581,13.549-1.786c20.489-5.491,35.479-22.775,38.416-43.326
	c2.228-0.424,4.4-1.146,6.461-2.173c3.707-1.848,5.215-6.351,3.367-10.058C154.662,244.97,150.161,243.464,146.453,245.31z
	 M61.073,214.721c3.754-1.006,5.981-4.864,4.975-8.616c-1.006-3.753-4.864-5.981-8.616-4.975c-3.753,1.006-5.981,4.864-4.975,8.616
	C53.462,213.5,57.32,215.727,61.073,214.721z"/>
<g>
</g>
<g>
</g>
<g>
</g>
<g>
</g>
<g>
</g>
<g>
</g>
<g>
</g>
<g>
</g>
<g>
</g>
<g>
</g>
<g>
</g>
<g>
</g>
<g>
</g>
<g>
</g>
<g>
</g>
</svg>
