<?xml version="1.0" encoding="iso-8859-1"?>
<!-- Generator: Adobe Illustrator 19.0.0, SVG Export Plug-In . SVG Version: 6.00 Build 0)  -->
<svg version="1.1" id="Capa_1" xmlns="http://www.w3.org/2000/svg" xmlns:xlink="http://www.w3.org/1999/xlink" x="0px" y="0px"
	 viewBox="0 0 512.001 512.001" style="enable-background:new 0 0 512.001 512.001;" xml:space="preserve">
<path style="fill:#498A68;" d="M357.319,366.896c-11.2,0-21.749-4.517-29.656-13.281c-5.871-6.507-5.354-16.54,1.153-22.41
	c6.508-5.868,16.54-5.354,22.41,1.153c3.238,3.588,7.805,3.777,13.579,0.573c7.665-4.25,17.321-1.488,21.573,6.176
	c4.252,7.663,1.488,17.321-6.176,21.573C372.686,364.852,364.856,366.896,357.319,366.896z"/>
<path style="fill:#5CB38E;" d="M234.63,412.892c-74.046,0-159.26,0-221.643-39.828c-10.675-6.816-4.501-23.276,8.053-21.6
	c49.402,6.595,90.898-5.98,114.56-26.35L234.63,412.892z"/>
<path style="opacity:0.1;enable-background:new    ;" d="M107.668,341.918c0.825,23.647,4.455,47.251,19.032,66.879
	c36.097,4.096,73.239,4.096,107.93,4.096l-99.03-87.778C128.016,331.643,118.59,337.365,107.668,341.918z"/>
<g>
	<path style="fill:#498A68;" d="M208.267,485.12c-13.482,0-24.411-10.929-24.411-24.411c0-15.891-5.943-55.347-8.193-62.739
		c-4.72-12.361,1.284-26.288,13.6-31.307c12.485-5.083,26.731,0.912,31.818,13.398c5.219,12.813,11.598,63.403,11.598,80.648
		C232.678,474.19,221.749,485.12,208.267,485.12z M175.744,398.178c0.042,0.109,0.083,0.21,0.12,0.303
		C175.824,398.38,175.784,398.278,175.744,398.178z"/>
	<path style="fill:#498A68;" d="M301.464,485.121c-12.618,0.001-23.309-9.714-24.31-22.506
		c-0.875-11.168-10.159-56.511-12.868-64.406c-4.891-12.419,1.11-26.492,13.504-31.544c12.481-5.089,26.729,0.908,31.819,13.395
		c4.503,11.052,15.047,63.803,16.216,78.744c1.054,13.441-8.989,25.189-22.43,26.242
		C302.749,485.096,302.103,485.121,301.464,485.121z M264.338,398.334c0.021,0.052,0.042,0.102,0.06,0.149
		C264.378,398.435,264.358,398.384,264.338,398.334z"/>
</g>
<path style="opacity:0.1;enable-background:new    ;" d="M309.61,380.058c-5.09-12.486-19.338-18.482-31.819-13.395
	c-12.394,5.052-18.394,19.125-13.504,31.544c1.994,5.814,7.551,31.919,10.693,49.745c18.618-1.839,34.398-5.451,47.627-10.945
	C318.82,415.712,312.749,387.761,309.61,380.058z"/>
<path style="opacity:0.1;enable-background:new    ;" d="M221.08,380.061c-5.087-12.486-19.333-18.48-31.818-13.398
	c-12.316,5.018-18.319,18.946-13.6,31.307c1.621,5.328,5.162,27.316,7.012,45.13c14.175,3.555,30.586,5.578,49.474,6.136
	C230.52,427.205,225.403,390.675,221.08,380.061z"/>
<path style="fill:#5CB38E;" d="M354.754,326.763c0,56.99-7.741,98.226-111.451,98.226s-111.451-41.236-111.451-98.226
	s49.898-103.189,111.451-103.189S354.754,269.773,354.754,326.763z"/>
<path style="fill:#9BDFC1;" d="M354.754,326.763c0-0.454-0.012-0.906-0.018-1.359c-23.214-5.958-69.258-7.69-101.3,26.362
	c-23.349,24.814-26.728,51.592-24.223,72.947c4.489,0.182,9.182,0.275,14.09,0.275C347.013,424.989,354.754,383.752,354.754,326.763
	z"/>
<path style="opacity:0.05;enable-background:new    ;" d="M222.144,225.439c-51.433,9.153-90.293,51.033-90.293,101.324
	c0,52.77,6.65,92.028,89.968,97.553C175.559,377.362,184.507,280.413,222.144,225.439z"/>
<path style="fill:#5CB38E;" d="M345.604,74.962L345.604,74.962c-19.031-28.78-51.233-46.091-85.737-46.091h-42.413
	c-60.3,0-109.182,48.882-109.182,109.182v50.198c0,54.118,43.871,97.99,97.99,97.99h224.833c40.542,0,73.406-32.866,73.406-73.406
	v-34.164c0-40.542-32.866-73.406-73.406-73.406h-29.126C379.285,105.263,358.115,93.882,345.604,74.962z"/>
<g>
	<circle style="fill:#FFFFFF;" cx="203.033" cy="85.367" r="28.049"/>
	<circle style="fill:#FFFFFF;" cx="291.24" cy="85.367" r="28.049"/>
</g>
<path style="opacity:0.1;enable-background:new    ;" d="M291.244,145.325c-4.24,0-8.48-0.45-12.644-1.354
	c-4.048-0.879-6.616-4.873-5.737-8.921s4.876-6.614,8.921-5.737c7.607,1.652,15.567,1.278,23.021-1.082
	c7.454-2.359,14.18-6.635,19.45-12.364c2.805-3.049,7.549-3.244,10.598-0.441c3.048,2.805,3.246,7.549,0.441,10.598
	c-7.04,7.652-16.017,13.36-25.962,16.508C303.462,144.389,297.353,145.325,291.244,145.325z"/>
<path style="opacity:0.1;enable-background:new    ;" d="M203.023,145.325c-6.111,0-12.22-0.936-18.089-2.794
	c-9.945-3.148-18.922-8.856-25.962-16.508c-2.805-3.049-2.606-7.793,0.441-10.598c3.05-2.804,7.794-2.606,10.598,0.441
	c5.271,5.729,11.997,10.005,19.45,12.364c7.452,2.36,15.412,2.736,23.022,1.082c4.051-0.879,8.042,1.689,8.921,5.737
	c0.879,4.048-1.689,8.042-5.737,8.921C211.504,144.875,207.262,145.325,203.023,145.325z"/>
<path style="fill:#495059;" d="M416.566,258.37L416.566,258.37c-15.087,0-26.621-13.454-24.316-28.364l0,0
	c1.157-7.485,1.157-15.102,0-22.587l0,0c-2.305-14.91,9.229-28.364,24.316-28.364l0,0c15.087,0,26.621,13.453,24.316,28.364l0,0
	c-1.157,7.485-1.157,15.102,0,22.587l0,0C443.187,244.917,431.653,258.37,416.566,258.37z"/>
<g style="opacity:0.1;">
	<circle cx="167.584" cy="212.112" r="7.514"/>
	<circle cx="221.002" cy="223.571" r="7.514"/>
	<circle cx="190.433" cy="249.2" r="7.514"/>
</g>
<path style="opacity:0.05;enable-background:new    ;" d="M193.198,31.579c-48.625,11.031-84.927,54.511-84.927,106.474v50.198
	c0,54.118,43.871,97.99,97.99,97.99h59.461C179.126,235.856,164.447,97.356,193.198,31.579z"/>
<path style="fill:#498A68;" d="M250.46,366.896c-11.2,0-21.749-4.517-29.656-13.281c-5.871-6.507-5.354-16.54,1.153-22.41
	c6.507-5.868,16.54-5.354,22.41,1.153c3.235,3.587,7.804,3.781,13.578,0.573c7.665-4.25,17.321-1.488,21.573,6.176
	c4.252,7.663,1.488,17.321-6.176,21.573C265.826,364.852,257.996,366.896,250.46,366.896z"/>
<path d="M440.94,182.764c-6.107-7.123-14.99-11.209-24.373-11.209c-9.384,0-18.267,4.086-24.374,11.21
	c-6.107,7.123-8.788,16.526-7.355,25.799c1.041,6.734,1.041,13.563,0,20.297c-1.434,9.272,1.247,18.676,7.355,25.799
	c6.107,7.124,14.99,11.21,24.374,11.21c9.383,0,18.266-4.086,24.373-11.209c6.107-7.124,8.788-16.527,7.354-25.799
	c-1.04-6.735-1.04-13.563,0-20.298C449.728,199.292,447.047,189.888,440.94,182.764z M433.47,231.152
	c0.764,4.94-0.664,9.951-3.918,13.746c-3.254,3.795-7.987,5.972-12.986,5.972c-4.999,0-9.733-2.177-12.987-5.973
	c-3.254-3.795-4.682-8.806-3.918-13.745c1.276-8.255,1.276-16.624,0-24.879c-0.764-4.94,0.664-9.951,3.918-13.745
	c3.254-3.796,7.988-5.973,12.987-5.973c4.999,0,9.732,2.177,12.986,5.973c3.254,3.795,4.682,8.806,3.918,13.746
	C432.195,214.528,432.195,222.897,433.47,231.152z M440.51,151.12c4.15,0,7.514-3.364,7.514-7.514c0-4.15-3.364-7.514-7.514-7.514
	s-7.514,3.364-7.514,7.514C432.995,147.756,436.36,151.12,440.51,151.12z M431.094,97.763h-29.126
	c-20.222,0-38.955-10.071-50.109-26.938c-20.477-30.968-54.867-49.455-91.993-49.455h-42.413c-21.822,0-42.26,6.028-59.749,16.497
	V26.88c0-4.143-3.357-7.5-7.5-7.5s-7.5,3.357-7.5,7.5v21.651c-7.086,5.926-13.46,12.674-18.975,20.099V26.88
	c0-4.143-3.357-7.5-7.5-7.5c-4.142,0-7.5,3.357-7.5,7.5v67.586c0,0.349,0.032,0.69,0.078,1.027
	c-5.186,13.193-8.037,27.549-8.037,42.559v50.198c0,24.232,8.421,47.898,23.712,66.642c4.817,5.905,10.252,11.237,16.165,15.933
	c-10.234,16.224-15.804,34.531-16.248,53.483c-25.006,17.621-62.927,24.987-102.369,19.722c-9.236-1.234-17.606,3.813-20.805,12.56
	c-3.167,8.664-0.063,17.823,7.724,22.795c48.757,31.129,109.242,37.767,156.899,39.934c2.112,1.022,4.315,1.983,6.612,2.883
	c2.03,13.795,3.896,30.025,3.896,38.507c0,17.596,14.314,31.911,31.911,31.911s31.911-14.314,31.911-31.911
	c0-6.229-0.76-16.437-2.08-28.256c1.714,0.023,3.445,0.038,5.205,0.038c7.399,0,14.383-0.212,20.995-0.626
	c2.882,14.362,5.021,26.758,5.379,31.337c1.293,16.498,15.252,29.42,31.783,29.42h0.005c0.832,0,1.68-0.033,2.517-0.099
	c13.617-1.066,25.041-10.667,28.428-23.89c1.027-4.013-1.393-8.099-5.404-9.127c-4.022-1.034-8.1,1.394-9.127,5.404
	c-1.794,7.007-7.85,12.094-15.068,12.659c-0.449,0.035-0.902,0.053-1.346,0.053h-0.003c-8.753,0-16.145-6.849-16.829-15.592
	c-0.465-5.924-2.89-19.352-5.316-31.552c12.603-1.574,23.56-4.084,32.996-7.576c0.998,5.008,1.942,9.992,2.791,14.734
	c0.65,3.631,3.811,6.18,7.374,6.18c0.439,0,0.884-0.038,1.33-0.118c4.077-0.729,6.791-4.627,6.061-8.704
	c-1.069-5.973-2.287-12.318-3.571-18.619c6.842-3.982,12.595-8.719,17.324-14.253c6.951-8.133,11.325-17.576,14.071-27.731
	c8.796-0.068,17.83-2.534,26.15-7.151c5.458-3.029,9.41-8.002,11.127-14.002c1.718-6.001,0.996-12.31-2.032-17.767
	c-6.051-10.907-19.607-15.078-30.696-9.654c-0.098-10.992-1.895-21.736-5.371-32.075h74.224c44.611,0,80.906-36.295,80.906-80.906
	v-34.164C512,134.058,475.706,97.763,431.094,97.763z M362.005,342.116c2.081-0.525,4.23-1.401,6.438-2.625
	c4.036-2.239,9.141-0.778,11.379,3.255c1.084,1.955,1.343,4.215,0.728,6.364c-0.614,2.148-2.029,3.929-3.983,5.014
	c-5.145,2.855-10.588,4.576-15.924,5.092C361.371,353.603,361.782,347.875,362.005,342.116z M17.022,366.743
	c-2.588-1.652-2.057-4.049-1.708-5.003c0.364-0.996,1.557-3.257,4.733-2.843c38.96,5.202,76.893-1.115,104.547-16.964
	c0.839,22.119,4.395,43.81,18.391,60.187c0.235,0.275,0.483,0.54,0.723,0.811C102.504,399.648,55.465,391.286,17.022,366.743z
	 M208.267,477.62c-9.325,0-16.911-7.587-16.911-16.911c0-8.143-1.425-21.515-3.056-33.608c10.135,2.426,21.646,4.015,34.639,4.801
	c1.399,12.11,2.24,22.81,2.24,28.807C225.178,470.033,217.591,477.62,208.267,477.62z M497.001,212.834
	c0,36.342-29.565,65.907-65.907,65.907H219.338c-4.143,0-7.5,3.357-7.5,7.5s3.357,7.5,7.5,7.5h121.554
	c4.223,10.549,6.361,21.636,6.361,33.023c0,29.646-2.516,50.962-15.035,65.612c-4.441,5.197-10.144,9.547-17.204,13.092
	c-0.361,0.145-0.705,0.316-1.033,0.511c-11.139,5.368-25.57,8.8-43.723,10.418c-0.331,0.003-0.665,0.036-1,0.084
	c-7.941,0.673-16.573,1.011-25.956,1.011c-4.52,0-8.862-0.08-13.042-0.235c-0.106-0.009-0.213-0.009-0.32-0.013
	c-19.314-0.736-35.044-3.147-47.577-7.342c-0.457-0.212-0.937-0.377-1.433-0.494c-3.295-1.162-6.364-2.451-9.209-3.873
	c-0.341-0.212-0.702-0.394-1.077-0.551c-6.626-3.456-12.017-7.646-16.258-12.608c-12.52-14.649-15.035-35.967-15.035-65.612
	c0-16.783,4.713-33.059,13.682-47.471c9.529,5.583,19.907,9.694,30.76,12.049c4.052,0.879,8.042-1.691,8.92-5.738
	c0.879-4.048-1.69-8.042-5.738-8.92c-19.868-4.311-37.935-15.417-50.869-31.272c-13.113-16.073-20.334-36.374-20.334-57.16v-50.198
	c0-26.539,10.224-50.731,26.933-68.856v25.27c0,4.143,3.357,7.5,7.5,7.5s7.5-3.357,7.5-7.5V55.83
	c16.785-12.232,37.438-19.46,59.749-19.46h42.413c32.076,0,61.789,15.973,79.481,42.728c13.939,21.08,37.351,33.665,62.621,33.665
	h29.126c36.342,0,65.907,29.565,65.907,65.907v34.165H497.001z M82.256,101.966c4.142,0,7.5-3.357,7.5-7.5V26.88
	c0-4.143-3.358-7.5-7.5-7.5c-4.143,0-7.5,3.357-7.5,7.5v67.586C74.757,98.608,78.114,101.966,82.256,101.966z M291.236,49.818
	c-19.602,0-35.55,15.947-35.55,35.55s15.947,35.549,35.55,35.549c19.601,0,35.55-15.946,35.55-35.549S310.837,49.818,291.236,49.818
	z M291.236,105.917c-11.332,0-20.55-9.219-20.55-20.549c0-11.332,9.219-20.55,20.55-20.55s20.55,9.219,20.55,20.55
	C311.786,96.698,302.567,105.917,291.236,105.917z M250.461,374.396c8.913,0,18.084-2.476,26.522-7.157
	c5.458-3.029,9.41-8.002,11.128-14.002c1.718-6,0.996-12.31-2.033-17.767c-6.248-11.262-20.499-15.342-31.772-9.094
	c-1.591,0.884-3.642,1.768-4.369,0.959c-1.002-1.11-2.111-2.126-3.297-3.021c-3.309-2.495-8.012-1.835-10.504,1.473
	c-2.494,3.308-1.834,8.011,1.473,10.504c0.427,0.321,0.827,0.689,1.19,1.092c2.668,2.957,10.23,9.083,22.783,2.109
	c4.039-2.239,9.143-0.777,11.38,3.255c1.085,1.955,1.344,4.215,0.729,6.363c-0.615,2.149-2.03,3.93-3.985,5.015
	c-6.217,3.45-12.871,5.273-19.243,5.273c-9.249,0-17.803-3.837-24.087-10.805c-2.774-3.076-7.518-3.317-10.593-0.546
	c-3.075,2.774-3.32,7.517-0.546,10.593C224.4,368.799,236.911,374.396,250.461,374.396z M203.031,49.818
	c-19.602,0-35.55,15.947-35.55,35.55s15.947,35.549,35.55,35.549c19.601,0,35.549-15.946,35.549-35.549
	S222.632,49.818,203.031,49.818z M203.031,105.917c-11.332,0-20.55-9.219-20.55-20.549c0-11.332,9.219-20.55,20.55-20.55
	c11.331,0,20.549,9.219,20.549,20.55C223.58,96.698,214.362,105.917,203.031,105.917z M392.623,151.12
	c4.15,0,7.514-3.364,7.514-7.514c0-4.15-3.364-7.514-7.514-7.514s-7.514,3.364-7.514,7.514
	C385.109,147.756,388.473,151.12,392.623,151.12z"/>
<g>
</g>
<g>
</g>
<g>
</g>
<g>
</g>
<g>
</g>
<g>
</g>
<g>
</g>
<g>
</g>
<g>
</g>
<g>
</g>
<g>
</g>
<g>
</g>
<g>
</g>
<g>
</g>
<g>
</g>
</svg>
