<?xml version="1.0" encoding="iso-8859-1"?>
<!-- Generator: Adobe Illustrator 19.0.0, SVG Export Plug-In . SVG Version: 6.00 Build 0)  -->
<svg version="1.1" id="Capa_1" xmlns="http://www.w3.org/2000/svg" xmlns:xlink="http://www.w3.org/1999/xlink" x="0px" y="0px"
	 viewBox="0 0 512 512" style="enable-background:new 0 0 512 512;" xml:space="preserve">
<path style="fill:#498A68;" d="M197.766,364.751c-4.563,0-9.015-2.314-11.552-6.5c-3.865-6.374-1.83-14.672,4.543-18.536
	c4.574-2.774,10.597-8.719,17.898-17.67l0.469-0.574c4.726-5.765,13.228-6.606,18.991-1.882c5.764,4.725,6.607,13.227,1.882,18.991
	l-0.428,0.524c-5.987,7.34-15.074,17.781-24.82,23.689C202.563,364.119,200.149,364.751,197.766,364.751z"/>
<path style="fill:#5CB38E;" d="M311.327,389.478c62.976,0,135.449,0,188.504-33.873c9.079-5.797,3.828-19.795-6.849-18.37
	c-42.015,5.609-77.307-5.086-97.431-22.41L311.327,389.478z"/>
<path style="opacity:0.1;enable-background:new    ;" d="M419.306,329.116c-0.702,20.111-3.789,40.186-16.186,56.879
	c-30.7,3.483-62.289,3.484-91.792,3.484l84.224-74.654C402,320.378,410.016,325.244,419.306,329.116z"/>
<g>
	<path style="fill:#498A68;" d="M339.52,450.908c-10.745,0.001-19.841-8.28-20.678-19.171c-0.255-3.324-1.586-56.448,4.01-70.183
		c4.329-10.619,16.447-15.715,27.062-11.392c10.184,4.151,15.292,15.465,11.875,25.752c-1.488,7.664-2.344,42.263-1.546,52.639
		c0.879,11.433-7.677,21.413-19.109,22.292C340.592,450.888,340.053,450.908,339.52,450.908z M361.314,377.202
		c-0.003,0.007-0.006,0.014-0.009,0.022C361.308,377.217,361.311,377.209,361.314,377.202z M361.863,375.555L361.863,375.555
		L361.863,375.555z"/>
	<path style="fill:#498A68;" d="M264.225,450.908c-10.744,0.001-19.84-8.279-20.678-19.168c-0.255-3.323-1.59-56.44,4.008-70.183
		c4.327-10.619,16.439-15.717,27.061-11.395c10.184,4.149,15.293,15.464,11.877,25.751c-1.489,7.665-2.344,42.266-1.545,52.639
		c0.88,11.433-7.675,21.414-19.107,22.294C265.299,450.888,264.76,450.908,264.225,450.908z M286.02,377.199
		c-0.003,0.007-0.006,0.015-0.009,0.023C286.014,377.214,286.017,377.206,286.02,377.199z"/>
</g>
<path style="opacity:0.1;enable-background:new    ;" d="M274.616,350.162c-10.621-4.323-22.734,0.775-27.061,11.395
	c-3.553,8.722-4.313,33.297-4.329,50.943c11.673,3.923,25.407,6.373,41.435,7.425c-0.147-14.405,0.638-37.865,1.832-44.011
	C289.909,365.626,284.8,354.31,274.616,350.162z"/>
<path style="opacity:0.1;enable-background:new    ;" d="M349.913,350.163c-10.615-4.324-22.733,0.773-27.062,11.392
	c-4.108,10.081-4.484,41.379-4.292,58.635c15.875-0.756,29.606-2.799,41.384-6.206c0.074-14.205,0.804-32.712,1.844-38.069
	C365.206,365.628,360.097,354.313,349.913,350.163z"/>
<path style="fill:#5CB38E;" d="M209.163,316.227c0,48.469,6.584,83.541,94.787,83.541s94.787-35.072,94.787-83.541
	s-42.438-87.761-94.787-87.761C251.6,228.466,209.163,267.758,209.163,316.227z"/>
<path style="fill:#9BDFC1;" d="M209.163,316.227c0-0.386,0.01-0.77,0.016-1.156c19.742-5.067,58.903-6.54,86.154,22.42
	c19.858,21.104,22.732,43.877,20.601,62.041c-3.818,0.155-7.809,0.234-11.984,0.234
	C215.747,399.767,209.163,364.696,209.163,316.227z"/>
<path style="opacity:0.05;enable-background:new    ;" d="M321.945,230.052c43.743,7.785,76.793,43.403,76.793,86.175
	c0,44.879-5.656,78.268-76.516,82.967C361.565,359.26,353.956,276.807,321.945,230.052z"/>
<path style="fill:#5CB38E;" d="M210.95,105.248L210.95,105.248c13.991-25.795,39.99-42.848,69.224-45.406l35.935-3.144
	c51.089-4.47,96.128,33.323,100.597,84.412l3.721,42.53c4.012,45.852-29.907,86.274-75.758,90.285l-190.49,16.665
	c-34.349,3.005-64.629-22.404-67.634-56.753l-2.533-28.946c-3.005-34.349,22.404-64.629,56.753-67.634l24.677-2.159
	C184.659,133.418,201.751,122.206,210.95,105.248z"/>
<g style="opacity:0.1;">
	<circle cx="371.945" cy="208.251" r="6.391"/>
	<circle cx="327.537" cy="221.921" r="6.391"/>
	<circle cx="355.336" cy="241.37" r="6.391"/>
</g>
<g>
	
		<ellipse transform="matrix(0.0872 0.9962 -0.9962 0.0872 440.21 -226.3429)" style="fill:#FFA8CB;" cx="343.615" cy="127.042" rx="8.264" ry="16.11"/>
	
		<ellipse transform="matrix(-0.0872 -0.9962 0.9962 -0.0872 120.5437 383.3429)" style="fill:#FFA8CB;" cx="235.899" cy="136.445" rx="8.264" ry="16.11"/>
</g>
<path style="opacity:0.05;enable-background:new    ;" d="M336.86,57.195c42.015,5.742,75.994,39.889,79.846,83.915l3.721,42.53
	c4.012,45.851-29.907,86.274-75.758,90.285l-50.378,4.408C363.924,229.225,366.094,110.794,336.86,57.195z"/>
<g>
	<path style="fill:#A3E3FF;" d="M68.298,455.658H14.047c-3.616,0-6.548-2.932-6.548-6.548V345.695c0-3.616,2.932-6.548,6.548-6.548
		h54.251C68.298,339.147,68.298,455.658,68.298,455.658z"/>
	<path style="fill:#A3E3FF;" d="M187.618,455.658h-80.701V339.147h80.701c3.616,0,6.548,2.932,6.548,6.548v103.416
		C194.165,452.727,191.234,455.658,187.618,455.658z"/>
</g>
<rect x="68.297" y="339.146" style="fill:#80B0E3;" width="38.618" height="116.515"/>
<path style="fill:#DEE2E5;" d="M180.41,339.147v-15.649c0-2.205-1.298-4.203-3.319-5.087c-21.293-9.313-78.248-7.699-89.483,1.725
	l0,0c-8.356-9.356-47.685-11.014-63.555-1.923c-1.731,0.991-2.798,2.831-2.798,4.826v16.109L180.41,339.147z"/>
<g>
	<path style="fill:#495059;" d="M189.356,379.394h-14.769c-2.656,0-4.809,2.153-4.809,4.809v26.398c0,2.656,2.153,4.809,4.809,4.809
		h14.769c2.656,0,4.809-2.153,4.809-4.809v-26.398C194.165,381.547,192.011,379.394,189.356,379.394z"/>
	<path style="fill:#495059;" d="M27.078,379.394H12.309c-2.656,0-4.809,2.153-4.809,4.809v26.398c0,2.656,2.153,4.809,4.809,4.809
		h14.769c2.656,0,4.809-2.153,4.809-4.809v-26.398C31.887,381.547,29.734,379.394,27.078,379.394z"/>
</g>
<path style="fill:#498A68;" d="M294.376,364.767c-4.455,0-8.814-2.203-11.388-6.235c-4.01-6.282-2.169-14.626,4.112-18.636
	c7.296-4.658,12.06-11.969,13.724-15.553c3.14-6.76,11.163-9.695,17.923-6.557c6.76,3.139,9.696,11.164,6.557,17.922
	c-3.77,8.12-11.971,19.461-23.679,26.936C299.375,364.081,296.861,364.767,294.376,364.767z"/>
<path d="M261.593,109.702c-0.361-4.127-4.003-7.169-8.125-6.818c-4.126,0.361-7.179,3.999-6.818,8.125l0.7,7.996
	c0.342,3.904,3.616,6.847,7.463,6.847c0.219,0,0.44-0.009,0.663-0.028c4.126-0.361,7.179-3.999,6.818-8.125L261.593,109.702z
	 M141.995,169.886c-0.308-3.516-3.407-6.117-6.924-5.809s-6.117,3.407-5.809,6.923s3.407,6.117,6.923,5.809
	C139.702,176.5,142.302,173.401,141.995,169.886z M510.886,341.211c-2.904-7.945-10.495-12.536-18.897-11.41
	c-33.037,4.409-64.767-1.663-85.81-16.261c-0.513-17.473-6.009-34.108-16.066-48.67c25.458-18.216,40.657-49.044,37.785-81.884
	l-3.722-42.529c-4.823-55.128-53.602-96.048-108.724-91.229l-35.934,3.145c-31.831,2.785-59.929,21.216-75.163,49.302
	c-8.02,14.786-22.813,24.489-39.57,25.955l-24.677,2.159c-18.608,1.628-35.469,10.405-47.475,24.714
	c-12.007,14.309-17.722,32.438-16.095,51.045l2.533,28.946c1.628,18.608,10.405,35.469,24.714,47.475
	c12.71,10.665,28.434,16.366,44.83,16.366c2.063,0,4.137-0.091,6.216-0.272l49.728-4.351c-1.913,7.337-2.898,14.869-2.898,22.516
	c0,0.832,0.002,1.666,0.006,2.5c-5.82,7.005-9.858,10.874-12.568,13c-0.392-0.041-0.792-0.057-1.193-0.066v-8.165
	c0-5.189-3.067-9.882-7.813-11.958c-10.844-4.743-30.162-7.28-51.689-6.791c-8.942,0.204-28.671,1.256-40.267,6.433
	c-8.991-5.113-22.857-6.199-29.231-6.421c-15.622-0.545-30.045,2.053-38.582,6.943c-4.053,2.321-6.571,6.664-6.571,11.335v8.624
	C6.145,331.819,0,338.047,0,345.695v103.416c0,7.746,6.302,14.047,14.047,14.047h173.57c7.746,0,14.047-6.302,14.047-14.047v-46.904
	l26.12-12.027c2.53,1.81,5.267,3.47,8.216,4.985c-0.551,17.02-0.126,34.623,0.069,37.15c1.126,14.633,13.49,26.094,28.151,26.093
	h0.005c0.738,0,1.477-0.028,2.191-0.084c15.537-1.195,27.205-14.809,26.009-30.348c-0.293-3.813-0.357-11.864-0.193-20.927
	c3.769,0.145,7.674,0.218,11.719,0.218c2.418,0,4.779-0.03,7.099-0.082c-0.123,12.829,0.188,23.472,0.315,25.128
	c1.125,14.634,13.489,26.096,28.151,26.095h0.005c0.737,0,1.476-0.028,2.189-0.084c15.537-1.194,27.207-14.807,26.012-30.345
	c-0.411-5.345-0.367-18.475,0.069-30.858c0.791-0.348,1.568-0.706,2.332-1.073c40.634-1.861,92.143-7.561,133.745-34.122
	C510.943,357.409,513.763,349.084,510.886,341.211z M28.755,324.195c15.127-7.692,48.638-4.238,53.26,0.937
	c2.698,3.022,7.31,3.354,10.414,0.75c2.516-2.109,14.6-5.642,36.322-6.137c18.047-0.416,35.122,1.561,44.161,5.055v6.849H28.755
	V324.195z M14.999,386.894h9.388v21.017h-9.388V386.894z M99.417,448.158H75.798V394.61c0-4.143-3.358-7.5-7.5-7.5
	s-7.5,3.357-7.5,7.5v53.548H14.999V422.91h12.079c6.787,0,12.309-5.522,12.309-12.31v-26.397c0-6.787-5.522-12.31-12.309-12.31
	H14.999v-25.248h45.799v13.223c0,4.143,3.358,7.5,7.5,7.5s7.5-3.357,7.5-7.5v-13.223h23.619V448.158z M186.666,407.91h-9.389
	v-21.016h9.389V407.91z M186.666,371.895h-12.08c-6.787,0-12.309,5.522-12.309,12.31v26.397c0,6.787,5.522,12.31,12.309,12.31h12.08
	v25.248h-72.249V346.647h72.249V371.895z M200.964,341.337c0.528-0.469,1.064-0.96,1.609-1.474
	c0.463,4.709,1.158,9.346,2.184,13.847c-1.06,0.8-2.09,1.512-3.093,2.154v-10.17C201.665,344.173,201.414,342.711,200.964,341.337z
	 M201.665,385.693v-13.818c2.452-0.466,4.816-1.36,6.973-2.668c0.363-0.22,0.734-0.471,1.101-0.706
	c1.738,3.697,3.85,7.221,6.407,10.526L201.665,385.693z M265.262,443.368c-0.348,0.027-0.694,0.039-1.038,0.039h-0.003
	c-6.872,0-12.667-5.378-13.196-12.242c-0.115-1.574-0.492-15.207-0.177-30.139c7.739,2.308,16.511,3.962,26.403,4.984
	c-0.171,8.874-0.16,18.198,0.22,23.116C278.031,436.418,272.556,442.807,265.262,443.368z M340.553,443.368
	c-0.347,0.027-0.691,0.039-1.034,0.039h-0.003c-6.872,0-12.67-5.379-13.196-12.242c-0.082-1.131-0.406-11.778-0.262-24.734
	c9.888-0.802,18.721-2.19,26.573-4.185c-0.267,10.429-0.288,21.392,0.135,26.882C353.326,436.419,347.849,442.808,340.553,443.368z
	 M378.719,371.3c-1.884,2.204-5.405,6.321-13.189,10.327c-0.457,0.174-0.891,0.391-1.298,0.647
	c-10.725,5.183-28.891,9.995-60.282,9.995c-28.389,0-45.964-3.935-56.999-8.522c-0.221-0.107-0.447-0.203-0.68-0.289
	c-0.682-0.292-1.338-0.586-1.969-0.882l35.387-16.293c3.876,3.803,9.1,5.985,14.687,5.985c3.999,0,7.901-1.141,11.285-3.301
	c13.066-8.343,22.228-21.018,26.445-30.1c1.744-3.757,0.113-8.216-3.645-9.961c-3.755-1.745-8.216-0.113-9.961,3.645
	c-3.173,6.834-10.555,17.16-20.911,23.772c-0.968,0.618-2.079,0.944-3.214,0.944c-2.065,0-3.959-1.035-5.066-2.77
	c-1.779-2.786-0.96-6.501,1.826-8.28c8.182-5.224,13.996-13.346,16.489-18.715c1.745-3.757,0.114-8.217-3.643-9.961
	c-3.759-1.749-8.217-0.114-9.961,3.643c-1.233,2.652-5.108,8.656-10.959,12.392c-6.671,4.259-10.117,11.688-9.641,19.079
	l-43.171,19.877c-0.408-0.455-0.763-0.87-1.072-1.231c-3.578-4.187-6.525-9.092-8.66-16.487c-0.053-0.231-0.117-0.46-0.193-0.687
	c-2.354-8.527-3.666-20.298-3.666-37.898c0-8.177,1.343-16.201,3.966-23.921l100.006-8.75c4.127-0.361,7.179-3.999,6.818-8.125
	c-0.361-4.126-3.998-7.183-8.125-6.818L153.523,283.12c-14.619,1.28-28.857-3.21-40.097-12.642
	c-11.24-9.432-18.134-22.675-19.413-37.292l-2.533-28.946c-1.279-14.617,3.211-28.857,12.643-40.097
	c9.432-11.24,22.675-18.134,37.293-19.412l24.677-2.159c21.787-1.906,41.019-14.522,51.448-33.746
	c12.826-23.648,36.485-39.166,63.285-41.511l35.935-3.145c46.881-4.12,88.371,30.705,92.473,77.594l3.722,42.529
	c3.313,37.877-22.147,72.561-59.224,80.682c-4.046,0.886-6.608,4.885-5.722,8.931s4.886,6.607,8.931,5.722
	c7.14-1.564,13.913-3.959,20.248-7.05c9.204,12.992,14.048,27.963,14.048,43.651C391.239,341.184,389.144,359.102,378.719,371.3z
	 M495.796,349.285c-31.661,20.213-70.289,27.45-104.54,30.38c10.808-13.538,13.877-30.894,14.698-48.665
	c23.584,12.936,55.393,18.021,88.021,13.669c1.743-0.237,2.495,0.791,2.824,1.691C497.248,347.589,496.911,348.573,495.796,349.285z
	 M328.606,103.837c-0.361-4.128-4.007-7.171-8.126-6.817c-4.126,0.361-7.179,4-6.817,8.126l0.7,7.996
	c0.342,3.904,3.616,6.846,7.463,6.846c0.22,0,0.44-0.009,0.663-0.028c4.126-0.361,7.179-4,6.817-8.126L328.606,103.837z
	 M175.644,160.526c-3.516,0.308-6.117,3.407-5.809,6.923s3.407,6.117,6.923,5.809s6.117-3.407,5.81-6.923
	C182.26,162.82,179.16,160.219,175.644,160.526z M179.082,230.664c-3.35-2.439-8.04-1.7-10.478,1.646
	c-1.606,2.204-4.079,3.605-6.785,3.842c-2.708,0.246-5.385-0.713-7.35-2.605c-2.984-2.874-7.732-2.785-10.605,0.2
	c-2.873,2.983-2.784,7.73,0.2,10.605c4.574,4.405,10.651,6.837,16.937,6.837c0.706,0,1.416-0.031,2.126-0.093
	c7.027-0.616,13.441-4.244,17.6-9.953C183.167,237.793,182.429,233.103,179.082,230.664z"/>
<g>
</g>
<g>
</g>
<g>
</g>
<g>
</g>
<g>
</g>
<g>
</g>
<g>
</g>
<g>
</g>
<g>
</g>
<g>
</g>
<g>
</g>
<g>
</g>
<g>
</g>
<g>
</g>
<g>
</g>
</svg>
