<?xml version="1.0" encoding="iso-8859-1"?>
<!-- Generator: Adobe Illustrator 19.0.0, SVG Export Plug-In . SVG Version: 6.00 Build 0)  -->
<svg version="1.1" id="Capa_1" xmlns="http://www.w3.org/2000/svg" xmlns:xlink="http://www.w3.org/1999/xlink" x="0px" y="0px"
	 viewBox="0 0 512 512" style="enable-background:new 0 0 512 512;" xml:space="preserve">
<circle style="fill:#959BA0;" cx="256" cy="251.3" r="243.8"/>
<path style="opacity:0.1;enable-background:new    ;" d="M204.561,12.955C94.617,36.57,12.196,134.304,12.196,251.304
	c0,134.649,109.155,243.804,243.804,243.804c36.426,0,70.978-8.002,102.016-22.322C75.394,348.153,138.208,89.342,204.561,12.955z"
	/>
<circle style="fill:#DEE2E5;" cx="256" cy="251.3" r="212.43"/>
<path style="fill:#498A68;" d="M294.685,384.452c-2.965,0-5.951-0.958-8.462-2.934c-5.948-4.678-6.977-13.293-2.298-19.242
	l0.243-0.31c2.915-3.719,11.784-15.035,25.686-22.554c6.656-3.602,14.971-1.124,18.572,5.534c3.6,6.657,1.123,14.971-5.534,18.572
	c-8.888,4.807-14.894,12.47-17.155,15.355l-0.272,0.347C302.761,382.657,298.743,384.452,294.685,384.452z"/>
<path style="fill:#5CB38E;" d="M305.712,363.027c0,49.717-6.753,85.692-97.229,85.692s-97.23-35.975-97.23-85.692
	c0-49.718,43.531-90.022,97.23-90.022C262.181,273.005,305.712,313.309,305.712,363.027z"/>
<path style="fill:#9BDFC1;" d="M305.712,363.027c0-0.396-0.011-0.79-0.016-1.185c-20.251-5.197-60.421-6.709-88.374,22.998
	c-20.37,21.648-23.317,45.008-21.132,63.639c3.916,0.159,8.01,0.24,12.293,0.24C298.959,448.719,305.712,412.744,305.712,363.027z"
	/>
<path style="opacity:0.05;enable-background:new    ;" d="M190.024,274.632c-44.87,7.985-78.771,44.521-78.771,88.395
	c0,46.036,5.801,80.284,78.487,85.105C149.383,407.169,157.189,322.591,190.024,274.632z"/>
<path style="fill:#498A68;" d="M199.141,390.883c-3.95,0-7.867-1.697-10.577-4.982l-0.249-0.301
	c-3.016-3.643-12.192-14.727-16.577-29.927c-2.097-7.271,2.097-14.867,9.368-16.964c7.269-2.101,14.866,2.096,16.964,9.367
	c2.803,9.717,9.016,17.221,11.355,20.047l0.279,0.337c4.816,5.837,3.989,14.474-1.849,19.29
	C205.301,389.857,202.211,390.883,199.141,390.883z"/>
<path style="fill:#5CB38E;" d="M297.73,143.357L297.73,143.357c-16.603-25.108-44.696-40.21-74.797-40.21h-37.001
	c-52.605,0-95.25,42.645-95.25,95.25v43.793c0,47.213,38.273,85.486,85.486,85.486h196.143c35.368,0,64.04-28.672,64.04-64.04
	v-29.805c0-35.368-28.672-64.04-64.04-64.04h-25.409C327.113,169.791,308.645,159.863,297.73,143.357z"/>
<ellipse style="fill:#495059;" cx="359.64" cy="272.32" rx="32.972" ry="28.24"/>
<g style="opacity:0.1;">
	<circle cx="142.42" cy="263" r="6.555"/>
	<circle cx="189.03" cy="273" r="6.555"/>
	<circle cx="162.36" cy="295.37" r="6.555"/>
</g>
<g>
	<ellipse style="fill:#FFA8CB;" cx="152.39" cy="173.36" rx="16.522" ry="8.476"/>
	<ellipse style="fill:#FFA8CB;" cx="263.31" cy="173.36" rx="16.522" ry="8.476"/>
</g>
<path style="opacity:0.05;enable-background:new    ;" d="M164.771,105.509c-42.42,9.623-74.09,47.555-74.09,92.887v43.793
	c0,47.213,38.273,85.486,85.486,85.486h51.873C152.495,283.72,139.69,162.893,164.771,105.509z"/>
<path style="fill:#495059;" d="M449.136,504.5H62.864c-8.948,0-16.202-7.254-16.202-16.202V382.87
	c0-8.948,7.254-16.203,16.202-16.203h386.272c8.948,0,16.202,7.254,16.202,16.203v105.427
	C465.339,497.246,458.085,504.5,449.136,504.5z"/>
<g>
	<path style="fill:#959BA0;" d="M131.729,417.79H84.676c-3.035,0-5.494,2.46-5.494,5.494v24.598c0,3.035,2.46,5.494,5.494,5.494
		h47.052c3.035,0,5.494-2.46,5.494-5.494v-24.598C137.223,420.25,134.763,417.79,131.729,417.79z"/>
	<path style="fill:#959BA0;" d="M230.26,417.79h-47.052c-3.034,0-5.494,2.46-5.494,5.494v24.598c0,3.035,2.46,5.494,5.494,5.494
		h47.052c3.035,0,5.494-2.46,5.494-5.494v-24.598C235.755,420.25,233.295,417.79,230.26,417.79z"/>
	<path style="fill:#959BA0;" d="M328.792,417.79H281.74c-3.034,0-5.494,2.46-5.494,5.494v24.598c0,3.035,2.46,5.494,5.494,5.494
		h47.052c3.034,0,5.494-2.46,5.494-5.494v-24.598C334.286,420.25,331.826,417.79,328.792,417.79z"/>
	<path style="fill:#959BA0;" d="M427.324,417.79h-47.052c-3.034,0-5.494,2.46-5.494,5.494v24.598c0,3.035,2.46,5.494,5.494,5.494
		h47.052c3.034,0,5.494-2.46,5.494-5.494v-24.598C432.818,420.25,430.358,417.79,427.324,417.79z"/>
</g>
<path d="M400.109,272.322c0-19.707-18.156-35.739-40.472-35.739c-22.317,0-40.473,16.032-40.473,35.739s18.156,35.739,40.473,35.739
	C381.954,308.061,400.109,292.029,400.109,272.322z M359.637,293.061c-14.046,0-25.473-9.304-25.473-20.739
	c0-11.436,11.427-20.739,25.473-20.739c14.045,0,25.472,9.304,25.472,20.739C385.109,283.758,373.683,293.061,359.637,293.061z
	 M128.448,470.805c-4.142,0-7.5,3.357-7.5,7.5s3.358,7.5,7.5,7.5h8.775c4.142,0,7.5-3.357,7.5-7.5s-3.358-7.5-7.5-7.5H128.448z
	 M71.682,447.883c0,7.166,5.829,12.995,12.994,12.995h47.052c7.165,0,12.995-5.829,12.995-12.995v-24.599
	c0-7.165-5.829-12.994-12.995-12.994H84.676c-7.165,0-12.994,5.829-12.994,12.994V447.883z M86.682,425.29h43.041v20.588H86.682
	V425.29z M87.957,470.805h-8.775c-4.142,0-7.5,3.357-7.5,7.5s3.358,7.5,7.5,7.5h8.775c4.142,0,7.5-3.357,7.5-7.5
	S92.099,470.805,87.957,470.805z M87.957,400.363c4.142,0,7.5-3.357,7.5-7.5s-3.358-7.5-7.5-7.5h-8.775c-4.142,0-7.5,3.357-7.5,7.5
	s3.358,7.5,7.5,7.5H87.957z M137.223,400.363c4.142,0,7.5-3.357,7.5-7.5s-3.358-7.5-7.5-7.5h-8.775c-4.142,0-7.5,3.357-7.5,7.5
	s3.358,7.5,7.5,7.5H137.223z M338.749,209.797c3.62,0,6.555-2.935,6.555-6.555s-2.935-6.555-6.555-6.555s-6.555,2.935-6.555,6.555
	S335.129,209.797,338.749,209.797z M380.525,209.797c3.62,0,6.555-2.935,6.555-6.555s-2.935-6.555-6.555-6.555
	s-6.555,2.935-6.555,6.555S376.905,209.797,380.525,209.797z M251.573,127.315l-17.46,2.101c-4.112,0.495-7.045,4.229-6.55,8.342
	c0.458,3.809,3.694,6.605,7.437,6.605c0.298,0,0.601-0.019,0.905-0.055l0.124-0.015c-0.742,1.163-1.178,2.541-1.178,4.024v8.233
	c0,4.143,3.358,7.5,7.5,7.5s7.5-3.357,7.5-7.5v-8.233c0-2.128-0.89-4.044-2.312-5.408l5.826-0.701
	c4.112-0.495,7.045-4.229,6.55-8.342S255.69,126.823,251.573,127.315z M181.588,129.416l-17.461-2.101
	c-4.115-0.493-7.848,2.439-8.342,6.551c-0.495,4.112,2.438,7.847,6.55,8.342l5.826,0.701c-1.423,1.365-2.312,3.281-2.312,5.408
	v8.233c0,4.143,3.358,7.5,7.5,7.5s7.5-3.357,7.5-7.5v-8.233c0-1.482-0.436-2.86-1.178-4.024l0.125,0.015
	c0.304,0.037,0.606,0.055,0.905,0.055c3.742,0,6.979-2.797,7.437-6.605C188.633,133.645,185.701,129.911,181.588,129.416z
	 M383.552,400.363c4.142,0,7.5-3.357,7.5-7.5s-3.358-7.5-7.5-7.5h-8.775c-4.142,0-7.5,3.357-7.5,7.5s3.358,7.5,7.5,7.5H383.552z
	 M276.245,485.805h8.775c4.142,0,7.5-3.357,7.5-7.5s-3.358-7.5-7.5-7.5h-8.775c-4.142,0-7.5,3.357-7.5,7.5
	C268.745,482.447,272.103,485.805,276.245,485.805z M367.277,447.883c0,7.166,5.829,12.995,12.995,12.995h47.052
	c7.165,0,12.994-5.829,12.994-12.995v-24.599c0-7.165-5.829-12.994-12.994-12.994h-47.052c-7.165,0-12.995,5.829-12.995,12.994
	V447.883z M382.277,425.29h43.041v20.588h-43.041L382.277,425.29L382.277,425.29z M325.511,470.805c-4.142,0-7.5,3.357-7.5,7.5
	s3.358,7.5,7.5,7.5h8.775c4.142,0,7.5-3.357,7.5-7.5s-3.358-7.5-7.5-7.5H325.511z M334.286,400.363c4.142,0,7.5-3.357,7.5-7.5
	s-3.358-7.5-7.5-7.5h-8.775c-4.142,0-7.5,3.357-7.5,7.5s3.358,7.5,7.5,7.5H334.286z M507.304,251.305
	c0-61.533-22.468-120.743-63.266-166.724c-2.748-3.099-7.489-3.381-10.587-0.633c-3.099,2.749-3.382,7.489-0.632,10.588
	c38.36,43.233,59.485,98.908,59.485,156.769c0,39.584-9.878,78.364-28.646,112.852c-4.015-3.123-9.053-4.989-14.522-4.989h-1.449
	c18.512-32.83,28.245-69.843,28.245-107.863c0-58.746-22.877-113.976-64.417-155.516C369.976,54.249,314.746,31.372,256,31.372
	S142.024,54.249,100.484,95.789s-64.417,96.769-64.417,155.516c0,38.02,9.733,75.034,28.245,107.863h-1.448
	c-5.469,0-10.507,1.866-14.522,4.989c-18.769-34.488-28.646-73.268-28.646-112.852c0-63.119,24.58-122.461,69.212-167.093
	S192.881,15,256,15c55.585,0,109.583,19.677,152.046,55.406c3.169,2.665,7.901,2.259,10.567-0.91
	c2.667-3.17,2.259-7.901-0.91-10.568C372.541,20.928,315.113,0,256,0C188.874,0,125.766,26.141,78.301,73.605
	C30.836,121.07,4.696,184.179,4.696,251.305c0,45.035,12.026,89.096,34.796,127.645c-0.213,1.276-0.33,2.585-0.33,3.92v105.428
	c0,13.069,10.633,23.702,23.703,23.702h16.763c4.142,0,7.5-3.357,7.5-7.5s-3.358-7.5-7.5-7.5H62.864
	c-4.799,0-8.703-3.903-8.703-8.702V382.87c0-0.893,0.136-1.754,0.387-2.566c0.02-0.056,0.041-0.112,0.06-0.169
	c1.15-3.462,4.413-5.967,8.256-5.967h14.598c0.004,0,0.008,0,0.012,0h98.463c0.009,0,0.019,0.002,0.028,0.002
	c0.012,0,0.024-0.002,0.036-0.002h141.93c0.006,0,0.011,0.001,0.017,0.001c0.004,0,0.008-0.001,0.013-0.001h116.416
	c0.005,0,0.009,0.001,0.014,0.001s0.011-0.001,0.016-0.001h14.731c3.844,0,7.108,2.507,8.257,5.97
	c0.018,0.055,0.039,0.11,0.058,0.165c0.251,0.812,0.387,1.674,0.387,2.567v105.428c0,4.799-3.904,8.702-8.703,8.702H114.625
	c-4.142,0-7.5,3.357-7.5,7.5s3.358,7.5,7.5,7.5h334.512c13.07,0,23.703-10.633,23.703-23.702V382.87c0-1.336-0.117-2.644-0.33-3.92
	C495.278,340.401,507.304,296.339,507.304,251.305z M166.343,341.625c-2.738,4.958-3.381,10.685-1.812,16.127
	c0.136,0.471,0.296,0.944,0.442,1.416h-46.112c0.641-12.786,4.464-25.143,11.201-36.251c12.457,7.142,26.715,11.481,41.91,12.159
	C169.695,336.828,167.773,339.034,166.343,341.625z M98.182,242.189v-43.792c0-48.386,39.364-87.75,87.75-87.75h37.002
	c27.661,0,53.283,13.774,68.54,36.847c12.338,18.658,33.059,29.798,55.428,29.798h25.409c31.176,0,56.54,25.363,56.54,56.54v29.805
	c0,31.176-25.364,56.539-56.54,56.539H176.167C133.166,320.175,98.182,285.19,98.182,242.189z M180.869,359.168
	c-0.743-1.869-1.394-3.733-1.925-5.574c-0.948-3.286,0.954-6.73,4.244-7.68c1.59-0.458,3.263-0.271,4.713,0.529
	c1.451,0.802,2.503,2.12,2.962,3.711c0.866,3.003,2.08,6.012,3.592,9.014H180.869z M211.967,359.168
	c-3.199-4.465-5.456-8.884-6.692-13.171c-1.257-4.356-3.828-8.093-7.34-10.822h95.021c3.013,7.712,4.742,15.749,5.152,23.993
	L211.967,359.168L211.967,359.168z M319.321,356.922c-1.24,0.671-2.483,1.428-3.719,2.246h-2.478
	c-0.171-4.125-0.617-8.207-1.335-12.236c0.545-0.319,1.089-0.629,1.634-0.923c1.456-0.789,3.132-0.963,4.72-0.489
	c1.588,0.473,2.896,1.536,3.685,2.994C323.455,351.522,322.332,355.294,319.321,356.922z M430.269,359.168h-94.165
	c2.183-5.606,1.998-12.095-1.081-17.789c-1.304-2.412-3.033-4.5-5.078-6.204h42.366c39.447,0,71.54-32.092,71.54-71.539v-29.805
	c0-39.447-32.093-71.54-71.54-71.54h-25.409c-17.32,0-33.363-8.625-42.916-23.071c-18.043-27.284-48.342-43.573-81.052-43.573
	h-37.002c-56.657,0-102.75,46.094-102.75,102.75v43.792c0,29.125,13.464,55.16,34.489,72.223
	c-8.442,13.641-13.172,28.923-13.834,44.757H81.731c-20.072-32.359-30.663-69.562-30.663-107.863
	c0-113,91.933-204.933,204.933-204.933s204.933,91.933,204.933,204.933C460.933,289.606,450.341,326.809,430.269,359.168z
	 M374.777,485.805h8.775c4.142,0,7.5-3.357,7.5-7.5s-3.358-7.5-7.5-7.5h-8.775c-4.142,0-7.5,3.357-7.5,7.5
	C367.277,482.447,370.635,485.805,374.777,485.805z M424.043,470.805c-4.142,0-7.5,3.357-7.5,7.5s3.358,7.5,7.5,7.5h8.775
	c4.142,0,7.5-3.357,7.5-7.5s-3.358-7.5-7.5-7.5H424.043z M432.818,400.363c4.142,0,7.5-3.357,7.5-7.5s-3.358-7.5-7.5-7.5h-8.775
	c-4.142,0-7.5,3.357-7.5,7.5s3.358,7.5,7.5,7.5H432.818z M235.755,400.363c4.142,0,7.5-3.357,7.5-7.5s-3.358-7.5-7.5-7.5h-8.775
	c-4.142,0-7.5,3.357-7.5,7.5s3.358,7.5,7.5,7.5H235.755z M186.489,400.363c4.142,0,7.5-3.357,7.5-7.5s-3.358-7.5-7.5-7.5h-8.775
	c-4.142,0-7.5,3.357-7.5,7.5s3.358,7.5,7.5,7.5H186.489z M170.214,447.883c0,7.166,5.829,12.995,12.994,12.995h47.052
	c7.165,0,12.995-5.829,12.995-12.995v-24.599c0-7.165-5.83-12.994-12.995-12.994h-47.052c-7.165,0-12.994,5.829-12.994,12.994
	V447.883z M185.214,425.29h43.041v20.588h-43.041V425.29z M177.714,485.805h8.775c4.142,0,7.5-3.357,7.5-7.5s-3.358-7.5-7.5-7.5
	h-8.775c-4.142,0-7.5,3.357-7.5,7.5C170.214,482.447,173.572,485.805,177.714,485.805z M268.745,447.883
	c0,7.166,5.83,12.995,12.995,12.995h47.052c7.165,0,12.994-5.829,12.994-12.995v-24.599c0-7.165-5.829-12.994-12.994-12.994H281.74
	c-7.165,0-12.995,5.829-12.995,12.994V447.883z M283.745,425.29h43.041v20.588h-43.041V425.29z M226.98,470.805
	c-4.142,0-7.5,3.357-7.5,7.5s3.358,7.5,7.5,7.5h8.775c4.142,0,7.5-3.357,7.5-7.5s-3.358-7.5-7.5-7.5H226.98z M285.021,400.363
	c4.142,0,7.5-3.357,7.5-7.5s-3.358-7.5-7.5-7.5h-8.775c-4.142,0-7.5,3.357-7.5,7.5s3.358,7.5,7.5,7.5H285.021z"/>
<g>
</g>
<g>
</g>
<g>
</g>
<g>
</g>
<g>
</g>
<g>
</g>
<g>
</g>
<g>
</g>
<g>
</g>
<g>
</g>
<g>
</g>
<g>
</g>
<g>
</g>
<g>
</g>
<g>
</g>
</svg>
