<?xml version="1.0" encoding="iso-8859-1"?>
<!-- Generator: Adobe Illustrator 19.0.0, SVG Export Plug-In . SVG Version: 6.00 Build 0)  -->
<svg version="1.1" id="Capa_1" xmlns="http://www.w3.org/2000/svg" xmlns:xlink="http://www.w3.org/1999/xlink" x="0px" y="0px"
	 viewBox="0 0 511.999 511.999" style="enable-background:new 0 0 511.999 511.999;" xml:space="preserve">
<g>
	<path style="fill:#CD5B5B;" d="M80.916,74.964c0,23.576,8.762,43.788,20.872,58.521c4.774,5.809,11.932,9.132,19.449,8.933
		c63.356-1.673,92.442-42.708,108.279-67.454c-15.838-24.747-44.924-65.782-108.28-67.455c-7.516-0.198-14.674,3.125-19.449,8.933
		C89.678,31.175,80.916,51.387,80.916,74.964z"/>
	<path style="fill:#CD5B5B;" d="M378.115,74.964c0,23.576-8.762,43.788-20.872,58.521c-4.774,5.809-11.932,9.132-19.448,8.933
		c-63.356-1.673-92.442-42.708-108.279-67.454C245.354,50.218,274.44,9.183,337.795,7.509c7.516-0.198,14.674,3.125,19.448,8.933
		C369.353,31.175,378.115,51.387,378.115,74.964z"/>
</g>
<g>
	<path style="fill:#FAE17C;" d="M377.791,67.382c-4.521-3.843-10.364-6.174-16.765-6.174c-14.344,0-25.972,11.628-25.972,25.972
		s11.628,25.972,25.972,25.972c3.437,0,6.706-0.688,9.705-1.906c4.599-10.773,7.384-22.993,7.384-36.282
		C378.115,72.393,377.992,69.87,377.791,67.382z"/>
	<path style="fill:#FAE17C;" d="M299.272,55.686c14.344,0,25.972-11.628,25.972-25.972c0-7.993-3.617-15.136-9.296-19.9
		c-16.956,3.226-30.919,9.518-42.514,17.261c-0.087,0.868-0.133,1.748-0.133,2.639C273.3,44.058,284.928,55.686,299.272,55.686z"/>
</g>
<path style="opacity:0.1;enable-background:new    ;" d="M270.111,93.114c-0.265,0-0.531-0.015-0.8-0.043
	c-7.502-0.796-28.729-4.745-42.936-11.297c-2.657-1.225-4.359-3.885-4.359-6.81c0-2.926,1.702-5.585,4.359-6.811
	c14.207-6.552,35.434-10.501,42.936-11.297c4.115-0.436,7.813,2.548,8.249,6.667c0.437,4.119-2.548,7.813-6.667,8.249
	c-3.576,0.38-10.069,1.504-17.136,3.191c7.067,1.688,13.56,2.812,17.136,3.191c4.119,0.437,7.104,4.13,6.667,8.249
	C277.151,90.255,273.897,93.114,270.111,93.114z"/>
<path style="opacity:0.1;enable-background:new    ;" d="M188.92,93.114c-3.787,0-7.041-2.859-7.449-6.71
	c-0.437-4.119,2.548-7.813,6.667-8.249c3.576-0.38,10.069-1.504,17.135-3.191c-7.066-1.688-13.56-2.812-17.135-3.191
	c-4.119-0.436-7.104-4.13-6.667-8.249c0.437-4.12,4.126-7.104,8.249-6.667c7.502,0.796,28.729,4.745,42.936,11.297
	c2.657,1.226,4.359,3.885,4.359,6.811c0,2.926-1.702,5.585-4.359,6.81c-14.207,6.552-35.434,10.501-42.936,11.297
	C189.452,93.099,189.184,93.114,188.92,93.114z"/>
<path style="fill:#CD5B5B;" d="M257.932,74.963c0-10.662-5.226-16.941-13.106-20.079c-0.989-0.394-1.757-1.16-2.341-2.05
	c-2.78-4.232-9.639-4.566-12.97-4.566c-3.33,0-10.19,0.334-12.97,4.566c-0.584,0.89-1.352,1.656-2.341,2.05
	c-7.88,3.138-13.106,9.417-13.106,20.079s5.226,16.94,13.106,20.079c0.989,0.394,1.757,1.161,2.341,2.05
	c2.78,4.232,9.64,4.566,12.97,4.566s10.19-0.334,12.97-4.566c0.584-0.89,1.352-1.656,2.341-2.05
	C252.706,91.904,257.932,85.625,257.932,74.963z"/>
<g>
	<path style="fill:#FAE17C;" d="M163.428,89.121c-14.344,0-25.972,11.628-25.972,25.972c0,10.06,5.73,18.765,14.094,23.079
		c14.701-3.901,26.96-10.158,37.242-17.534c0.389-1.788,0.607-3.64,0.607-5.545C189.4,100.749,177.772,89.121,163.428,89.121z"/>
	<path style="fill:#FAE17C;" d="M101.787,16.442C97.334,21.86,93.34,28.025,90.061,34.82c4.68,6.821,12.526,11.3,21.424,11.3
		c14.344,0,25.972-11.628,25.972-25.972c0-4.184-1.013-8.124-2.771-11.625c-4.31-0.53-8.775-0.891-13.45-1.014
		C113.72,7.31,106.562,10.634,101.787,16.442z"/>
</g>
<path style="fill:#498A68;" d="M355.628,413.548c-5.089,0-10.011-2.733-12.577-7.535c-4.889-9.148-12.728-15.355-15.679-17.691
	l-0.353-0.279c-6.161-4.895-7.186-13.857-2.292-20.017c4.894-6.162,13.857-7.185,20.016-2.292l0.315,0.25
	c3.818,3.023,15.438,12.224,23.121,26.601c3.709,6.939,1.089,15.57-5.85,19.279C360.192,413.005,357.893,413.548,355.628,413.548z"
	/>
<path style="fill:#5CB38E;" d="M236.814,439.651c-66.482,0-142.991,0-199.001-35.759c-9.584-6.119-4.041-20.898,7.23-19.393
	c44.355,5.921,81.612-5.369,102.857-23.658L236.814,439.651z"/>
<path style="opacity:0.1;enable-background:new    ;" d="M122.822,375.928c0.741,21.231,4,42.424,17.088,60.046
	c32.41,3.677,65.757,3.678,96.904,3.678L147.9,360.84C141.091,366.702,132.629,371.84,122.822,375.928z"/>
<g>
	<path style="fill:#498A68;" d="M207.028,504.501c-5.675,0-11.345-2.19-15.636-6.558c-8.483-8.634-8.36-22.511,0.275-30.995
		c5.408-5.312,8.663-14.44,8.292-23.253c-0.241-5.748-2.026-9.296-3.094-10.182c-9.316-7.728-10.604-21.545-2.875-30.862
		c7.728-9.316,21.546-10.603,30.862-2.875c11.449,9.497,18.163,24.44,18.904,42.077c0.894,21.271-7.094,42.342-21.368,56.366
		C218.12,502.41,212.572,504.501,207.028,504.501z"/>
	<path style="fill:#498A68;" d="M318.033,497.847c-12.105,0-21.918-9.813-21.918-21.917c0-4.568-2.387-13.282-7.718-22.454
		c-5.258-9.045-10.723-13.865-12.933-14.778c-11.187-4.624-16.507-17.442-11.883-28.629c4.624-11.186,17.441-16.507,28.628-11.882
		c26.886,11.114,47.741,50.918,47.741,77.743C339.951,488.035,330.138,497.847,318.033,497.847z"/>
</g>
<path style="opacity:0.1;enable-background:new    ;" d="M292.21,398.187c-11.187-4.624-24.004,0.697-28.628,11.882
	c-4.624,11.187,0.696,24.004,11.883,28.629c2.21,0.913,7.675,5.733,12.933,14.778c2.983,5.133,5.043,10.121,6.28,14.321
	c16.513-3.612,29.832-9.378,40.376-17.428C327.356,428.455,311.31,406.082,292.21,398.187z"/>
<path style="opacity:0.1;enable-background:new    ;" d="M224.852,399.776c-9.317-7.729-23.134-6.441-30.862,2.875
	c-7.728,9.317-6.441,23.134,2.875,30.862c1.068,0.886,2.853,4.434,3.094,10.182c0.371,8.813-2.884,17.941-8.292,23.253
	c-0.053,0.052-0.097,0.11-0.15,0.163c13.491,3.243,29.205,4.972,47.373,5.268c3.575-9.579,5.306-20.026,4.865-30.526
	C243.014,424.216,236.3,409.273,224.852,399.776z"/>
<path style="fill:#5CB38E;" d="M344.667,362.321c0,51.168-6.95,88.192-100.066,88.192s-100.066-37.024-100.066-88.192
	s44.801-92.647,100.066-92.647S344.667,311.153,344.667,362.321z"/>
<path style="fill:#9BDFC1;" d="M344.667,362.321c0-0.408-0.011-0.813-0.017-1.22c-20.842-5.349-62.183-6.904-90.952,23.669
	c-20.964,22.279-23.998,46.321-21.749,65.496c4.03,0.164,8.243,0.247,12.651,0.247C337.716,450.513,344.667,413.489,344.667,362.321
	z"/>
<path style="opacity:0.05;enable-background:new    ;" d="M225.604,271.348c-46.179,8.218-81.069,45.82-81.069,90.973
	c0,47.379,5.971,82.626,80.777,87.587C183.777,407.751,191.811,320.706,225.604,271.348z"/>
<path style="fill:#5CB38E;" d="M336.451,136.243L336.451,136.243c-17.087-25.84-46-41.383-76.978-41.383h-38.081
	c-54.14,0-98.029,43.889-98.029,98.029v45.07c0,48.59,39.39,87.98,87.98,87.98h201.865c36.4,0,65.908-29.508,65.908-65.908v-30.674
	c0-36.4-29.508-65.908-65.908-65.908h-26.151C366.692,163.449,347.685,153.23,336.451,136.243z"/>
<path style="fill:#495059;" d="M400.164,297.342L400.164,297.342c-14.356,0-25.994-11.638-25.994-25.994v-13.991
	c0-6.629,5.374-12.003,12.003-12.003h27.983c6.629,0,12.003,5.374,12.003,12.003v13.991
	C426.159,285.704,414.521,297.342,400.164,297.342z"/>
<g style="opacity:0.1;">
	<circle cx="176.61" cy="259.38" r="6.746"/>
	<circle cx="224.58" cy="269.67" r="6.746"/>
	<circle cx="197.13" cy="292.69" r="6.746"/>
</g>
<g>
	<ellipse style="fill:#FFA8CB;" cx="186.87" cy="167.12" rx="17" ry="8.724"/>
	<ellipse style="fill:#FFA8CB;" cx="301.03" cy="167.12" rx="17" ry="8.724"/>
</g>
<path style="opacity:0.05;enable-background:new    ;" d="M199.614,97.291c-43.658,9.904-76.251,48.942-76.251,95.597v45.07
	c0,48.59,39.39,87.98,87.98,87.98h53.386C186.98,280.7,173.801,156.35,199.614,97.291z"/>
<path style="fill:#498A68;" d="M254.734,413.565c-5.091,0-10.014-2.735-12.579-7.539c-4.887-9.153-12.731-15.365-15.684-17.703
	l-0.355-0.281c-6.16-4.894-7.186-13.856-2.291-20.017c4.895-6.16,13.857-7.185,20.017-2.29l0.317,0.25
	c3.821,3.027,15.449,12.233,23.13,26.621c3.706,6.941,1.084,15.571-5.857,19.277C259.295,413.023,256.998,413.565,254.734,413.565z"
	/>
<path d="M244.159,365.984l1.606-2.022l3.052-3.856L244.159,365.984z M413.208,155.949h-26.15c-11.751,0-22.92-3.862-32.009-10.727
	c2.991-1.839,5.691-4.181,7.988-6.975c14.56-17.714,22.578-40.189,22.578-63.284s-8.018-45.569-22.578-63.284
	c-6.309-7.675-15.571-11.94-25.44-11.667c-38.191,1.008-69.119,15.321-94.31,43.696c-3.521-1.954-8.125-2.94-13.772-2.94
	c-5.646,0-10.249,0.985-13.771,2.94c-25.192-28.375-56.12-42.688-94.31-43.696c-9.87-0.261-19.131,3.991-25.441,11.667
	c-14.56,17.715-22.578,40.189-22.578,63.284c0,23.097,8.018,45.571,22.578,63.284c6.127,7.453,15.046,11.679,24.583,11.679
	c0.285,0,0.571-0.004,0.857-0.012c1.222-0.032,2.437-0.09,3.651-0.151c-5.922,13.173-9.221,27.77-9.221,43.124v45.07
	c0,23.019,8.307,45.253,23.389,62.607c3.721,4.281,7.791,8.196,12.152,11.714c-8.957,14.425-13.856,30.643-14.318,47.43
	c-22.298,15.553-55.986,22.032-91.051,17.355c-8.665-1.16-16.504,3.573-19.501,11.772c-2.97,8.124-0.059,16.715,7.242,21.376
	c43.864,28.006,98.218,34.002,141.077,35.961c4.979,2.397,10.513,4.418,16.632,6.074c-1.04,3.765-2.831,7.145-5.075,9.35
	c-11.571,11.368-11.736,30.029-0.37,41.599c5.576,5.678,13.029,8.804,20.987,8.804c7.757,0,15.078-2.994,20.615-8.433
	c11.939-11.729,19.996-28.066,22.676-45.609c11.277-0.189,21.467-0.948,30.641-2.296c0.323,0.519,0.642,1.045,0.954,1.582
	c4.917,8.458,6.702,15.809,6.702,18.685c0,16.221,13.197,29.417,29.417,29.417c11.422,0,21.904-6.698,26.704-17.065
	c1.741-3.759,0.104-8.217-3.654-9.957c-3.759-1.742-8.216-0.104-9.957,3.654c-2.354,5.083-7.493,8.368-13.093,8.368
	c-7.95,0-14.417-6.468-14.417-14.417c0-6.098-2.76-15-7.153-23.354c10.499-2.722,19.315-6.486,26.593-11.346
	c2.118,4.268,3.948,8.672,5.404,13.024c1.05,3.14,3.975,5.123,7.112,5.123c0.789,0,1.591-0.125,2.38-0.39
	c3.928-1.314,6.047-5.564,4.733-9.491c-2.069-6.186-4.799-12.451-7.989-18.396c0.184-0.209,0.375-0.413,0.556-0.624
	c3.442-4.027,6.186-8.403,8.377-13.04c3.494,2.31,7.642,3.61,11.997,3.61c3.549,0,7.089-0.889,10.238-2.57
	c5.123-2.738,8.873-7.307,10.56-12.865c1.687-5.559,1.107-11.441-1.63-16.563c-7.135-13.35-17.211-22.499-22.631-26.97
	c-0.025-9.807-1.553-19.398-4.544-28.64h65.589c40.477,0,73.408-32.931,73.408-73.408v-30.674
	C486.616,188.88,453.685,155.949,413.208,155.949z M351.62,382.214c3.437,3.78,7.022,8.436,9.945,13.906
	c0.849,1.588,1.029,3.413,0.506,5.137c-0.523,1.725-1.687,3.142-3.274,3.99c-0.994,0.531-2.061,0.801-3.169,0.801
	c-2.5,0-4.785-1.368-5.962-3.57c-0.203-0.38-0.431-0.764-0.649-1.147C350.392,395.149,351.178,388.726,351.62,382.214z
	 M337.993,15.007c5.191-0.144,10.105,2.121,13.456,6.197c12.359,15.038,19.166,34.13,19.166,53.76
	c0,19.631-6.807,38.723-19.165,53.759c-1.998,2.43-4.569,4.205-7.444,5.22c-0.439-0.607-0.883-1.208-1.298-1.837
	c-17.871-27.025-47.453-43.54-79.67-44.678c1.572-3.689,2.395-7.868,2.395-12.465c0-9.492-3.455-17.206-9.885-22.44
	C277.694,28.184,304.745,15.884,337.993,15.007z M216.978,61.853c0.731-0.291,1.427-0.667,2.09-1.104
	c0.014-0.009,0.029-0.019,0.043-0.028c1.423-0.946,2.674-2.204,3.662-3.715c0.012-0.013,1.357-1.238,6.742-1.238
	c5.296,0,6.685,1.186,6.702,1.186c0.001,0,0.001,0,0-0.001c1.013,1.542,2.267,2.808,3.686,3.756c0.025,0.016,0.05,0.033,0.075,0.049
	c0.659,0.434,1.35,0.806,2.074,1.094c5.796,2.309,8.381,6.352,8.381,13.111c0,6.122-2.125,9.998-6.834,12.396h-22.206
	c-1.904,0-3.795,0.053-5.674,0.153c-4.907-2.382-7.12-6.306-7.12-12.55C208.599,68.205,211.183,64.161,216.978,61.853z
	 M121.037,134.921c-5.195,0.124-10.105-2.121-13.456-6.198c-12.359-15.036-19.166-34.128-19.166-53.759
	c0-19.63,6.807-38.722,19.166-53.759c3.351-4.076,8.254-6.346,13.456-6.198c33.246,0.878,60.298,13.177,82.445,37.518
	c-6.429,5.234-9.884,12.947-9.884,22.439c0,5.767,1.285,10.871,3.725,15.168c-26.257,6.149-48.773,22.127-63.435,43.829
	C129.707,134.478,125.402,134.805,121.037,134.921z M41.849,397.571c-1.699-1.085-1.604-2.548-1.226-3.583
	c0.327-0.895,1.205-2.344,3.428-2.056c34.634,4.627,68.378-0.853,93.255-14.711c0.833,19.261,4.099,38.09,16.079,52.57
	C116.932,426.747,75.648,419.15,41.849,397.571z M217.132,492.867c-2.714,2.666-6.303,4.134-10.104,4.134
	c-3.9,0-7.553-1.532-10.286-4.314c-5.571-5.671-5.49-14.816,0.181-20.388c4.351-4.275,7.584-10.291,9.262-16.944
	c8.686,1.383,18.314,2.215,28.936,2.521C232.631,471.409,226.295,483.865,217.132,492.867z M471.616,260.03
	c0,32.206-26.202,58.408-58.408,58.408H233.687c-4.142,0-7.5,3.357-7.5,7.5s3.358,7.5,7.5,7.5h98.01
	c3.629,9.237,5.469,18.93,5.469,28.883c0,26.442-2.227,45.436-13.316,58.411c-8.163,9.551-21.144,15.894-39.853,19.291
	c-0.523,0.034-1.044,0.125-1.556,0.27c-10.73,1.825-23.283,2.72-37.841,2.72c-16.603,0-30.607-1.158-42.261-3.54
	c-0.515-0.174-1.056-0.29-1.616-0.348c-7.709-1.684-14.358-3.925-20.014-6.747c-0.335-0.207-0.689-0.385-1.057-0.538
	c-5.829-3.051-10.571-6.742-14.302-11.107c-8.221-9.619-13.316-22.745-13.316-58.411c0-14.677,4.057-28.915,11.777-41.573
	c10.232,5.883,21.519,9.877,33.329,11.64c4.103,0.613,7.914-2.215,8.525-6.311c0.611-4.098-2.214-7.914-6.311-8.525
	c-18.868-2.816-36.192-12.343-48.781-26.827c-12.711-14.624-19.711-33.364-19.711-52.767v-45.07
	c0-49.918,40.611-90.528,90.528-90.528h23.793c0.026,0,0.052,0,0.078,0h14.21c28.542,0,54.979,14.213,70.723,38.019
	c12.658,19.142,33.915,30.569,56.863,30.569h26.15c32.206,0,58.408,26.201,58.408,58.407v30.674H471.616z M378.667,204.621
	c3.726,0,6.746-3.02,6.746-6.746s-3.02-6.746-6.746-6.746s-6.746,3.02-6.746,6.746S374.941,204.621,378.667,204.621z
	 M421.662,204.621c3.726,0,6.746-3.02,6.746-6.746s-3.02-6.746-6.746-6.746s-6.746,3.02-6.746,6.746
	C414.915,201.601,417.936,204.621,421.662,204.621z M235.538,409.558c3.79,7.098,11.146,11.507,19.195,11.507
	c3.548,0,7.086-0.888,10.23-2.566c10.577-5.648,14.588-18.849,8.941-29.426c-8.414-15.758-20.96-25.697-25.083-28.963l-3.058,3.852
	l-6.256,7.906c3.518,2.786,14.222,11.267,21.165,24.27c1.752,3.281,0.508,7.377-2.774,9.129c-0.992,0.53-2.057,0.799-3.165,0.799
	c-2.501,0-4.787-1.369-5.963-3.572c-5.621-10.528-14.354-17.444-17.644-20.051l-9.31,11.762
	C224.434,396.277,231.389,401.785,235.538,409.558z M414.156,237.854h-27.982c-10.754,0-19.503,8.749-19.503,19.502v13.992
	c0,18.468,15.025,33.493,33.494,33.493s33.494-15.025,33.494-33.493v-13.992C433.659,246.603,424.91,237.854,414.156,237.854z
	 M418.659,271.348c0,10.197-8.296,18.493-18.494,18.493s-18.494-8.296-18.494-18.493v-13.992c0-2.482,2.02-4.502,4.503-4.502h27.982
	c2.483,0,4.503,2.02,4.503,4.502V271.348z M279.457,133.848c-4.142,0-7.5,3.357-7.5,7.5v8.474c0,4.143,3.358,7.5,7.5,7.5
	s7.5-3.357,7.5-7.5v-8.474C286.957,137.206,283.6,133.848,279.457,133.848z M208.443,130.995c-10.79,0-19.568,8.778-19.568,19.567
	c0,4.143,3.358,7.5,7.5,7.5s7.5-3.357,7.5-7.5c0-2.518,2.049-4.567,4.568-4.567s4.568,2.049,4.568,4.567c0,4.143,3.358,7.5,7.5,7.5
	s7.5-3.357,7.5-7.5C228.011,139.773,219.232,130.995,208.443,130.995z"/>
<g>
</g>
<g>
</g>
<g>
</g>
<g>
</g>
<g>
</g>
<g>
</g>
<g>
</g>
<g>
</g>
<g>
</g>
<g>
</g>
<g>
</g>
<g>
</g>
<g>
</g>
<g>
</g>
<g>
</g>
</svg>
