<?xml version="1.0" encoding="iso-8859-1"?>
<!-- Generator: Adobe Illustrator 19.0.0, SVG Export Plug-In . SVG Version: 6.00 Build 0)  -->
<svg version="1.1" id="Capa_1" xmlns="http://www.w3.org/2000/svg" xmlns:xlink="http://www.w3.org/1999/xlink" x="0px" y="0px"
	 viewBox="0 0 511.999 511.999" style="enable-background:new 0 0 511.999 511.999;" xml:space="preserve">
<path style="fill:#498A68;" d="M367.218,389.529c-5.329,0-10.534-2.683-13.53-7.556c-6.054-9.84-15.187-16.209-18.626-18.607
	l-0.411-0.287c-7.179-5.025-8.927-14.918-3.901-22.097c5.023-7.179,14.918-8.927,22.098-3.901l0.368,0.256
	c4.45,3.103,17.989,12.546,27.502,28.01c4.593,7.463,2.264,17.236-5.201,21.828C372.925,388.769,370.052,389.529,367.218,389.529z"
	/>
<path style="fill:#5CB38E;" d="M234.629,419.984c-74.046,0-159.26,0-221.643-39.828c-10.675-6.816-4.501-23.276,8.053-21.6
	c49.402,6.595,90.898-5.98,114.561-26.35L234.629,419.984z"/>
<path style="opacity:0.1;enable-background:new    ;" d="M107.667,349.011c0.826,23.647,4.455,47.251,19.032,66.878
	c36.097,4.096,73.239,4.096,107.93,4.096l-99.03-87.778C128.014,338.735,118.589,344.457,107.667,349.011z"/>
<g>
	<path style="fill:#498A68;" d="M201.48,492.212c-0.628,0-1.261-0.024-1.898-0.073c-13.442-1.033-23.502-12.769-22.468-26.211
		c0.938-12.2-0.068-52.887-1.818-61.896c-4.017-12.095,1.991-25.399,13.964-30.278c12.486-5.083,26.731,0.912,31.818,13.398
		c6.58,16.153,5.015,78.612,4.714,82.519C224.809,482.477,214.112,492.212,201.48,492.212z M175.853,405.546
		c0.004,0.008,0.007,0.018,0.011,0.027C175.86,405.564,175.856,405.554,175.853,405.546z"/>
	<path style="fill:#498A68;" d="M306.386,483.289c-0.024,0-0.047,0-0.07,0c-13.483-0.038-24.38-10.999-24.342-24.48
		c-0.017-1.069-0.641-11.803-17.166-52.227l-0.411-1.006c-5.087-12.485,0.909-26.731,13.394-31.819
		c12.48-5.089,26.729,0.908,31.819,13.395l0.39,0.957c18.483,45.213,20.823,61.608,20.797,70.839
		C330.758,472.405,319.835,483.289,306.386,483.289z"/>
</g>
<path style="opacity:0.1;enable-background:new    ;" d="M309.999,388.107l-0.39-0.957c-5.09-12.486-19.339-18.482-31.819-13.395
	c-12.485,5.089-18.481,19.334-13.394,31.819l0.411,1.006c11.351,27.766,15.199,41.523,16.502,47.764
	c18.622-2.332,34.218-6.591,47.139-12.878C325.863,430.412,320.578,413.984,309.999,388.107z"/>
<path style="opacity:0.1;enable-background:new    ;" d="M189.261,373.755c-11.975,4.879-17.981,18.183-13.964,30.278
	c1.223,6.296,2.082,28.059,2.168,44.763c13.85,4.005,29.994,6.407,48.66,7.297c0.226-20.287-0.216-57.085-5.045-68.94
	C215.991,374.667,201.747,368.673,189.261,373.755z"/>
<path style="fill:#5CB38E;" d="M354.753,333.855c0,56.99-7.741,98.226-111.451,98.226s-111.451-41.236-111.451-98.226
	s49.898-103.189,111.451-103.189S354.753,276.865,354.753,333.855z"/>
<path style="fill:#9BDFC1;" d="M354.753,333.855c0-0.454-0.012-0.906-0.019-1.359c-23.213-5.957-69.258-7.69-101.3,26.362
	c-23.349,24.814-26.728,51.592-24.223,72.947c4.489,0.182,9.181,0.275,14.09,0.275C347.012,432.082,354.753,390.845,354.753,333.855
	z"/>
<path style="opacity:0.05;enable-background:new    ;" d="M222.143,232.531c-51.433,9.153-90.293,51.033-90.293,101.324
	c0,52.769,6.65,92.028,89.968,97.553C175.558,384.454,184.506,287.505,222.143,232.531z"/>
<path style="fill:#5CB38E;" d="M345.603,82.054L345.603,82.054c-19.031-28.78-51.233-46.091-85.737-46.091h-42.413
	c-60.3,0-109.182,48.882-109.182,109.182v50.198c0,54.118,43.871,97.99,97.99,97.99h224.833c40.542,0,73.406-32.865,73.406-73.406
	v-34.164c0-40.541-32.865-73.406-73.406-73.406h-29.126C379.284,112.355,358.114,100.975,345.603,82.054z"/>
<g style="opacity:0.1;">
	<circle cx="167.583" cy="219.202" r="7.514"/>
	<circle cx="221.001" cy="230.662" r="7.514"/>
	<circle cx="190.432" cy="256.301" r="7.514"/>
</g>
<g>
	<ellipse style="fill:#FFA8CB;" cx="172.153" cy="117.906" rx="30.876" ry="25.283"/>
	<ellipse style="fill:#FFA8CB;" cx="312.998" cy="117.906" rx="30.876" ry="25.283"/>
</g>
<path style="opacity:0.05;enable-background:new    ;" d="M193.197,38.67c-48.625,11.031-84.927,54.511-84.927,106.474v50.198
	c0,54.118,43.871,97.989,97.99,97.989h59.461C179.125,242.948,164.446,104.449,193.197,38.67z"/>
<path style="fill:#498A68;" d="M251.06,370.526c-12.63,0-23.437-4.123-28.347-8.025c-6.861-5.451-8.003-15.432-2.551-22.294
	c5.242-6.598,14.674-7.91,21.492-3.148c2.128,0.968,11.644,3.779,20.172-0.895c7.685-4.213,17.328-1.396,21.541,6.289
	c4.211,7.686,1.396,17.329-6.289,21.541C268.39,368.756,259.334,370.526,251.06,370.526z M242.446,337.648
	c0.004,0.002,0.007,0.005,0.011,0.008C242.453,337.653,242.449,337.651,242.446,337.648z"/>
<path style="fill:#A3E3FF;" d="M153.97,106.155L153.97,106.155c-16.535,16.535-43.345,16.535-59.881,0l0,0
	c-16.535-16.535-16.535-43.345,0-59.881l24.054-24.054c3.251-3.251,8.522-3.251,11.773,0l24.054,24.054
	C170.505,62.809,170.505,89.618,153.97,106.155z"/>
<path d="M440.509,143.184c-4.15,0-7.514,3.364-7.514,7.514c0,4.15,3.364,7.514,7.514,7.514s7.514-3.364,7.514-7.514
	C448.023,146.548,444.659,143.184,440.509,143.184z M431.093,104.855h-29.126c-20.222,0-38.955-10.07-50.109-26.937
	c-20.478-30.968-54.867-49.455-91.993-49.455h-42.413c-19.792,0-39.115,5.001-56.307,14.489c-0.604-0.673-1.226-1.335-1.872-1.982
	l-24.054-24.054c-6.17-6.169-16.208-6.169-22.38,0L88.785,40.969c-19.433,19.434-19.433,51.054,0,70.488
	c4.294,4.294,9.185,7.635,14.405,10.031c-1.6,7.762-2.419,15.689-2.419,23.655v50.198c0,33.034,15.486,63.047,39.901,82.539
	c-10.249,16.232-15.827,34.552-16.271,53.518c-25.006,17.622-62.926,24.986-102.369,19.723c-9.24-1.23-17.606,3.813-20.805,12.56
	c-3.167,8.663-0.063,17.823,7.725,22.794c48.757,31.129,109.241,37.766,156.896,39.932c1.199,0.58,2.424,1.142,3.682,1.682
	c0.543,14.833,0.604,30.805,0.109,37.261c-1.349,17.544,11.827,32.915,29.372,34.265c0.814,0.063,1.646,0.095,2.472,0.095
	c16.555,0,30.52-12.943,31.792-29.469c0.152-1.995,0.531-15.155,0.351-30.788c3.148,0.082,6.372,0.126,9.679,0.126
	c9.155,0,17.687-0.319,25.642-0.956c5.105,15.015,5.507,19.924,5.531,20.29c0.009,8.475,3.303,16.448,9.282,22.462
	c6.01,6.044,14.014,9.386,22.63,9.41c11.404,0,22.016-6.15,27.694-16.051c2.061-3.593,0.818-8.177-2.774-10.237
	c-3.594-2.061-8.177-0.819-10.237,2.775c-3.013,5.252-8.639,8.515-14.731,8.515c-4.519-0.013-8.761-1.784-11.945-4.987
	c-3.186-3.202-4.932-7.454-4.919-11.972c0-0.049,0-0.098-0.001-0.147c-0.033-1.957-0.669-7.682-5.292-21.78
	c12.608-1.886,23.468-4.782,32.721-8.738c1.54,4.809,2.809,9.194,3.778,13.085c0.85,3.41,3.908,5.689,7.272,5.689
	c0.601,0,1.21-0.073,1.819-0.225c4.019-1.001,6.466-5.071,5.464-9.091c-1.224-4.914-2.872-10.507-4.906-16.671
	c5.1-3.422,9.52-7.327,13.29-11.739c4.291-5.021,7.6-10.541,10.151-16.419c3.864,2.72,8.518,4.237,13.447,4.237
	c4.315,0,8.545-1.199,12.228-3.466c5.316-3.27,9.041-8.416,10.488-14.487c1.447-6.072,0.442-12.345-2.829-17.658
	c-6.076-9.877-14.43-18.87-24.853-26.785c0-0.259,0.001-0.517,0.001-0.776c0-11.323-1.808-22.386-5.383-33.023h74.224
	c44.611,0,80.906-36.295,80.906-80.906v-34.164C511.999,141.149,475.705,104.855,431.093,104.855z M361.777,353.9
	c5.009,4.809,9.214,9.949,12.553,15.375c1.171,1.903,1.531,4.148,1.013,6.322c-0.518,2.174-1.852,4.017-3.758,5.189
	c-1.319,0.811-2.829,1.241-4.367,1.241c-2.938,0-5.607-1.489-7.142-3.984c-0.359-0.584-0.74-1.167-1.132-1.75
	C360.495,369.06,361.333,361.528,361.777,353.9z M113.93,109.573c-0.021-0.006-0.043-0.008-0.064-0.014
	c-5.409-1.641-10.365-4.598-14.474-8.707c-13.585-13.586-13.585-35.691,0-49.275l24.053-24.054c0.161-0.161,0.373-0.241,0.584-0.241
	c0.212,0,0.423,0.08,0.584,0.241l24.054,24.054c13.585,13.584,13.585,35.689,0,49.274c-6.581,6.581-15.33,10.206-24.638,10.206
	c-3.436,0-6.795-0.498-9.999-1.452C113.996,109.596,113.965,109.582,113.93,109.573z M17.022,373.835
	c-2.589-1.652-2.058-4.05-1.709-5.003c0.365-0.996,1.557-3.26,4.733-2.843c38.96,5.201,76.892-1.116,104.547-16.964
	c0.839,22.118,4.395,43.81,18.391,60.187c0.235,0.275,0.483,0.54,0.723,0.812C102.504,406.741,55.465,398.38,17.022,373.835z
	 M218.316,469.096c-0.674,8.757-8.069,15.616-16.836,15.616c-0.444,0-0.889-0.017-1.322-0.05
	c-9.298-0.716-16.28-8.862-15.566-18.159c0.518-6.734,0.465-20.504,0.109-33.222c9.884,2.648,21.153,4.441,33.914,5.416
	C218.821,454.663,218.417,467.763,218.316,469.096z M497,219.925c0,36.342-29.565,65.907-65.907,65.907H227.618
	c-4.143,0-7.5,3.357-7.5,7.5s3.357,7.5,7.5,7.5h113.274c4.223,10.549,6.361,21.635,6.361,33.023
	c0,29.646-2.516,50.962-15.035,65.612c-3.762,4.402-8.43,8.196-14.058,11.409c-0.325,0.15-0.63,0.325-0.924,0.515
	c-10.819,5.945-25.098,9.815-43.314,11.74c-0.367,0.008-0.735,0.047-1.104,0.111c-8.899,0.895-18.71,1.341-29.514,1.341
	c-5.77,0-11.26-0.126-16.479-0.379c-0.274-0.03-0.552-0.05-0.834-0.05c-0.019,0-0.038,0-0.057,0.001
	c-18.592-0.96-33.709-3.565-45.728-7.917c-0.5-0.254-1.03-0.453-1.584-0.589c-2.429-0.932-4.726-1.939-6.895-3.022
	c-0.346-0.216-0.712-0.4-1.092-0.558c-6.621-3.454-12.009-7.643-16.248-12.603c-12.521-14.649-15.035-35.967-15.035-65.612
	c0-16.782,4.713-33.057,13.682-47.468c11.714,6.889,24.897,11.594,39.028,13.496c0.34,0.046,0.677,0.068,1.011,0.068
	c3.697,0,6.916-2.735,7.423-6.5c0.553-4.105-2.327-7.881-6.432-8.434c-44.633-6.01-78.291-44.561-78.291-89.676v-50.198
	c0-6.574,0.636-13.116,1.885-19.53c2.116,0.271,4.245,0.419,6.375,0.419c12.764,0,25.526-4.858,35.244-14.574v-0.001
	c15.096-15.096,18.458-37.546,10.1-55.924c14.726-7.915,31.208-12.072,48.079-12.072h42.413c32.076,0,61.789,15.973,79.481,42.728
	c13.941,21.079,37.35,33.664,62.621,33.664h29.126c36.342,0,65.907,29.566,65.907,65.908v34.167H497z M392.622,143.184
	c-4.15,0-7.514,3.364-7.514,7.514c0,4.15,3.364,7.514,7.514,7.514s7.514-3.364,7.514-7.514
	C400.136,146.548,396.772,143.184,392.622,143.184z M203.03,88.708c-4.143,0-7.5,3.357-7.5,7.5v1.298c0,4.143,3.357,7.5,7.5,7.5
	s7.5-3.357,7.5-7.5v-1.298C210.53,92.065,207.172,88.708,203.03,88.708z M282.125,88.708c-4.143,0-7.5,3.357-7.5,7.5v1.298
	c0,4.143,3.357,7.5,7.5,7.5s7.5-3.357,7.5-7.5v-1.298C289.625,92.065,286.267,88.708,282.125,88.708z M423.642,228.006h-14.152
	c-4.143,0-7.5,3.357-7.5,7.5c0,4.143,3.357,7.5,7.5,7.5h14.152c4.143,0,7.5-3.357,7.5-7.5
	C431.141,231.363,427.785,228.006,423.642,228.006z M216.841,357.835c-2.577,3.242-2.037,7.961,1.206,10.538
	c5.603,4.452,17.61,9.652,33.013,9.652c10.631,0,20.598-2.508,29.624-7.455c11.299-6.191,15.452-20.421,9.262-31.723
	c-3.001-5.474-7.953-9.451-13.943-11.2c-5.99-1.75-12.306-1.061-17.777,1.94c-6.195,3.392-13.398,0.673-13.467,0.645
	c-3.829-1.591-8.215,0.226-9.802,4.052c-1.588,3.826,0.227,8.215,4.052,9.802c5.066,2.104,16.332,4.188,26.426-1.345
	c1.959-1.072,4.222-1.319,6.365-0.694c2.146,0.627,3.92,2.052,4.994,4.011c2.217,4.047,0.729,9.143-3.316,11.36
	c-6.792,3.722-14.332,5.609-22.415,5.609c-11.47,0-20.445-3.825-23.681-6.396C224.136,354.054,219.42,354.591,216.841,357.835z"/>
<g>
</g>
<g>
</g>
<g>
</g>
<g>
</g>
<g>
</g>
<g>
</g>
<g>
</g>
<g>
</g>
<g>
</g>
<g>
</g>
<g>
</g>
<g>
</g>
<g>
</g>
<g>
</g>
<g>
</g>
</svg>
