<?xml version="1.0" encoding="iso-8859-1"?>
<!-- Generator: Adobe Illustrator 19.0.0, SVG Export Plug-In . SVG Version: 6.00 Build 0)  -->
<svg version="1.1" id="Capa_1" xmlns="http://www.w3.org/2000/svg" xmlns:xlink="http://www.w3.org/1999/xlink" x="0px" y="0px"
	 viewBox="0 0 512.001 512.001" style="enable-background:new 0 0 512.001 512.001;" xml:space="preserve">
<g>
	<path style="fill:#A3E3FF;" d="M264.501,49.8c-0.428,7.887-1.791,15.97-2.755,23.5c-1.059,7.291-1.553,13.872-1.56,19.608
		c-0.019,16.709,6.589,32.367,12.776,47.576c6.395,15.72,11.853,31.808,13.839,48.717c1.963,16.715,1.55,36.172-5.354,51.801
		c-2.414,5.62-5.713,10.971-9.931,15.314c-3.829,3.943-10.129,4.035-14.072,0.206c-1.824-1.772-2.824-4.073-2.993-6.432
		c-1.162-16.564-9.081-30.973-17.913-44.655c-12.182-18.873-27.826-35.672-38.838-55.242
		c-21.434-38.088-19.349-85.076,0.475-123.328c9.118-17.594,30.773-24.466,48.367-15.348
		C262.623,19.852,265.333,34.455,264.501,49.8z"/>
	<path style="fill:#A3E3FF;" d="M465.575,73.364c15.636,26.647,25.98,59.349,24.199,90.409c-1.107,19.31-7.726,37.764-15.931,55.11
		c-11.062,23.388-26.063,43.407-26.777,70.396c-0.154,5.803-4.838,11.195-10.952,10.419c-6.746-0.855-12.714-9.65-15.792-14.958
		c-13.764-23.147-10.568-53.089-6.952-78.495c2.638-18.532,5.746-37.427,2.913-56.131c-2.709-17.884-9.417-35.038-12.962-52.773
		l-0.059-0.297c-3.659-18.303,8.211-36.105,26.514-39.764C444.277,54.381,458.489,61.288,465.575,73.364z"/>
</g>
<path style="fill:#498A68;" d="M376.126,404.318c-3.496,0-7.001-1.261-9.779-3.812c-7.745-7.12-17.332-10.437-20.942-11.685
	l-0.436-0.151c-7.54-2.623-11.526-10.861-8.902-18.402c2.623-7.541,10.862-11.528,18.401-8.902l0.39,0.136
	c4.67,1.615,18.881,6.531,31.054,17.72c5.876,5.403,6.262,14.546,0.86,20.425C383.921,402.746,380.03,404.318,376.126,404.318z"/>
<path style="fill:#5CB38E;" d="M249.203,438.698c-67.454,0-145.08,0-201.91-36.282c-9.724-6.208-4.1-21.204,7.335-19.677
	c45.003,6.008,82.805-5.448,104.36-24.005L249.203,438.698z"/>
<path style="opacity:0.1;enable-background:new    ;" d="M133.546,374.044c0.752,21.542,4.058,43.044,17.337,60.924
	c32.883,3.731,66.718,3.731,98.321,3.731l-90.213-79.963C152.08,364.683,143.495,369.897,133.546,374.044z"/>
<g>
	<path style="fill:#498A68;" d="M218.975,504.5c-2.756,0.001-5.555-0.515-8.268-1.603c-11.4-4.57-16.935-17.516-12.365-28.916
		c0.797-1.989,2.523-10.465,2.457-22.692c-0.073-13.357-2.241-20.298-3.034-21.771c-6.782-10.165-4.09-23.912,6.048-30.764
		c10.177-6.88,24-4.203,30.877,5.972c14.507,21.466,11.872,68.497,4.933,85.804C236.14,499.219,227.792,504.5,218.975,504.5z
		 M197.821,429.603c0.007,0.01,0.013,0.02,0.02,0.029C197.834,429.623,197.828,429.613,197.821,429.603z"/>
	<path style="fill:#498A68;" d="M311.221,495.443c-2.098,0-4.231-0.299-6.344-0.927c-11.772-3.5-18.48-15.879-14.98-27.652
		c4.378-14.73-5.528-30.829-8.581-33.833c-8.753-8.615-8.865-22.695-0.25-31.449c8.614-8.751,22.695-8.866,31.448-0.25
		c12.939,12.735,29.817,45.229,20.015,78.203C329.656,489.194,320.807,495.443,311.221,495.443z"/>
</g>
<path style="opacity:0.1;enable-background:new    ;" d="M289.189,470.297c18.462-2.09,33.759-6.179,46.253-12.399
	c-0.403-24.766-12.856-46.652-22.93-56.567c-8.753-8.616-22.834-8.502-31.448,0.25c-8.615,8.754-8.503,22.834,0.25,31.449
	c3.053,3.004,12.959,19.104,8.581,33.833C289.556,468.005,289.341,469.152,289.189,470.297z"/>
<path style="opacity:0.1;enable-background:new    ;" d="M203.813,398.756c-10.138,6.851-12.83,20.599-6.048,30.764
	c0.793,1.473,2.961,8.413,3.034,21.771c0.031,5.743-0.335,10.643-0.813,14.447c12.597,3.344,27.191,5.309,43.979,5.966
	c2.791-21.46,1.416-51.156-9.276-66.976C227.812,394.553,213.99,391.876,203.813,398.756z"/>
<path style="fill:#5CB38E;" d="M358.632,360.238c0,51.915-7.052,89.48-101.528,89.48c-94.477,0-101.528-37.565-101.528-89.48
	s45.455-94.002,101.528-94.002C313.176,266.237,358.632,308.323,358.632,360.238z"/>
<path style="fill:#9BDFC1;" d="M358.632,360.238c0-0.414-0.011-0.825-0.017-1.238c-21.147-5.427-63.092-7.005-92.281,24.015
	c-21.271,22.605-24.349,46.998-22.067,66.453c4.089,0.166,8.363,0.251,12.836,0.251C351.58,449.719,358.632,412.154,358.632,360.238
	z"/>
<path style="opacity:0.05;enable-background:new    ;" d="M237.83,267.936c-46.853,8.338-82.254,46.489-82.254,92.303
	c0,48.071,6.058,83.833,81.957,88.867C195.392,406.332,203.542,318.015,237.83,267.936z"/>
<path style="fill:#498A68;" d="M274.691,402.532c-3.177,0-6.375-1.041-9.044-3.186c-8.205-6.592-17.999-9.263-21.687-10.268
	l-0.446-0.122c-7.698-2.113-12.225-10.068-10.112-17.765c2.113-7.698,10.07-12.227,17.765-10.112l0.398,0.109
	c4.771,1.301,19.288,5.26,32.186,15.621c6.224,5,7.215,14.098,2.216,20.322C283.113,400.684,278.92,402.532,274.691,402.532z"/>
<path style="fill:#DEE2E5;" d="M428.175,158.46h-26.533c-20.664,0-39.949-10.367-51.346-27.604l0,0
	c-17.337-26.218-46.672-41.988-78.103-41.988h-38.637c-54.931,0-99.461,44.53-99.461,99.461v142.236
	c0,9.538,8.967,16.534,18.219,14.214l20.798-5.214c9.792-2.455,20.089-1.98,29.613,1.366l17.14,6.022
	c10.628,3.734,22.188,3.883,32.908,0.423l11.114-3.587c9.478-3.059,19.64-3.306,29.255-0.71l22.929,6.189
	c10.096,2.725,20.784,2.314,30.641-1.179l6.515-2.309c10.708-3.794,22.371-3.944,33.173-0.425l11.377,3.706
	c13.433,4.376,28.074,3.044,40.497-3.683l0,0c11.121-6.022,24.441-6.404,35.889-1.028l0,0c9.718,4.564,20.884-2.528,20.884-13.265
	V225.331C495.046,188.399,465.107,158.46,428.175,158.46z"/>
<ellipse style="fill:#495059;" cx="414.943" cy="273.978" rx="18.759" ry="22.687"/>
<g>
	<ellipse style="fill:#FFA8CB;" cx="198.527" cy="162.185" rx="17.252" ry="8.851"/>
	<ellipse style="fill:#FFA8CB;" cx="314.36" cy="162.185" rx="17.252" ry="8.851"/>
</g>
<path style="opacity:0.05;enable-background:new    ;" d="M152.313,344.78l20.798-5.214c9.792-2.455,20.09-1.98,29.613,1.366
	l17.14,6.022c10.628,3.734,22.188,3.883,32.909,0.423l11.114-3.587c6.619-2.136,13.571-2.896,20.438-2.279
	c-107.618-72.136-89.978-202.047-61.933-252.016c-49.674,5.549-88.297,47.677-88.297,98.834v142.236
	C134.095,340.104,143.062,347.1,152.313,344.78z"/>
<path style="fill:#A3E3FF;" d="M99.15,152.73c-3.29,14.276-9.675,29.195-9.028,42.486c0.793,16.301,6.263,31.894,10.559,47.497
	c8.739,31.746,13.472,82.485-17.985,104.494c-4.221,2.953-10.036,1.925-12.99-2.298c-2.959-4.232-1.502-9.668-1.437-14.441
	c0.383-28.248-21.369-54.295-34.733-77.57c-24.377-42.452-22.223-94.619,7.954-133.573c11.372-14.679,32.491-17.359,47.17-5.988
	C102.643,124.172,102.518,138.114,99.15,152.73z"/>
<path d="M47.617,153.545c0.98,0.431,2.003,0.634,3.009,0.634c2.887,0,5.639-1.677,6.872-4.489l3.453-7.873
	c1.664-3.794-0.063-8.218-3.855-9.881c-3.793-1.666-8.218,0.064-9.881,3.855l-3.453,7.873
	C42.097,147.457,43.823,151.882,47.617,153.545z M239,63.086c0.405,0.065,0.808,0.097,1.204,0.097c3.616,0,6.801-2.621,7.396-6.306
	l1.37-8.487c0.66-4.089-2.12-7.939-6.209-8.6c-4.101-0.662-7.94,2.12-8.6,6.209l-1.37,8.487
	C232.131,58.575,234.911,62.426,239,63.086z M423.814,87.424c-3.874,1.466-5.826,5.795-4.36,9.669l3.043,8.041
	c1.136,3,3.987,4.848,7.016,4.848c0.883,0,1.779-0.156,2.653-0.487c3.874-1.466,5.826-5.795,4.36-9.669l-3.043-8.041
	C432.016,87.909,427.686,85.958,423.814,87.424z M414.941,243.795c-14.479,0-26.259,13.541-26.259,30.187
	s11.779,30.187,26.259,30.187s26.26-13.541,26.26-30.187S429.42,243.795,414.941,243.795z M414.941,289.167
	c-6.103,0-11.258-6.954-11.258-15.186c0-8.231,5.155-15.185,11.258-15.185c6.103,0,11.259,6.954,11.259,15.185
	C426.199,282.213,421.043,289.167,414.941,289.167z M60.768,330.365c-0.013,0.881-0.094,1.899-0.181,2.978
	c-0.352,4.398-0.834,10.423,2.972,15.865c3.27,4.673,8.502,7.176,13.813,7.176c3.33,0,6.691-0.983,9.621-3.032
	c15.963-11.169,25.129-29.372,27.24-54.103c2.017-23.616-3.096-46.806-6.322-58.527c-0.845-3.065-1.732-6.13-2.623-9.199
	c-3.641-12.557-7.08-24.418-7.676-36.674c-0.387-7.946,2.287-17.074,5.119-26.74c1.311-4.472,2.665-9.097,3.726-13.695
	c3.349-14.527,4.874-32.999-13.204-47.005c-17.927-13.886-43.806-10.602-57.693,7.323c-31.403,40.535-34.752,96.235-8.53,141.9
	c3.02,5.259,6.347,10.485,9.87,16.019C48.767,291.289,61.037,310.561,60.768,330.365z M47.419,123.92
	c4.273-5.516,10.438-9.037,17.36-9.916c1.118-0.142,2.233-0.212,3.342-0.212c5.757,0,11.32,1.893,15.945,5.476
	c9.219,7.143,11.398,16.052,7.773,31.778c-0.961,4.171-2.196,8.386-3.503,12.847c-3.057,10.432-6.217,21.219-5.707,31.687
	c0.682,14.013,4.53,27.286,8.252,40.121c0.871,3.004,1.741,6.004,2.566,9.003c9.577,34.79,10.652,78.373-15.053,96.358
	c-0.826,0.574-1.968,0.373-2.545-0.449c-0.714-1.023-0.509-3.59-0.311-6.072c0.103-1.274,0.208-2.592,0.227-3.971
	c0.329-24.286-13.771-46.434-26.213-65.975c-3.429-5.384-6.667-10.47-9.516-15.431C16.857,208.791,19.754,159.63,47.419,123.92z
	 M71.466,164.004c0.98,0.431,2.003,0.634,3.009,0.634c2.887,0,5.639-1.677,6.872-4.489l3.453-7.873
	c1.664-3.794-0.063-8.218-3.855-9.881c-3.793-1.666-8.217,0.064-9.881,3.855l-3.453,7.873
	C65.946,157.917,67.673,162.341,71.466,164.004z M217.053,35.639c-4.092-0.663-7.939,2.119-8.601,6.208l-1.371,8.486
	c-0.66,4.089,2.119,7.939,6.208,8.601c0.405,0.065,0.808,0.097,1.205,0.097c3.615,0,6.8-2.621,7.396-6.305l1.371-8.486
	C223.921,40.15,221.142,36.3,217.053,35.639z M292.47,128.536c-4.143,0-7.5,3.357-7.5,7.5v8.598c0,4.143,3.357,7.5,7.5,7.5
	s7.5-3.357,7.5-7.5v-8.598C299.97,131.894,296.612,128.536,292.47,128.536z M448.169,78.207c-3.873,1.467-5.825,5.796-4.359,9.67
	l3.043,8.04c1.136,3,3.987,4.847,7.016,4.847c0.883,0,1.78-0.157,2.654-0.487c3.873-1.467,5.825-5.796,4.359-9.67l-3.043-8.04
	C456.372,78.692,452.04,76.743,448.169,78.207z M220.417,128.536c-4.143,0-7.5,3.357-7.5,7.5v8.598c0,4.143,3.357,7.5,7.5,7.5
	c4.142,0,7.5-3.357,7.5-7.5v-8.598C227.917,131.894,224.56,128.536,220.417,128.536z M399.974,193.389
	c0-3.78-3.065-6.845-6.845-6.845c-3.78,0-6.845,3.064-6.845,6.845c0,3.78,3.064,6.845,6.845,6.845
	C396.91,200.234,399.974,197.169,399.974,193.389z M493.103,189.123c2.327-8.65,3.695-16.834,4.159-24.92
	c0.601-10.473-0.086-21.463-2.04-32.662c-0.711-4.08-4.597-6.812-8.678-6.1c-4.08,0.712-6.811,4.598-6.1,8.678
	c1.757,10.067,2.377,19.901,1.843,29.227c-0.187,3.259-0.555,6.552-1.088,9.903c-13.502-13.744-32.281-22.29-53.023-22.29h-4.202
	c-0.086-0.662-0.176-1.318-0.275-1.967c-1.583-10.451-4.453-20.604-7.229-30.421c-2.204-7.794-4.285-15.155-5.794-22.701
	l-0.06-0.297c-2.842-14.217,6.412-28.097,20.631-30.939c10.979-2.194,22.178,2.839,27.861,12.525
	c4.82,8.214,9.015,16.851,12.467,25.671c1.511,3.858,5.861,5.758,9.718,4.251c3.858-1.51,5.761-5.861,4.251-9.718
	c-3.739-9.552-8.28-18.904-13.498-27.796c-8.917-15.195-26.484-23.092-43.74-19.644c-22.328,4.464-36.861,26.261-32.398,48.589
	l0.06,0.298c1.624,8.12,3.884,16.112,6.069,23.842c2.745,9.708,5.336,18.885,6.786,28.306h-7.177
	c-18.197,0-35.054-9.062-45.091-24.24c-18.778-28.398-50.314-45.352-84.358-45.352h-3.877c0.226-2.273,0.506-4.602,0.852-6.988
	c0.006-0.042,0.012-0.085,0.018-0.127c0.249-1.945,0.525-3.928,0.805-5.935c0.819-5.887,1.667-11.975,2-18.111
	c0.769-14.175-0.676-34.298-21.999-45.348c-21.238-11.003-47.471-2.683-58.479,18.557c-12.074,23.301-17.793,49.862-16.298,75.308
	c-29.25,19.109-48.621,52.135-48.621,89.606v142.235c0,6.873,3.107,13.239,8.526,17.467c3.869,3.02,8.51,4.623,13.275,4.688
	c-0.129,1.638-0.214,3.277-0.259,4.919c-22.646,15.824-56.883,22.421-92.516,17.667c-8.751-1.172-16.646,3.605-19.669,11.874
	c-2.994,8.193-0.059,16.856,7.305,21.558c44.492,28.407,99.632,34.484,143.105,36.47c2.182,1.051,4.473,2.028,6.868,2.938
	c0.036,1.045,0.062,2.104,0.068,3.186c0.064,11.721-1.612,18.984-1.918,19.86c-2.956,7.372-2.864,15.454,0.259,22.759
	c3.122,7.304,8.902,12.954,16.275,15.91c3.545,1.42,7.263,2.141,11.049,2.141h0.011c12.223,0,23.061-7.331,27.608-18.677
	c3.357-8.372,5.585-21.988,6.041-36.135c1.475,0.019,2.967,0.029,4.479,0.029c9.441,0,18.158-0.373,26.21-1.117
	c0.313,2.735,0.253,5.73-0.607,8.625c-4.671,15.717,4.315,32.306,20.03,36.977c2.764,0.822,5.618,1.239,8.484,1.239
	c13.055,0,24.773-8.747,28.497-21.272c4.117-13.851,4.27-28.97,0.51-44.034c3.261-2.519,6.181-5.288,8.77-8.318
	c5.886-6.887,9.762-14.782,12.311-23.261c4.059,3.714,9.317,5.76,14.816,5.76c6.128,0,12.021-2.587,16.168-7.098
	c8.19-8.911,7.603-22.827-1.308-31.022c-6.954-6.392-15.321-11.72-24.91-15.892c-0.062-2.402-0.21-4.805-0.454-7.202
	c6.187-0.675,12.505-0.055,18.452,1.882l11.376,3.706c5.924,1.93,12.083,2.884,18.234,2.883c9.75,0,19.472-2.397,28.159-7.102
	c8.988-4.866,19.878-5.178,29.129-0.834c6.9,3.24,14.861,2.733,21.296-1.353c6.435-4.088,10.276-11.078,10.276-18.702V225.331
	C502.546,212.191,499.107,199.846,493.103,189.123z M204.833,30.317c7.199-13.895,24.361-19.343,38.257-12.14
	c10.788,5.59,14.821,14.634,13.922,31.217c-0.298,5.506-1.102,11.274-1.878,16.853c-0.284,2.041-0.565,4.058-0.819,6.036
	c-0.45,3.106-0.8,6.136-1.065,9.083h-19.695c-15.505,0-30.248,3.32-43.561,9.281C190.003,70.102,195.124,49.054,204.833,30.317z
	 M51.33,396.095c-1.784-1.14-1.685-2.676-1.287-3.765c0.343-0.939,1.272-2.464,3.595-2.156c35.19,4.699,69.471-0.888,94.705-15.001
	c0.835,19.673,4.153,38.912,16.459,53.649C127.742,425.749,85.724,418.054,51.33,396.095z M232.661,487.741
	c-2.255,5.625-7.627,9.259-13.688,9.259h-0.005c-1.868,0-3.709-0.358-5.47-1.064c-3.653-1.465-6.518-4.266-8.065-7.885
	c-1.548-3.619-1.594-7.625-0.128-11.28c1.199-2.991,2.931-11.806,2.99-24.14c8.684,1.976,18.443,3.299,29.349,3.997
	C237.22,470.518,234.977,481.965,232.661,487.741z M325.338,477.398c-1.845,6.208-7.65,10.544-14.117,10.544
	c-1.417,0-2.832-0.207-4.208-0.617c-7.789-2.314-12.242-10.535-9.927-18.324c1.382-4.651,1.737-9.619,1.105-14.833
	c10.965-1.892,20.412-4.681,28.466-8.403C328.332,454.692,328.793,465.774,325.338,477.398z M365.9,374.366
	c5.642,2.988,10.707,6.492,14.934,10.376c2.823,2.597,3.009,7.005,0.415,9.827c-1.333,1.45-3.153,2.249-5.124,2.249
	c-1.745,0-3.416-0.651-4.702-1.834c-2.019-1.856-4.294-3.587-6.751-5.207C365.326,384.716,365.698,379.555,365.9,374.366z
	 M487.546,331.085c0,3.548-2.32,5.405-3.318,6.039c-0.998,0.634-3.667,1.944-6.877,0.436c-13.547-6.36-29.49-5.904-42.647,1.222
	c-10.566,5.723-23.181,6.868-34.604,3.147l-11.376-3.706c-10.818-3.524-22.554-3.814-33.518-0.897
	c-0.048,0.013-0.096,0.027-0.144,0.041c-1.461,0.393-2.91,0.837-4.339,1.344l-6.516,2.309c-8.461,2.998-17.516,3.348-26.181,1.008
	l-22.93-6.189c-11.043-2.979-22.631-2.698-33.514,0.814l-11.113,3.587c-6.151,1.985-12.794,2.595-19.205,1.76
	c-4.105-0.533-7.871,2.362-8.405,6.471c-0.534,4.107,2.362,7.87,6.471,8.404c5.361,0.698,10.843,0.642,16.212-0.145
	c-0.539,0.727-0.96,1.559-1.213,2.484c-1.089,3.996,1.268,8.119,5.264,9.209c4.397,1.198,17.778,4.847,29.462,14.232
	c2.989,2.401,3.468,6.787,1.066,9.776c-1.327,1.652-3.307,2.6-5.43,2.6c-1.113,0-2.77-0.266-4.347-1.532
	c-9.427-7.573-20.314-10.541-24.411-11.658c-3.993-1.087-8.118,1.268-9.209,5.264c-1.089,3.996,1.268,8.119,5.264,9.209
	c3.273,0.892,11.97,3.263,18.962,8.879c3.883,3.12,8.764,4.839,13.741,4.839c6.692,0,12.934-2.99,17.123-8.205
	c7.582-9.438,6.072-23.284-3.365-30.865c-12.758-10.249-26.765-14.72-33.141-16.521l10.881-3.512
	c8.118-2.62,16.763-2.829,24.997-0.607l22.93,6.189c11.62,3.134,23.759,2.668,35.1-1.352l1.694-0.6
	c0.135,1.893,0.222,3.789,0.222,5.678c0,26.854-2.265,46.147-13.536,59.336c-2.716,3.178-5.965,6.001-9.761,8.49
	c-0.248,0.143-0.483,0.301-0.71,0.469c-9.321,5.898-21.893,9.82-38.164,11.9c-0.448,0.015-0.9,0.067-1.351,0.165
	c-9.029,1.084-19.167,1.621-30.505,1.621c-4.016,0-7.879-0.068-11.599-0.203c-0.101-0.004-0.2-0.015-0.302-0.015
	c-0.017,0-0.034,0-0.051,0c-16.736-0.625-30.505-2.626-41.605-6.091c-0.521-0.239-1.071-0.419-1.644-0.534
	c-3.497-1.166-6.718-2.485-9.674-3.96c-0.339-0.21-0.698-0.391-1.07-0.546c-5.927-3.102-10.75-6.856-14.544-11.296
	c-8.356-9.778-13.536-23.115-13.536-59.336c0-3.545,0.251-7.094,0.716-10.603l11.142-2.793c6.571-1.645,13.542-1.749,20.158-0.295
	c4.052,0.892,8.046-1.67,8.936-5.715c0.89-4.046-1.67-8.046-5.715-8.936c-8.87-1.949-18.215-1.814-27.027,0.396l-15.666,3.928
	c-0.02,0.004-0.039,0.01-0.059,0.015l-5.072,1.272c-2.15,0.537-4.391,0.066-6.14-1.3c-1.75-1.365-2.754-3.421-2.754-5.641V188.33
	c0-50.707,41.253-91.962,91.961-91.962h38.638c28.995,0,55.855,14.438,71.847,38.625c12.822,19.391,34.356,30.967,57.604,30.967
	h26.532c32.737,0,59.371,26.634,59.371,59.371v105.755H487.546z M436.752,186.543c-3.78,0-6.845,3.064-6.845,6.845
	c0,3.78,3.064,6.845,6.845,6.845c3.78,0,6.845-3.064,6.845-6.845C443.597,189.609,440.532,186.543,436.752,186.543z"/>
<g>
</g>
<g>
</g>
<g>
</g>
<g>
</g>
<g>
</g>
<g>
</g>
<g>
</g>
<g>
</g>
<g>
</g>
<g>
</g>
<g>
</g>
<g>
</g>
<g>
</g>
<g>
</g>
<g>
</g>
</svg>
