<?xml version="1.0" encoding="iso-8859-1"?>
<!-- Generator: Adobe Illustrator 19.0.0, SVG Export Plug-In . SVG Version: 6.00 Build 0)  -->
<svg version="1.1" id="Capa_1" xmlns="http://www.w3.org/2000/svg" xmlns:xlink="http://www.w3.org/1999/xlink" x="0px" y="0px"
	 viewBox="0 0 511.999 511.999" style="enable-background:new 0 0 511.999 511.999;" xml:space="preserve">
<path style="fill:#5CB38E;" d="M205.894,395.525c-64.678,0-139.11,0-193.6-34.789c-9.324-5.953-3.932-20.331,7.034-18.867
	c43.151,5.761,79.397-5.223,100.066-23.017L205.894,395.525z"/>
<path style="opacity:0.1;enable-background:new    ;" d="M94.995,333.532c0.721,20.655,3.892,41.273,16.624,58.416
	c31.53,3.578,63.972,3.578,94.274,3.578l-86.501-76.672C112.768,324.557,104.536,329.555,94.995,333.532z"/>
<g>
	<path style="fill:#498A68;" d="M176.938,458.616c-0.549,0-1.102-0.021-1.658-0.064c-11.742-0.904-20.528-11.154-19.625-22.896
		c0.819-10.655-0.059-46.192-1.588-54.061c-3.509-10.565,1.737-22.185,12.196-26.449c10.906-4.444,23.349,0.794,27.793,11.699
		c5.75,14.11,4.382,68.667,4.119,72.081C197.315,450.112,187.971,458.615,176.938,458.616z M154.555,382.917
		c0.003,0.008,0.007,0.016,0.01,0.024C154.562,382.931,154.558,382.924,154.555,382.917z"/>
	<path style="fill:#498A68;" d="M254.269,458.616c-0.549,0-1.102-0.021-1.658-0.064c-11.742-0.904-20.528-11.154-19.625-22.896
		c0.819-10.655-0.059-46.192-1.588-54.062c-3.509-10.565,1.738-22.186,12.197-26.447c10.909-4.444,23.35,0.796,27.793,11.701
		c5.749,14.111,4.38,68.666,4.118,72.08C274.645,450.112,265.301,458.615,254.269,458.616z M231.885,382.914
		c0.003,0.008,0.007,0.017,0.01,0.025C231.892,382.93,231.889,382.922,231.885,382.914z"/>
</g>
<path style="opacity:0.1;enable-background:new    ;" d="M166.264,355.147c-10.459,4.264-15.705,15.884-12.196,26.449
	c1.069,5.5,1.819,24.508,1.894,39.098c12.098,3.498,26.199,5.597,42.502,6.373c0.197-17.721-0.188-49.864-4.409-60.219
	C189.612,355.941,177.169,350.703,166.264,355.147z"/>
<path style="opacity:0.1;enable-background:new    ;" d="M275.835,419.168c-0.017-18.124-0.798-43.365-4.447-52.32
	c-4.443-10.905-16.883-16.144-27.793-11.701c-10.46,4.262-15.706,15.883-12.197,26.447c1.226,6.311,2.033,30.404,1.882,45.199
	C249.742,425.713,263.847,423.196,275.835,419.168z"/>
<path style="fill:#5CB38E;" d="M310.819,320.294c0,49.779-6.762,85.799-97.35,85.799s-97.35-36.02-97.35-85.799
	s43.585-90.133,97.35-90.133C267.234,230.161,310.819,270.515,310.819,320.294z"/>
<path style="fill:#9BDFC1;" d="M310.819,320.294c0-0.397-0.011-0.791-0.016-1.187c-20.277-5.204-60.495-6.717-88.483,23.027
	c-20.395,21.675-23.347,45.064-21.159,63.718c3.921,0.159,8.02,0.24,12.308,0.24C304.058,406.092,310.819,370.073,310.819,320.294z"
	/>
<path style="opacity:0.05;enable-background:new    ;" d="M194.988,231.79c-44.925,7.995-78.869,44.576-78.869,88.504
	c0,46.093,5.809,80.384,78.584,85.21C154.297,364.491,162.112,279.809,194.988,231.79z"/>
<path style="fill:#5CB38E;" d="M308.984,103.612L308.984,103.612c-14.37-26.492-41.073-44.007-71.095-46.633l-36.907-3.229
	c-52.469-4.59-98.727,34.224-103.317,86.693l-3.821,43.679c-4.12,47.091,30.715,88.606,77.806,92.726l195.64,17.116
	c35.277,3.086,66.377-23.01,69.463-58.286l2.601-29.728c3.086-35.277-23.01-66.377-58.286-69.463l-25.344-2.217
	C335.986,132.542,318.431,121.028,308.984,103.612z"/>
<g style="opacity:0.1;">
	<circle cx="143.637" cy="209.395" r="6.563"/>
	<circle cx="189.246" cy="223.444" r="6.563"/>
	<circle cx="160.697" cy="243.414" r="6.563"/>
</g>
<g>
	
		<ellipse transform="matrix(0.0872 -0.9962 0.9962 0.0872 34.6543 299.5894)" style="fill:#FFA8CB;" cx="180.807" cy="130.885" rx="8.487" ry="16.543"/>
	
		<ellipse transform="matrix(-0.0872 0.9962 -0.9962 -0.0872 456.8734 -137.5607)" style="fill:#FFA8CB;" cx="291.46" cy="140.534" rx="8.487" ry="16.543"/>
</g>
<path style="opacity:0.05;enable-background:new    ;" d="M179.67,54.259c-43.15,5.897-78.049,40.968-82.005,86.183l-3.822,43.68
	c-4.12,47.091,30.715,88.606,77.806,92.726l51.739,4.527C151.875,230.94,149.646,109.308,179.67,54.259z"/>
<rect x="233.95" y="194.871" transform="matrix(-0.342 0.9397 -0.9397 -0.342 659.0995 165.0913)" style="fill:#FAE17C;" width="75.599" height="236.867"/>
<rect x="101.599" y="242.717" transform="matrix(-0.342 0.9397 -0.9397 -0.342 436.2143 224.8098)" style="fill:#DEE2E5;" width="75.599" height="44.822"/>
<path style="fill:#CD5B5B;" d="M131.272,221.954l-25.857,71.039l-34.182-12.441c-10.611-3.862-16.081-15.594-12.22-26.205
	l11.871-32.616c3.862-10.611,15.594-16.081,26.205-12.219L131.272,221.954z"/>
<polygon style="fill:#DEE2E5;" points="425.403,349.122 395.976,318.299 370.12,389.338 412.475,384.641 "/>
<path style="fill:#495059;" d="M412.475,384.641l26.897-2.983c6.333-0.702,9.118-8.355,4.718-12.964l-18.687-19.573L412.475,384.641
	z"/>
<rect x="153.324" y="305.81" transform="matrix(-0.9397 -0.342 0.342 -0.9397 419.977 700.6693)" style="opacity:0.1;enable-background:new    ;" width="236.867" height="15"/>
<path style="opacity:0.1;enable-background:new    ;" d="M81.25,210.306c-4.646,2.231-8.462,6.202-10.364,11.428l-11.871,32.616
	c-3.862,10.61,1.609,22.343,12.22,26.205l183.792,66.895C184.651,303.302,89.712,265.139,81.25,210.306z"/>
<path style="fill:#498A68;" d="M214.248,353.315c-4.343,0-8.619-2.034-11.321-5.848c-4.425-6.246-2.95-14.896,3.296-19.322
	c3.382-2.396,6.296-5.017,8.663-7.791c4.967-5.822,13.717-6.516,19.539-1.547c5.823,4.969,6.516,13.717,1.547,19.54
	c-3.854,4.517-8.472,8.695-13.724,12.416C219.816,352.486,217.019,353.315,214.248,353.315z"/>
<path d="M499.882,398.36c6.756-13.854,16.008-32.825,10.375-59.053c-2.701-12.573-11.117-22.794-23.698-28.778
	c-10.692-5.087-23.675-6.763-35.616-4.598c-4.075,0.739-6.78,4.642-6.042,8.718c0.739,4.075,4.637,6.784,8.718,6.042
	c22.174-4.017,39.053,8.169,41.973,21.767c4.545,21.161-2.753,36.125-9.191,49.327c-6.939,14.23-14.804,30.356,2.432,46.192
	c1.44,1.324,3.259,1.978,5.072,1.978c2.026,0,4.046-0.816,5.524-2.426c2.803-3.05,2.603-7.794-0.448-10.597
	C490.416,419.064,492.525,413.446,499.882,398.36z M271.36,129.433c0.223,0.02,0.443,0.028,0.662,0.028
	c3.847,0,7.121-2.942,7.463-6.847l0.718-8.212c0.36-4.127-2.692-7.764-6.818-8.125c-4.136-0.356-7.764,2.692-8.125,6.818
	l-0.718,8.212C264.181,125.436,267.234,129.071,271.36,129.433z M449.514,363.517l-48.113-50.395
	c-0.033-0.034-0.07-0.063-0.103-0.096c-0.138-0.139-0.281-0.273-0.43-0.402c-0.061-0.052-0.121-0.104-0.184-0.154
	c-0.153-0.124-0.313-0.24-0.477-0.352c-0.064-0.043-0.126-0.089-0.19-0.13c-0.173-0.11-0.353-0.212-0.537-0.309
	c-0.061-0.032-0.119-0.069-0.181-0.099c-0.244-0.12-0.496-0.231-0.757-0.326l-26.245-9.552c0.235,0.002,0.471,0.015,0.705,0.015
	c16.793,0,32.896-5.839,45.912-16.762c14.654-12.297,23.643-29.564,25.31-48.62l2.602-29.729
	c3.441-39.34-25.765-74.145-65.104-77.588l-25.345-2.218c-17.278-1.511-32.53-11.516-40.799-26.762
	c-15.614-28.786-44.411-47.675-77.035-50.529l-36.906-3.229c-27.371-2.392-54.039,6.014-75.088,23.676s-33.96,42.464-36.355,69.836
	l-3.822,43.679c-0.513,5.865-0.464,11.74,0.125,17.557c-10.008,1.319-18.974,8.02-22.659,18.142l-11.871,32.616
	c-2.553,7.015-2.221,14.604,0.933,21.368c3.155,6.765,8.755,11.896,15.77,14.449l34.18,12.441c0.001,0,0.001,0.001,0.002,0.001
	s0.002,0,0.002,0.001l7.466,2.718c-0.955,4.904-1.512,9.885-1.656,14.891c-21.652,15.057-54.326,21.322-88.344,16.786
	c-8.525-1.136-16.24,3.517-19.189,11.585c-2.922,7.995-0.058,16.449,7.128,21.037c42.7,27.261,95.59,33.105,137.303,35.014
	c0.832,0.4,1.677,0.791,2.54,1.169c0.453,12.758,0.5,26.322,0.076,31.84c-1.219,15.845,10.681,29.73,26.525,30.949
	c0.736,0.057,1.489,0.086,2.236,0.086c14.954-0.001,27.567-11.691,28.714-26.612c0.131-1.705,0.453-12.733,0.322-26
	c2.447,0.056,4.94,0.088,7.495,0.088c4.229,0,8.294-0.086,12.234-0.241c0.174,9.405,0.109,17.78-0.194,21.731
	c-1.219,15.846,10.681,29.73,26.525,30.949c0.737,0.057,1.489,0.086,2.236,0.086c9.792-0.001,18.829-4.918,24.17-13.152
	c2.254-3.476,1.265-8.12-2.21-10.374c-3.477-2.255-8.119-1.266-10.374,2.21c-2.761,4.256-7.53,6.669-12.67,6.275
	c-7.6-0.586-13.307-7.244-12.722-14.844c0.391-5.081,0.399-14.753,0.22-23.919c10.309-1.057,19.459-2.783,27.519-5.21
	c0.09,4.152,0.135,8.527,0.133,13.107c-0.002,4.142,3.354,7.502,7.496,7.504h0.004c4.14,0,7.498-3.355,7.5-7.496
	c0.004-6.769-0.094-13.126-0.287-18.977c12.101-6.187,20.726-14.802,26.346-26.023l58.159,21.169
	c0.208,0.076,0.418,0.141,0.63,0.198c0.644,0.173,1.293,0.256,1.934,0.256c0.03,0,0.06-0.007,0.09-0.007
	c0.246-0.003,0.493-0.014,0.737-0.041l69.251-7.68c0.7-0.078,1.386-0.203,2.054-0.371c-0.008,0.065-0.01,0.125-0.018,0.19
	c-1.327,10.649-9.373,24.655-16.88,29.384c-3.504,2.208-4.556,6.839-2.348,10.344c1.426,2.263,3.861,3.503,6.352,3.503
	c1.366,0,2.749-0.373,3.991-1.155c11.223-7.07,21.886-25.112,23.769-40.22c0.927-7.428-0.284-13.756-3.492-18.526
	C453.256,369.044,451.859,365.973,449.514,363.517z M100.933,283.381L73.8,273.505c-3.249-1.183-5.843-3.56-7.305-6.693
	c-1.462-3.134-1.615-6.648-0.432-9.897l11.871-32.616c2.284-6.276,8.946-9.718,15.291-8.134c0.022,0.006,0.045,0.011,0.068,0.017
	c0.413,0.106,0.825,0.231,1.234,0.38l27.133,9.876L100.933,283.381z M135.755,231.567l28.024,10.2l-20.726,56.944l-28.024-10.2
	L135.755,231.567z M16.329,354.416c-1.235-0.789-1.609-1.881-1.111-3.244c0.297-0.814,1.104-2.13,3.116-1.868
	c33.606,4.49,66.352-0.79,90.563-14.175c0.827,18.495,3.994,36.565,15.37,50.561C88.946,382.704,49.028,375.291,16.329,354.416z
	 M190.697,438.352c-0.578,7.515-7.181,13.291-14.841,12.723c-7.6-0.586-13.308-7.244-12.723-14.844
	c0.437-5.683,0.411-17.075,0.131-27.856c8.166,2.095,17.373,3.545,27.701,4.374C191.118,426.168,190.782,437.192,190.697,438.352z
	 M275.067,388.471c-0.854,0.414-1.733,0.815-2.632,1.203c-0.097,0.041-0.197,0.077-0.291,0.122
	c-10.124,4.318-23.118,7.021-39.349,8.163c-0.005,0-0.011,0-0.016,0c-0.055,0.002-0.107,0.01-0.161,0.013
	c-5.944,0.414-12.32,0.62-19.148,0.62c-5.056,0-9.861-0.111-14.428-0.334c-0.158-0.015-0.317-0.021-0.477-0.026
	c-16.201-0.821-29.351-3.068-39.785-6.83c-0.492-0.249-1.014-0.446-1.558-0.581c-2.04-0.786-3.974-1.634-5.799-2.544
	c-0.339-0.21-0.698-0.39-1.07-0.545c-5.636-2.953-10.22-6.525-13.827-10.746c-7.968-9.323-12.906-22.06-12.906-56.693
	c0-4.138,0.34-8.26,1.002-12.329l69.234,25.2c-1.882,6.124-1.029,13.019,2.952,18.638c3.998,5.643,10.518,9.012,17.44,9.012
	c4.438,0,8.703-1.359,12.336-3.932c3.584-2.539,6.904-5.28,9.928-8.192l58.665,21.353
	C290.761,378.065,284.241,384.019,275.067,388.471z M209.969,334.743c0.042-0.038,0.085-0.074,0.125-0.113
	c0.148-0.127,0.301-0.25,0.463-0.365c3.886-2.753,7.262-5.795,10.034-9.043c1.102-1.292,2.642-2.077,4.335-2.212
	c0.171-0.014,0.342-0.02,0.513-0.02c1.51,0,2.956,0.531,4.117,1.522c2.668,2.276,2.986,6.299,0.711,8.967
	c-3.454,4.047-7.61,7.804-12.353,11.163c-1.083,0.768-2.352,1.173-3.667,1.173c-2.066,0-4.011-1.003-5.201-2.684
	C207.168,340.479,207.617,336.871,209.969,334.743z M365.637,379.726l-57.739-21.016c-0.004-0.001-0.008-0.004-0.012-0.005
	s-0.008-0.002-0.012-0.004l-62.18-22.632c2.641-8.001,0.396-17.169-6.399-22.968c-4.34-3.704-9.861-5.485-15.551-5.045
	c-5.688,0.45-10.86,3.089-14.562,7.429c-1.562,1.83-3.444,3.591-5.588,5.26l-46.445-16.905l20.726-56.944l25.39,9.241
	c3.891,1.413,8.196-0.59,9.613-4.482c1.417-3.893-0.59-8.196-4.483-9.613l-32.433-11.805c-0.002-0.001-0.003-0.001-0.005-0.002
	c-0.001-0.001-0.003-0.001-0.005-0.002l-74.052-26.953c-0.92-6.104-1.126-12.309-0.584-18.507l3.822-43.68
	c2.045-23.381,13.074-44.565,31.053-59.652c17.98-15.086,40.758-22.269,64.139-20.223l36.906,3.228
	c27.593,2.414,51.951,18.392,65.157,42.739c10.677,19.685,30.37,32.602,52.678,34.553l25.345,2.218
	c31.101,2.722,54.188,30.237,51.468,61.337l-2.602,29.73c-1.317,15.065-8.424,28.717-20.01,38.438
	c-11.586,9.721-26.259,14.351-41.329,13.03l-49.267-4.311l-78.015-28.395c-3.891-1.418-8.196,0.591-9.613,4.482
	c-1.417,3.893,0.59,8.196,4.482,9.613l150.832,54.898L365.637,379.726z M407.019,377.701l-25.721,2.852l17.594-48.338l17.87,18.717
	L407.019,377.701z M438.647,374.184c-0.001,0-0.029,0.013-0.104,0.022l-14.89,1.651l4.665-12.819l10.346,10.837
	c0.047,0.05,0.063,0.077,0.063,0.077C438.739,374.011,438.689,374.149,438.647,374.184z M341.834,232.581
	c-3.349,2.438-4.086,7.129-1.647,10.477c4.236,5.818,10.773,9.514,17.932,10.14c0.725,0.063,1.447,0.095,2.168,0.095
	c6.403,0,12.593-2.477,17.252-6.966c2.983-2.874,3.072-7.622,0.198-10.604c-2.872-2.982-7.62-3.071-10.604-0.198
	c-2.06,1.983-4.872,2.981-7.706,2.73c-2.838-0.248-5.431-1.716-7.114-4.026C349.872,230.881,345.18,230.142,341.834,232.581z
	 M204.56,100.257c-4.121-0.372-7.764,2.691-8.125,6.818l-0.718,8.212c-0.361,4.126,2.692,7.764,6.818,8.125
	c0.222,0.02,0.443,0.028,0.662,0.028c3.846,0,7.121-2.942,7.463-6.847l0.718-8.212C211.739,104.256,208.686,100.618,204.56,100.257z
	 M344.1,173.461c3.611,0.316,6.794-2.356,7.111-5.966c0.316-3.611-2.355-6.795-5.966-7.111c-3.611-0.316-6.794,2.355-7.11,5.966
	C337.819,169.961,340.49,173.145,344.1,173.461z M385.769,177.106c3.611,0.316,6.795-2.355,7.11-5.966
	c0.316-3.611-2.355-6.795-5.966-7.111c-3.611-0.316-6.794,2.355-7.111,5.966C379.487,173.607,382.158,176.791,385.769,177.106z"/>
<g>
</g>
<g>
</g>
<g>
</g>
<g>
</g>
<g>
</g>
<g>
</g>
<g>
</g>
<g>
</g>
<g>
</g>
<g>
</g>
<g>
</g>
<g>
</g>
<g>
</g>
<g>
</g>
<g>
</g>
</svg>
