<?xml version="1.0" encoding="iso-8859-1"?>
<!-- Generator: Adobe Illustrator 19.0.0, SVG Export Plug-In . SVG Version: 6.00 Build 0)  -->
<svg version="1.1" id="Capa_1" xmlns="http://www.w3.org/2000/svg" xmlns:xlink="http://www.w3.org/1999/xlink" x="0px" y="0px"
	 viewBox="0 0 511.998 511.998" style="enable-background:new 0 0 511.998 511.998;" xml:space="preserve">
<path style="fill:#FAE17C;" d="M129.922,113.761L129.922,113.761c-1.963,3.59-7.119,3.59-9.081,0l0,0
	c-4.098-7.497-10.261-13.66-17.758-17.758l0,0c-3.59-1.962-3.59-7.119,0-9.081l0,0c7.497-4.098,13.66-10.261,17.758-17.758l0,0
	c1.963-3.59,7.119-3.59,9.081,0l0,0c4.098,7.497,10.261,13.66,17.758,17.758l0,0c3.59,1.963,3.59,7.119,0,9.081l0,0
	C140.183,100.101,134.02,106.264,129.922,113.761z"/>
<path style="fill:#498A68;" d="M155.189,411.879c-1.669,0-3.365-0.282-5.027-0.876c-7.772-2.776-11.822-11.328-9.045-19.1
	c5.751-16.099,16.385-27.438,19.88-31.164l0.291-0.311c5.635-6.028,15.091-6.352,21.122-0.713
	c6.029,5.635,6.349,15.092,0.713,21.122l-0.326,0.348c-2.701,2.879-9.876,10.53-13.535,20.772
	C167.079,408.069,161.326,411.879,155.189,411.879z"/>
<path style="fill:#5CB38E;" d="M276.126,436.47c69.739,0,149.995,0,208.749-37.511c10.054-6.419,4.239-21.921-7.584-20.343
	c-46.528,6.211-85.61-5.632-107.896-24.817L276.126,436.47z"/>
<path style="opacity:0.1;enable-background:new    ;" d="M395.702,369.625c-0.777,22.271-4.196,44.503-17.924,62.987
	c-33.998,3.857-68.978,3.858-101.652,3.858l93.269-82.671C376.539,359.948,385.416,365.337,395.702,369.625z"/>
<g>
	<path style="fill:#498A68;" d="M307.344,504.499c-11.447,0-21.36-8.54-22.79-20.19c-2.008-16.352-1.224-65.117,4.337-78.762
		c4.792-11.757,18.208-17.405,29.967-12.615c11.38,4.639,17.036,17.354,13.044,28.828c-1.727,7.833-3.362,43.494-1.71,56.942
		c1.547,12.603-7.414,24.074-20.017,25.622C309.224,504.441,308.278,504.499,307.344,504.499z M331.481,422.877
		c-0.003,0.008-0.006,0.015-0.009,0.022C331.475,422.892,331.478,422.884,331.481,422.877z"/>
	<path style="fill:#498A68;" d="M226.78,497.381c-4.693,0.001-9.428-1.431-13.512-4.405c-15.128-11.012-23.975-31.089-23.09-52.397
		c0.826-19.913,10.052-37.111,24.677-46.003c10.849-6.594,24.993-3.149,31.59,7.702c6.593,10.843,3.152,24.977-7.683,31.578
		c-0.702,0.537-2.691,3.937-2.661,9.751c0.03,5.942,2.202,10.716,4.23,12.194c10.266,7.472,12.53,21.852,5.057,32.117
		C240.888,494.101,233.882,497.381,226.78,497.381z"/>
</g>
<path style="opacity:0.1;enable-background:new    ;" d="M238.761,433.857c10.835-6.601,14.276-20.734,7.683-31.578
	c-6.596-10.851-20.739-14.296-31.59-7.702c-14.625,8.892-23.851,26.089-24.677,46.003c-0.256,6.159,0.326,12.206,1.613,17.971
	c15.314,6.634,34.331,10.515,57.626,11.811c-1.004-5.642-4.088-10.921-9.087-14.559c-2.028-1.477-4.2-6.252-4.23-12.194
	C236.069,437.794,238.06,434.394,238.761,433.857z"/>
<path style="opacity:0.1;enable-background:new    ;" d="M331.902,421.76c3.992-11.474-1.664-24.19-13.044-28.828
	c-11.759-4.79-25.175,0.858-29.967,12.615c-4.404,10.808-5.81,43.639-5.208,64.954c17.57-0.81,32.772-3.041,45.828-6.768
	C329.441,447.85,330.647,427.455,331.902,421.76z"/>
<path style="fill:#5CB38E;" d="M162.99,355.352c0,53.674,7.29,92.512,104.968,92.512c97.677,0,104.968-38.838,104.968-92.512
	s-46.996-97.186-104.968-97.186S162.99,301.677,162.99,355.352z"/>
<path style="fill:#9BDFC1;" d="M162.99,355.352c0-0.428,0.011-0.853,0.017-1.279c21.863-5.611,65.229-7.242,95.407,24.828
	c21.991,23.37,25.173,48.591,22.814,68.704c-4.228,0.172-8.647,0.259-13.271,0.259C170.281,447.863,162.99,409.026,162.99,355.352z"
	/>
<path style="opacity:0.05;enable-background:new    ;" d="M287.885,259.922c48.441,8.62,85.04,48.065,85.04,95.43
	c0,49.7-6.263,86.674-84.733,91.878C331.761,403.006,323.334,311.698,287.885,259.922z"/>
<path style="fill:#498A68;" d="M261.869,412.421c-1.517,0-3.059-0.233-4.58-0.723c-7.857-2.527-12.177-10.945-9.649-18.802
	c5.24-16.285,15.52-27.963,18.898-31.802l0.28-0.318c5.444-6.205,14.885-6.821,21.089-1.379c6.204,5.443,6.821,14.886,1.377,21.089
	l-0.313,0.357c-2.611,2.966-9.546,10.843-12.879,21.205C274.053,408.384,268.185,412.421,261.869,412.421z"/>
<path style="fill:#5CB38E;" d="M171.608,118.199L171.608,118.199c17.924-27.105,48.253-43.411,80.749-43.411h39.946
	c56.792,0,102.831,46.039,102.831,102.831v47.278c0,50.97-41.32,92.289-92.289,92.289H91.091c-38.183,0-69.136-30.953-69.136-69.136
	v-32.176c0-38.183,30.953-69.136,69.136-69.136h27.431C139.886,146.737,159.824,136.018,171.608,118.199z"/>
<g style="opacity:0.1;">
	<circle cx="339.275" cy="247.373" r="7.08"/>
	<circle cx="288.964" cy="258.163" r="7.08"/>
	<circle cx="317.755" cy="282.304" r="7.08"/>
</g>
<g>
	<ellipse style="fill:#FFA8CB;" cx="298.234" cy="158.292" rx="17.837" ry="9.151"/>
	<ellipse style="fill:#FFA8CB;" cx="178.493" cy="158.292" rx="17.837" ry="9.151"/>
</g>
<path style="opacity:0.05;enable-background:new    ;" d="M315.148,77.339c45.797,10.389,79.986,51.34,79.986,100.28v47.278
	c0,50.97-41.32,92.289-92.289,92.289h-56.001C328.402,269.732,342.226,139.29,315.148,77.339z"/>
<g>
	<path style="fill:#495059;" d="M223.033,127.493c0,15.21-14.191,27.541-31.699,27.541c-17.506,0-31.698-12.33-31.698-27.541
		c0-15.21,14.191-17.668,31.698-17.668C208.842,109.826,223.033,112.283,223.033,127.493z"/>
	<path style="fill:#495059;" d="M253.692,127.493c0,15.21,14.192,27.541,31.699,27.541s31.699-12.33,31.699-27.541
		c0-15.21-14.191-17.668-31.699-17.668C267.884,109.826,253.692,112.283,253.692,127.493z"/>
</g>
<path style="fill:#806C6C;" d="M341.182,91.463h-123.06c-28.387,0-51.834-22.168-53.423-50.511l-1.43-25.499
	c-0.338-6.026,6.198-9.979,11.378-6.881l0,0c32.716,19.566,70.122,29.899,108.242,29.899h58.294
	c14.633,0,26.495,11.862,26.495,26.495l0,0C367.678,79.6,355.815,91.463,341.182,91.463z"/>
<path d="M99.485,102.584c6.249,3.416,11.358,8.524,14.774,14.775c2.224,4.067,6.486,6.594,11.122,6.594s8.897-2.527,11.121-6.595
	c0,0,0,0,0-0.001c3.416-6.249,8.524-11.357,14.774-14.773c4.068-2.225,6.596-6.486,6.595-11.123c0-4.637-2.528-8.897-6.595-11.12
	c-6.25-3.417-11.359-8.525-14.774-14.773c-2.223-4.068-6.485-6.597-11.121-6.597l0,0c-4.636,0-8.898,2.527-11.122,6.596
	c-3.415,6.249-8.525,11.358-14.773,14.774c-4.068,2.223-6.596,6.483-6.597,11.12C92.888,96.098,95.416,100.36,99.485,102.584z
	 M125.382,76.178c3.972,6.113,9.169,11.31,15.283,15.283c-6.114,3.973-11.311,9.17-15.283,15.284
	c-3.973-6.114-9.17-11.312-15.284-15.284C116.212,87.49,121.408,82.291,125.382,76.178z M496.362,383.294
	c-3.083-8.434-11.138-13.311-20.063-12.111c-36.951,4.931-72.46-1.929-95.923-18.374c-0.455-17.725-5.646-34.847-15.158-50.05
	c22.984-18.486,37.418-46.827,37.418-77.861V177.62c0-33.647-15.051-64.82-40.807-85.669c8.108-6.219,13.35-15.997,13.35-26.982
	c0-18.745-15.25-33.996-33.996-33.996h-58.294c-36.752,0-72.851-9.972-104.393-28.836c-4.784-2.862-10.719-2.847-15.489,0.038
	s-7.539,8.134-7.226,13.699l1.43,25.498c1.174,20.941,12.845,38.931,29.72,48.998c-5.008,4.033-9.619,8.536-13.82,13.452
	c-2.683,0.574-5.047,1.322-7.201,2.267c-9.01,3.951-13.772,11.354-13.772,21.406c0,0.18,0.012,0.358,0.015,0.538
	c-9.68,7.242-21.48,11.205-33.63,11.205H91.09c-42.257,0-76.636,34.379-76.636,76.636v32.178c0,42.258,34.379,76.636,76.636,76.636
	h69.307c-3.256,9.887-4.908,20.158-4.908,30.665c0,0.098,0,0.196,0,0.294c-3.789,4.041-15.179,16.215-21.437,33.734
	c-2.017,5.646-1.714,11.738,0.852,17.156c2.566,5.418,7.088,9.513,12.734,11.529c2.439,0.872,4.979,1.313,7.55,1.313
	c3.906,0,7.679-1.051,10.986-2.917c1.951,3.565,4.247,6.963,6.969,10.147c2.883,3.373,6.172,6.429,9.868,9.19
	c-0.156,1.508-0.267,3.001-0.328,4.469c-0.506,12.18,1.858,24.233,6.836,34.859c1.275,2.723,3.977,4.32,6.796,4.32
	c1.066,0,2.149-0.229,3.177-0.71c3.751-1.758,5.367-6.223,3.609-9.974c-3.51-7.493-5.376-15.918-5.474-24.548
	c9.091,3.996,19.853,6.882,32.432,8.717c1.277,3.917,3.319,7.086,5.854,8.932c3.345,2.435,5.542,6.027,6.186,10.114
	c0.644,4.088-0.343,8.181-2.778,11.526c-2.906,3.992-7.595,6.375-12.544,6.375h-0.003c-3.106,0-6.109-0.927-8.683-2.681
	c-3.423-2.33-8.089-1.446-10.421,1.978c-2.332,3.423-1.447,8.089,1.977,10.421c5.074,3.456,10.997,5.282,17.125,5.282h0.007
	c9.728,0,18.95-4.69,24.669-12.547c4.794-6.585,6.736-14.642,5.469-22.686c-0.868-5.515-3.177-10.569-6.661-14.748
	c5.611,0.309,11.504,0.465,17.7,0.465c2.77,0,5.474-0.034,8.126-0.095c-0.155,12.127,0.213,23.357,1.024,29.953
	c1.874,15.265,14.872,26.776,30.234,26.776c1.237,0,2.496-0.077,3.745-0.229c16.687-2.05,28.596-17.293,26.547-33.981
	c-0.873-7.11-0.735-21.305-0.204-33.207c1.229-0.525,2.429-1.069,3.598-1.633c44.924-2.049,101.915-8.321,147.882-37.669
	C496.423,400.485,499.416,391.649,496.362,383.294z M155.189,404.378c-0.847,0-1.689-0.147-2.504-0.438
	c-1.872-0.669-3.372-2.027-4.223-3.824c-0.851-1.797-0.951-3.817-0.282-5.689c2.163-6.056,5.116-11.387,8.063-15.817
	c0.661,8.139,1.88,16.115,4.106,23.649C158.981,403.581,157.138,404.378,155.189,404.378z M368.334,120.046
	c-0.282-0.032-0.567-0.053-0.858-0.053h-43.919c-1.843-6.271-6.15-11.016-12.741-13.906c-6.012-2.637-13.616-3.762-25.426-3.762
	s-19.414,1.125-25.426,3.762c-6.591,2.891-10.897,7.635-12.741,13.906h-17.72c-1.843-6.271-6.15-11.016-12.741-13.906
	c-5.19-2.277-11.575-3.424-20.822-3.696c2.304-1.878,4.695-3.654,7.186-5.299c0.425,0.107,0.854,0.202,1.283,0.301
	c0.35,0.081,0.7,0.159,1.051,0.233c0.425,0.09,0.85,0.181,1.279,0.262c0.691,0.131,1.385,0.25,2.08,0.358
	c0.333,0.051,0.668,0.095,1.003,0.141c0.587,0.081,1.175,0.152,1.764,0.216c0.248,0.027,0.494,0.058,0.742,0.081
	c0.824,0.079,1.65,0.137,2.478,0.182c0.221,0.012,0.442,0.021,0.663,0.031c0.883,0.038,1.767,0.065,2.653,0.065h123.061
	c0.703,0,1.399-0.028,2.092-0.07c0.164-0.01,0.328-0.025,0.493-0.038c0.582-0.044,1.16-0.103,1.734-0.176
	c0.075-0.009,0.15-0.013,0.225-0.023C354.521,104.609,362.113,111.854,368.334,120.046z M309.589,127.494
	c0,11.05-10.855,20.04-24.198,20.04c-13.342,0-24.197-8.99-24.197-20.04c0-4.291,0-10.168,24.197-10.168
	C309.589,117.326,309.589,123.203,309.589,127.494z M172.187,40.532l-1.391-25.522c33.869,20.256,72.629,30.963,112.092,30.963
	h58.294c10.474,0,18.995,8.521,18.995,18.995c0,9.079-6.407,16.68-14.934,18.546c-0.152,0.033-0.305,0.065-0.457,0.095
	c-0.506,0.098-1.018,0.179-1.538,0.235c-0.114,0.013-0.228,0.02-0.342,0.03c-0.569,0.051-1.142,0.087-1.724,0.087h-123.06
	c-0.685,0-1.365-0.02-2.044-0.05c-0.24-0.011-0.481-0.027-0.721-0.042c-0.43-0.025-0.858-0.057-1.284-0.094
	c-0.296-0.026-0.592-0.054-0.888-0.086c-0.355-0.038-0.709-0.084-1.062-0.13c-0.332-0.044-0.665-0.084-0.996-0.135
	c-0.194-0.03-0.384-0.067-0.577-0.099c-0.867-0.145-1.729-0.313-2.587-0.507c-0.139-0.031-0.278-0.06-0.416-0.092
	c-0.462-0.109-0.923-0.229-1.382-0.352c-0.151-0.041-0.302-0.081-0.452-0.123c-0.461-0.129-0.921-0.265-1.379-0.408
	C186.525,76.243,173.285,60.095,172.187,40.532z M191.336,117.326c24.197,0,24.197,5.877,24.197,10.168
	c0,11.05-10.855,20.04-24.197,20.04c-13.343,0-24.198-8.99-24.198-20.04C167.137,123.203,167.137,117.326,191.336,117.326z
	 M309.265,496.88c-8.579,1.04-16.238-5.102-17.268-13.486c-0.744-6.059-1.072-17.119-0.899-28.853
	c11.66-0.884,22.005-2.493,31.126-4.855c-0.36,11.281-0.315,23.11,0.523,29.93C323.789,488.095,317.739,495.839,309.265,496.88z
	 M336.234,428.612c-0.373,0.155-0.732,0.336-1.071,0.546c-2.125,1.061-4.38,2.046-6.774,2.953c-0.517,0.128-1.013,0.311-1.483,0.541
	c-11.339,4.054-25.599,6.47-43.149,7.34c-0.268-0.001-0.532,0.012-0.793,0.038c-4.762,0.222-9.759,0.335-15.006,0.335
	c-11.142,0-21.164-0.501-30.151-1.513c-0.426-0.09-0.864-0.139-1.309-0.153c-17.551-2.099-31.052-6.209-41-12.483
	c-0.216-0.159-0.441-0.306-0.675-0.442c-4.001-2.607-7.421-5.57-10.275-8.91c-3.441-4.026-6.361-8.638-8.635-15.069
	c-0.114-0.489-0.274-0.966-0.482-1.423c-3.159-9.714-4.939-23.447-4.939-45.018c0-10.57,1.968-20.863,5.851-30.665H287.1
	c4.142,0,7.5-3.357,7.5-7.5s-3.358-7.5-7.5-7.5H91.09c-33.986,0-61.636-27.649-61.636-61.636v-32.178
	c0-33.986,27.649-61.636,61.636-61.636h27.431c13.455,0,26.57-3.837,37.853-10.926c6.477,11.393,19.711,19.223,34.961,19.223
	c18.733,0,34.432-11.812,38.285-27.54h17.486c3.853,15.728,19.55,27.54,38.285,27.54c18.734,0,34.432-11.812,38.285-27.54h43.801
	c3.428,0,6.313-2.302,7.207-5.443c8.368,14.329,12.95,30.821,12.95,48.068v47.278c0,40.314-28.645,75.283-68.111,83.151
	c-4.062,0.81-6.699,4.76-5.889,8.821c0.711,3.567,3.844,6.035,7.348,6.035c0.486,0,0.979-0.047,1.474-0.145
	c10.927-2.178,21.136-6.14,30.382-11.514c8.255,13.412,12.589,28.525,12.589,44.108c0,27.82-2.352,47.815-14.056,61.511
	C347.42,421.483,342.402,425.388,336.234,428.612z M480.84,392.637c-35.788,22.847-79.534,30.775-118.029,33.924
	c13.082-15.341,16.514-35.55,17.356-56.192c26.073,14.714,61.619,20.555,98.116,15.68c2.679-0.351,3.683,1.555,3.989,2.394
	C482.636,389.436,482.932,391.301,480.84,392.637z M120.58,251.73c-5.371,4.477-12.181,6.942-19.173,6.942h-10.75
	c-4.142,0-7.5,3.358-7.5,7.5c0,4.143,3.358,7.5,7.5,7.5h10.749c10.495,0,20.715-3.7,28.777-10.419
	c3.182-2.652,3.611-7.382,0.96-10.564C128.49,249.506,123.76,249.079,120.58,251.73z M293.926,375.216
	c-3.108-2.738-7.849-2.435-10.586,0.675c-2.893,3.286-10.577,12.015-14.388,23.859c-0.995,3.093-3.841,5.17-7.083,5.17
	c-0.767,0-1.534-0.122-2.284-0.363c-1.893-0.608-3.435-1.918-4.342-3.686c-0.908-1.77-1.072-3.786-0.463-5.679
	c4.761-14.798,14.265-25.594,17.388-29.142c2.737-3.108,2.435-7.848-0.674-10.585c-3.109-2.737-7.848-2.434-10.585,0.674
	c-3.633,4.128-14.69,16.689-20.408,34.46c-1.836,5.707-1.339,11.787,1.397,17.121c2.738,5.334,7.388,9.282,13.091,11.116
	c2.235,0.72,4.549,1.085,6.88,1.085c9.78,0,18.364-6.259,21.362-15.575c2.854-8.872,9.04-15.898,11.368-18.543l0.002-0.002
	C297.338,382.691,297.036,377.953,293.926,375.216z M127.324,175.773c-3.908,0-7.077,3.169-7.077,7.077
	c0,3.908,3.168,7.077,7.077,7.077c3.908,0,7.077-3.168,7.077-7.077S131.233,175.773,127.324,175.773z M89.3,182.85
	c0-3.908-3.168-7.077-7.077-7.077c-3.908,0-7.077,3.169-7.077,7.077c0,3.908,3.168,7.077,7.077,7.077
	C86.132,189.927,89.3,186.758,89.3,182.85z"/>
<g>
</g>
<g>
</g>
<g>
</g>
<g>
</g>
<g>
</g>
<g>
</g>
<g>
</g>
<g>
</g>
<g>
</g>
<g>
</g>
<g>
</g>
<g>
</g>
<g>
</g>
<g>
</g>
<g>
</g>
</svg>
