<?xml version="1.0" encoding="iso-8859-1"?>
<!-- Generator: Adobe Illustrator 19.0.0, SVG Export Plug-In . SVG Version: 6.00 Build 0)  -->
<svg version="1.1" id="Capa_1" xmlns="http://www.w3.org/2000/svg" xmlns:xlink="http://www.w3.org/1999/xlink" x="0px" y="0px"
	 viewBox="0 0 512 512" style="enable-background:new 0 0 512 512;" xml:space="preserve">
<circle style="fill:#FAE17C;" cx="416" cy="100.6" r="62.908"/>
<path style="fill:#5CB38E;" d="M147.696,332.872c0,53.355,7.247,91.962,104.343,91.962s104.343-38.607,104.343-91.962
	s-46.716-96.608-104.343-96.608S147.696,279.517,147.696,332.872z"/>
<path style="fill:#9BDFC1;" d="M147.696,332.872c0-0.425,0.012-0.848,0.017-1.272c21.733-5.577,64.841-7.199,94.839,24.681
	c21.86,23.232,25.023,48.301,22.679,68.295c-4.202,0.171-8.596,0.258-13.192,0.258C154.944,424.835,147.696,386.227,147.696,332.872
	z"/>
<path style="opacity:0.05;enable-background:new    ;" d="M271.848,238.011c48.153,8.569,84.534,47.778,84.534,94.862
	c0,49.404-6.226,86.158-84.229,91.331C315.463,380.244,307.086,289.478,271.848,238.011z"/>
<path style="fill:#5CB38E;" d="M156.263,97.131L156.263,97.131c17.818-26.945,47.966-43.152,80.269-43.152h39.708
	c56.454,0,102.219,45.765,102.219,102.219v46.997c0,50.667-41.074,91.74-91.74,91.74H76.225c-37.956,0-68.725-30.769-68.725-68.725
	v-31.985c0-37.956,30.769-68.725,68.725-68.725h27.268C124.73,125.499,144.549,114.844,156.263,97.131z"/>
<g style="opacity:0.1;">
	<circle cx="322.93" cy="225.53" r="7.04"/>
	<circle cx="272.92" cy="236.26" r="7.04"/>
	<circle cx="301.54" cy="260.26" r="7.04"/>
</g>
<g>
	<ellipse style="fill:#FFA8CB;" cx="312.24" cy="129.32" rx="17.731" ry="9.1"/>
	<ellipse style="fill:#FFA8CB;" cx="193.2" cy="129.32" rx="17.731" ry="9.1"/>
</g>
<path style="opacity:0.05;enable-background:new    ;" d="M298.949,56.514c45.524,10.327,79.51,51.035,79.51,99.683v46.997
	c0,50.667-41.073,91.74-91.74,91.74h-55.668C312.124,247.763,325.865,118.097,298.949,56.514z"/>
<path style="fill:#FAE17C;" d="M361.717,338.824H159.441c-6.814-15.682-22.434-26.654-40.622-26.654
	c-24.454,0-44.278,19.824-44.278,44.278c0,24.454,19.824,44.278,44.278,44.278c1.643,0,242.899,0,242.899,0
	c17.094,0,30.951-13.857,30.951-30.951l0,0C392.669,352.681,378.811,338.824,361.717,338.824z"/>
<path style="fill:#FFA8CB;" d="M90.638,381.293H65.774c-9.524,0-17.244-7.72-17.244-17.244l0,0c0-9.524,7.72-17.244,17.244-17.244
	h24.864c9.524,0,17.244,7.72,17.244,17.244l0,0C107.882,373.573,100.162,381.293,90.638,381.293z"/>
<path style="fill:#498A68;" d="M232.858,373.011c-0.945,0-1.904-0.091-2.866-0.279c-8.052-1.575-13.304-9.377-11.73-17.43
	c2.937-15.028,9.922-26.365,12.551-30.633l0.22-0.357c4.292-6.994,13.439-9.182,20.432-4.891c6.992,4.292,9.182,13.439,4.89,20.432
	l-0.246,0.401c-1.856,3.012-6.785,11.013-8.688,20.75C246.035,368.092,239.82,373.011,232.858,373.011z"/>
<path style="fill:#80B0E3;" d="M406.243,382.967l-17.254-3.699c-18.349-3.934-37.484-1.688-54.423,6.387l0,0
	c-20.005,9.536-42.942,10.887-63.928,3.765l-7.384-2.506c-12.534-4.254-25.889-5.523-39-3.708L153.537,393
	c-14.009,1.94-28.28,0.356-41.523-4.608L94.62,381.87c-20.784-7.792-43.791-7.15-64.108,1.79l0,0
	c-10.67,4.695-17.558,15.251-17.558,26.908v24.423c0,35.851,29.063,64.914,64.914,64.914h286.695
	c35.851,0,64.914-29.063,64.914-64.914v-23.279C429.478,397.85,419.796,385.873,406.243,382.967z"/>
<path style="opacity:0.1;enable-background:new    ;" d="M169.006,390.858L153.537,393c-14.009,1.94-28.28,0.356-41.523-4.608
	L94.62,381.87c-20.784-7.792-43.791-7.15-64.108,1.79l0,0c-10.67,4.695-17.558,15.251-17.558,26.908v24.423
	c0,35.851,29.063,64.914,64.914,64.914h178.92C212.096,488.896,175.66,430.514,169.006,390.858z"/>
<g style="opacity:0.1;">
	<path d="M124.657,465.856c-5.663,0-11.346-1.107-16.764-3.34c-3.83-1.579-5.655-5.963-4.076-9.793
		c1.578-3.829,5.962-5.651,9.792-4.076c8.246,3.4,17.432,2.837,25.203-1.54c14.228-8.014,31.593-7.5,45.319,1.338
		c3.483,2.242,4.488,6.883,2.246,10.366c-2.244,3.482-6.885,4.486-10.366,2.245c-9.038-5.817-20.47-6.156-29.836-0.881
		C139.477,463.949,132.085,465.856,124.657,465.856z"/>
	<path d="M336.303,441.178c-5.055,0-10.111-0.935-14.866-2.813c-6.161-2.432-12.929-2.387-19.055,0.128
		c-3.832,1.574-8.213-0.259-9.786-4.091s0.259-8.214,4.091-9.786c9.728-3.992,20.474-4.064,30.257-0.203
		c6.37,2.516,13.606,2.345,19.852-0.47c3.775-1.701,8.217-0.019,9.919,3.757s0.02,8.217-3.757,9.919
		C347.704,439.987,342.004,441.177,336.303,441.178z"/>
</g>
<path d="M74.445,161.397c0-3.885-3.15-7.035-7.035-7.035s-7.035,3.15-7.035,7.035s3.15,7.035,7.035,7.035
	S74.445,165.282,74.445,161.397z M126.561,339.496c-4.142,0-7.5,3.357-7.5,7.5v4.417c0,4.143,3.358,7.5,7.5,7.5
	c4.142,0,7.5-3.357,7.5-7.5v-4.417C134.061,342.853,130.703,339.496,126.561,339.496z M108.787,232.177
	c-3.124-2.721-7.861-2.396-10.582,0.727c-2.116,2.428-5.17,3.82-8.379,3.82s-6.263-1.393-8.379-3.82
	c-2.722-3.122-7.46-3.448-10.582-0.726s-3.447,7.459-0.726,10.581c4.966,5.697,12.142,8.965,19.687,8.965
	c7.546,0,14.722-3.268,19.687-8.965C112.235,239.636,111.91,234.898,108.787,232.177z M344.571,47.797
	c1.425,1.254,3.191,1.869,4.951,1.869c2.081,0,4.152-0.861,5.634-2.546c15.389-17.493,37.565-27.525,60.842-27.525
	c4.142,0,7.5-3.357,7.5-7.5s-3.358-7.5-7.5-7.5c-27.587,0-53.868,11.889-72.104,32.617C341.157,40.322,341.46,45.062,344.571,47.797
	z M494.536,45.374c-6.798-9.65-15.208-17.884-24.996-24.472c-3.436-2.313-8.096-1.401-10.41,2.034
	c-2.313,3.436-1.402,8.097,2.035,10.409c8.265,5.563,15.367,12.517,21.108,20.667c1.46,2.073,3.781,3.182,6.138,3.182
	c1.493,0,3-0.444,4.313-1.369C496.11,53.439,496.922,48.761,494.536,45.374z M473.581,157.567
	c-15.333,15.498-35.784,24.033-57.583,24.033c-4.142,0-7.5,3.357-7.5,7.5s3.358,7.5,7.5,7.5c25.836,0,50.074-10.116,68.247-28.484
	c2.913-2.944,2.888-7.692-0.057-10.606C481.243,154.597,476.494,154.621,473.581,157.567z M507.394,71.14
	c-1.27-3.941-5.495-6.109-9.438-4.839c-3.943,1.27-6.109,5.495-4.839,9.439c2.576,8,3.883,16.364,3.883,24.858
	c0,7.012-0.896,13.969-2.662,20.679c-1.054,4.006,1.338,8.107,5.344,9.162c0.64,0.168,1.282,0.249,1.914,0.249
	c3.324,0,6.362-2.227,7.248-5.593c2.094-7.956,3.156-16.198,3.156-24.497C512,90.541,510.45,80.63,507.394,71.14z M297.243,111.29
	v-8.835c0-4.143-3.358-7.5-7.5-7.5s-7.5,3.357-7.5,7.5v8.835c0,4.143,3.358,7.5,7.5,7.5S297.243,115.433,297.243,111.29z
	 M407.815,375.634l-7.879-1.689c0.151-1.382,0.234-2.772,0.234-4.169c0-20.485-16.103-37.276-36.316-38.389
	c-0.271-17.988-5.444-35.382-15.08-50.794c22.917-18.461,37.186-46.722,37.186-77.398v-11.401c0.939,0.309,1.879,0.613,2.824,0.892
	c0.708,0.209,1.422,0.309,2.125,0.309c3.239,0,6.227-2.115,7.19-5.38c1.172-3.973-1.099-8.144-5.071-9.316
	c-2.386-0.704-4.747-1.537-7.068-2.464v-11.528c9.314,4.409,19.497,6.699,30.039,6.699c38.823,0,70.408-31.585,70.408-70.407
	c0-38.823-31.585-70.408-70.408-70.408c-29.686,0-55.475,18.323-65.713,45.115c-19.53-17.891-45.533-28.826-74.044-28.826h-39.709
	c-34.918,0-67.264,17.389-86.524,46.516c-10.354,15.657-27.743,25.005-46.514,25.005h-27.27C34.194,117.999,0,152.193,0,194.225
	v31.984c0,42.031,34.194,76.226,76.225,76.226h68.843c-0.878,2.677-1.645,5.384-2.287,8.119c-7.252-3.788-15.436-5.883-23.962-5.883
	c-22.006,0-41.652,14.25-48.842,34.635h-4.202c-13.644,0-24.744,11.1-24.744,24.743c0,2.643,0.427,5.236,1.234,7.694
	c-5.011,1.265-9.953,2.932-14.772,5.052c-13.387,5.891-22.038,19.148-22.038,33.773v24.422c0,31.899,20.448,59.691,50.883,69.157
	c3.954,1.236,8.159-0.979,9.389-4.934c1.23-3.955-0.979-8.159-4.934-9.389c-24.127-7.505-40.338-29.541-40.338-54.835v-24.422
	c0-8.681,5.134-16.548,13.079-20.043c6.887-3.031,14.065-5.014,21.34-5.957c0.341-0.017,0.681-0.055,1.017-0.118
	c11.371-1.321,22.952-0.082,34.019,3.72c0.011,0.004,0.023,0.008,0.035,0.012c0.682,0.234,1.366,0.456,2.043,0.711l17.395,6.521
	c14.364,5.385,29.989,7.121,45.185,5.015l70.718-9.794c11.893-1.647,24.189-0.478,35.561,3.381l7.383,2.505
	c22.966,7.796,47.671,6.34,69.565-4.095c15.362-7.324,32.985-9.39,49.625-5.824l17.253,3.698
	c10.029,2.15,17.308,11.155,17.308,21.412v23.278c0,31.659-25.756,57.415-57.415,57.415H93.286c-4.142,0-7.5,3.357-7.5,7.5
	s3.358,7.5,7.5,7.5h271.277c39.93,0,72.415-32.485,72.415-72.415v-23.278C436.978,394.431,424.713,379.257,407.815,375.634z
	 M415.998,45.189c30.552,0,55.408,24.856,55.408,55.408s-24.856,55.407-55.408,55.407c-10.949,0-21.4-3.147-30.437-9.112
	c-1.871-22.174-10.363-42.49-23.49-58.96C367.874,62.979,390.045,45.189,415.998,45.189z M93.195,373.438
	c-11.635-3.767-23.72-5.172-35.664-4.229c-0.966-1.535-1.502-3.315-1.502-5.159c0-5.372,4.371-9.743,9.744-9.743h9.803
	c0.012,0,0.024,0.002,0.036,0.002c0.008,0,0.015-0.002,0.023-0.002h15.003c5.373,0,9.744,4.371,9.744,9.743
	C100.382,368.507,97.377,372.31,93.195,373.438z M152.508,385.572c-12.733,1.762-25.825,0.31-37.861-4.202l-4.772-1.789
	c3.445-4.265,5.507-9.672,5.507-15.531c0-13.643-11.1-24.743-24.744-24.743h-4.333c6.263-11.775,18.736-19.635,32.513-19.635
	c9.15,0,17.751,3.389,24.344,9.21c0.035,0.032,0.068,0.065,0.104,0.096c3.917,3.485,7.121,7.829,9.296,12.836
	c1.19,2.739,3.892,4.512,6.879,4.512h53.308c-0.699,2.4-1.333,4.909-1.847,7.539c-1.722,8.81,2.014,17.44,8.843,22.396
	L152.508,385.572z M231.431,365.371c-3.98-0.778-6.586-4.65-5.808-8.631c2.676-13.693,9.142-24.186,11.576-28.137l0.227-0.369
	c0.355-0.579,0.784-1.103,1.273-1.557c3.039-2.815,3.219-7.561,0.403-10.599c-2.815-3.037-7.56-3.22-10.599-0.403
	c-1.493,1.383-2.792,2.969-3.855,4.701l-0.22,0.357c-1.279,2.075-3.517,5.719-5.879,10.59h-54.454
	c-2.203-3.971-4.893-7.582-7.971-10.779c0.931-6.191,2.577-12.252,4.893-18.11h116.137c4.142,0,7.5-3.358,7.5-7.5
	c0-4.143-3.358-7.5-7.5-7.5H76.225C42.465,287.435,15,259.969,15,226.209v-31.984c0-33.76,27.465-61.226,61.225-61.226h27.269
	c23.821,0,45.887-11.862,59.026-31.731c16.475-24.915,44.144-39.789,74.013-39.789h39.709c50.596,0,92.054,39.876,94.595,89.852
	c0,0.002,0,0.003,0,0.005c0.082,1.61,0.123,3.231,0.123,4.862v46.997c0,37.627-25.274,70.987-61.46,81.126
	c-3.988,1.117-6.316,5.257-5.198,9.245c1.117,3.987,5.253,6.315,9.245,5.198c8.127-2.277,15.783-5.554,22.858-9.664
	c7.909,12.868,12.171,27.311,12.448,42.224h-85.719c-0.814-0.813-1.823-1.456-2.994-1.833c-3.945-1.269-8.168,0.896-9.438,4.839
	c-0.093,0.288-0.206,0.57-0.336,0.848c-0.03,0.054-0.059,0.109-0.088,0.165c-0.099,0.199-0.198,0.397-0.316,0.589l-0.237,0.387
	c-2.051,3.328-7.5,12.17-9.664,23.244C239.296,363.472,235.441,366.145,231.431,365.371z M385.121,370.96
	c-18.218-2.765-37.114-0.02-53.782,7.925c-18.345,8.746-39.046,9.964-58.291,3.432l-7.384-2.506
	c-6.102-2.07-12.428-3.486-18.832-4.245c4.002-3.218,6.908-7.796,7.95-13.125c1.312-6.714,4.389-12.627,6.426-16.116h100.509
	c12.931,0,23.452,10.521,23.452,23.451C385.169,370.172,385.141,370.565,385.121,370.96z M215.693,94.955
	c-4.142,0-7.5,3.357-7.5,7.5v8.835c0,4.143,3.358,7.5,7.5,7.5s7.5-3.357,7.5-7.5v-8.835
	C223.193,98.313,219.835,94.955,215.693,94.955z M112.243,154.362c-3.885,0-7.035,3.15-7.035,7.035s3.15,7.035,7.035,7.035
	s7.035-3.15,7.035-7.035S116.128,154.362,112.243,154.362z"/>
<g>
</g>
<g>
</g>
<g>
</g>
<g>
</g>
<g>
</g>
<g>
</g>
<g>
</g>
<g>
</g>
<g>
</g>
<g>
</g>
<g>
</g>
<g>
</g>
<g>
</g>
<g>
</g>
<g>
</g>
</svg>
