<?xml version="1.0" encoding="iso-8859-1"?>
<!-- Generator: Adobe Illustrator 19.0.0, SVG Export Plug-In . SVG Version: 6.00 Build 0)  -->
<svg version="1.1" id="Capa_1" xmlns="http://www.w3.org/2000/svg" xmlns:xlink="http://www.w3.org/1999/xlink" x="0px" y="0px"
	 viewBox="0 0 512.002 512.002" style="enable-background:new 0 0 512.002 512.002;" xml:space="preserve">
<path style="fill:#498A68;" d="M163.896,400.725c-5.701,0-11.098-3.411-13.358-9.024c-2.969-7.375,0.603-15.76,7.979-18.73
	c6.722-2.707,16.296-11.368,22.278-18.524c5.101-6.1,14.178-6.909,20.278-1.812c6.099,5.1,6.911,14.178,1.812,20.278
	c-2.785,3.331-17.49,20.274-33.617,26.767C167.507,400.389,165.687,400.725,163.896,400.725z"/>
<path style="fill:#5CB38E;" d="M288.613,427.101c67.179,0,144.489,0,201.087-36.134c9.685-6.183,4.084-21.117-7.306-19.596
	c-44.819,5.983-82.468-5.425-103.935-23.906L288.613,427.101z"/>
<path style="opacity:0.1;enable-background:new    ;" d="M403.799,362.71c-0.749,21.454-4.042,42.869-17.267,60.675
	c-32.749,3.716-66.447,3.716-97.92,3.716l89.846-79.637C385.339,353.388,393.89,358.579,403.799,362.71z"/>
<g>
	<path style="fill:#498A68;" d="M327.35,492.631c-6.447,0-12.837-2.801-17.215-8.199c-12.148-14.98-15.704-35.287-16.548-49.685
		c-0.716-12.222,0.184-28.536,3.808-37.431c4.615-11.328,17.537-16.767,28.867-12.155c11.063,4.507,16.512,16.939,12.462,28.07
		c-2.057,8.186-1.989,33.68,5.815,43.303c7.704,9.5,6.248,23.447-3.253,31.151C337.184,491.011,332.251,492.63,327.35,492.631z
		 M338.424,414.006c-0.002,0.007-0.005,0.013-0.008,0.021C338.419,414.019,338.422,414.012,338.424,414.006z"/>
	<path style="fill:#498A68;" d="M250.54,492.631c-6.447,0-12.837-2.801-17.215-8.199c-12.148-14.98-15.704-35.287-16.546-49.685
		c-0.716-12.223,0.184-28.538,3.809-37.434c4.618-11.327,17.544-16.764,28.868-12.152c11.062,4.508,16.509,16.94,12.459,28.07
		c-2.057,8.186-1.99,33.678,5.815,43.302c7.704,9.5,6.248,23.447-3.253,31.151C260.374,491.011,255.441,492.63,250.54,492.631z
		 M261.615,414.006c-0.003,0.008-0.007,0.015-0.009,0.023C261.609,414.021,261.612,414.013,261.615,414.006z"/>
</g>
<path style="fill:#DEE2E5;" d="M456.15,303.53c-2.043-10.007-11.998-16.355-22.056-14.582l-56.854,10.025
	c-21.211,3.74-35.075,24.667-29.795,45.933c4.53,18.245,22.324,30.403,40.972,28.026c11.354-1.447,20.768-7.771,26.542-16.524
	c0.832-1.261,2.319-1.874,3.811-1.636c2.943,0.47,6.028,0.404,9.135-0.291c11.594-2.594,19.727-13.529,18.891-25.38
	c-0.01-0.146-0.022-0.292-0.035-0.437c-0.239-2.695,0.917-5.267,2.999-6.994C454.88,317.421,457.586,310.564,456.15,303.53z"/>
<path style="opacity:0.1;enable-background:new    ;" d="M347.443,344.907c4.53,18.245,22.324,30.403,40.972,28.026
	c3.552-0.453,6.914-1.383,10.034-2.715c0.447-6.902,0.547-13.847,0.547-20.717c0-18.705-4.754-36.385-13.178-52.039l-8.58,1.513
	C356.027,302.713,342.163,323.641,347.443,344.907z"/>
<path style="opacity:0.1;enable-background:new    ;" d="M267.728,456.534c-7.804-9.624-7.871-35.116-5.815-43.302
	c4.05-11.13-1.397-23.561-12.459-28.07c-11.324-4.612-24.25,0.825-28.868,12.152c-3.625,8.896-4.524,25.211-3.809,37.434
	c0.313,5.353,1.004,11.523,2.369,17.931c14.154,4.328,31.01,6.752,50.908,7.377C269.402,458.833,268.634,457.65,267.728,456.534z"/>
<path style="opacity:0.1;enable-background:new    ;" d="M338.724,413.229c4.05-11.131-1.399-23.563-12.462-28.07
	c-11.33-4.612-24.251,0.827-28.867,12.155c-3.624,8.896-4.523,25.21-3.808,37.431c0.428,7.314,1.565,16.153,4.164,25.044
	c17.11-0.9,31.846-3.232,44.444-7.068C336.752,441.385,336.899,420.495,338.724,413.229z"/>
<path style="fill:#5CB38E;" d="M179.631,348.96c0,51.704,7.023,89.117,101.115,89.117S381.86,400.664,381.86,348.96
	s-45.27-93.619-101.115-93.619S179.631,297.256,179.631,348.96z"/>
<path style="fill:#9BDFC1;" d="M179.631,348.96c0-0.412,0.011-0.822,0.017-1.232c21.06-5.405,62.834-6.977,91.905,23.917
	c21.184,22.512,24.249,46.806,21.977,66.182c-4.072,0.165-8.329,0.25-12.784,0.25C186.654,438.076,179.631,400.664,179.631,348.96z"
	/>
<path style="opacity:0.05;enable-background:new    ;" d="M299.941,257.034c46.663,8.304,81.919,46.3,81.919,91.926
	c0,47.875-6.033,83.493-81.623,88.506C342.205,394.866,334.088,306.909,299.941,257.034z"/>
<path style="fill:#5CB38E;" d="M187.932,120.513L187.932,120.513c17.266-26.111,46.481-41.816,77.786-41.816h38.479
	c54.707,0,99.056,44.348,99.056,99.056v45.542c0,49.099-39.802,88.902-88.902,88.902H110.37c-36.781,0-66.599-29.817-66.599-66.598
	v-30.995c0-36.781,29.817-66.599,66.599-66.599h26.424C157.374,148.004,176.581,137.679,187.932,120.513z"/>
<g style="opacity:0.1;">
	<circle cx="349.446" cy="244.942" r="6.817"/>
	<circle cx="300.976" cy="255.342" r="6.817"/>
	<circle cx="328.716" cy="278.592" r="6.817"/>
</g>
<g>
	<ellipse style="fill:#FFA8CB;" cx="339.076" cy="151.711" rx="17.18" ry="8.815"/>
	<ellipse style="fill:#FFA8CB;" cx="223.725" cy="151.711" rx="17.18" ry="8.815"/>
</g>
<path style="opacity:0.05;enable-background:new    ;" d="M326.203,81.154c44.115,10.008,77.05,49.455,77.05,96.599v45.542
	c0,49.098-39.802,88.902-88.902,88.902h-53.945C338.969,266.484,352.286,140.831,326.203,81.154z"/>
<path style="fill:#498A68;" d="M269.018,399.342c-2.603,0-5.237-0.706-7.608-2.186c-6.745-4.21-8.8-13.09-4.591-19.834
	c8.726-13.98,21.075-22.469,25.134-25.259l0.337-0.233c6.547-4.515,15.509-2.87,20.024,3.673c4.515,6.545,2.87,15.509-3.673,20.024
	l-0.378,0.261c-3.136,2.156-11.468,7.883-17.019,16.777C278.515,396.94,273.821,399.342,269.018,399.342z"/>
<path style="fill:#FAE17C;" d="M154.359,472.419l-13.75,13.75c-24.446,24.446-64.224,24.446-88.671,0l-30.88-30.88
	c-4.973-4.973-4.973-13.036,0-18.009c4.973-4.973,13.036-4.973,18.009,0l30.88,30.88c14.516,14.516,38.135,14.516,52.651,0
	l13.75-13.75c14.516-14.516,14.516-38.135,0-52.652l-30.88-30.88c-4.973-4.973-4.973-13.036,0-18.009
	c4.973-4.973,13.036-4.973,18.009,0l30.88,30.88C178.806,408.194,178.806,447.973,154.359,472.419z"/>
<path d="M501.022,375.783c-3.015-8.25-10.904-13.019-19.62-11.847c-18.979,2.531-37.358,1.918-54.066-1.728
	c0.737-0.112,1.472-0.243,2.205-0.406c15.197-3.4,25.831-17.685,24.732-33.252l-0.044-0.548c-0.022-0.256,0.237-0.492,0.317-0.559
	c7.459-6.189,10.889-15.926,8.951-25.413c-2.813-13.774-16.589-22.949-30.708-20.466l-49.08,8.654
	c2.086-2.157,4.085-4.404,5.966-6.757c13.591-16.994,21.075-38.361,21.075-60.165v-45.542c0-58.755-47.8-106.557-106.556-106.557
	h-38.479c-33.916,0-65.333,16.89-84.041,45.181c-9.99,15.107-26.768,24.127-44.881,24.127h-26.424
	c-40.857,0-74.099,33.24-74.099,74.099v30.995c0,40.857,33.24,74.099,74.099,74.099h66.385c-3.068,9.441-4.625,19.241-4.625,29.264
	c0,1.309,0.005,2.621,0.014,3.933c-5.697,6.081-12.453,11.52-16.429,13.12c-1.95,0.785-3.752,1.837-5.37,3.113l-21.562-21.562
	c-3.822-3.821-8.903-5.927-14.309-5.927c-5.405,0-10.486,2.105-14.308,5.927c-3.821,3.822-5.927,8.904-5.927,14.309
	c0,5.405,2.105,10.486,5.927,14.307l1.744,1.744l-55.796,55.796l-1.743-1.743c-3.821-3.822-8.903-5.928-14.308-5.928
	s-10.487,2.105-14.308,5.927c-3.822,3.821-5.928,8.902-5.928,14.308c0,5.405,2.106,10.486,5.927,14.309l30.88,30.88
	c13.685,13.684,31.662,20.527,49.639,20.527s35.953-6.843,49.639-20.527l13.75-13.75c19.698-19.698,25.217-48.286,16.563-72.97
	c1.215-0.608,2.442-1.27,3.679-1.989c2.337,5.371,5.367,10.419,9.296,15.016c5.258,6.151,11.88,11.23,19.994,15.294
	c0.03,0.709,0.056,1.427,0.096,2.11c0.696,11.897,2.822,22.815,6.319,32.452c1.106,3.049,3.984,4.943,7.051,4.943
	c0.849,0,1.713-0.146,2.558-0.452c3.893-1.413,5.904-5.715,4.491-9.608c-2.539-6.997-4.231-14.875-5.065-23.458
	c8.815,2.594,18.893,4.394,30.333,5.434c1.452,7.244,3.77,12.871,6.925,16.761c5.087,6.273,4.121,15.516-2.151,20.602
	c-2.639,2.14-5.825,3.272-9.213,3.273c-2.402,0-4.787-0.592-6.896-1.713c-3.657-1.943-8.197-0.553-10.143,3.104
	c-1.943,3.657-0.555,8.198,3.104,10.143c4.268,2.268,9.086,3.467,13.938,3.467c6.769-0.003,13.395-2.354,18.657-6.621
	c12.697-10.296,14.651-29.002,4.354-41.701c-0.625-0.77-1.823-2.617-2.931-6.388c3.282,0.1,6.648,0.156,10.122,0.156
	c2.166,0,4.281-0.026,6.372-0.065c1.875,13.628,6.441,30.385,17.192,43.643c5.656,6.976,14.054,10.976,23.043,10.976
	c6.77-0.003,13.395-2.355,18.656-6.62c6.151-4.988,9.992-12.073,10.814-19.949c0.822-7.877-1.472-15.602-6.46-21.752
	c-2.178-2.686-3.884-8.495-4.719-15.759c1.926-0.764,3.777-1.577,5.56-2.435c43.299-1.978,98.215-8.033,142.531-36.326
	C501.081,392.599,504.009,383.957,501.022,375.783z M112.517,388.532l18.529,18.53c8.176,8.175,10.577,19.965,7.219,30.272
	l-37.275-37.275L112.517,388.532z M90.383,410.666l39.551,39.551l-11.526,11.526l-39.551-39.55L90.383,410.666z M68.249,432.8
	l37.276,37.276c-10.308,3.358-22.098,0.957-30.274-7.22l-18.529-18.529L68.249,432.8z M149.055,467.115l-13.75,13.75
	c-10.406,10.408-24.269,16.139-39.031,16.139c-14.764,0-28.625-5.731-39.031-16.139l-30.88-30.88
	c-0.989-0.988-1.534-2.303-1.534-3.701c0-1.397,0.545-2.712,1.534-3.701c0.988-0.988,2.303-1.533,3.701-1.533
	c1.397,0,2.712,0.545,3.7,1.534l30.88,30.88c15.642,15.64,40.073,17.243,57.529,4.831c0.032-0.021,0.062-0.044,0.094-0.065
	c1.975-1.412,3.865-2.994,5.637-4.766l13.75-13.751c1.766-1.766,3.344-3.649,4.752-5.616c0.027-0.04,0.057-0.079,0.083-0.12
	c12.407-17.456,10.803-41.883-4.835-57.521l-23.831-23.832c-0.001-0.001-0.001-0.002-0.002-0.002
	c-0.001-0.001-0.002-0.001-0.002-0.002l-7.046-7.046c-0.988-0.988-1.533-2.303-1.533-3.7c0-1.398,0.545-2.713,1.534-3.702
	c0.988-0.988,2.303-1.533,3.7-1.533c1.398,0,2.713,0.545,3.701,1.534l30.88,30.88c4.283,4.283,7.76,9.158,10.386,14.434
	c0.126,0.292,0.266,0.577,0.426,0.847c3.485,7.319,5.327,15.389,5.327,23.751C165.195,442.846,159.462,456.709,149.055,467.115z
	 M169.752,391.22c-2.438-3.95-5.304-7.707-8.598-11.208c0.057-0.025,0.106-0.062,0.164-0.085c3.709-1.493,7.761-4.189,11.641-7.32
	c0.464,5.239,1.179,10.402,2.274,15.409C173.357,389.248,171.526,390.321,169.752,391.22z M435.396,296.334
	c6.191-1.09,12.204,2.811,13.405,8.696c0.828,4.055-0.64,8.219-3.832,10.868c-4.008,3.325-6.132,8.346-5.682,13.422l0.025,0.308
	c0.578,8.203-5.03,15.741-13.045,17.534c-2.101,0.469-4.225,0.538-6.316,0.204c-4.404-0.701-8.82,1.224-11.254,4.912
	c-4.518,6.85-11.622,11.513-19.665,12.971c0.264-5.419,0.328-10.878,0.328-16.29c0-14.911-3.484-29.424-10.15-42.717
	L435.396,296.334z M341.905,472.004c-0.406,3.891-2.304,7.391-5.343,9.855c-2.638,2.139-5.824,3.271-9.212,3.272
	c-4.443,0-8.595-1.977-11.39-5.423c-8.307-10.245-12.103-23.579-13.793-34.857c10.771-0.777,20.392-2.188,28.939-4.255
	c1.099,7.484,3.301,15.351,7.607,20.661C341.177,464.296,342.311,468.112,341.905,472.004z M346.405,419.279
	c-0.369,0.154-0.724,0.332-1.06,0.54c-2.81,1.402-5.855,2.667-9.157,3.789c-0.56,0.115-1.097,0.289-1.603,0.521
	c-13.651,4.351-31.395,6.448-53.84,6.448c-6.518,0-12.64-0.177-18.381-0.534c-0.267-0.033-0.537-0.052-0.81-0.056
	c-17.032-1.117-30.674-3.845-41.306-8.292c-0.48-0.27-0.989-0.493-1.528-0.653c-7.601-3.39-13.588-7.711-18.114-13.007
	c-3.997-4.677-7.261-10.181-9.577-18.629c-0.01-0.04-0.022-0.08-0.032-0.12c-2.483-9.124-3.866-21.672-3.866-40.326
	c0-10.083,1.868-19.905,5.552-29.264H300.97c4.143,0,7.5-3.357,7.5-7.5c0-4.143-3.357-7.5-7.5-7.5h-190.6
	c-32.587,0-59.098-26.511-59.098-59.098v-30.995c0-32.587,26.511-59.098,59.098-59.098h26.424c23.162,0,44.618-11.534,57.392-30.854
	c15.923-24.078,42.662-38.453,71.529-38.453h38.479c50.483,0,91.556,41.071,91.556,91.557v45.542
	c0,27.271-13.329,51.792-34.527,66.652c-0.357,0.181-0.707,0.384-1.041,0.628c-0.188,0.137-0.365,0.283-0.536,0.434
	c-7.847,5.23-16.708,9.173-26.339,11.47c-4.029,0.961-6.517,5.006-5.557,9.035c0.961,4.029,5.003,6.512,9.035,5.557
	c9.002-2.147,17.637-5.617,25.623-10.222c7.833,12.819,11.949,27.243,11.949,42.112c0,26.737-2.254,45.945-13.475,59.074
	C357.107,412.454,352.306,416.191,346.405,419.279z M485.663,384.646c-34.226,21.851-76.035,29.518-112.924,32.584
	c8.704-10.451,12.885-23.166,14.867-36.69c0.587-0.051,1.175-0.093,1.757-0.167c7.236-0.922,14.028-3.575,19.88-7.617
	c22.18,7.478,47.709,9.575,74.142,6.05c2.292-0.313,3.21,1.201,3.548,2.128C487.326,382.006,487.424,383.522,485.663,384.646z
	 M290.827,61.62c35.588,0,95.816-6.489,95.816-30.81C386.644,6.489,326.416,0,290.827,0s-95.816,6.489-95.816,30.81
	C195.012,55.131,255.24,61.62,290.827,61.62z M233.219,20.843C248.938,17.075,269.397,15,290.827,15
	c21.431,0,41.89,2.075,57.608,5.843c16.193,3.882,21.966,8.304,23.082,9.967c-1.115,1.663-6.887,6.085-23.081,9.967
	c-15.719,3.768-36.178,5.844-57.609,5.844c-21.432,0-41.891-2.075-57.609-5.844c-16.194-3.882-21.966-8.304-23.081-9.967
	C211.253,29.146,217.026,24.725,233.219,20.843z M142.076,251.205c-3.123-2.722-7.86-2.396-10.581,0.728
	c-2.006,2.302-4.901,3.622-7.944,3.622s-5.939-1.32-7.945-3.622c-2.721-3.124-7.46-3.448-10.581-0.728
	c-3.123,2.721-3.449,7.458-0.728,10.581c4.855,5.572,11.873,8.768,19.254,8.768c7.38,0,14.398-3.196,19.253-8.768
	C145.526,258.663,145.199,253.926,142.076,251.205z M108.645,182.791c0-3.765-3.052-6.817-6.817-6.817s-6.817,3.052-6.817,6.817
	s3.052,6.817,6.817,6.817S108.645,186.556,108.645,182.791z M336.026,123.113c-2.93-2.929-7.679-2.929-10.607,0.003
	c-2.174,2.175-5.064,3.372-8.138,3.372c-3.073,0-5.963-1.197-8.137-3.372c-2.929-2.932-7.678-2.931-10.607-0.003
	c-2.93,2.928-2.931,7.677-0.003,10.606c5.007,5.01,11.664,7.769,18.746,7.769c7.083,0,13.74-2.759,18.747-7.769
	C338.956,130.79,338.955,126.041,336.026,123.113z M145.273,175.974c-3.765,0-6.817,3.052-6.817,6.817s3.052,6.817,6.817,6.817
	s6.817-3.052,6.817-6.817C152.09,179.026,149.038,175.974,145.273,175.974z M306.64,365.089c-3.493-2.225-8.13-1.195-10.354,2.3
	c-0.493,0.774-1.132,1.436-1.901,1.967l-0.368,0.253c-3.488,2.398-12.756,8.768-19.133,18.987c-1.269,2.032-3.461,3.246-5.863,3.246
	c-1.281,0-2.539-0.362-3.637-1.048c-1.563-0.976-2.652-2.501-3.067-4.296c-0.415-1.794-0.107-3.643,0.868-5.204
	c7.898-12.654,19.279-20.478,23.03-23.057l0.337-0.232c3.409-2.353,4.267-7.024,1.915-10.433c-2.353-3.409-7.022-4.267-10.433-1.915
	l-0.327,0.227c-4.377,3.008-17.695,12.164-27.247,27.467c-3.097,4.962-4.076,10.832-2.758,16.53
	c1.319,5.697,4.777,10.541,9.739,13.639c3.484,2.173,7.488,3.322,11.579,3.322c7.613,0,14.561-3.853,18.588-10.305
	c4.724-7.568,12.121-12.653,14.916-14.575l0.377-0.259c2.43-1.676,4.462-3.782,6.039-6.26
	C311.163,371.949,310.134,367.313,306.64,365.089z M253.659,123.116c-2.174,2.175-5.064,3.372-8.137,3.372
	c-3.074,0-5.964-1.197-8.138-3.372c-2.929-2.932-7.678-2.931-10.606-0.003c-2.93,2.928-2.931,7.677-0.003,10.606
	c5.007,5.01,11.664,7.769,18.747,7.769c7.082,0,13.739-2.759,18.746-7.769c2.928-2.93,2.927-7.679-0.003-10.606
	C261.337,120.185,256.588,120.185,253.659,123.116z"/>
<g>
</g>
<g>
</g>
<g>
</g>
<g>
</g>
<g>
</g>
<g>
</g>
<g>
</g>
<g>
</g>
<g>
</g>
<g>
</g>
<g>
</g>
<g>
</g>
<g>
</g>
<g>
</g>
<g>
</g>
</svg>
