<?xml version="1.0" encoding="iso-8859-1"?>
<!-- Generator: Adobe Illustrator 19.0.0, SVG Export Plug-In . SVG Version: 6.00 Build 0)  -->
<svg version="1.1" id="Capa_1" xmlns="http://www.w3.org/2000/svg" xmlns:xlink="http://www.w3.org/1999/xlink" x="0px" y="0px"
	 viewBox="0 0 512 512" style="enable-background:new 0 0 512 512;" xml:space="preserve">
<path style="fill:#806C6C;" d="M154.927,144.801c-9.717-16.589-23.259-75.874,14.996-105.334
	C207.986,10.155,269.975,7.081,323.359,44c37.981,26.267,102.685,71.896,172.013,72.172c5.032,0.02,8.323,5.325,6.184,9.881
	c-7.092,15.102-17.626,25.308-36.547,26.866c-1.887,0.155-2.745,2.432-1.395,3.76c16.796,16.523,55.602,65.24,34.9,112.601
	c-2.72,6.223-11.348,6.784-14.951,1.027c-5.553-8.87-14.948-20.442-29.637-29.086c-7.773-4.575-17.979-2.246-22.427,5.599
	c-4.029,7.107-3.236,15.263,1.667,24.138c2.369,4.288-0.147,9.621-4.911,10.76c-48.784,11.658-94.171-1.628-114.207-43.398
	L154.927,144.801z"/>
<path style="fill:#498A68;" d="M132.669,402.915c-2.297,0-4.627-0.55-6.792-1.708c-7.034-3.76-9.689-12.509-5.93-19.542
	c7.785-14.567,19.561-23.893,23.432-26.959l0.323-0.256c6.245-4.962,15.327-3.924,20.29,2.319c4.962,6.244,3.924,15.327-2.319,20.29
	l-0.363,0.289c-2.991,2.368-10.936,8.661-15.888,17.929C142.818,400.144,137.827,402.915,132.669,402.915z"/>
<path style="fill:#5CB38E;" d="M253.103,429.374c67.388,0,144.94,0,201.713-36.246c9.715-6.202,4.097-21.183-7.328-19.658
	c-44.959,6.002-82.724-5.442-104.259-23.98L253.103,429.374z"/>
<path style="opacity:0.1;enable-background:new    ;" d="M368.648,364.782c-0.751,21.521-4.055,43.002-17.32,60.865
	c-32.852,3.728-66.653,3.728-98.225,3.728l90.125-79.885C350.131,355.431,358.708,360.638,368.648,364.782z"/>
<g>
	<path style="fill:#498A68;" d="M283.272,495.108c-11.498,0.001-21.231-8.859-22.128-20.514c-0.273-3.556-1.698-60.398,4.291-75.099
		c4.63-11.363,17.592-16.819,28.957-12.193c10.898,4.44,16.365,16.548,12.71,27.555c-1.593,8.198-2.508,45.227-1.655,56.33
		c0.941,12.234-8.215,22.914-20.448,23.854C284.419,495.086,283.842,495.108,283.272,495.108z M306.594,416.234
		c-0.003,0.008-0.007,0.016-0.01,0.025C306.588,416.25,306.591,416.241,306.594,416.234z"/>
	<path style="fill:#498A68;" d="M202.702,495.108c-11.497,0.001-21.23-8.858-22.128-20.512c-0.273-3.557-1.701-60.398,4.292-75.103
		c4.632-11.362,17.599-16.816,28.958-12.19c10.898,4.443,16.364,16.549,12.707,27.556c-1.594,8.204-2.509,45.226-1.654,56.326
		c0.942,12.234-8.213,22.915-20.446,23.857C203.85,495.086,203.273,495.108,202.702,495.108z M226.022,416.237
		c-0.002,0.008-0.007,0.016-0.009,0.024C226.016,416.253,226.019,416.244,226.022,416.237z"/>
</g>
<path style="opacity:0.1;enable-background:new    ;" d="M213.823,387.304c-11.359-4.627-24.326,0.828-28.958,12.19
	c-3.803,9.332-4.618,35.631-4.635,54.514c12.491,4.198,27.187,6.819,44.338,7.945c-0.157-15.414,0.684-40.514,1.962-47.093
	C230.188,403.853,224.721,391.745,213.823,387.304z"/>
<path style="opacity:0.1;enable-background:new    ;" d="M294.392,387.303c-11.365-4.627-24.327,0.83-28.957,12.193
	c-4.395,10.79-4.796,44.278-4.592,62.74c16.987-0.809,31.681-2.996,44.284-6.64c0.079-15.201,0.86-35.008,1.973-40.738
	C310.756,403.85,305.289,391.742,294.392,387.303z"/>
<path style="fill:#5CB38E;" d="M143.781,350.989c0,51.866,7.045,89.394,101.429,89.394s101.429-37.529,101.429-89.394
	s-45.411-93.91-101.429-93.91C189.192,257.079,143.781,299.125,143.781,350.989z"/>
<path style="fill:#9BDFC1;" d="M143.781,350.989c0-0.413,0.011-0.824,0.017-1.236c21.126-5.421,63.03-6.998,92.191,23.991
	c21.25,22.583,24.324,46.952,22.046,66.388c-4.085,0.166-8.355,0.251-12.824,0.251C150.826,440.384,143.781,402.855,143.781,350.989
	z"/>
<path style="opacity:0.05;enable-background:new    ;" d="M264.466,258.777c46.808,8.33,82.173,46.444,82.173,92.212
	c0,48.025-6.051,83.752-81.877,88.781C306.863,397.039,298.719,308.808,264.466,258.777z"/>
<path style="fill:#5CB38E;" d="M152.108,121.831L152.108,121.831c17.32-26.192,46.626-41.947,78.028-41.947h38.6
	c54.877,0,99.365,44.487,99.365,99.365v45.684c0,49.252-39.927,89.179-89.179,89.179H74.305c-36.896,0-66.806-29.91-66.806-66.806
	v-31.092c0-36.896,29.91-66.806,66.806-66.806h26.507C121.455,149.408,140.721,139.05,152.108,121.831z"/>
<g style="opacity:0.1;">
	<circle cx="314.127" cy="246.644" r="6.838"/>
	<circle cx="265.512" cy="257.083" r="6.838"/>
	<circle cx="293.329" cy="280.401" r="6.838"/>
</g>
<g>
	<ellipse style="fill:#FFA8CB;" cx="293.729" cy="153.124" rx="17.236" ry="8.842"/>
	<ellipse style="fill:#FFA8CB;" cx="178.011" cy="153.124" rx="17.236" ry="8.842"/>
</g>
<path style="opacity:0.05;enable-background:new    ;" d="M290.809,82.349c44.252,10.039,77.29,49.61,77.29,96.9v45.684
	c0,49.252-39.927,89.179-89.179,89.179h-54.113C303.616,268.257,316.975,142.212,290.809,82.349z"/>
<path style="fill:#498A68;" d="M264.479,375.319c-5.017,0-9.893-2.618-12.557-7.287c-3.952-6.928-1.539-15.746,5.388-19.699
	l0.403-0.23c3.321-1.885,12.139-6.896,18.449-15.306c4.786-6.378,13.838-7.669,20.217-2.885c6.379,4.786,7.671,13.838,2.885,20.217
	c-9.917,13.219-22.989,20.645-27.284,23.085l-0.359,0.205C269.364,374.707,266.905,375.319,264.479,375.319z"/>
<g>
	<path style="fill:#FAE17C;" d="M59.093,106.48L59.093,106.48c-3.209,5.87-11.64,5.87-14.848,0l0,0
		c-6.7-12.258-16.778-22.336-29.036-29.036l0,0c-5.87-3.209-5.87-11.64,0-14.848l0,0c12.258-6.7,22.336-16.778,29.036-29.036l0,0
		c3.209-5.87,11.64-5.87,14.848,0l0,0c6.7,12.258,16.778,22.336,29.036,29.036l0,0c5.87,3.209,5.87,11.64,0,14.848l0,0
		C75.871,84.145,65.793,94.222,59.093,106.48z"/>
	<path style="fill:#FAE17C;" d="M417.567,115.233L417.567,115.233c-3.209,5.87-11.64,5.87-14.848,0l0,0
		c-6.7-12.258-16.777-22.336-29.035-29.036l0,0c-5.87-3.209-5.87-11.64,0-14.848l0,0c12.258-6.7,22.335-16.777,29.035-29.035l0,0
		c3.209-5.87,11.64-5.87,14.848,0l0,0c6.7,12.258,16.778,22.336,29.036,29.035l0,0c5.87,3.209,5.87,11.64,0,14.848l0,0
		C434.344,92.898,424.267,102.976,417.567,115.233z"/>
	<path style="fill:#FAE17C;" d="M414.11,337.849L414.11,337.849c-2.635,4.82-9.555,4.82-12.19,0l0,0
		c-5.5-10.063-13.774-18.335-23.835-23.835l0,0c-4.82-2.635-4.82-9.555,0-12.19l0,0c10.063-5.5,18.335-13.774,23.835-23.836l0,0
		c2.635-4.819,9.555-4.819,12.19,0l0,0c5.5,10.063,13.774,18.335,23.836,23.836l0,0c4.819,2.635,4.819,9.555,0,12.19l0,0
		C427.884,319.514,419.611,327.786,414.11,337.849z"/>
</g>
<path style="fill:#806C6C;" d="M384.185,114.622C353.105,54.802,239.761,15.998,188.013,66.77
	c-15.645,22.201,51.94,43.815,130.766,49.713c6.396,0.479,11.642,5.267,12.742,11.587c6.627,38.086,15.259,95.539,51.512,115.075
	c4.845,2.611,10.971,0.658,13.346-4.308C406.831,216.991,412.503,161.201,384.185,114.622z"/>
<path d="M11.613,84.026c11.019,6.022,20.026,15.03,26.051,26.051c2.8,5.122,8.166,8.306,14.004,8.306h0.001
	c5.838,0,11.204-3.183,14.006-8.305c6.024-11.021,15.032-20.029,26.052-26.052c5.123-2.802,8.305-8.168,8.305-14.007
	c0-5.837-3.184-11.204-8.305-14.004c-11.02-6.023-20.028-15.032-26.052-26.053c-2.802-5.123-8.168-8.305-14.007-8.305
	c-5.837,0-11.204,3.184-14.004,8.305c-6.023,11.02-15.031,20.029-26.051,26.053c-5.122,2.8-8.306,8.166-8.306,14.004
	C3.308,75.857,6.488,81.224,11.613,84.026z M18.807,69.176c13.544-7.403,24.614-18.475,32.018-32.02
	c0.075-0.137,0.273-0.5,0.844-0.5c0.571,0,0.771,0.364,0.845,0.501c7.402,13.544,18.475,24.615,32.019,32.019
	c0.137,0.075,0.5,0.273,0.5,0.844c0,0.571-0.364,0.771-0.5,0.845c-13.543,7.401-24.614,18.474-32.019,32.018
	c-0.075,0.138-0.275,0.501-0.845,0.501s-0.769-0.363-0.844-0.501C43.42,89.338,32.348,78.266,18.807,70.865
	c-0.137-0.074-0.501-0.273-0.501-0.845C18.306,69.45,18.669,69.251,18.807,69.176z M501.946,198.298
	c-7.892-17.274-18.763-31.248-26.171-39.639c14.424-3.888,25.133-13.588,32.568-29.42c2.108-4.488,1.781-9.674-0.874-13.873
	c-2.639-4.173-7.149-6.675-12.067-6.695c-17.373-0.069-35.831-3.211-55.006-9.328c3.048-2.466,6.324-4.666,9.802-6.567
	c5.123-2.801,8.306-8.166,8.306-14.005c0-5.838-3.183-11.204-8.305-14.005c-11.021-6.022-20.029-15.031-26.053-26.052
	c-2.8-5.122-8.166-8.306-14.004-8.306h-0.001c-5.838,0-11.204,3.183-14.006,8.306c-6.022,11.02-15.031,20.028-26.051,26.052
	c-0.335,0.183-0.661,0.378-0.979,0.583c-14.979-9.185-28.457-18.506-39.497-26.145l-1.987-1.375
	C301.019,19.432,271.046,9.6,240.944,9.395c-0.311-0.002-0.618-0.003-0.929-0.003c-27.954,0-54.442,8.554-74.671,24.131
	c-28.969,22.31-32.192,61.149-25.352,91.525c-10.101,10.679-24.18,16.857-39.183,16.857H74.301C33.333,141.908,0,175.241,0,216.214
	v31.092c0,40.973,33.333,74.305,74.305,74.305h66.625c-3.063,9.416-4.626,19.188-4.645,29.183
	c-5.478,4.516-15.712,13.791-22.952,27.338c-2.763,5.168-3.348,11.103-1.646,16.711c1.702,5.607,5.485,10.218,10.656,12.982
	c3.176,1.695,6.746,2.592,10.326,2.592c4.438,0,8.66-1.336,12.207-3.709c2.225,4.732,5.015,9.197,8.524,13.302
	c5.182,6.064,11.687,11.091,19.636,15.13c-0.216,6.442-0.319,13.453-0.304,20.93c0.009,4.137,3.364,7.483,7.499,7.483h0.016
	c4.142-0.009,7.492-3.373,7.483-7.515c-0.011-5.182,0.041-10.234,0.147-15.002c8.532,2.602,18.264,4.446,29.297,5.559
	c-0.192,9.62-0.187,19.827,0.224,25.167c0.302,3.92-0.941,7.722-3.499,10.707c-2.559,2.984-6.125,4.795-10.048,5.096
	c-0.379,0.029-0.766,0.044-1.151,0.044c-4.642,0-9.065-2.242-11.835-5.996c-2.459-3.334-7.155-4.044-10.486-1.585
	c-3.334,2.459-4.043,7.153-1.585,10.486c5.584,7.572,14.52,12.094,23.905,12.094c0.77,0,1.546-0.03,2.305-0.089
	c7.914-0.608,15.116-4.264,20.282-10.29c5.165-6.026,7.675-13.705,7.065-21.618c-0.32-4.173-0.386-13.051-0.198-22.984
	c4.194,0.169,8.54,0.256,13.056,0.256c2.771,0,5.477-0.034,8.126-0.097c-0.145,13.943,0.194,25.589,0.331,27.383
	c1.184,15.387,14.188,27.439,29.604,27.438c0.771,0,1.547-0.03,2.302-0.089c16.336-1.256,28.605-15.568,27.35-31.906
	c-0.444-5.78-0.393-20.041,0.085-33.406c0.98-0.427,1.935-0.87,2.875-1.323c43.433-1.984,98.521-8.057,142.969-36.435
	c7.358-4.697,10.292-13.356,7.3-21.544c-3.022-8.264-10.923-13.036-19.657-11.868c-35.592,4.75-69.786-1.836-92.408-17.639
	c-0.461-17.068-5.453-33.556-14.585-48.211c5.349-4.322,10.228-9.194,14.549-14.533c7.875,3.187,16.322,5.377,25.272,6.556
	c-1.556,1.085-3.156,2.115-4.835,3.033c-4.638,2.534-7.519,7.391-7.519,12.675c0,5.284,2.88,10.142,7.517,12.677
	c8.82,4.821,16.031,12.032,20.852,20.853c2.535,4.637,7.392,7.516,12.676,7.516c5.283,0,10.141-2.88,12.676-7.516c0,0,0,0,0-0.001
	c4.82-8.82,12.032-16.03,20.852-20.852c4.638-2.535,7.517-7.392,7.517-12.677c0-5.283-2.882-10.141-7.517-12.674
	c-3.495-1.91-6.723-4.209-9.664-6.82c3.753-1.424,6.765-4.251,8.416-7.988c1.884-4.266,1.678-9.041-0.565-13.103
	c-5.546-10.042-2.657-15.139-1.708-16.814c1.067-1.882,2.847-3.237,5.012-3.817c2.367-0.633,4.95-0.275,7.088,0.982
	c13.648,8.032,22.262,18.9,27.084,26.602c3.161,5.048,8.829,7.912,14.769,7.474c5.905-0.436,11.044-4.067,13.409-9.477
	C515.237,249.746,514.08,224.855,501.946,198.298z M138.804,391.742c-1.212,2.267-3.563,3.675-6.135,3.675
	c-1.141,0-2.237-0.277-3.259-0.822c-1.636-0.875-2.833-2.333-3.372-4.107c-0.538-1.774-0.353-3.651,0.521-5.286
	c3.014-5.639,6.721-10.431,10.259-14.298c0.445,6.693,1.247,13.296,2.663,19.645C139.253,390.945,139.017,391.344,138.804,391.742z
	 M377.279,77.929c13.545-7.403,24.615-18.477,32.018-32.02c0.074-0.137,0.273-0.501,0.845-0.501c0.57,0,0.769,0.363,0.844,0.501
	c7.404,13.545,18.477,24.616,32.02,32.02c0.137,0.075,0.5,0.273,0.5,0.844c0,0.571-0.363,0.769-0.501,0.844
	c-13.543,7.402-24.614,18.474-32.019,32.019c0,0,0,0,0,0.001c-0.075,0.137-0.273,0.5-0.844,0.5c-0.571,0-0.77-0.364-0.845-0.5
	c-7.402-13.544-18.474-24.616-32.019-32.02c-0.137-0.075-0.5-0.274-0.5-0.844C376.778,78.203,377.142,78.004,377.279,77.929z
	 M284.418,487.565c-0.376,0.029-0.762,0.044-1.147,0.044c-7.628,0.001-14.064-5.969-14.648-13.588
	c-0.09-1.214-0.446-12.845-0.277-26.993c11.031-0.872,20.835-2.423,29.5-4.677c-0.302,11.35-0.336,23.432,0.125,29.41
	C298.591,479.854,292.514,486.943,284.418,487.565z M353.872,365.92c25.209,14.096,59.455,19.673,94.608,14.983
	c2.317-0.315,3.244,1.214,3.586,2.15c0.396,1.085,0.496,2.617-1.284,3.754c-34.353,21.933-76.323,29.622-113.344,32.694
	C349.722,404.78,353.037,385.566,353.872,365.92z M289.849,305.888c-4.105,0.548-6.988,4.321-6.439,8.426
	c0.297,2.225,1.546,4.084,3.277,5.238c-0.689,0.033-1.38,0.094-2.072,0.192c-5.801,0.828-10.934,3.866-14.449,8.553
	c-5.377,7.166-13.207,11.612-16.159,13.289l-0.411,0.233c-2.59,1.478-4.812,3.426-6.604,5.788c-2.504,3.3-1.858,8.003,1.441,10.507
	c3.299,2.503,8.004,1.858,10.507-1.441c0.563-0.742,1.267-1.356,2.082-1.822l0.397-0.226c3.69-2.096,13.494-7.661,20.745-17.327
	c2.299-3.062,6.658-3.682,9.718-1.387c1.483,1.113,2.444,2.736,2.707,4.572c0.262,1.836-0.207,3.663-1.32,5.145
	c-8.984,11.976-21.03,18.816-25.002,21.072l-0.361,0.205c-0.509,0.291-1.049,0.516-1.604,0.669
	c-3.994,1.098-6.341,5.224-5.243,9.218c0.914,3.329,3.935,5.514,7.227,5.514c0.657,0,1.326-0.087,1.991-0.271
	c1.765-0.484,3.47-1.193,5.064-2.104l0.346-0.197c4.631-2.629,18.722-10.631,29.58-25.104c3.518-4.688,4.999-10.465,4.171-16.266
	c-0.827-5.801-3.865-10.934-8.553-14.449c-2.132-1.599-4.494-2.753-6.975-3.484c11.949-1.863,23.167-5.903,33.228-11.725
	c7.871,12.87,12.006,27.354,12.006,42.284c0,26.826-2.263,46.099-13.522,59.274c-3.791,4.436-8.609,8.186-14.531,11.285
	c-0.371,0.155-0.728,0.334-1.066,0.543c-1.934,0.965-3.983,1.863-6.147,2.695c-0.535,0.134-1.048,0.327-1.532,0.57
	c-10.921,3.945-24.682,6.298-41.638,7.154c-0.14,0.006-0.28,0.01-0.418,0.023c-4.771,0.233-9.793,0.35-15.075,0.35
	c-6.971,0-13.481-0.206-19.567-0.613c-0.186-0.02-0.371-0.04-0.561-0.046c-0.027-0.001-0.053,0.002-0.081,0.001
	c-16.758-1.168-30.204-3.915-40.705-8.346c-0.408-0.222-0.839-0.408-1.29-0.552c-7.64-3.404-13.658-7.744-18.205-13.065
	c-8.348-9.768-13.522-23.091-13.522-59.274c0-10.123,1.876-19.984,5.575-29.379h98.221c4.143,0,7.499-3.357,7.499-7.499
	c0-4.143-3.357-7.499-7.499-7.499H74.305c-32.703,0-59.307-26.605-59.307-59.307v-31.092c0-32.703,26.604-59.308,59.307-59.308
	h26.507c23.226,0,44.74-11.566,57.552-30.939c8.943-13.524,21.354-24.114,36.057-30.812c13.395,8.143,33.066,13.946,47.822,17.482
	c8.835,2.118,18.285,4.006,28.16,5.645c-9.34,0.749-16.715,8.574-16.715,18.104c0,4.143,3.357,7.499,7.499,7.499
	s7.499-3.357,7.499-7.499c0-1.753,1.427-3.18,3.18-3.18s3.18,1.427,3.18,3.18c0,4.143,3.357,7.499,7.499,7.499
	s7.499-3.357,7.499-7.499c0-7.543-4.621-14.026-11.178-16.772c12.635,1.871,25.865,3.338,39.356,4.347
	c2.968,0.222,5.398,2.44,5.913,5.393l0.755,4.364c5.423,31.409,12.787,74.051,35.221,100.18
	C356.055,270.9,326.969,300.93,289.849,305.888z M433.476,307.918c-10.658,6.031-19.43,14.803-25.46,25.462
	c-6.03-10.659-14.802-19.431-25.46-25.461c10.657-6.031,19.429-14.804,25.46-25.462
	C414.046,293.114,422.818,301.888,433.476,307.918z M491.642,266.275c-0.063,0.146-0.212,0.485-0.77,0.526
	c-0.629,0.049-0.874-0.347-0.955-0.476c-5.709-9.119-15.929-22-32.189-31.569c-5.578-3.284-12.351-4.212-18.574-2.544
	c-6.079,1.628-11.115,5.501-14.181,10.909c-3.626,6.395-6.291,17.012,1.538,31.303c-1.709,0.408-3.423,0.784-5.13,1.129
	c-0.227-0.391-0.474-0.767-0.691-1.164c-2.535-4.637-7.392-7.516-12.676-7.516c-5.283,0-10.141,2.88-12.676,7.516
	c-0.72,1.318-1.51,2.587-2.335,3.83c-10.928-0.21-21.046-1.996-30.234-5.291c7.072-12.3,11.529-26.252,12.578-41.077
	c0.148-2.084-0.582-4.137-2.012-5.659c-21.158-22.555-28.389-64.44-33.671-95.025l-0.759-4.385
	c-1.694-9.732-9.742-17.043-19.57-17.778c-53.291-3.987-101.454-15.417-119.846-28.443c-2.084-1.475-4.77-1.791-7.14-0.835
	c-15.618,6.298-29.22,16.24-39.86,29.039c-2.375-22.965,2.421-48.273,22.006-63.356c17.618-13.568,40.855-21.017,65.516-21.017
	c0.275,0,0.554,0.001,0.83,0.003c27.076,0.184,54.134,9.095,78.249,25.772l1.983,1.372c11.326,7.837,25.179,17.419,40.715,26.919
	c-0.002,0.105-0.011,0.209-0.011,0.314c0,5.838,3.183,11.204,8.305,14.005c11.021,6.023,20.029,15.032,26.052,26.053
	c2.802,5.123,8.168,8.305,14.007,8.305c5.837,0,11.204-3.184,14.004-8.305c1.432-2.62,3.038-5.122,4.794-7.502
	c22.738,7.982,44.725,12.132,65.445,12.336c-6.83,14.089-15.843,20.616-29.993,21.781c-3.784,0.311-7.063,2.815-8.354,6.379
	c-1.285,3.548-0.377,7.552,2.315,10.201C463.999,167.577,512.886,217.675,491.642,266.275z M109.317,177.465
	c-3.777,0-6.838,3.062-6.838,6.838c0,3.777,3.062,6.838,6.838,6.838s6.838-3.062,6.838-6.838
	C116.156,180.526,113.094,177.465,109.317,177.465z M199.881,119.507c-4.143,0-7.499,3.357-7.499,7.499v8.589
	c0,4.143,3.357,7.499,7.499,7.499s7.499-3.357,7.499-7.499v-8.589C207.38,122.864,204.023,119.507,199.881,119.507z M72.574,184.303
	c0-3.777-3.062-6.838-6.838-6.838s-6.838,3.062-6.838,6.838c0,3.777,3.062,6.838,6.838,6.838
	C69.514,191.141,72.574,188.08,72.574,184.303z M106.095,252.95c-3.121-2.723-7.859-2.397-10.58,0.726
	c-2.019,2.314-4.93,3.643-7.988,3.643c-3.06,0-5.97-1.327-7.987-3.643c-2.723-3.122-7.459-3.447-10.581-0.727
	c-3.122,2.722-3.448,7.458-0.726,10.581c4.865,5.583,11.899,8.786,19.295,8.786c7.395,0,14.427-3.202,19.294-8.786
	C109.542,260.408,109.217,255.671,106.095,252.95z"/>
<g>
</g>
<g>
</g>
<g>
</g>
<g>
</g>
<g>
</g>
<g>
</g>
<g>
</g>
<g>
</g>
<g>
</g>
<g>
</g>
<g>
</g>
<g>
</g>
<g>
</g>
<g>
</g>
<g>
</g>
</svg>
