<?xml version="1.0" encoding="iso-8859-1"?>
<!-- Generator: Adobe Illustrator 19.0.0, SVG Export Plug-In . SVG Version: 6.00 Build 0)  -->
<svg version="1.1" id="Capa_1" xmlns="http://www.w3.org/2000/svg" xmlns:xlink="http://www.w3.org/1999/xlink" x="0px" y="0px"
	 viewBox="0 0 512 512" style="enable-background:new 0 0 512 512;" xml:space="preserve">
<path style="fill:#498A68;" d="M139.238,387.596c-3.324,0-6.673-1.055-9.512-3.238c-6.844-5.258-8.128-15.071-2.869-21.914
	c10.898-14.182,25.127-22.051,29.802-24.638l0.385-0.213c7.544-4.194,17.059-1.471,21.25,6.077
	c4.19,7.546,1.469,17.059-6.077,21.249l-0.43,0.238c-3.613,1.998-13.211,7.307-20.145,16.33
	C148.563,385.494,143.926,387.596,139.238,387.596z"/>
<path style="fill:#5CB38E;" d="M273.308,420.109c72.932,0,156.862,0,218.306-39.228c10.514-6.713,4.433-22.925-7.931-21.275
	c-48.658,6.496-89.53-5.89-112.835-25.954L273.308,420.109z"/>
<path style="opacity:0.1;enable-background:new    ;" d="M398.358,350.204c-0.813,23.291-4.388,46.54-18.745,65.871
	c-35.554,4.034-72.136,4.034-106.305,4.034l97.539-86.457C378.317,340.083,387.6,345.719,398.358,350.204z"/>
<g>
	<path style="fill:#498A68;" d="M305.995,491.255c-9.348,0.001-18.237-5.484-22.132-14.627
		c-14.039-32.959-1.151-79.182,2.791-88.857c5.011-12.296,19.041-18.205,31.339-13.193c12.29,5.008,18.197,19.027,13.201,31.319
		c-2.819,7.173-9.288,37.337-3.09,51.886c5.204,12.217-0.481,26.339-12.698,31.543C312.333,490.635,309.137,491.255,305.995,491.255
		z"/>
	<path style="fill:#498A68;" d="M207.711,489.921c-11.627,0.001-21.853-8.459-23.725-20.305
		c-3.665-23.195,10.557-74.324,17.178-85.241c6.886-11.355,21.674-14.978,33.026-8.09c11.115,6.741,14.82,21.053,8.511,32.305
		c-4.231,9.33-12.456,44.524-11.214,53.542c2.073,13.116-6.882,25.418-19.998,27.492
		C210.22,489.824,208.957,489.921,207.711,489.921z M242.561,408.837c-0.092,0.159-0.185,0.317-0.281,0.474
		C242.365,409.172,242.462,409.014,242.561,408.837z"/>
</g>
<path style="opacity:0.1;enable-background:new    ;" d="M234.19,376.285c-11.352-6.888-26.14-3.265-33.026,8.09
	c-4.638,7.647-12.997,35.016-16.334,58.702c12.971,5.663,28.491,9.427,46.89,11.383c1.523-13.849,7.558-38.321,10.981-45.869
	C249.01,397.339,245.305,383.027,234.19,376.285z"/>
<path style="opacity:0.1;enable-background:new    ;" d="M331.195,405.896c4.996-12.292-0.911-26.311-13.201-31.319
	c-12.298-5.012-26.328,0.897-31.339,13.193c-3.16,7.754-12.052,38.981-8.237,68.044c18.154-0.681,33.947-2.765,47.587-6.334
	C323.947,433.906,328.84,411.887,331.195,405.896z"/>
<path style="fill:#5CB38E;" d="M154.992,335.277c0,56.132,7.624,96.748,109.773,96.748s109.773-40.616,109.773-96.748
	s-49.147-101.635-109.773-101.635C204.139,233.641,154.992,279.145,154.992,335.277z"/>
<path style="fill:#9BDFC1;" d="M154.992,335.277c0-0.447,0.012-0.892,0.018-1.338c22.864-5.868,68.215-7.574,99.775,25.965
	c22.998,24.441,26.326,50.815,23.859,71.849c-4.421,0.179-9.043,0.271-13.879,0.271
	C162.617,432.024,154.992,391.408,154.992,335.277z"/>
<path style="opacity:0.05;enable-background:new    ;" d="M285.605,235.479c50.659,9.015,88.934,50.265,88.934,99.798
	c0,51.975-6.55,90.642-88.613,96.084C331.489,385.114,322.677,289.625,285.605,235.479z"/>
<path style="fill:#5CB38E;" d="M164.005,87.267L164.005,87.267c18.745-28.347,50.462-45.398,84.446-45.398h41.775
	c59.392,0,107.538,48.147,107.538,107.538v49.442c0,53.304-43.211,96.514-96.514,96.514H79.801
	c-39.931,0-72.301-32.37-72.301-72.301v-33.65c0-39.931,32.37-72.301,72.301-72.301h28.687
	C130.83,117.112,151.681,105.902,164.005,87.267z"/>
<path style="fill:#495059;" d="M125.094,233.641c0-17.112-13.872-24.724-30.984-24.724s-30.984,7.612-30.984,24.724
	s13.872,30.984,30.984,30.984S125.094,250.753,125.094,233.641z"/>
<g style="opacity:0.1;">
	<circle cx="339.35" cy="222.35" r="7.401"/>
	<circle cx="286.73" cy="233.64" r="7.401"/>
	<circle cx="316.84" cy="258.89" r="7.401"/>
</g>
<g>
	<ellipse style="fill:#FFA8CB;" cx="315.98" cy="121.14" rx="18.654" ry="9.57"/>
	<ellipse style="fill:#FFA8CB;" cx="190.75" cy="121.14" rx="18.654" ry="9.57"/>
</g>
<path style="opacity:0.05;enable-background:new    ;" d="M314.116,44.537c47.893,10.865,83.648,53.69,83.648,104.871v49.442
	c0,53.303-43.211,96.515-96.514,96.515h-58.565C327.976,245.738,342.433,109.325,314.116,44.537z"/>
<path style="fill:#FAE17C;" d="M283.316,174.568l85.739-85.739c7.291-7.291,19.113-7.291,26.404,0l40.957,40.957
	c7.291,7.291,7.291,19.113,0,26.404l-85.739,85.739c-7.291,7.291-19.113,7.291-26.404,0l-40.957-40.957
	C276.024,193.681,276.024,181.859,283.316,174.568z"/>
<circle style="fill:#FFFFFF;" cx="406.95" cy="138.54" r="9.745"/>
<path style="fill:#495059;" d="M293.667,155.715l34.015-34.015c2.217-2.217,5.811-2.217,8.028,0l67.835,67.835
	c2.217,2.217,2.217,5.811,0,8.028l-34.015,34.015c-2.217,2.217-5.811,2.217-8.028,0l-67.835-67.835
	C291.45,161.526,291.45,157.932,293.667,155.715z"/>
<path style="fill:#498A68;" d="M259.948,371.756c-5.655,0-11.536-0.602-17.313-1.985c-8.394-2.01-13.57-10.444-11.56-18.837
	c2.009-8.394,10.442-13.576,18.838-11.56c9.018,2.157,21.206,0.781,24.386-1.263c7.259-4.667,16.93-2.565,21.597,4.695
	c4.668,7.261,2.566,16.93-4.695,21.598C284.698,368.584,272.924,371.756,259.948,371.756z"/>
<path d="M420.872,84.747c5.242,0,10.171,2.042,13.878,5.749c3.706,3.706,5.748,8.635,5.748,13.877c0,4.143,3.358,7.5,7.5,7.5
	s7.5-3.357,7.5-7.5c0-9.249-3.602-17.944-10.142-24.484s-15.235-10.142-24.484-10.142c-4.142,0-7.5,3.357-7.5,7.5
	C413.372,81.39,416.73,84.747,420.872,84.747z M420.872,56.503c12.811,0,24.838,4.973,33.868,14.002
	c9.029,9.03,14.003,21.059,14.003,33.868c0,4.143,3.358,7.5,7.5,7.5s7.5-3.357,7.5-7.5c0-16.816-6.533-32.61-18.396-44.475
	c-11.863-11.862-27.657-18.396-44.475-18.396c-4.142,0-7.5,3.358-7.5,7.5C413.372,53.146,416.73,56.503,420.872,56.503z
	 M214.414,85.368c-4.142,0-7.5,3.357-7.5,7.5v9.295c0,4.143,3.358,7.5,7.5,7.5s7.5-3.357,7.5-7.5v-9.295
	C221.914,88.726,218.556,85.368,214.414,85.368z M94.111,201.417c-23.378,0-38.484,12.648-38.484,32.225
	c0,21.22,17.264,38.483,38.484,38.483s38.483-17.264,38.483-38.483C132.594,214.065,117.489,201.417,94.111,201.417z
	 M94.111,257.125c-12.949,0-23.484-10.534-23.484-23.483c0-14.987,14.713-17.225,23.484-17.225s23.483,2.237,23.483,17.225
	C117.594,246.591,107.06,257.125,94.111,257.125z M482.69,352.173c-38.804,5.175-76.096-2.058-100.701-19.374
	c-0.447-18.648-5.927-36.661-15.989-52.628c22.185-17.767,36.729-44.281,38.946-73.401l3.901-3.901
	c3.269-3.269,4.449-7.841,3.558-12.06l29.314-29.314c4.943-4.943,7.666-11.515,7.666-18.506c0-6.99-2.722-13.561-7.666-18.506
	l-40.957-40.957c-5.965-5.965-14.116-8.436-21.898-7.427c-21.95-26.577-53.977-41.729-88.638-41.729h-41.775
	c-36.604,0-70.511,18.229-90.702,48.761c-10.966,16.582-29.38,26.482-49.26,26.482H79.801C35.799,109.612,0,145.411,0,189.413
	v33.649c0,44.003,35.799,79.802,79.801,79.802h72.951c-3.406,10.185-5.165,20.767-5.249,31.591
	c-10.799,6.633-19.735,14.494-26.593,23.419c-3.764,4.898-5.396,10.97-4.594,17.095c0.802,6.126,3.942,11.573,8.838,15.334
	c4.078,3.136,8.948,4.793,14.084,4.793c5.635,0,10.926-1.998,15.077-5.582c2.681,7.248,6.396,14.02,11.557,20.058
	c4.212,4.928,9.245,9.216,15.146,12.893c-1.805,8.067-3.198,15.888-4.058,22.88c-0.506,4.11,2.417,7.853,6.528,8.359
	c0.311,0.038,0.62,0.057,0.925,0.057c3.734,0,6.967-2.785,7.435-6.586c0.673-5.476,1.707-11.527,3.025-17.822
	c9.161,3.598,19.821,6.219,32.126,7.896c-1.805,8.715-3.738,20.116-2.94,25.907c0.007,0.05,0.014,0.099,0.021,0.147
	c1.423,9.004-4.75,17.488-13.752,18.911c-6.833,1.073-13.594-2.24-16.967-8.146c-2.054-3.597-6.636-4.847-10.231-2.795
	c-3.597,2.054-4.849,6.635-2.795,10.232c5.605,9.817,16.093,15.915,27.373,15.915h0.003c1.64,0,3.302-0.13,4.95-0.389
	c17.149-2.711,28.906-18.837,26.25-35.976c-0.332-2.617,0.65-10.815,3.095-22.285c7.119,0.501,14.694,0.753,22.76,0.753
	c1.768,0,3.506-0.015,5.227-0.039c-0.153,15.369,2.177,28.827,6.971,40.082c4.965,11.656,16.359,19.188,29.028,19.188h0.003
	c4.253,0,8.409-0.851,12.352-2.529c16.001-6.817,23.474-25.381,16.658-41.383c-2.146-5.038-2.576-14.061-1.254-25.142
	c2.557-0.976,5.002-2.024,7.332-3.15c46.948-2.136,106.529-8.679,154.568-39.348c7.715-4.926,10.79-14.003,7.652-22.587
	C500.134,355.95,491.85,350.949,482.69,352.173z M145.694,376.919c-1.551,2.019-3.904,3.177-6.456,3.177
	c-1.799,0-3.507-0.582-4.943-1.686c-1.721-1.322-2.824-3.236-3.106-5.389c-0.282-2.152,0.292-4.286,1.614-6.007
	c4.092-5.325,9.125-10.225,15.019-14.658c0.311,6.712,0.902,13.368,1.993,19.83C148.32,373.731,146.931,375.31,145.694,376.919z
	 M348.354,207.824l10.386-15.417c2.315-3.436,1.405-8.097-2.03-10.41c-3.435-2.316-8.097-1.406-10.411,2.029l-8.752,12.991
	L300.26,159.73l31.435-31.436l65.257,65.256l-31.436,31.436L348.354,207.824z M350.658,231.342l-5.284,5.284
	c-4.355,4.354-11.442,4.356-15.798,0l-0.373-0.373l10.613-15.754L350.658,231.342z M329.009,209.692l-10.613,15.754l-29.777-29.777
	c-2.11-2.109-3.272-4.915-3.272-7.898s1.162-5.789,3.272-7.898l5.285-5.285L329.009,209.692z M374.358,94.133
	c1.18-1.18,2.564-2.029,4.036-2.57c0.057-0.02,0.113-0.038,0.17-0.059c3.924-1.369,8.462-0.501,11.592,2.629l40.956,40.956
	c2.11,2.11,3.273,4.916,3.273,7.899c0,2.984-1.162,5.789-3.272,7.898l-27.805,27.806l-56.755-56.755L374.358,94.133z
	 M79.801,287.864C44.07,287.864,15,258.794,15,223.063v-33.649c0-35.732,29.07-64.801,64.801-64.801h28.688
	c24.929,0,48.021-12.415,61.772-33.209c17.405-26.32,46.635-42.034,78.19-42.034h41.775c28.794,0,55.502,12.024,74.477,33.252
	c-0.323,0.292-0.64,0.593-0.951,0.904l-29.315,29.315c-4.218-0.891-8.789,0.289-12.058,3.558l-34.015,34.015
	c-3.269,3.269-4.449,7.841-3.558,12.059l-6.793,6.793c-4.943,4.943-7.665,11.516-7.665,18.506c0,6.99,2.723,13.563,7.665,18.506
	l31.845,31.845l-33.511,49.743H79.801V287.864z M312.469,482.426c-2.072,0.882-4.25,1.329-6.475,1.329
	c-6.647,0.001-12.625-3.95-15.23-10.066c-4.051-9.51-5.98-21.181-5.767-34.754c12.43-0.76,23.482-2.267,33.252-4.553
	c-0.615,9.111-0.192,18.947,2.956,26.34C324.779,469.113,320.86,478.851,312.469,482.426z M336.288,412.213
	c-0.376,0.156-0.737,0.338-1.078,0.551c-3.015,1.506-6.277,2.866-9.806,4.076c-0.566,0.118-1.114,0.294-1.63,0.534
	c-12.23,3.95-27.48,6.223-46.117,6.918c-0.125,0.002-0.249,0.008-0.373,0.016c-4.016,0.145-8.185,0.218-12.518,0.218
	c-9.933,0-19.023-0.378-27.317-1.145c-0.419-0.076-0.837-0.12-1.251-0.125c-17.83-1.752-31.91-5.344-42.678-10.899
	c-0.298-0.184-0.613-0.344-0.941-0.486c-6.207-3.328-11.281-7.333-15.305-12.042c-12.31-14.403-14.782-35.378-14.782-64.551
	c0-11.175,2.094-22.056,6.229-32.412h97.521l-19.256,28.584c-4.478-0.148-8.904,1.011-12.81,3.41
	c-5.264,3.232-8.955,8.321-10.394,14.328c-1.438,6.008-0.452,12.217,2.78,17.482c3.231,5.265,8.319,8.957,14.327,10.396
	c6.072,1.454,12.484,2.191,19.06,2.191c13.581,0,27.111-3.273,35.311-8.545c1.589-1.022,3.048-2.234,4.336-3.6
	c2.84-3.015,2.698-7.762-0.317-10.602c-3.016-2.842-7.762-2.699-10.602,0.316c-0.452,0.479-0.967,0.907-1.53,1.27
	c-4.77,3.066-15.031,6.161-27.197,6.161c-5.4,0-10.637-0.599-15.566-1.779c-2.112-0.506-3.9-1.803-5.036-3.653
	c-1.135-1.851-1.482-4.032-0.977-6.144c0.506-2.113,1.803-3.902,3.654-5.038c1.848-1.136,4.027-1.482,6.145-0.975
	c9.997,2.39,24.667,1.3,30.185-2.247c0.825-0.53,1.718-0.902,2.655-1.106c4.047-0.883,6.613-4.879,5.73-8.926
	c-0.882-4.047-4.877-6.609-8.925-5.73c-2.628,0.573-5.12,1.596-7.409,3.042c-0.97,0.421-3.316,0.876-6.249,1.109l20.173-29.944
	h13.904c4.142,0,7.5-3.357,7.5-7.5s-3.358-7.5-7.5-7.5h-3.799l26.295-39.032c4.834,4.032,10.789,6.053,16.747,6.053
	c6.702,0,13.403-2.551,18.505-7.652l6.794-6.794c0.903,0.191,1.822,0.295,2.741,0.295c3.374,0,6.749-1.284,9.317-3.853
	l11.277-11.276c-8.546,26.89-29.669,48.89-57.208,57.882c-3.938,1.286-6.087,5.521-4.802,9.458c1.033,3.164,3.97,5.174,7.128,5.174
	c0.772,0,1.556-0.12,2.329-0.372c7.088-2.314,13.802-5.38,20.086-9.068c8.783,14.152,13.396,30.125,13.396,46.597
	c0,29.173-2.473,50.147-14.782,64.551C348.091,404.701,342.795,408.818,336.288,412.213z M487.578,374.56
	c-37.757,24.106-83.942,32.355-124.444,35.603c0.174-0.198,0.355-0.39,0.526-0.591c13.768-16.11,17.294-37.422,18.134-59.164
	c27.246,15.554,64.559,21.751,102.882,16.632c3.05-0.408,4.19,1.77,4.54,2.726C489.629,370.9,489.969,373.033,487.578,374.56z
	 M292.318,109.663c4.142,0,7.5-3.357,7.5-7.5v-9.295c0-4.143-3.358-7.5-7.5-7.5s-7.5,3.357-7.5,7.5v9.295
	C284.818,106.306,288.176,109.663,292.318,109.663z M485.337,39.908c-17.193-17.193-40.088-26.663-64.465-26.663
	c-4.142,0-7.5,3.357-7.5,7.5s3.358,7.5,7.5,7.5c20.371,0,39.498,7.909,53.858,22.27C489.091,64.876,497,84.003,497,104.373
	c0,4.143,3.358,7.5,7.5,7.5s7.5-3.357,7.5-7.5C512,79.996,502.531,57.103,485.337,39.908z M117.693,162.279
	c4.087,0,7.401-3.313,7.401-7.401s-3.313-7.401-7.401-7.401c-4.087,0-7.401,3.313-7.401,7.401S113.606,162.279,117.693,162.279z
	 M70.528,162.279c4.087,0,7.401-3.313,7.401-7.401s-3.313-7.401-7.401-7.401s-7.401,3.313-7.401,7.401S66.44,162.279,70.528,162.279
	z"/>
<g>
</g>
<g>
</g>
<g>
</g>
<g>
</g>
<g>
</g>
<g>
</g>
<g>
</g>
<g>
</g>
<g>
</g>
<g>
</g>
<g>
</g>
<g>
</g>
<g>
</g>
<g>
</g>
<g>
</g>
</svg>
