<?xml version="1.0" encoding="iso-8859-1"?>
<!-- Generator: Adobe Illustrator 19.0.0, SVG Export Plug-In . SVG Version: 6.00 Build 0)  -->
<svg version="1.1" id="Capa_1" xmlns="http://www.w3.org/2000/svg" xmlns:xlink="http://www.w3.org/1999/xlink" x="0px" y="0px"
	 viewBox="0 0 511.996 511.996" style="enable-background:new 0 0 511.996 511.996;" xml:space="preserve">
<circle style="fill:#DEE2E5;" cx="88.36" cy="124.888" r="80.86"/>
<path style="fill:#FF85B6;" d="M88.359,44.034c-33.637,0-62.469,20.544-74.655,49.765h47.851
	C65.947,77.718,74.179,60.257,88.359,44.034z"/>
<path style="fill:#80B0E3;" d="M163.014,93.799c-12.185-29.221-41.017-49.765-74.655-49.765
	c14.179,16.223,22.412,33.684,26.803,49.765H163.014z"/>
<path style="fill:#FFFFFF;" d="M57.265,124.893c0,9.058,1.188,19.733,4.29,31.094h53.607c3.102-11.361,4.291-22.036,4.291-31.094
	c0-9.058-1.188-19.732-4.291-31.094H61.556C58.453,105.161,57.265,115.835,57.265,124.893z"/>
<path style="fill:#5CB38E;" d="M57.265,124.893c0-9.058,1.188-19.732,4.29-31.094h-47.85C9.712,103.373,7.5,113.873,7.5,124.893
	s2.212,21.521,6.204,31.094h47.851C58.453,144.626,57.265,133.952,57.265,124.893z"/>
<path style="fill:#8783D2;" d="M13.705,155.987c12.185,29.221,41.017,49.765,74.655,49.765
	c-14.18-16.223-22.412-33.684-26.803-49.765H13.705z"/>
<path style="fill:#A3E3FF;" d="M163.014,93.799h-47.851c3.102,11.361,4.291,22.036,4.291,31.094s-1.188,19.733-4.291,31.094h47.851
	c3.992-9.573,6.204-20.074,6.204-31.094S167.006,103.373,163.014,93.799z"/>
<path style="fill:#FAE17C;" d="M61.556,155.987c4.391,16.081,12.624,33.542,26.803,49.765
	c14.179-16.223,22.412-33.684,26.803-49.765H61.556z"/>
<path style="fill:#498A68;" d="M345.115,400.191c-6.272,0-12.038-4.134-13.833-10.467c-2.166-7.644,2.275-15.596,9.919-17.762
	l0.437-0.123c3.659-1.03,13.377-3.766,21.489-10.391c6.155-5.026,15.216-4.11,20.241,2.043c5.025,6.154,4.11,15.216-2.043,20.241
	c-12.75,10.412-27.156,14.467-31.889,15.801l-0.391,0.11C347.734,400.014,346.413,400.191,345.115,400.191z"/>
<path style="fill:#5CB38E;" d="M239.928,433.454c-66.81-6.561-143.695-14.112-196.452-55.575c-9.028-7.095-1.999-21.4,9.18-18.775
	c43.989,10.328,82.544,2.659,105.699-13.624L239.928,433.454z"/>
<path style="opacity:0.1;enable-background:new    ;" d="M131.663,358.167c-1.351,21.409-0.167,43.028,11.246,62.028
	c32.206,6.894,65.718,10.185,97.018,13.259l-81.574-87.974C150.932,350.699,141.921,355.027,131.663,358.167z"/>
<g>
	<path style="fill:#498A68;" d="M209.018,496.744c-4.734,0-9.502-1.511-13.534-4.634c-9.665-7.483-11.433-21.383-3.95-31.048
		c8.75-11.3,4.542-30.775,0.207-34.574c-9.192-8.056-10.113-22.039-2.055-31.231c8.056-9.192,22.038-10.11,31.23-2.055
		c21.803,19.11,29.004,64.753,5.615,94.959C222.172,493.793,215.63,496.744,209.018,496.744z"/>
	<path style="fill:#498A68;" d="M313.278,486.506c-12.223,0-22.131-9.908-22.131-22.131c0-11.817-10.384-30.805-15.557-35.327
		c-10.207-5.838-14.109-18.733-8.688-29.302c5.576-10.876,18.911-15.174,29.792-9.593c19.177,9.835,38.716,47.293,38.716,74.222
		C335.409,476.597,325.501,486.506,313.278,486.506z M276.48,429.531c0.005,0.003,0.01,0.005,0.014,0.007
		C276.49,429.535,276.486,429.533,276.48,429.531z"/>
</g>
<path style="opacity:0.1;enable-background:new    ;" d="M296.693,390.153c-10.881-5.581-24.216-1.283-29.792,9.593
	c-5.42,10.569-1.518,23.464,8.688,29.302c5.173,4.522,15.557,23.51,15.557,35.327c0,1.191,0.121,2.351,0.302,3.491
	c17.147-1.631,31.529-5.711,43.322-12.311C331.285,429.857,313.85,398.952,296.693,390.153z"/>
<path style="opacity:0.1;enable-background:new    ;" d="M220.917,393.202c-9.192-8.054-23.174-7.137-31.23,2.055
	c-8.057,9.192-7.137,23.175,2.055,31.231c3.884,3.405,7.659,19.394,2.107,30.811c12.501,4.125,27.056,7.138,43.848,9.12
	C246.041,439.147,237.921,408.106,220.917,393.202z"/>
<path style="fill:#5CB38E;" d="M355.943,366.387c-5.05,51.42-15.688,87.94-109.262,78.751s-96.905-47.082-91.855-98.502
	c5.05-51.42,54.165-88.682,109.702-83.228S360.993,314.967,355.943,366.387z"/>
<path style="fill:#9BDFC1;" d="M355.943,366.387c0.04-0.41,0.069-0.818,0.104-1.227c-20.417-7.432-61.808-13.075-93.735,14.81
	c-23.266,20.32-28.687,44.181-28.32,63.672c4.034,0.562,8.259,1.062,12.689,1.497C340.255,454.327,350.893,417.807,355.943,366.387z
	"/>
<path style="opacity:0.05;enable-background:new    ;" d="M245.272,263.216c-47.217,3.701-85.99,38.045-90.446,83.42
	c-4.676,47.612-2.154,83.622,72.531,95.99C189.778,396.162,206.441,309.482,245.272,263.216z"/>
<path style="fill:#5CB38E;" d="M369.999,138.385L369.999,138.385c-14.621-27.654-42.142-46.127-73.273-49.184l-38.268-3.758
	c-54.406-5.343-102.843,34.431-108.186,88.837l-4.448,45.292c-4.795,48.829,30.901,92.3,79.73,97.095l202.859,19.922
	c36.579,3.592,69.144-23.149,72.737-59.728l3.027-30.825c3.592-36.579-23.149-69.144-59.728-72.736l-26.279-2.581
	C397.703,168.709,379.611,156.565,369.999,138.385z"/>
<g style="opacity:0.1;">
	<circle cx="197.22" cy="246.358" r="6.812"/>
	<circle cx="244.4" cy="261.428" r="6.812"/>
	<circle cx="214.55" cy="281.848" r="6.812"/>
</g>
<g>
	
		<ellipse transform="matrix(0.0977 -0.9952 0.9952 0.0977 41.5682 355.1235)" style="fill:#FFA8CB;" cx="216.631" cy="154.637" rx="8.809" ry="17.17"/>
	
		<ellipse transform="matrix(-0.0977 0.9952 -0.9952 -0.0977 528.861 -147.6236)" style="fill:#FFA8CB;" cx="331.351" cy="165.93" rx="8.809" ry="17.17"/>
</g>
<path style="opacity:0.05;enable-background:new    ;" d="M236.332,85.737c-44.85,5.644-81.456,41.658-86.061,88.542l-4.448,45.292
	c-4.795,48.829,30.901,92.3,79.73,97.096l53.649,5.269C205.535,268.802,204.564,142.539,236.332,85.737z"/>
<path style="fill:#498A68;" d="M268.489,402.6c-4.099,0-8.167-1.742-11.014-5.123c-6.749-8.018-15.799-12.508-19.205-14.198
	l-0.407-0.202c-7.112-3.543-10.005-12.18-6.461-19.291c3.542-7.112,12.181-10.002,19.29-6.462l0.363,0.181
	c4.409,2.187,17.825,8.842,28.432,21.445c5.116,6.078,4.336,15.153-1.743,20.269C275.047,401.49,271.759,402.6,268.489,402.6z"/>
<path style="fill:#FAE17C;" d="M79.489,318.22L79.489,318.22c-2.804,5.13-10.172,5.13-12.976,0l0,0
	c-5.855-10.712-14.662-19.518-25.373-25.373l0,0c-5.13-2.804-5.13-10.172,0-12.976l0,0c10.712-5.855,19.518-14.662,25.373-25.373
	l0,0c2.804-5.13,10.172-5.13,12.976,0l0,0c5.855,10.712,14.662,19.518,25.373,25.373l0,0c5.13,2.804,5.13,10.172,0,12.976l0,0
	C94.15,298.702,85.344,307.508,79.489,318.22z"/>
<path style="fill:#80B0E3;" d="M426.665,122.036L426.665,122.036c-3.158,5.778-11.456,5.778-14.614,0l0,0
	c-6.595-12.064-16.513-21.982-28.577-28.577l0,0c-5.778-3.158-5.778-11.456,0-14.614l0,0c12.064-6.595,21.982-16.513,28.577-28.577
	l0,0c3.158-5.778,11.456-5.778,14.614,0l0,0c6.595,12.064,16.513,21.982,28.577,28.577l0,0c5.778,3.158,5.778,11.456,0,14.614l0,0
	C443.177,100.054,433.259,109.972,426.665,122.036z"/>
<path style="fill:#8783D2;" d="M424.746,445.913L424.746,445.913c-2.38,4.354-8.633,4.354-11.013,0l0,0
	c-4.969-9.091-12.443-16.565-21.534-21.534l0,0c-4.354-2.38-4.354-8.633,0-11.013l0,0c9.091-4.969,16.565-12.443,21.534-21.534l0,0
	c2.38-4.354,8.633-4.354,11.013,0l0,0c4.969,9.091,12.443,16.565,21.534,21.534l0,0c4.354,2.38,4.354,8.633,0,11.013l0,0
	C437.19,429.348,429.716,436.822,424.746,445.913z"/>
<path d="M108.46,299.428c4.78-2.613,7.75-7.621,7.75-13.069s-2.97-10.456-7.751-13.069c-9.47-5.176-17.213-12.919-22.39-22.389
	c-2.612-4.781-7.62-7.75-13.067-7.751c-0.001,0,0,0-0.001,0c-5.447,0-10.456,2.97-13.069,7.75
	c-5.178,9.471-12.92,17.214-22.389,22.39c-4.78,2.613-7.751,7.62-7.751,13.068s2.97,10.456,7.75,13.069
	c9.471,5.177,17.213,12.919,22.39,22.39c2.614,4.781,7.622,7.75,13.07,7.75c5.447,0,10.455-2.97,13.067-7.751v0.001
	C91.246,312.347,98.988,304.605,108.46,299.428z M73,314.453c-6.521-11.854-16.22-21.557-28.093-28.095
	c11.852-6.52,21.555-16.219,28.094-28.092c6.521,11.852,16.221,21.555,28.093,28.093C89.233,292.885,79.525,302.592,73,314.453z
	 M449.878,406.784c-7.847-4.289-14.261-10.704-18.551-18.551c-2.417-4.421-7.049-7.167-12.088-7.167s-9.67,2.747-12.087,7.168
	c-4.288,7.846-10.703,14.261-18.551,18.55c-4.421,2.417-7.168,7.049-7.168,12.087s2.747,9.67,7.168,12.087
	c7.848,4.29,14.263,10.704,18.551,18.55c2.417,4.421,7.049,7.169,12.087,7.169c5.039,0,9.671-2.747,12.088-7.169v0.001
	c4.29-7.848,10.705-14.262,18.552-18.551c4.421-2.417,7.168-7.049,7.168-12.087S454.3,409.201,449.878,406.784z M419.24,440.429
	c-5.272-8.892-12.665-16.284-21.557-21.557c8.893-5.273,16.284-12.665,21.556-21.557c5.274,8.892,12.666,16.285,21.558,21.557
	C431.905,424.144,424.514,431.536,419.24,440.429z M379.876,100.04c10.826,5.917,19.676,14.768,25.594,25.593
	c2.777,5.08,8.099,8.236,13.889,8.236c5.789,0,11.11-3.156,13.888-8.236v0.001c5.918-10.826,14.768-19.676,25.592-25.593
	c5.081-2.777,8.237-8.098,8.237-13.888s-3.156-11.111-8.236-13.888c-10.825-5.918-19.676-14.768-25.593-25.594
	c-2.777-5.08-8.099-8.235-13.888-8.235c-5.79,0-11.111,3.156-13.889,8.236c-5.918,10.826-14.768,19.676-25.594,25.593
	c-5.08,2.777-8.235,8.099-8.235,13.888C371.641,91.942,374.796,97.263,379.876,100.04z M387.071,85.427
	c13.35-7.297,24.263-18.211,31.561-31.561c0.07-0.129,0.235-0.431,0.727-0.431c0.49,0,0.655,0.302,0.726,0.43
	c7.297,13.35,18.21,24.263,31.56,31.561c0.129,0.07,0.431,0.235,0.431,0.726c0,0.49-0.302,0.655-0.432,0.726
	c-13.349,7.298-24.262,18.211-31.56,31.56c0,0.001,0,0.001,0,0.001c-0.07,0.129-0.235,0.431-0.726,0.431
	c-0.491,0-0.656-0.302-0.727-0.431c-7.298-13.349-18.211-24.263-31.561-31.56c-0.129-0.07-0.431-0.235-0.431-0.726
	C386.641,85.662,386.942,85.497,387.071,85.427z M450.212,201.95c-3.744-0.368-7.078,2.369-7.446,6.114
	c-0.368,3.744,2.37,7.078,6.114,7.445c3.744,0.368,7.078-2.369,7.445-6.114C456.694,205.651,453.956,202.318,450.212,201.95z
	 M445.183,165.835l-26.279-2.581c-18.012-1.768-33.815-12.376-42.275-28.376c-15.842-29.964-45.438-49.83-79.169-53.142
	l-38.269-3.758c-32.228-3.164-62.55,8.455-84.236,29.309c-1.122-5.525-2.764-10.862-4.867-15.963
	c-0.085-0.243-0.182-0.481-0.291-0.712C157.31,61.06,129.19,39.67,95.86,36.855V15.25c0-4.142-3.357-7.5-7.5-7.5s-7.5,3.358-7.5,7.5
	v21.614c-8.694,0.729-17.172,2.711-25.284,5.953c-3.846,1.538-5.718,5.902-4.18,9.748c1.537,3.847,5.902,5.716,9.748,4.181
	c3.464-1.385,7.011-2.483,10.621-3.318c-6.778,10.2-12.06,21.195-15.793,32.871H25.971c2.82-4.542,6.139-8.815,9.964-12.722
	c2.897-2.96,2.848-7.708-0.112-10.606c-2.961-2.898-7.71-2.847-10.606,0.113C8.955,79.694,0,101.645,0,124.893
	c0,11.88,2.362,23.216,6.632,33.573c0.085,0.241,0.181,0.475,0.288,0.704c13.412,31.745,44.864,54.081,81.435,54.082h0.001h0.003
	c0.001,0,0.001,0,0.002,0c0,0,0,0,0.001,0s0.001,0,0.001,0c18.986-0.001,37.212-6.089,52.225-17.111l-2.229,22.698
	c-2.258,22.989,3.82,46.034,17.112,64.891c3.376,4.79,7.168,9.228,11.301,13.284c-10.45,13.624-16.988,29.461-19.105,46.309
	c-23.959,13.455-58.49,16.653-93.297,8.481c-8.563-2.011-16.87,1.955-20.676,9.867c-3.771,7.839-1.703,16.723,5.146,22.107
	c41.309,32.465,95.331,43.85,138.199,50.046c3.605,2.194,7.556,4.202,11.855,6.033c0.721,5.74,0,12.366-3.29,16.615
	c-4.847,6.258-6.965,14.029-5.967,21.88c0.999,7.852,4.996,14.845,11.254,19.69c5.242,4.059,11.51,6.204,18.126,6.204
	c9.244,0,17.789-4.188,23.443-11.491c8.759-11.312,14.06-25,15.568-39.958c9.046,0.835,17.457,1.261,25.262,1.261
	c2.764,0,5.425-0.072,8.039-0.178c1.487,4.14,2.315,7.827,2.315,10.496c0,16.339,13.293,29.631,29.632,29.631
	s29.631-13.292,29.631-29.631c0-8.672-1.798-18.49-5.217-28.662c0.681-0.596,1.364-1.19,2.014-1.815
	c8.292-7.972,13.505-17.886,16.955-28.729c11.349-3.715,21.235-8.953,29.407-15.627c9.346-7.632,10.741-21.446,3.108-30.794
	c-6.281-7.692-16.746-9.984-25.467-6.303c-0.283-5-0.965-9.963-2.043-14.873l66.012,6.483c2.451,0.241,4.881,0.358,7.293,0.358
	c37.6,0,69.891-28.631,73.641-66.817l3.027-30.825C515.631,206.133,485.817,169.826,445.183,165.835z M150.708,86.299h-29.96
	c-3.729-11.665-9.005-22.651-15.775-32.844C124.213,57.929,140.57,69.982,150.708,86.299z M88.359,55.94
	c7.034,9.341,12.577,19.497,16.548,30.359H71.811C75.782,75.437,81.325,65.281,88.359,55.94z M67.443,101.299h41.831
	c1.749,7.916,2.679,15.972,2.679,23.594s-0.93,15.678-2.679,23.594H67.443c-1.748-7.914-2.677-15.97-2.677-23.594
	C64.766,117.27,65.695,109.214,67.443,101.299z M15,124.893c0-8.142,1.338-16.087,3.881-23.594h33.243
	c-1.542,7.929-2.359,15.942-2.359,23.594s0.816,15.665,2.359,23.594H18.915C16.39,141.077,15,133.147,15,124.893z M26.01,163.487
	h29.961c3.73,11.666,9.006,22.652,15.776,32.845C52.505,191.858,36.148,179.805,26.01,163.487z M88.359,193.846
	c-7.034-9.34-12.577-19.497-16.548-30.359h33.096C100.937,174.349,95.394,184.506,88.359,193.846z M142.808,173.547l-0.049,0.495
	c-10.138,11.216-23.329,18.929-37.787,22.291c6.77-10.193,12.046-21.179,15.776-32.845h23.537
	C143.642,166.784,143.142,170.137,142.808,173.547z M124.594,148.487c1.543-7.93,2.359-15.943,2.359-23.594
	c0-7.651-0.816-15.664-2.359-23.594h33.208c2.306,6.769,3.646,13.976,3.862,21.463c-5.521,7.833-10.021,16.466-13.291,25.725
	H124.594z M48.11,371.983c-1.639-1.288-1.394-2.783-0.9-3.811c0.427-0.887,1.479-2.295,3.73-1.767
	c34.38,8.072,68.863,5.881,95.229-5.625c-1.079,19.524,0.338,38.859,11.046,54.633C120.834,408.761,80.01,397.053,48.11,371.983z
	 M220.602,483.57c-2.793,3.606-7.015,5.675-11.584,5.675c-3.262,0-6.354-1.06-8.942-3.064c-3.091-2.393-5.064-5.845-5.557-9.722
	c-0.493-3.877,0.553-7.714,2.945-10.804c4.622-5.969,6.464-13.404,6.66-20.469c8.592,2.452,18.237,4.413,29.006,5.907
	C232.178,460.736,229.038,472.675,220.602,483.57z M313.278,479.006c-8.068,0-14.632-6.563-14.632-14.631
	c0-3.87-0.827-7.987-1.973-11.845c10.832-1.535,20.125-4.237,28.003-8.159c2.095,7.195,3.233,14.098,3.233,20.004
	C327.909,472.442,321.346,479.006,313.278,479.006z M363.04,370.733c1.72-1.099,3.34-2.259,4.83-3.476
	c2.941-2.402,7.288-1.962,9.69,0.977c2.401,2.941,1.962,7.288-0.979,9.689c-4.57,3.732-9.851,6.933-15.762,9.591
	C361.76,381.976,362.452,376.345,363.04,370.733z M496.713,245.304l-3.027,30.825c-3.183,32.404-32.128,56.182-64.539,52.996
	l-182.459-17.918c-4.128-0.408-7.793,2.609-8.197,6.731c-0.405,4.122,2.608,7.792,6.73,8.197l100.597,9.879
	c2.738,9.628,3.638,19.538,2.671,29.528c-0.001,0.011-0.004,0.021-0.005,0.031l-0.011,0.137
	c-2.612,26.559-6.731,45.423-19.163,57.374c-9.283,8.924-23.222,14.038-42.787,15.531c-0.524-0.017-1.052,0.021-1.579,0.117
	c-10.789,0.705-23.244,0.344-37.531-1.058c-1.886-0.185-3.724-0.386-5.541-0.595c-0.036-0.004-0.072-0.009-0.108-0.012
	c-17.298-1.991-31.472-5.046-42.818-9.282c-0.518-0.268-1.066-0.48-1.637-0.621c-4.904-1.927-9.252-4.088-13.079-6.49
	c-0.32-0.246-0.664-0.462-1.024-0.655c-5.561-3.645-9.965-7.827-13.287-12.587c-7.321-10.492-11.151-24.199-7.63-60.063
	c1.452-14.785,6.953-28.727,15.994-40.709c9.513,6.798,20.232,11.871,31.675,14.836c4.015,1.041,8.104-1.37,9.142-5.379
	c1.039-4.01-1.368-8.102-5.378-9.142c-18.55-4.807-34.884-16.132-45.991-31.889c-11.22-15.917-16.35-35.373-14.444-54.783
	l4.148-42.239c0.002-0.014,0.003-0.029,0.004-0.043l0.296-3.01c0.507-5.166,1.461-10.215,2.789-15.127
	c0.669-1.096,1.066-2.373,1.094-3.744c2.991-9.437,7.474-18.282,13.32-26.24c0.191-0.225,0.365-0.464,0.528-0.711
	c4.376-5.836,9.477-11.191,15.258-15.939c18.887-15.508,42.684-22.735,66.999-20.344l38.269,3.758
	c28.706,2.819,53.894,19.726,67.376,45.226c10.819,20.463,31.031,34.031,54.068,36.293l26.279,2.581
	C476.12,183.946,499.895,212.899,496.713,245.304z M429.088,276.141c-2.219,2.094-5.227,3.121-8.25,2.826
	c-3.025-0.297-5.775-1.893-7.545-4.377c-2.402-3.373-7.086-4.16-10.46-1.757s-4.16,7.087-1.757,10.46
	c4.286,6.017,10.954,9.881,18.295,10.602c0.833,0.082,1.665,0.122,2.493,0.122c6.477,0,12.749-2.47,17.515-6.962
	c3.014-2.842,3.153-7.588,0.311-10.602C436.849,273.439,432.103,273.301,429.088,276.141z M313.534,124.508
	c-12.062-1.191-22.862,7.673-24.048,19.747c-0.405,4.123,2.608,7.792,6.73,8.197c4.12,0.415,7.793-2.608,8.197-6.73
	c0.378-3.844,3.802-6.664,7.654-6.286c3.843,0.378,6.663,3.812,6.286,7.655c-0.405,4.122,2.609,7.792,6.731,8.197
	c0.249,0.024,0.496,0.036,0.741,0.036c3.813,0,7.075-2.895,7.455-6.768C334.467,136.482,325.608,125.694,313.534,124.508z
	 M242.17,117.499c-5.846-0.57-11.571,1.163-16.113,4.894c-4.543,3.73-7.361,9.005-7.934,14.855
	c-0.405,4.122,2.609,7.792,6.731,8.197c4.127,0.407,7.792-2.61,8.196-6.732c0.183-1.861,1.08-3.54,2.525-4.728
	c1.446-1.187,3.27-1.734,5.129-1.558c1.862,0.183,3.541,1.08,4.727,2.526c1.188,1.445,1.74,3.267,1.558,5.128
	c-0.405,4.122,2.608,7.792,6.73,8.197c0.249,0.025,0.497,0.037,0.742,0.037c3.813,0,7.075-2.894,7.455-6.767
	c0.575-5.849-1.163-11.572-4.893-16.114C253.295,120.892,248.02,118.074,242.17,117.499z M228.42,373.625
	c-3.188,2.646-3.627,7.374-0.981,10.562c1.949,2.348,4.33,4.233,7.096,5.611l0.406,0.201c3.024,1.5,11.056,5.487,16.797,12.308
	c4.169,4.952,10.274,7.793,16.752,7.793c5.144,0,10.146-1.826,14.084-5.142c4.473-3.764,7.212-9.045,7.713-14.869
	c0.501-5.825-1.296-11.496-5.061-15.968c-11.614-13.799-26.084-20.976-30.838-23.334c-3.715-1.841-8.211-0.324-10.052,3.386
	s-0.324,8.211,3.386,10.051c4.063,2.015,16.425,8.147,26.027,19.556c1.185,1.407,1.75,3.191,1.593,5.023
	c-0.158,1.832-1.02,3.493-2.428,4.678c-1.588,1.337-3.283,1.618-4.425,1.618c-2.041,0-3.965-0.894-5.276-2.452
	c-7.751-9.21-17.815-14.205-21.614-16.09l-0.391-0.193c-0.869-0.433-1.618-1.024-2.227-1.758
	C236.337,371.421,231.608,370.981,228.42,373.625z M405.674,211.266c3.744,0.368,7.078-2.369,7.445-6.114
	c0.368-3.744-2.37-7.078-6.114-7.445c-3.744-0.368-7.078,2.369-7.445,6.114C399.193,207.565,401.93,210.899,405.674,211.266z"/>
<g>
</g>
<g>
</g>
<g>
</g>
<g>
</g>
<g>
</g>
<g>
</g>
<g>
</g>
<g>
</g>
<g>
</g>
<g>
</g>
<g>
</g>
<g>
</g>
<g>
</g>
<g>
</g>
<g>
</g>
</svg>
