<?xml version="1.0" encoding="iso-8859-1"?>
<!-- Generator: Adobe Illustrator 19.0.0, SVG Export Plug-In . SVG Version: 6.00 Build 0)  -->
<svg version="1.1" id="Capa_1" xmlns="http://www.w3.org/2000/svg" xmlns:xlink="http://www.w3.org/1999/xlink" x="0px" y="0px"
	 viewBox="0 0 512 512" style="enable-background:new 0 0 512 512;" xml:space="preserve">
<path style="fill:#FAE17C;" d="M81.825,131.375c35.233,13.779,113.295,104.111,118.337,122.808
	c13.748-41.507-36.83-164.304-56.697-192.462L81.825,131.375z"/>
<path style="fill:#FF85B6;" d="M69.276,101.056l-13.954-11.74c-4.986-4.195-4.205-12.088,1.507-15.225l15.985-8.778
	c1.87-1.027,3.328-2.666,4.13-4.643l6.854-16.899c2.449-6.038,10.197-7.734,14.945-3.272l13.288,12.49
	c1.554,1.461,3.564,2.341,5.692,2.493l18.19,1.296c6.499,0.463,10.507,7.308,7.73,13.202l-7.773,16.497
	c-0.909,1.93-1.125,4.114-0.612,6.184l4.388,17.7c1.568,6.324-3.704,12.251-10.168,11.431l-18.091-2.294
	c-2.116-0.268-4.26,0.201-6.07,1.329l-15.478,9.643c-5.53,3.445-12.796,0.263-14.014-6.138l-3.409-17.915
	C72.018,104.323,70.909,102.429,69.276,101.056z"/>
<path style="fill:#A3E3FF;" d="M458.298,314.791c-36.475-1.536-140.55,47.874-152.275,62.425
	c4.003-42.003,96.436-130.776,124.934-147.915L458.298,314.791z"/>
<path style="fill:#80B0E3;" d="M481.172,292.897l16.89-4.941c6.035-1.765,8.415-9.04,4.591-14.031l-10.702-13.969
	c-1.252-1.634-1.902-3.65-1.841-5.707l0.52-17.59c0.186-6.285-5.997-10.797-11.926-8.702l-16.593,5.862
	c-1.941,0.686-4.059,0.681-5.996-0.012l-16.569-5.931c-5.92-2.119-12.122,2.367-11.962,8.653l0.447,17.592
	c0.052,2.058-0.606,4.07-1.865,5.699l-10.76,13.925c-3.845,4.975-1.494,12.26,4.533,14.05l16.869,5.011
	c1.973,0.586,3.684,1.835,4.844,3.535l9.918,14.537c3.544,5.194,11.198,5.21,14.763,0.031l9.979-14.495
	C477.481,294.716,479.197,293.475,481.172,292.897z"/>
<path style="fill:#A9A6DE;" d="M439.358,110.64c-34.08,13.09-109.937,99.801-114.912,117.813
	C311.422,188.32,360.95,70.119,380.286,43.064L439.358,110.64z"/>
<path style="fill:#8783D2;" d="M451.645,81.457l13.534-11.248c4.836-4.019,4.128-11.64-1.365-14.7l-15.374-8.564
	c-1.798-1.002-3.196-2.593-3.958-4.505l-6.515-16.347c-2.328-5.841-9.795-7.523-14.402-3.245l-12.895,11.975
	c-1.508,1.401-3.453,2.238-5.507,2.372l-17.561,1.144c-6.274,0.409-10.182,6.991-7.536,12.695l7.404,15.965
	c0.866,1.867,1.062,3.976,0.554,5.971l-4.338,17.055c-1.55,6.094,3.502,11.844,9.745,11.09l17.471-2.108
	c2.043-0.247,4.11,0.219,5.85,1.318l14.88,9.396c5.316,3.357,12.346,0.329,13.559-5.84l3.394-17.268
	C448.981,84.594,450.062,82.773,451.645,81.457z"/>
<path style="fill:#498A68;" d="M163.912,395.604c-3.866,0-7.702-1.665-10.35-4.884c-4.7-5.711-3.88-14.152,1.831-18.852
	c11.833-9.736,25.229-13.564,29.631-14.822l0.364-0.105c7.114-2.047,14.529,2.062,16.573,9.17
	c2.043,7.109-2.063,14.529-9.171,16.573l-0.408,0.117c-3.403,0.972-12.44,3.554-19.969,9.75
	C169.92,394.604,166.907,395.604,163.912,395.604z"/>
<path style="fill:#5CB38E;" d="M282.225,428.818c62.5,0,134.427,0,187.083-33.618c9.01-5.753,3.799-19.646-6.797-18.232
	c-41.698,5.567-76.725-5.048-96.698-22.241L282.225,428.818z"/>
<path style="opacity:0.1;enable-background:new    ;" d="M389.39,368.91c-0.697,19.96-3.76,39.883-16.064,56.45
	c-30.468,3.457-61.819,3.457-91.101,3.457l83.589-74.092C372.216,360.238,380.171,365.067,389.39,368.91z"/>
<g>
	<path style="fill:#498A68;" d="M310.205,489.784c-10.664,0.001-19.691-8.217-20.522-19.027c-0.254-3.298-1.574-56.017,3.979-69.652
		c4.294-10.539,16.317-15.601,26.856-11.309c10.108,4.118,15.18,15.347,11.788,25.557c-1.477,7.605-2.326,41.947-1.534,52.245
		c0.872,11.346-7.619,21.251-18.965,22.123C311.269,489.764,310.734,489.784,310.205,489.784z M331.837,416.63
		c-0.003,0.008-0.006,0.015-0.009,0.023C331.831,416.645,331.834,416.638,331.837,416.63z"/>
	<path style="fill:#498A68;" d="M235.479,489.784c-10.663,0.001-19.69-8.216-20.522-19.025c-0.254-3.298-1.578-56.017,3.98-69.657
		c4.295-10.539,16.322-15.597,26.857-11.306c10.107,4.119,15.177,15.348,11.785,25.558c-1.478,7.606-2.327,41.946-1.534,52.242
		c0.873,11.346-7.617,21.252-18.963,22.125C236.544,489.764,236.009,489.784,235.479,489.784z M257.109,416.632
		c-0.003,0.008-0.006,0.016-0.009,0.023C257.102,416.648,257.106,416.64,257.109,416.632z"/>
</g>
<path style="opacity:0.1;enable-background:new    ;" d="M245.794,389.798c-10.536-4.292-22.563,0.767-26.857,11.306
	c-3.527,8.655-4.282,33.046-4.299,50.56c11.584,3.893,25.215,6.325,41.122,7.369c-0.146-14.297,0.634-37.578,1.819-43.677
	C260.971,405.147,255.901,393.917,245.794,389.798z"/>
<path style="opacity:0.1;enable-background:new    ;" d="M320.518,389.797c-10.539-4.292-22.562,0.771-26.856,11.309
	c-4.076,10.007-4.449,41.065-4.258,58.189c15.755-0.751,29.382-2.778,41.072-6.159c0.073-14.099,0.798-32.468,1.83-37.783
	C335.698,405.144,330.627,393.915,320.518,389.797z"/>
<path style="fill:#5CB38E;" d="M180.831,356.118c0,48.103,6.534,82.911,94.073,82.911s94.073-34.807,94.073-82.911
	s-42.118-87.099-94.073-87.099C222.95,269.02,180.831,308.015,180.831,356.118z"/>
<path style="fill:#9BDFC1;" d="M180.831,356.118c0-0.383,0.01-0.764,0.016-1.147c19.594-5.028,58.459-6.491,85.505,22.251
	c19.708,20.945,22.56,43.547,20.446,61.573c-3.789,0.154-7.75,0.232-11.893,0.232C187.365,439.029,180.831,404.222,180.831,356.118z
	"/>
<path style="opacity:0.05;enable-background:new    ;" d="M292.763,270.594c43.413,7.726,76.215,43.076,76.215,85.525
	c0,44.541-5.613,77.678-75.94,82.342C332.086,398.828,324.534,316.996,292.763,270.594z"/>
<path style="fill:#5CB38E;" d="M188.554,143.58L188.554,143.58c16.064-24.292,43.244-38.905,72.369-38.905h35.8
	c50.897,0,92.158,41.26,92.158,92.158v42.371c0,45.679-37.031,82.711-82.711,82.711H116.395c-34.22,0-61.96-27.741-61.96-61.96
	v-28.837c0-34.22,27.741-61.96,61.96-61.96h24.584C160.125,169.157,177.994,159.55,188.554,143.58z"/>
<path style="fill:#495059;" d="M128.657,284.273L128.657,284.273c-11.575,0-21.477-8.313-23.482-19.713l-1.099-6.25
	c-1.029-5.85,3.472-11.212,9.412-11.212h30.337c5.94,0,10.441,5.362,9.412,11.212l-1.099,6.25
	C150.134,275.96,140.232,284.273,128.657,284.273z"/>
<g style="opacity:0.1;">
	<circle cx="338.823" cy="259.344" r="6.342"/>
	<circle cx="293.732" cy="269.024" r="6.342"/>
	<circle cx="319.533" cy="290.654" r="6.342"/>
</g>
<g>
	<ellipse style="fill:#FFA8CB;" cx="329.183" cy="172.603" rx="15.986" ry="8.201"/>
	<ellipse style="fill:#FFA8CB;" cx="221.852" cy="172.603" rx="15.986" ry="8.201"/>
</g>
<path style="opacity:0.05;enable-background:new    ;" d="M317.197,106.961c41.043,9.311,71.685,46.011,71.685,89.872v42.371
	c0,45.679-37.031,82.711-82.711,82.711h-50.189C329.075,279.386,341.464,162.483,317.197,106.961z"/>
<path style="fill:#498A68;" d="M292.343,383.213c-4.736,0-9.325-2.517-11.76-6.964c-3.551-6.488-1.171-14.628,5.317-18.18
	l0.371-0.203c3.109-1.695,11.368-6.198,17.356-13.9c4.54-5.841,12.954-6.892,18.794-2.352c5.839,4.54,6.893,12.955,2.352,18.794
	c-9.413,12.106-21.656,18.781-25.678,20.975l-0.333,0.181C296.721,382.683,294.516,383.213,292.343,383.213z"/>
<path style="fill:#495059;" d="M117.978,367.01H86.653c-4.481,0-8.29-3.274-8.964-7.704l-7.155-47.053
	c-1.013-6.659,4.142-12.657,10.878-12.657h41.809c6.736,0,11.89,5.998,10.878,12.657l-7.155,47.053
	C126.269,363.737,122.459,367.01,117.978,367.01z"/>
<rect x="89.731" y="367.014" style="fill:#959BA0;" width="25.17" height="102.521"/>
<path style="fill:#A3E3FF;" d="M136.71,491.545h-68.79c-3.36,0-5.543-3.538-4.037-6.541l2.284-4.553
	c3.357-6.692,10.203-10.918,17.69-10.918h36.916c7.487,0,14.333,4.225,17.69,10.918l2.283,4.553
	C142.254,488.007,140.07,491.545,136.71,491.545z"/>
<path d="M10.214,264.232l21.736,4.861c0.551,0.123,1.102,0.182,1.644,0.182c3.435,0,6.531-2.374,7.313-5.865
	c0.904-4.043-1.641-8.052-5.683-8.956l-21.736-4.861c-4.042-0.905-8.052,1.64-8.956,5.683
	C3.627,259.318,6.172,263.328,10.214,264.232z M36.273,373.223l-18.176,11.043c-3.54,2.151-4.666,6.764-2.516,10.304
	c1.412,2.323,3.884,3.607,6.417,3.607c1.327,0,2.671-0.352,3.888-1.091l18.176-11.043c3.54-2.151,4.666-6.764,2.516-10.304
	C44.426,372.198,39.813,371.073,36.273,373.223z M39.541,323.172c0-4.142-3.357-7.5-7.5-7.5H7.5c-4.143,0-7.5,3.358-7.5,7.5
	s3.357,7.5,7.5,7.5h24.541C36.184,330.672,39.541,327.314,39.541,323.172z M308.897,163.846c4.143,0,7.5-3.358,7.5-7.5v-7.966
	c0-4.142-3.357-7.5-7.5-7.5c-4.142,0-7.5,3.358-7.5,7.5v7.966C301.397,160.488,304.754,163.846,308.897,163.846z M148.867,207.863
	c3.503,0,6.342-2.84,6.342-6.342c0-3.503-2.84-6.342-6.342-6.342c-3.503,0-6.342,2.84-6.342,6.342
	C142.525,205.024,145.364,207.863,148.867,207.863z M508.607,269.364l-10.702-13.969c-0.202-0.264-0.309-0.591-0.298-0.924
	l0.521-17.591c0.16-5.425-2.362-10.574-6.747-13.773c-4.384-3.2-10.057-4.03-15.174-2.222l-16.594,5.861
	c-0.314,0.11-0.657,0.111-0.971-0.001l-16.568-5.931c-5.111-1.83-10.788-1.021-15.185,2.159c-0.065,0.047-0.126,0.099-0.19,0.147
	c-7.452,4.549-18.406,13.193-30.671,24.096c0.232-2.643,0.353-5.314,0.353-8.012v-42.37c0-13.144-2.564-25.699-7.208-37.2
	c22.265-22.365,41.398-37.583,52.874-41.991c0.254-0.097,0.498-0.209,0.735-0.33c0.044-0.019,0.09-0.031,0.133-0.049
	c4.985-2.147,8.587-6.608,9.634-11.935l3.393-17.266c0.064-0.327,0.241-0.624,0.496-0.836h0.001l13.534-11.248
	c4.174-3.469,6.366-8.767,5.864-14.171c-0.502-5.405-3.632-10.208-8.373-12.849l-15.374-8.564c-0.29-0.162-0.518-0.42-0.641-0.73
	l-6.515-16.347c-2.009-5.042-6.369-8.764-11.663-9.957c-5.295-1.191-10.831,0.299-14.811,3.993l-12.897,11.976
	c-0.243,0.226-0.559,0.361-0.89,0.383l-17.561,1.144c-5.416,0.353-10.303,3.35-13.074,8.017c-0.038,0.064-0.07,0.129-0.107,0.193
	c-8.712,12.357-21.851,39.626-33.079,68.432c-13.31-6.602-28.293-10.321-44.129-10.321h-35.8c-29.7,0-57.35,13.845-75.12,37.321
	c-11.887-31.983-26.246-62.791-35.963-76.737c-0.039-0.068-0.072-0.138-0.112-0.206c-2.796-4.776-7.762-7.863-13.283-8.257
	l-18.188-1.296c-0.406-0.029-0.794-0.199-1.09-0.477l-13.288-12.49c-4.032-3.791-9.668-5.346-15.073-4.163
	c-5.407,1.183-9.877,4.952-11.958,10.081l-6.854,16.899c-0.152,0.378-0.433,0.692-0.79,0.888l-15.984,8.778
	c-4.851,2.664-8.072,7.543-8.618,13.05c-0.545,5.508,1.658,10.923,5.894,14.487l13.954,11.741c0.31,0.262,0.524,0.626,0.6,1.025
	l3.409,17.915c1.035,5.437,4.679,10.009,9.749,12.229c0.047,0.021,0.096,0.034,0.143,0.054c0.24,0.125,0.486,0.24,0.744,0.34
	c7.935,3.103,19.442,11.265,33.168,23.43c-36.382,2.147-65.327,32.415-65.327,69.327v28.837c0,16.798,5.935,32.662,16.789,45.253
	c-0.798,2.616-1.027,5.403-0.606,8.175l2.014,13.241c-2.433,1.24-4.103,3.763-4.103,6.68c0,3.713,2.7,6.787,6.242,7.386
	l3.003,19.742c1.009,6.644,5.766,11.802,11.954,13.488v88.17c-9.729,0.569-18.352,6.201-22.764,14.998l-2.285,4.554
	c-1.882,3.753-1.688,8.125,0.516,11.698c2.205,3.572,6.028,5.705,10.226,5.705h68.79c4.199,0,8.021-2.133,10.227-5.707
	c2.205-3.573,2.396-7.946,0.515-11.697l-2.283-4.554c-4.414-8.797-13.037-14.428-22.766-14.998v-88.17
	c6.187-1.686,10.944-6.844,11.955-13.487l3.003-19.744c3.542-0.599,6.243-3.674,6.243-7.386c0-1.426-0.405-2.754-1.096-3.889h34.932
	c-2.417,7.649-3.773,15.549-4.048,23.614c-8.625,3.341-16.273,7.707-22.763,13.048c-8.896,7.321-10.177,20.513-2.857,29.408
	c3.984,4.842,9.867,7.619,16.142,7.619c4.824,0,9.536-1.69,13.27-4.761c0.137-0.113,0.292-0.217,0.432-0.329
	c2.377,8.193,6.049,15.829,11.727,22.472c4.787,5.602,10.771,10.257,18.069,14.01c-0.261,8.034-0.292,15.754-0.263,21.202
	c0.023,4.128,3.375,7.46,7.499,7.46h0.041c4.142-0.022,7.482-3.398,7.46-7.54c-0.022-4.076-0.009-9.456,0.112-15.262
	c7.652,2.276,16.322,3.91,26.09,4.922c-0.168,8.795-0.156,18.026,0.219,22.896c0.554,7.205-4.856,13.517-12.056,14.071
	c-3.942,0.302-7.804-1.194-10.508-4.033c-2.855-2.998-7.604-3.113-10.604-0.256c-2.999,2.857-3.113,7.604-0.256,10.603
	c5.284,5.546,12.694,8.726,20.332,8.726h0.002c0.714,0,1.445-0.028,2.18-0.084c15.45-1.19,27.054-14.728,25.864-30.179
	c-0.29-3.772-0.354-11.734-0.193-20.706c3.724,0.143,7.58,0.214,11.574,0.214c2.38,0,4.703-0.03,6.987-0.08
	c-0.12,12.707,0.187,23.243,0.314,24.883c1.118,14.554,13.418,25.954,28,25.952c0.718,0,1.449-0.028,2.177-0.083
	c15.451-1.188,27.056-14.725,25.867-30.177c-0.408-5.306-0.365-18.314,0.068-30.584c0.772-0.34,1.53-0.689,2.275-1.046
	c40.332-1.848,91.457-7.507,132.751-33.871c7.046-4.499,9.855-12.788,6.988-20.628c-2.892-7.91-10.457-12.475-18.814-11.359
	c-32.757,4.372-64.223-1.644-85.095-16.109c-0.067-2.218-0.219-4.424-0.449-6.618c36.202-15.799,67.314-25.131,82.007-24.523
	c0.264,0.012,0.525,0.008,0.784-0.008c0.055,0.001,0.109,0.005,0.163,0.005h0.034c5.414,0,10.478-2.661,13.549-7.122l9.979-14.496
	c0.189-0.273,0.468-0.476,0.785-0.568c0.001,0,0.001,0,0.001,0l16.891-4.941c5.209-1.524,9.327-5.513,11.015-10.672
	C512.871,279.324,511.908,273.672,508.607,269.364z M167.649,386.76c-1.351,1.111-2.778,1.344-3.738,1.344
	c-1.773,0-3.435-0.783-4.559-2.149c-2.064-2.509-1.703-6.23,0.806-8.294c3.921-3.227,8.402-6.036,13.389-8.403
	c0.169,4.309,0.46,8.599,0.954,12.821C172.021,383.508,169.712,385.062,167.649,386.76z M386.938,46.53
	c0.178-0.299,0.522-0.665,1.151-0.706l17.561-1.145c3.766-0.245,7.36-1.794,10.123-4.36l12.895-11.974
	c0.463-0.431,0.965-0.43,1.306-0.352c0.34,0.076,0.794,0.291,1.027,0.877l6.515,16.346c1.397,3.505,3.98,6.446,7.275,8.281
	l15.374,8.565c0.552,0.307,0.705,0.785,0.737,1.132c0.032,0.347-0.031,0.845-0.517,1.248l-13.533,11.247
	c-2.9,2.41-4.899,5.776-5.628,9.479l-3.394,17.267c-0.121,0.619-0.528,0.914-0.849,1.051c-0.32,0.137-0.813,0.231-1.347-0.105
	l-14.88-9.397c-2.635-1.663-5.698-2.539-8.795-2.539c-0.652,0-1.307,0.039-1.958,0.118l-17.471,2.108
	c-0.624,0.073-1.032-0.22-1.263-0.482c-0.229-0.262-0.471-0.702-0.315-1.314l4.338-17.053c0.931-3.657,0.568-7.556-1.019-10.977
	l-7.403-15.964C386.604,47.307,386.76,46.83,386.938,46.53z M377.279,62.855l3.386,7.301c0.14,0.3,0.171,0.643,0.089,0.966
	l-4.338,17.055c-1.338,5.26,0.002,10.835,3.585,14.912c3.582,4.078,8.933,6.124,14.327,5.473l17.471-2.108
	c0.328-0.04,0.667,0.037,0.947,0.213l8.57,5.412c-13.474,9.112-28.158,22.557-39.202,33.424
	c-7.198-11.929-16.824-22.234-28.189-30.229C361.994,94.296,370.436,75.842,377.279,62.855z M84.224,124.226
	c-0.391-0.171-0.887-0.534-1.03-1.293l-3.409-17.915c-0.719-3.778-2.735-7.223-5.679-9.7c0,0,0,0-0.001,0L60.15,83.577
	c-0.591-0.497-0.665-1.107-0.623-1.532c0.042-0.424,0.234-1.008,0.911-1.38l15.982-8.777c3.372-1.85,6.025-4.833,7.472-8.399
	l6.854-16.899c0.29-0.716,0.848-0.975,1.265-1.066c0.121-0.027,0.259-0.045,0.407-0.045c0.362,0,0.787,0.11,1.186,0.485
	l13.289,12.49c2.803,2.634,6.458,4.235,10.295,4.509l18.189,1.296c0.771,0.055,1.189,0.505,1.405,0.874
	c0.216,0.368,0.403,0.953,0.074,1.651l-7.772,16.497c-1.641,3.481-2.033,7.454-1.108,11.186l4.388,17.701
	c0.186,0.75-0.113,1.287-0.396,1.605c-0.283,0.318-0.781,0.678-1.548,0.581l-18.093-2.294c-3.815-0.483-7.714,0.37-10.979,2.404
	l-15.478,9.643C85.219,124.515,84.616,124.397,84.224,124.226z M100.019,132.967l9.264-5.772c0.346-0.216,0.754-0.307,1.161-0.254
	l18.092,2.294c5.489,0.695,10.966-1.357,14.644-5.493c3.678-4.136,5.078-9.812,3.746-15.184l-4.388-17.702
	c-0.098-0.394-0.056-0.813,0.117-1.181l3.797-8.059c8.347,15.982,18.931,39.951,28.394,66.645
	c-9.073,8.518-21.104,13.396-33.867,13.396h-6.773C124.12,151.965,111.67,140.892,100.019,132.967z M131.76,483.814l0.116,0.231
	h-59.12l0.116-0.231c2.098-4.182,6.307-6.78,10.985-6.78h36.916C125.452,477.034,129.662,479.632,131.76,483.814z M86.653,359.511
	c-0.78,0-1.432-0.56-1.549-1.332l-2.643-17.375h39.708l-2.642,17.375c-0.117,0.772-0.769,1.332-1.549,1.332H86.653z
	 M107.402,374.511v87.523H97.229v-87.523H107.402z M126.683,311.126l-2.232,14.677h-44.27l-2.232-14.677
	c-0.171-1.118,0.205-1.961,0.563-2.486c0.081-0.098,0.152-0.202,0.227-0.303c0.005-0.006,0.012-0.015,0.017-0.021
	c0.392-0.456,1.257-1.22,2.656-1.22h41.809c1.399,0,2.266,0.764,2.656,1.22C126.268,308.772,126.894,309.742,126.683,311.126z
	 M311.235,482.245c-7.218,0.548-13.527-4.934-14.074-12.059c-0.082-1.122-0.402-11.662-0.261-24.489
	c9.764-0.794,18.494-2.164,26.258-4.132c-0.263,10.324-0.283,21.166,0.136,26.609C323.849,475.379,318.438,481.691,311.235,482.245z
	 M349.067,410.74c-1.867,2.184-5.355,6.263-13.068,10.233c-0.456,0.174-0.889,0.391-1.296,0.646
	c-10.636,5.139-28.655,9.911-59.797,9.911c-28.163,0-45.596-3.902-56.54-8.45c-0.234-0.114-0.475-0.217-0.722-0.307
	c-10.443-4.483-14.748-9.516-16.899-12.033c-7.662-8.965-12.411-21.229-12.411-54.621c0-9.199,1.694-18.158,5.011-26.704h92.756
	c4.143,0,7.5-3.358,7.5-7.5c0-4.142-3.357-7.5-7.5-7.5H141.356l0.157-1.033c0.811-5.337-0.741-10.747-4.26-14.842
	c-3.52-4.095-8.634-6.443-14.033-6.443H81.411c-2.688,0-5.306,0.584-7.691,1.674c-7.631-9.589-11.785-21.376-11.785-33.816v-28.837
	c0-30.029,24.431-54.46,54.46-54.46h24.584c21.725,0,41.849-10.818,53.832-28.939c14.716-22.255,39.431-35.541,66.112-35.541h35.8
	c46.68,0,84.658,37.977,84.658,84.658v42.37c0,9.484-1.767,18.597-4.992,27.012c-0.16,0.336-0.299,0.679-0.406,1.031
	c-5.421,13.543-14.662,25.206-26.544,33.548c-0.322,0.169-0.638,0.355-0.94,0.576c-0.152,0.111-0.292,0.231-0.433,0.35
	c-8.467,5.669-18.194,9.695-28.786,11.555c-4.079,0.716-6.806,4.604-6.089,8.684c0.64,3.641,3.805,6.204,7.378,6.204
	c0.431,0,0.867-0.038,1.307-0.115c10.398-1.826,20.098-5.395,28.85-10.352c7.046,11.722,10.751,24.87,10.751,38.419
	C361.478,380.875,359.401,398.648,349.067,410.74z M376.191,370.875c17.893,9.794,40.537,15.044,64.67,15.043
	c7.437,0,15.021-0.499,22.643-1.516c1.684-0.227,2.422,0.768,2.741,1.641c0.436,1.191,0.108,2.145-0.973,2.835
	c-31.371,20.029-69.64,27.216-103.592,30.131C372.33,405.6,375.371,388.445,376.191,370.875z M373.07,331.72
	c-2.241-7.848-5.571-15.401-9.933-22.501c11.59-9.431,20.715-21.644,26.446-35.563c10.938-10.559,21.768-20.186,30.746-27.407
	l0.205,8.062c0.008,0.331-0.1,0.658-0.303,0.921l-10.76,13.925c-3.318,4.294-4.306,9.942-2.639,15.108
	c1.666,5.166,5.768,9.172,10.971,10.718l16.869,5.011c0.318,0.095,0.597,0.298,0.784,0.572l5.693,8.345
	C418.878,313.06,390.734,324.14,373.07,331.72z M496.927,279.818c-0.108,0.331-0.364,0.763-0.97,0.94l-16.89,4.94
	c-3.62,1.059-6.793,3.353-8.932,6.46l-9.979,14.495c-0.356,0.519-0.845,0.628-1.193,0.628h-0.003
	c-0.349-0.001-0.839-0.111-1.194-0.632l-9.918-14.537c-2.126-3.116-5.288-5.423-8.903-6.497l-16.869-5.011
	c-0.605-0.18-0.86-0.613-0.967-0.944c-0.108-0.331-0.153-0.831,0.232-1.331l10.76-13.925c2.308-2.986,3.524-6.707,3.429-10.476
	l-0.447-17.593c-0.017-0.631,0.316-1.006,0.599-1.21c0.196-0.142,0.479-0.282,0.834-0.282c0.154,0,0.323,0.027,0.504,0.091
	l16.568,5.931c3.554,1.271,7.466,1.279,11.021,0.023l16.594-5.861c0.599-0.211,1.055-0.01,1.337,0.195
	c0.281,0.206,0.612,0.583,0.594,1.213l-0.521,17.588c-0.112,3.77,1.09,7.497,3.385,10.492l10.702,13.97
	C497.084,278.987,497.035,279.487,496.927,279.818z M327.025,335.693c-4.406-3.426-9.883-4.931-15.418-4.238
	c-5.538,0.692-10.475,3.501-13.9,7.907c-5.027,6.467-12.289,10.427-15.022,11.917l-0.388,0.211c-3.194,1.75-5.885,4.31-7.779,7.404
	c-2.164,3.532-1.054,8.15,2.479,10.313c3.531,2.163,8.15,1.054,10.313-2.479c0.539-0.879,1.276-1.58,2.178-2.073l0.379-0.206
	c3.484-1.9,12.737-6.947,19.683-15.88c0.967-1.243,2.358-2.035,3.92-2.23c1.555-0.192,3.105,0.229,4.349,1.196
	c2.566,1.995,3.03,5.705,1.036,8.27c-8.451,10.869-19.661,16.983-23.342,18.99l-0.352,0.192c-0.617,0.338-1.275,0.561-1.957,0.662
	c-4.097,0.609-6.925,4.424-6.316,8.521c0.554,3.723,3.755,6.398,7.409,6.398c0.367,0,0.738-0.027,1.112-0.082
	c2.44-0.363,4.782-1.151,6.94-2.333l0.344-0.187c4.362-2.379,17.636-9.619,28.005-22.954
	C337.767,355.918,336.12,342.765,327.025,335.693z M108.448,207.863c3.503,0,6.342-2.84,6.342-6.342c0-3.503-2.84-6.342-6.342-6.342
	c-3.503,0-6.342,2.84-6.342,6.342C102.105,205.024,104.945,207.863,108.448,207.863z M242.136,140.88c-4.143,0-7.5,3.358-7.5,7.5
	v7.966c0,4.142,3.357,7.5,7.5,7.5s7.5-3.358,7.5-7.5v-7.966C249.636,144.238,246.278,140.88,242.136,140.88z M143.825,239.597
	h-30.336c-5.054,0-9.814,2.22-13.063,6.089c-3.249,3.87-4.611,8.944-3.736,13.922l1.1,6.249
	c2.64,15.016,15.621,25.915,30.868,25.915s28.229-10.899,30.868-25.914l1.1-6.251c0.875-4.977-0.487-10.05-3.736-13.92
	C153.64,241.817,148.879,239.597,143.825,239.597z M145.852,257.01l-1.1,6.251c-1.376,7.829-8.146,13.512-16.095,13.512
	s-14.719-5.683-16.095-13.513l-1.1-6.249c-0.145-0.822,0.221-1.404,0.45-1.679c0.23-0.274,0.741-0.734,1.576-0.734h30.336
	c0.835,0,1.346,0.46,1.576,0.734C145.631,255.607,145.996,256.19,145.852,257.01z"/>
<g>
</g>
<g>
</g>
<g>
</g>
<g>
</g>
<g>
</g>
<g>
</g>
<g>
</g>
<g>
</g>
<g>
</g>
<g>
</g>
<g>
</g>
<g>
</g>
<g>
</g>
<g>
</g>
<g>
</g>
</svg>
