<?xml version="1.0" encoding="iso-8859-1"?>
<!-- Generator: Adobe Illustrator 19.0.0, SVG Export Plug-In . SVG Version: 6.00 Build 0)  -->
<svg version="1.1" id="Capa_1" xmlns="http://www.w3.org/2000/svg" xmlns:xlink="http://www.w3.org/1999/xlink" x="0px" y="0px"
	 viewBox="0 0 512 512" style="enable-background:new 0 0 512 512;" xml:space="preserve">
<path style="fill:#498A68;" d="M144.473,383.555c-4.605,0-9.172-1.991-12.314-5.834c-5.557-6.795-4.552-16.807,2.244-22.363
	c5.518-4.512,10.429-11.036,14.013-15.798c3.095-4.112,5.332-7.083,8.175-9.343c6.874-5.46,16.869-4.315,22.331,2.557
	c5.296,6.667,4.378,16.274-1.955,21.827c-0.652,0.749-2.086,2.654-3.154,4.073c-4.302,5.715-10.803,14.351-19.29,21.291
	C151.571,382.379,148.011,383.555,144.473,383.555z M176.378,355.094c-0.004,0.003-0.008,0.006-0.012,0.01
	C176.37,355.1,176.373,355.097,176.378,355.094z"/>
<path style="fill:#5CB38E;" d="M276.999,412.679c74.167,0,159.521,0,222.005-39.893c10.693-6.827,4.509-23.314-8.066-21.635
	c-49.482,6.606-91.046-5.99-114.748-26.393L276.999,412.679z"/>
<path style="opacity:0.1;enable-background:new    ;" d="M404.168,341.589c-0.827,23.686-4.462,47.329-19.063,66.987
	c-36.157,4.103-73.359,4.103-108.106,4.103l99.192-87.922C383.788,331.297,393.228,337.029,404.168,341.589z"/>
<g>
	<path style="fill:#498A68;" d="M310.203,485.026c-12.654,0.001-23.366-9.75-24.353-22.576c-0.301-3.914-1.872-66.475,4.723-82.66
		c5.098-12.507,19.368-18.509,31.872-13.415c11.994,4.888,18.01,18.214,13.985,30.329c-1.754,9.029-2.762,49.777-1.821,61.994
		c1.036,13.464-9.039,25.219-22.504,26.255C311.467,485.002,310.832,485.026,310.203,485.026z M335.871,398.218
		c-0.004,0.01-0.007,0.019-0.011,0.029C335.864,398.237,335.867,398.228,335.871,398.218z M336.518,396.28L336.518,396.28
		L336.518,396.28z"/>
	<path style="fill:#498A68;" d="M221.525,485.026c-12.655,0.001-23.367-9.751-24.353-22.578c-0.301-3.914-1.869-66.48,4.724-82.657
		c5.097-12.507,19.369-18.509,31.871-13.415c11.994,4.888,18.01,18.213,13.985,30.329c-1.753,9.026-2.76,49.775-1.821,61.996
		c1.035,13.464-9.042,25.218-22.505,26.253C222.789,485.002,222.153,485.026,221.525,485.026z M247.193,398.22
		c-0.005,0.01-0.007,0.018-0.011,0.027C247.186,398.238,247.19,398.229,247.193,398.22z M247.84,396.28c0,0.001,0,0.001,0,0.001
		C247.84,396.28,247.84,396.28,247.84,396.28z"/>
</g>
<path style="opacity:0.1;enable-background:new    ;" d="M233.767,366.376c-12.502-5.094-26.774,0.909-31.871,13.415
	c-4.184,10.267-5.081,39.213-5.101,59.999c13.746,4.62,29.922,7.505,48.798,8.745c-0.173-16.968,0.753-44.592,2.158-51.83
	C251.777,384.589,245.76,371.264,233.767,366.376z"/>
<path style="opacity:0.1;enable-background:new    ;" d="M322.444,366.376c-12.503-5.094-26.773,0.909-31.872,13.415
	c-4.84,11.878-5.282,48.734-5.055,69.055c18.696-0.891,34.867-3.297,48.739-7.308c0.086-16.728,0.947-38.523,2.172-44.833
	C340.454,384.59,334.438,371.264,322.444,366.376z"/>
<path style="fill:#5CB38E;" d="M156.679,326.41c0,57.083,7.754,98.387,111.634,98.387s111.634-41.304,111.634-98.387
	s-49.98-103.358-111.634-103.358C206.658,223.052,156.679,269.327,156.679,326.41z"/>
<path style="fill:#9BDFC1;" d="M156.679,326.41c0-0.455,0.012-0.907,0.019-1.361c23.252-5.967,69.371-7.703,101.465,26.405
	c23.387,24.855,26.772,51.676,24.263,73.067c-4.496,0.183-9.197,0.276-14.113,0.276C164.433,424.797,156.679,383.492,156.679,326.41
	z"/>
<path style="opacity:0.05;enable-background:new    ;" d="M289.505,224.921c51.517,9.168,90.44,51.117,90.44,101.489
	c0,52.856-6.661,92.177-90.114,97.712C336.167,377.092,327.204,279.983,289.505,224.921z"/>
<path style="fill:#5CB38E;" d="M162.981,75.618L162.981,75.618c18.045-29.475,49.675-47.93,84.214-49.136l42.457-1.483
	c60.362-2.108,111.003,45.116,113.111,105.477l1.755,50.25c1.892,54.174-40.491,99.624-94.665,101.516l-225.063,7.86
	c-40.582,1.417-74.631-30.333-76.048-70.916l-1.194-34.199c-1.417-40.582,30.333-74.63,70.915-76.048l29.156-1.018
	C130.324,107.128,151.117,94.996,162.981,75.618z"/>
<path style="fill:#FAE17C;" d="M34.512,174.285c5.85-2.868,7.902-10.188,4.395-15.677l-14.631-22.909
	c-11.008,13.36-17.381,30.628-16.73,49.288l1.194,34.199c0.279,8,1.844,15.647,4.459,22.774c1.012-0.901,1.981-1.879,2.886-2.956
	l21.343-25.398c3.297-3.924,3.421-9.613,0.298-13.675l-7.065-9.192C26.458,185.269,28.318,177.32,34.512,174.285z"/>
<g style="opacity:0.1;">
	<circle cx="345.987" cy="206.681" r="7.527"/>
	<circle cx="292.909" cy="220.031" r="7.527"/>
	<circle cx="324.407" cy="244.61" r="7.527"/>
</g>
<path style="fill:#FAE17C;" d="M307.449,192.55l0.287,0.567c2.266,4.476,1.947,9.825-0.837,13.998l-0.985,1.477
	c-7.045,10.563,2.588,24.266,14.911,21.214l2.959-0.732c4.688-1.161,9.642,0.194,13.087,3.577l3.099,3.044
	c7.849,7.709,21.116,3.683,23.358-7.087l2.038-9.787c0.712-3.422,2.688-6.451,5.533-8.483l6.489-4.634
	c8.232-5.879,7.633-18.3-1.128-23.359l0,0c-2.597-1.5-4.64-3.799-5.823-6.555l-5.533-12.882
	c-4.491-10.457-18.956-11.386-24.748-1.589l-1.608,2.72c-2.092,3.539-5.643,5.971-9.699,6.642l-11.267,1.866
	C308.318,174.083,303.206,184.171,307.449,192.55z"/>
<g>
	
		<ellipse transform="matrix(0.0349 0.9994 -0.9994 0.0349 423.5629 -230.1757)" style="fill:#FFA8CB;" cx="330.958" cy="104.218" rx="9.732" ry="18.97"/>
	
		<ellipse transform="matrix(-0.0349 -0.9994 0.9994 -0.0349 102.1824 316.0093)" style="fill:#FFA8CB;" cx="203.674" cy="108.666" rx="9.732" ry="18.97"/>
</g>
<path style="opacity:0.05;enable-background:new    ;" d="M314.026,26.862c49.06,9.343,86.919,51.598,88.736,103.614l1.755,50.25
	c1.892,54.174-40.491,99.624-94.665,101.516l-59.522,2.079C335.253,230.857,345.105,91.703,314.026,26.862z"/>
<rect x="105.402" y="351.369" transform="matrix(-0.0872 0.9962 -0.9962 -0.0872 529.5535 242.4245)" style="fill:#959BA0;" width="96.617" height="24.911"/>
<path style="fill:#495059;" d="M145.506,314.602l-8.421,96.249l-52.999-4.638c-4.287-0.375-6.475-5.331-3.864-8.752l5.774-7.563
	c3.393-4.444,3.918-10.447,1.349-15.412l-4.725-9.129c-2.57-4.966-2.045-10.969,1.348-15.412l6.238-8.17
	c3.393-4.444,3.918-10.447,1.348-15.412l-4.373-8.451c-1.978-3.822,1.037-8.323,5.325-7.948L145.506,314.602z"/>
<path style="fill:#CD5B5B;" d="M170.322,316.773l-8.421,96.249l15.665,1.371c5.507,0.482,10.774-2.358,13.395-7.225l8.51-15.791
	c2.137-3.965,6.428-6.279,10.915-5.887l32.349,2.83c9.164,0.802,17.242-5.977,18.043-15.14l0,0
	c0.802-9.164-5.977-17.242-15.14-18.043l-32.35-2.83c-4.487-0.393-8.311-3.417-9.727-7.693l-5.638-17.028
	c-1.738-5.248-6.431-8.96-11.938-9.442L170.322,316.773z"/>
<path style="fill:#FAE17C;" d="M118.478,312.237l-26.412-2.311c-4.287-0.375-7.302,4.126-5.325,7.948l4.373,8.451
	c2.57,4.966,2.045,10.969-1.348,15.412l-6.238,8.17c-3.393,4.444-3.919,10.447-1.349,15.412l4.725,9.13
	c2.57,4.966,2.045,10.969-1.349,15.412l-5.774,7.563c-2.27,2.737-4.168,17.921-5.359,30.145c-0.86,8.829,5.657,16.657,14.493,17.43
	l0,0c8.78,0.768,16.52-5.727,17.288-14.506l0.976-11.159c0.532-6.084,5.896-10.584,11.979-10.052l2.809,0.246
	C99.587,380.371,118.593,339.336,118.478,312.237z"/>
<path style="fill:#498A68;" d="M257.032,383.574c-4.783,0-9.51-2.149-12.639-6.242c-5.331-6.974-3.999-16.948,2.975-22.279
	c10.445-7.985,15.052-15.611,17.806-20.168l0.277-0.457c4.544-7.506,14.316-9.912,21.827-5.363
	c7.509,4.546,9.91,14.318,5.363,21.827l-0.26,0.431c-3.402,5.629-10.478,17.34-25.708,28.984
	C263.793,382.509,260.398,383.574,257.032,383.574z"/>
<path style="fill:#959BA0;" d="M386.645,397.408H278.786v79.829c0,5.428,4.4,9.828,9.828,9.828h88.204
	c5.428,0,9.828-4.4,9.828-9.828V397.408z"/>
<rect x="278.789" y="441.392" style="opacity:0.1;enable-background:new    ;" width="107.856" height="14.999"/>
<path style="fill:#FAE17C;" d="M267.476,393.476v41.751c0,11.764,9.537,21.3,21.3,21.3l0,0c10.933,0,19.796-8.863,19.796-19.796
	v-3.857c0-6.568,5.325-11.893,11.893-11.893h25.608c6.789,0,12.293,5.504,12.293,12.293v14.839c0,10.933,8.863,19.796,19.796,19.796
	l0,0c10.933,0,19.796-8.863,19.796-19.796v-54.637c0-9.344-7.575-16.918-16.918-16.918h-96.644
	C275.049,376.559,267.476,384.133,267.476,393.476z"/>
<path d="M310.405,79.506c1.214,1.132,1.914,2.668,1.972,4.327c0.143,4.139,3.643,7.362,7.756,7.234
	c4.14-0.145,7.379-3.617,7.234-7.757c-0.197-5.663-2.588-10.91-6.732-14.773s-9.545-5.891-15.206-5.686
	c-11.69,0.409-20.867,10.252-20.458,21.94c0.142,4.05,3.47,7.238,7.49,7.238c0.089,0,0.178-0.001,0.267-0.004
	c4.14-0.145,7.379-3.618,7.233-7.758c-0.119-3.423,2.568-6.306,5.992-6.425C307.621,77.772,309.192,78.374,310.405,79.506z
	 M77.898,147.388c-0.145-4.154-3.63-7.404-7.785-7.259c-4.154,0.145-7.404,3.63-7.259,7.785c0.145,4.154,3.63,7.404,7.785,7.259
	C74.793,155.027,78.044,151.542,77.898,147.388z M226.252,65.616c-5.663,0.198-10.91,2.589-14.773,6.733s-5.883,9.545-5.686,15.206
	c0.142,4.051,3.469,7.238,7.491,7.238c0.088,0,0.178-0.002,0.267-0.004c4.14-0.145,7.378-3.618,7.234-7.757
	c-0.058-1.659,0.533-3.24,1.665-4.454c1.132-1.214,2.668-1.914,4.327-1.972c1.65-0.07,3.24,0.533,4.454,1.665
	c1.214,1.132,1.914,2.668,1.972,4.327c0.145,4.14,3.629,7.372,7.757,7.234c4.14-0.145,7.378-3.618,7.234-7.757
	c-0.198-5.663-2.589-10.909-6.733-14.772C237.315,67.437,231.917,65.418,226.252,65.616z M510.772,356.289
	c-3.201-8.756-11.576-13.808-20.826-12.573c-39.521,5.277-77.503-2.104-102.551-19.76c-0.459-19.748-6.447-38.717-17.462-55.415
	c7.68-5.782,14.607-12.6,20.503-20.321c14.764-19.337,22.426-43.4,21.575-67.756l-1.754-50.249
	C408.008,65.818,353.8,15.289,289.39,17.504l-42.457,1.483c-37.159,1.298-70.934,21.004-90.348,52.715
	c-10.579,17.278-28.981,28.017-49.228,28.724L78.2,101.443c-44.65,1.559-79.709,39.153-78.15,83.805l1.194,34.199
	c1.526,43.694,37.556,78.2,80.941,78.2c0.95,0,1.908-0.017,2.864-0.05l68.931-2.407c-1.278,4.059-2.301,8.184-3.07,12.357
	l-4.749-0.415c-0.001,0-0.001,0-0.002,0c0,0-0.001,0-0.002,0l-27.027-2.365l-26.412-2.311c-4.705-0.408-9.266,1.772-11.896,5.698
	c-2.63,3.926-2.915,8.972-0.743,13.169l4.373,8.45c1.23,2.377,0.976,5.288-0.648,7.415l-6.239,8.17
	c-5.128,6.717-5.932,15.906-2.048,23.411l4.725,9.129c1.23,2.377,0.976,5.288-0.648,7.415l-5.685,7.445
	c-1.678,2.032-4.169,5.524-6.953,34.087c-0.611,6.273,1.271,12.399,5.3,17.248c4.033,4.854,9.717,7.831,16.004,8.381
	c0.698,0.061,1.393,0.091,2.085,0.091c5.5,0,10.775-1.913,15.038-5.49c4.8-4.028,7.744-9.684,8.291-15.925l0.976-11.158
	c0.111-1.277,0.836-2.062,1.257-2.415c0.422-0.353,1.319-0.928,2.597-0.819l2.809,0.246l15.111,1.322
	c0.002,0,0.003,0.001,0.005,0.001s0.004,0,0.006,0l24.81,2.171l15.665,1.371c0.627,0.055,1.25,0.082,1.872,0.082
	c3.876,0,7.611-1.055,10.849-2.969c-0.321,9.593-0.362,18.848-0.329,25.35c0.021,4.129,3.374,7.462,7.499,7.462h0.039
	c4.142-0.021,7.483-3.396,7.462-7.538c-0.026-5.22-0.005-12.249,0.176-19.768c9.726,3.049,20.937,5.195,33.744,6.454
	c-0.225,10.773-0.23,22.356,0.23,28.339c0.717,9.32-6.283,17.484-15.6,18.201c-0.44,0.034-0.888,0.051-1.329,0.051
	c-5.563,0.001-10.778-2.748-13.948-7.351c-2.35-3.411-7.021-4.271-10.431-1.921c-3.411,2.35-4.271,7.02-1.921,10.431
	c5.971,8.668,15.803,13.84,26.301,13.84c0.821,0,1.653-0.032,2.476-0.095c17.566-1.351,30.759-16.74,29.408-34.306
	c-0.363-4.721-0.432-14.877-0.205-26.15c2.217,0.095,4.473,0.17,6.772,0.221v3.03c0,9.307,4.441,17.591,11.311,22.86v19.149
	c0,9.555,7.773,17.327,17.327,17.327h88.204c9.555,0,17.327-7.773,17.327-17.327v-7.019c6.846-4.964,11.311-13.02,11.311-22.104
	v-34.747c39.373-6.289,71.357-17.514,97.585-34.259C510.835,374.131,513.942,364.962,510.772,356.289z M109.723,403.781
	c-1.219,0.629-2.378,1.398-3.454,2.301c-3.798,3.187-6.127,7.661-6.559,12.599l-0.976,11.158c-0.406,4.647-4.524,8.091-9.164,7.69
	c-2.269-0.199-4.32-1.272-5.774-3.024c-1.451-1.746-2.129-3.952-1.909-6.21c1.981-20.337,3.639-25.543,4.047-26.572l5.583-7.311
	c5.128-6.717,5.932-15.906,2.047-23.411l-4.724-9.129c-1.23-2.376-0.975-5.287,0.649-7.415l6.239-8.17
	c5.128-6.717,5.932-15.906,2.048-23.411l-2.669-5.156l15.523,1.358c-0.559,5.832-1.714,12.311-2.917,19.054
	C104.115,358.296,99.764,382.681,109.723,403.781z M130.268,402.726l-4.182-0.366c-11.462-17.506-7.478-39.899-3.608-61.592
	c1.268-7.108,2.473-13.931,3.082-20.382l11.821,1.034L130.268,402.726z M155.084,404.897l-9.874-0.864l7.113-81.306l9.874,0.864
	L155.084,404.897z M192.871,387.818l-8.509,15.79c-1.204,2.233-3.618,3.536-6.141,3.312l-8.194-0.717l7.114-81.307l8.194,0.717
	c2.527,0.221,4.675,1.92,5.472,4.328l5.639,17.029c2.359,7.125,8.716,12.152,16.192,12.806l21.789,1.906
	c-1.632,6.177-0.735,12.957,2.918,18.636l-26.303-2.301C203.565,377.366,196.431,381.21,192.871,387.818z M259.976,393.477v23.713
	c-25.845-0.598-45.705-4.038-60.259-10.457l6.358-11.799c0.717-1.331,2.157-2.104,3.659-1.974l32.349,2.83
	c5.999,0.522,11.898-1.206,16.636-4.786c0.47-0.033,0.935-0.09,1.399-0.151C260.026,391.716,259.976,392.591,259.976,393.477z
	 M262.119,374.349c-1.477,1.129-3.236,1.726-5.087,1.726c-0.099,0-0.195-0.013-0.294-0.017c-0.23-0.024-0.461-0.037-0.692-0.04
	c-2.257-0.26-4.294-1.408-5.694-3.24c-2.762-3.613-2.122-8.768,1.391-11.613c0.091-0.073,0.181-0.145,0.269-0.223
	c11.513-8.826,16.761-17.508,19.573-22.163l0.284-0.468c0.26-0.429,0.557-0.835,0.884-1.207c2.733-3.112,2.427-7.851-0.685-10.585
	c-3.112-2.733-7.85-2.428-10.584,0.684c-0.909,1.034-1.732,2.158-2.442,3.331l-0.287,0.473c-2.443,4.045-6.053,10.007-13.975,16.524
	l-30.836-2.698c-1.506-0.131-2.786-1.144-3.261-2.579l-5.639-17.028c-2.682-8.099-9.906-13.811-18.404-14.555l-15.663-1.37h-0.001
	l-5.04-0.441c0.974-4.835,2.354-9.592,4.127-14.232l125.408-4.38c4.14-0.145,7.378-3.618,7.233-7.757
	c-0.145-4.14-3.602-7.388-7.757-7.234l-210.422,7.349c-36.416,1.263-67.02-27.297-68.29-63.682l-1.194-34.199
	c-1.271-36.386,27.297-67.02,63.683-68.29l29.156-1.018c25.293-0.883,48.283-14.297,61.498-35.883
	c16.777-27.405,45.966-44.435,78.079-45.556l42.457-1.483c56.136-1.965,103.394,42.112,105.354,98.244l1.754,50.249
	c1.487,42.579-27.398,80.912-68.683,91.146c-4.021,0.997-6.472,5.064-5.475,9.085c0.996,4.021,5.067,6.467,9.084,5.475
	c8.894-2.205,17.429-5.588,25.402-9.987c9.889,14.956,15.096,32.006,15.096,49.702c0,14.625-0.494,29.769-3.745,42.649h-79.543
	c4.745-5.772,7.74-10.707,9.642-13.853l0.262-0.434c0.659-1.091,1.232-2.239,1.704-3.411c1.545-3.843-0.318-8.211-4.162-9.756
	c-3.843-1.545-8.211,0.318-9.756,4.162c-0.171,0.426-0.381,0.846-0.623,1.246l-0.262,0.434
	C282.8,352.679,276.219,363.568,262.119,374.349z M379.145,477.237c0,1.284-1.044,2.328-2.328,2.328h-88.204
	c-1.284,0-2.328-1.044-2.328-2.328v-13.324c0.821,0.071,1.65,0.115,2.489,0.115c15.051,0,27.296-12.245,27.296-27.296v-3.857
	c0-2.422,1.971-4.393,4.393-4.393h25.608c2.642,0,4.792,2.15,4.792,4.792v14.839c0,15.05,12.245,27.295,27.296,27.295
	c0.331,0,0.659-0.013,0.986-0.025V477.237z M390.456,448.114c0,6.78-5.517,12.296-12.297,12.296c-6.78,0-12.297-5.516-12.297-12.296
	v-14.839c0-10.914-8.879-19.791-19.791-19.791h-25.608c-10.693,0-19.392,8.7-19.392,19.392v3.857
	c0,6.781-5.517,12.297-12.297,12.297c-7.609,0-13.8-6.191-13.8-13.8v-41.751c0-5.194,4.225-9.419,9.419-9.419h89.915
	c0.008,0,0.017,0.002,0.025,0.002s0.016-0.002,0.025-0.002h6.679c5.193,0,9.419,4.225,9.419,9.419V448.114z M494.969,366.465
	c-23.943,15.285-53.301,25.685-89.513,31.706v-4.695c0-12.443-9.357-22.734-21.403-24.225c1.9-8.825,2.762-18.225,3.132-27.678
	c27.7,15.889,65.71,22.223,104.746,17.011c3.192-0.419,4.389,1.854,4.754,2.854C497.035,362.398,497.569,364.805,494.969,366.465z
	 M118.049,138.455c-4.154,0.145-7.404,3.63-7.259,7.785c0.145,4.154,3.63,7.404,7.785,7.259c4.154-0.145,7.404-3.63,7.259-7.785
	C125.689,141.56,122.204,138.31,118.049,138.455z M116.929,222.192c-3.215-2.61-7.938-2.12-10.55,1.096
	c-2.268,2.793-5.623,4.466-9.206,4.591c-3.581,0.138-7.046-1.31-9.504-3.938c-2.829-3.025-7.576-3.186-10.601-0.355
	c-3.025,2.829-3.185,7.575-0.355,10.601c5.2,5.562,12.453,8.701,20.024,8.701c0.319,0,0.639-0.005,0.959-0.017
	c7.916-0.276,15.325-3.968,20.326-10.128C120.636,229.525,120.145,224.802,116.929,222.192z"/>
<g>
</g>
<g>
</g>
<g>
</g>
<g>
</g>
<g>
</g>
<g>
</g>
<g>
</g>
<g>
</g>
<g>
</g>
<g>
</g>
<g>
</g>
<g>
</g>
<g>
</g>
<g>
</g>
<g>
</g>
</svg>
