<?xml version="1.0" encoding="iso-8859-1"?>
<!-- Generator: Adobe Illustrator 19.0.0, SVG Export Plug-In . SVG Version: 6.00 Build 0)  -->
<svg version="1.1" id="Capa_1" xmlns="http://www.w3.org/2000/svg" xmlns:xlink="http://www.w3.org/1999/xlink" x="0px" y="0px"
	 viewBox="0 0 512 512" style="enable-background:new 0 0 512 512;" xml:space="preserve">
<path style="fill:#FF85B6;" d="M101.873,142.219l-39.946-24.928c-4.467-2.788-10.2,0.719-9.752,5.966l3.368,39.466
	c0.235,2.749-1.321,5.338-3.859,6.422l-40.303,17.208c-5.418,2.313-5.087,10.101,0.507,11.948l30.668,10.121
	c4.175,1.378,5.744,6.461,3.074,9.952L14.2,259.466c-3.901,5.1,1.311,12.123,7.322,9.867l50.37-18.898
	c3.444-1.292,7.264,0.582,8.351,4.096L92.4,293.836c1.46,4.72,7.495,6.07,10.826,2.42l46.549-50.993
	c1.859-2.036,4.813-2.651,7.33-1.525l47.084,21.059c5.559,2.486,11.116-3.473,8.247-8.845l-27.173-50.88
	c-1.089-2.04-0.992-4.509,0.255-6.457l31.934-49.888c3.178-4.965-1.488-11.219-7.152-9.588l-36.166,10.417
	c-2.748,0.791-5.687-0.338-7.197-2.767l-28.928-46.522c-2.756-4.432-9.375-3.871-11.346,0.962l-15.488,37.982
	C109.678,142.881,105.236,144.318,101.873,142.219z"/>
<path style="fill:#FAE17C;" d="M302.347,345.584l44.24,10.083c2.085,0.475,3.73,2.074,4.264,4.144l15.293,59.285
	c1.297,5.03,8.089,5.86,10.56,1.291l27.29-50.455c1.297-2.398,4.108-3.546,6.713-2.741l51.559,15.922
	c4.41,1.362,8.532-2.797,7.131-7.195l-15.806-49.611c-0.762-2.393,0.127-5.003,2.191-6.433l37.81-26.187
	c3.471-2.404,3.226-7.612-0.455-9.68L454.96,262.56c-1.658-0.932-2.745-2.627-2.897-4.523l-3.985-49.473
	c-0.397-4.923-6.43-7.059-9.835-3.481l-25.155,26.426c-2.558,2.688-6.959,2.262-8.956-0.865l-18.211-28.526
	c-2.679-4.196-9.069-3.199-10.341,1.614l-9.313,35.224c-0.669,2.53-2.972,4.283-5.589,4.254l-43.129-0.486
	c-4.467-0.05-7.262,4.814-4.969,8.648l22.065,36.891c1.251,2.092,1.038,4.746-0.531,6.612l-34.871,41.46
	C296.49,339.607,298.177,344.634,302.347,345.584z"/>
<path style="fill:#5CB38E;" d="M235.85,389.377c-65.576,0-141.042,0-196.289-35.272c-9.454-6.036-3.986-20.613,7.132-19.129
	c43.751,5.841,80.5-5.296,101.456-23.336L235.85,389.377z"/>
<path style="opacity:0.1;enable-background:new    ;" d="M123.412,326.522c0.731,20.942,3.945,41.846,16.855,59.228
	c31.968,3.627,64.861,3.627,95.583,3.627l-87.702-77.737C141.432,317.422,133.085,322.49,123.412,326.522z"/>
<g>
	<path style="fill:#498A68;" d="M206.451,453.347c-3.489,0-7.028-0.847-10.31-2.631c-10.489-5.704-14.368-18.832-8.663-29.32
		c6.057-11.138,2.699-33.052-2.52-42.39c-5.825-10.422-2.098-23.594,8.324-29.419c10.421-5.827,23.593-2.098,29.419,8.324
		c10.211,18.27,17.819,56.454,2.762,84.143C221.542,449.26,214.116,453.347,206.451,453.347z"/>
	<path style="fill:#498A68;" d="M299.426,448.769c-0.955,0-1.92-0.063-2.892-0.193c-11.834-1.582-20.145-12.459-18.563-24.293
		c0.953-7.124-3.46-21.195-13.116-41.822c-1.164-2.486-2.005-4.282-2.642-5.846c-4.503-11.052,0.806-23.65,11.855-28.16
		c11.047-4.51,23.668,0.799,28.186,11.845c0.228,0.559,1.078,2.372,1.76,3.83c2.813,6.009,7.521,16.067,11.258,27.1
		c5.181,15.299,6.999,27.985,5.555,38.783C319.374,440.874,310.092,448.769,299.426,448.769z"/>
</g>
<path style="fill:#CD5B5B;" d="M391.11,339.515c0,31.405-13.749,37.236-35.845,37.236s-33.96-12.743-33.96-37.236
	s11.864-37.236,33.96-37.236C377.361,302.279,391.11,308.11,391.11,339.515z"/>
<path style="opacity:0.1;enable-background:new    ;" d="M321.305,339.515c0,22.637,10.142,35.229,29.122,37.008
	c10.473-19.117,11.509-41.658,11.509-63.423c0-3.589-0.189-7.138-0.546-10.641c-1.962-0.125-4.004-0.18-6.125-0.18
	C333.169,302.279,321.305,315.022,321.305,339.515z"/>
<path style="opacity:0.1;enable-background:new    ;" d="M315.272,391.229c-3.737-11.033-8.445-21.091-11.258-27.1
	c-0.682-1.457-1.531-3.271-1.76-3.83c-4.518-11.046-17.138-16.355-28.186-11.845c-11.05,4.511-16.359,17.108-11.855,28.16
	c0.637,1.564,1.478,3.36,2.642,5.846c7.902,16.88,12.287,29.363,13.099,37.248c16.567-2.138,30.413-6.012,41.846-11.724
	C318.796,402.767,317.294,397.2,315.272,391.229z"/>
<path style="opacity:0.1;enable-background:new    ;" d="M193.281,349.586c-10.422,5.825-14.149,18.996-8.324,29.419
	c4.476,8.009,7.577,25.263,4.55,37.041c12.342,3.127,26.61,4.932,43.001,5.478c4.338-23.764-1.96-49.57-9.809-63.614
	C216.874,347.488,203.703,343.759,193.281,349.586z"/>
<path style="fill:#5CB38E;" d="M342.233,313.1c0,50.471-6.855,86.99-98.702,86.99s-98.702-36.52-98.702-86.99
	s44.191-91.385,98.702-91.385S342.233,262.63,342.233,313.1z"/>
<path style="fill:#9BDFC1;" d="M342.233,313.1c0-0.402-0.011-0.802-0.016-1.203c-20.558-5.276-61.336-6.81-89.712,23.346
	c-20.678,21.976-23.671,45.69-21.452,64.603c3.975,0.161,8.131,0.244,12.479,0.244C335.378,400.09,342.233,363.571,342.233,313.1z"
	/>
<path style="opacity:0.05;enable-background:new    ;" d="M224.793,223.367c-45.55,8.106-79.964,45.196-79.964,89.733
	c0,46.733,5.889,81.5,79.676,86.394C183.537,357.911,191.46,272.052,224.793,223.367z"/>
<path style="fill:#5CB38E;" d="M342.159,99.471L342.159,99.471c-16.855-25.488-45.373-40.819-75.929-40.819h-37.562
	c-53.402,0-96.693,43.291-96.693,96.693v44.456c0,47.928,38.853,86.781,86.781,86.781H417.87c35.904,0,65.009-29.106,65.009-65.009
	v-30.256c0-35.904-29.106-65.009-65.009-65.009h-25.794C371.988,126.306,353.24,116.227,342.159,99.471z"/>
<circle style="fill:#495059;" cx="405" cy="238.609" r="24.337"/>
<g style="opacity:0.1;">
	<circle cx="184.5" cy="220.929" r="6.654"/>
	<circle cx="231.81" cy="231.079" r="6.654"/>
	<circle cx="204.74" cy="253.779" r="6.655"/>
</g>
<g>
	<ellipse style="fill:#FFA8CB;" cx="194.62" cy="129.929" rx="16.773" ry="8.605"/>
	<ellipse style="fill:#FFA8CB;" cx="307.22" cy="129.929" rx="16.773" ry="8.605"/>
</g>
<path style="opacity:0.05;enable-background:new    ;" d="M207.187,61.05c-43.063,9.769-75.212,48.276-75.212,94.294V199.8
	c0,47.928,38.853,86.781,86.781,86.781h52.659C194.725,241.96,181.726,119.304,207.187,61.05z"/>
<path style="fill:#498A68;" d="M253.51,363.646c-1.731,0-3.491-0.322-5.198-1.002c-13.802-5.5-23.795-15.018-30.549-29.098
	c-3.357-6.998-0.405-15.391,6.592-18.747c6.998-3.355,15.392-0.404,18.748,6.592c2.617,5.455,6.518,11.521,15.613,15.146
	c7.209,2.873,10.725,11.046,7.852,18.256C264.375,360.295,259.094,363.646,253.51,363.646z"/>
<path style="fill:#DEE2E5;" d="M278.806,334.418l-22.494-12.987c-3.41-1.969-7.77-0.8-9.739,2.609l-17.171,29.742
	c-1.969,3.41-0.8,7.77,2.609,9.739l22.494,12.987L278.806,334.418z"/>
<path style="fill:#CD5B5B;" d="M317.971,385.09c-15.703,27.198-30.525,25.373-49.661,14.325
	c-19.136-11.048-23.038-28.016-10.792-49.228c12.246-21.211,28.893-26.316,48.028-15.268
	C324.682,345.968,333.674,357.892,317.971,385.09z"/>
<path d="M511.957,226.785c-0.441-4.119-4.144-7.1-8.257-6.657l-13.32,1.428v-30.24c0-39.982-32.528-72.51-72.51-72.51h-25.794
	c-17.621,0-33.942-8.774-43.662-23.472c-18.294-27.666-49.018-44.183-82.185-44.183h-37.561c-35.075,0-66.157,17.423-85.048,44.067
	c-2.865-3.767-7.431-5.825-12.212-5.419c-5.229,0.443-9.709,3.737-11.69,8.597l-14.991,36.763l-38.829-24.23
	c-4.492-2.802-10.087-2.828-14.604-0.065c-4.516,2.763-7.042,7.756-6.592,13.031l3.3,38.668L8.437,179.455
	c-5.365,2.29-8.671,7.536-8.424,13.364c0.248,5.828,3.986,10.775,9.525,12.603l29.188,9.632L8.242,254.91
	c-3.803,4.972-3.852,11.69-0.122,16.717c3.731,5.028,10.175,6.929,16.036,4.728l49.269-18.485l11.809,38.182
	c1.49,4.818,5.318,8.351,10.24,9.452c1.036,0.232,2.074,0.345,3.1,0.345c3.845,0,7.507-1.596,10.191-4.536l37.574-41.161
	c1.402,1.678,2.856,3.311,4.37,4.886c-8.31,13.891-12.877,29.433-13.329,45.434c-21.973,15.306-55.154,21.68-89.694,17.071
	c-8.599-1.147-16.371,3.545-19.345,11.679c-2.946,8.06-0.059,16.581,7.184,21.206c43.281,27.632,96.898,33.552,139.181,35.485
	c2.574,1.238,5.3,2.375,8.178,3.412c0.811,7.661,0.101,14.635-1.995,18.489c-3.716,6.833-4.549,14.704-2.345,22.164
	c2.204,7.459,7.181,13.614,14.014,17.329c4.261,2.318,9.065,3.543,13.893,3.543c10.688,0,20.497-5.829,25.6-15.211
	c5.858-10.771,9.033-23.806,9.342-38.058c0.713,0.004,1.418,0.013,2.139,0.013c7.984,0,15.545-0.281,22.523-0.832
	c0.351,0.197,0.706,0.393,1.065,0.589c3.589,10.316,3.603,14.552,3.417,15.941c-2.126,15.914,9.09,30.592,25.004,32.721
	c1.289,0.172,2.596,0.259,3.885,0.259c14.513,0,26.909-10.861,28.834-25.263c1.526-11.411-0.161-24.492-5.14-39.911
	c0.45-0.737,0.899-1.481,1.346-2.256c0.12-0.208,0.227-0.41,0.345-0.618c3.44-2.696,6.411-5.609,8.972-8.717
	c4.521,2.371,9.716,3.86,15.55,4.45l9.548,37.014c1.367,5.299,5.76,9.152,11.192,9.817c0.549,0.067,1.096,0.1,1.638,0.1
	c4.817-0.001,9.249-2.604,11.589-6.931l26.593-49.167l50.159,15.49c4.718,1.458,9.808,0.184,13.285-3.324
	c3.477-3.507,4.705-8.609,3.206-13.314l-1.316-4.131c-1.257-3.946-5.478-6.126-9.423-4.869c-3.947,1.257-6.126,5.477-4.869,9.423
	l0.279,0.875l-48.293-14.914c-6.003-1.852-12.532,0.811-15.523,6.339l-25.127,46.456l-7.486-29.021
	c17.946-1.888,33.827-10.725,33.827-44.284c0-39.421-21.911-44.736-43.345-44.736c-2.517,0-4.941,0.159-7.272,0.458
	c-0.076-0.386-0.16-0.77-0.241-1.155h70.118c17.918,0,34.326-6.547,46.993-17.355l22.111,12.422l-35.462,24.561
	c-4.805,3.328-6.842,9.306-5.067,14.875l5.063,15.89c1.016,3.189,3.966,5.225,7.144,5.225c0.754,0,1.522-0.115,2.279-0.356
	c3.947-1.257,6.126-5.476,4.869-9.423l-4.662-14.631l36.725-25.436c3.77-2.611,5.891-6.904,5.676-11.484
	c-0.215-4.58-2.73-8.655-6.728-10.9l-21.304-11.969c6.368-8.334,10.97-18.081,13.248-28.684l16.546-1.774
	C509.418,234.6,512.399,230.904,511.957,226.785z M98.992,289.769l-11.584-37.455c-1.126-3.64-3.734-6.689-7.154-8.367
	c-3.421-1.678-7.43-1.872-10.997-0.534l-46.753,17.541l29.083-38.024c2.726-3.564,3.563-8.251,2.239-12.538
	c-1.324-4.288-4.658-7.687-8.919-9.093l-27.88-9.201l37.605-16.056c5.526-2.36,8.896-7.969,8.385-13.957l-3.18-37.258l38.066,23.755
	c3.483,2.174,7.723,2.695,11.63,1.432c3.907-1.264,7.037-4.17,8.587-7.972l14.668-35.969l2.243,3.607
	c-6.756,13.797-10.556,29.295-10.556,45.665v44.456c0,17.047,4.474,33.374,13.005,47.806L98.992,289.769z M43.597,347.784
	c-1.619-1.034-1.529-2.426-1.168-3.413c0.312-0.854,1.147-2.244,3.272-1.961c34.116,4.553,67.36-0.824,91.903-14.443
	c0.83,18.876,4.047,37.324,15.723,51.563C117.443,376.515,76.845,369.01,43.597,347.784z M218.873,438.469
	c-2.475,4.551-7.235,7.378-12.422,7.378c-2.365,0-4.628-0.579-6.727-1.72c-3.313-1.801-5.726-4.785-6.795-8.402
	s-0.665-7.433,1.137-10.746c3.535-6.501,4.3-14.59,4.116-21.387c8.393,1.768,17.775,2.94,28.221,3.534
	C226.212,416.546,224.52,428.085,218.873,438.469z M313.393,429.018c-0.934,6.984-6.938,12.25-13.967,12.25
	c-0.628,0-1.267-0.043-1.898-0.127c-7.716-1.032-13.155-8.149-12.124-15.865c0.414-3.095,0.159-6.813-0.787-11.311
	c1.879,0.324,3.788,0.512,5.718,0.512c1.827,0,3.671-0.163,5.521-0.521c5.676-1.1,10.87-3.831,15.779-8.324
	C313.718,414.538,314.297,422.26,313.393,429.018z M312.59,379.358c-0.045,0.075-0.086,0.152-0.128,0.228
	c-0.318,0.578-0.642,1.16-0.985,1.754c-6.26,10.843-12.304,16.695-18.476,17.892c-5.178,1.001-11.639-0.942-20.94-6.312
	c-8.688-5.016-13.331-11.073-14.007-18.478c0.012-0.417-0.018-0.831-0.075-1.241c-0.175-5.622,1.841-11.998,6.035-19.263
	c4.188-7.253,8.692-12.185,13.638-14.847c0.387-0.155,0.764-0.337,1.122-0.556c2.573-1.191,5.263-1.794,8.091-1.794
	c4.594,0,9.549,1.567,14.932,4.674c9.3,5.37,14.215,9.989,15.937,14.979C319.656,361.969,317.973,369.496,312.59,379.358z
	 M251.023,346.437c-3.095,5.361-5.28,10.581-6.573,15.605l-8.368-4.831l16.801-29.1l8.369,4.832
	C257.547,336.574,254.118,341.077,251.023,346.437z M349.734,313.1c0-0.987-0.027-1.971-0.058-2.956
	c1.762-0.237,3.622-0.366,5.59-0.366c10.739,0,17.306,1.544,21.291,5.004c4.746,4.122,7.054,12.212,7.054,24.732
	c0,12.521-2.308,20.61-7.054,24.732c-3.985,3.46-10.551,5.004-21.291,5.004c-5.32,0-9.828-0.875-13.513-2.569
	C348.886,351.054,349.734,332.408,349.734,313.1z M475.38,221.572c0,31.711-25.799,57.51-57.51,57.51h-79.94
	c-0.015,0-0.03,0-0.046,0H228.948c-4.142,0-7.5,3.358-7.5,7.5s3.358,7.5,7.5,7.5h103.414c1.568,6.214,2.371,12.588,2.371,19.019
	c0,14.975-0.711,27.253-3.223,37.367c-4.093-10.491-13.965-17.28-22.214-22.043c-12.004-6.93-23.569-8.39-33.907-4.639l-15.328-8.85
	c-3.384-1.954-7.326-2.473-11.101-1.461c-0.579,0.155-1.138,0.355-1.686,0.574c-0.591-0.743-1.216-1.46-1.905-2.122
	c-2.986-2.869-7.734-2.774-10.604,0.213c-2.87,2.987-2.774,7.735,0.213,10.604c0.561,0.539,1.02,1.175,1.363,1.892
	c0.188,0.393,0.378,0.769,0.568,1.143l-7.476,12.949c-1.799-2.551-3.429-5.345-4.907-8.425c-0.308-0.643-0.509-1.319-0.597-2.011
	c-0.521-4.109-4.279-7.017-8.384-6.497c-4.109,0.522-7.018,4.275-6.497,8.384c0.291,2.29,0.947,4.514,1.953,6.61
	c2.927,6.101,6.491,11.521,10.62,16.189c-0.827,2.625-0.906,5.431-0.176,8.153c1.011,3.775,3.432,6.93,6.816,8.883l15.327,8.849
	c0.869,4.898,2.79,9.48,5.743,13.671c-1.904,0.035-3.836,0.055-5.8,0.055c-3.206,0-6.303-0.049-9.314-0.137
	c-0.061-0.004-0.122-0.003-0.182-0.005c-16.658-0.497-30.359-2.352-41.409-5.65c-0.486-0.209-0.996-0.364-1.522-0.467
	c-3.84-1.22-7.347-2.623-10.534-4.212c-0.339-0.21-0.698-0.39-1.071-0.545c-5.73-3.001-10.391-6.632-14.059-10.924
	c-10.917-12.774-13.11-31.49-13.11-57.549c0-13.263,3.391-26.221,9.848-37.92c8.892,6.676,18.932,11.797,29.573,14.974
	c3.969,1.186,8.147-1.072,9.332-5.042c1.185-3.969-1.072-8.147-5.042-9.332c-16.01-4.779-30.412-14.793-40.553-28.198
	c-10.475-13.846-16.011-30.369-16.011-47.783v-44.456c0-49.181,40.012-89.193,89.193-89.193h37.561
	c28.118,0,54.164,14.003,69.674,37.456c12.503,18.909,33.503,30.198,56.173,30.198h25.794c31.711,0,57.51,25.799,57.51,57.51v30.258
	H475.38z M83.82,102.768c1.441,1.326,3.261,1.981,5.077,1.981c2.024,0,4.042-0.814,5.521-2.421c2.805-3.048,2.607-7.792-0.44-10.598
	L80.605,79.426c-3.048-2.805-7.793-2.608-10.598,0.44c-2.805,3.048-2.607,7.793,0.441,10.598L83.82,102.768z M35.435,311.072
	l16.582-14.002c3.165-2.672,3.564-7.404,0.892-10.569c-2.671-3.164-7.403-3.563-10.569-0.892L25.758,299.61
	c-3.165,2.672-3.564,7.404-0.892,10.569c1.484,1.757,3.602,2.661,5.734,2.661C32.309,312.842,34.028,312.261,35.435,311.072z
	 M429.07,392.235c-2.911-2.948-7.658-2.979-10.606-0.068c-2.948,2.91-2.978,7.659-0.068,10.606l14.442,14.628
	c1.467,1.486,3.402,2.231,5.337,2.231c1.903,0,3.807-0.72,5.268-2.163c2.948-2.91,2.978-7.659,0.068-10.606L429.07,392.235z
	 M426.209,166.918c3.675,0,6.654-2.979,6.654-6.654s-2.979-6.654-6.654-6.654s-6.654,2.979-6.654,6.654
	S422.534,166.918,426.209,166.918z M405.004,206.776c-17.555,0-31.836,14.282-31.836,31.837s14.282,31.836,31.836,31.836
	c17.555,0,31.836-14.282,31.836-31.836S422.559,206.776,405.004,206.776z M405.004,255.449c-9.284,0-16.836-7.553-16.836-16.836
	c0-9.284,7.553-16.837,16.836-16.837c9.284,0,16.836,7.553,16.836,16.837C421.841,247.896,414.288,255.449,405.004,255.449z
	 M297.551,86.134l-15.8,1.687c-4.119,0.439-7.101,4.135-6.661,8.254c0.27,2.532,1.775,4.628,3.848,5.77
	c-0.315,0.828-0.496,1.724-0.496,2.663v8.358c0,4.142,3.358,7.5,7.5,7.5s7.5-3.358,7.5-7.5v-8.358c0-0.988-0.196-1.928-0.543-2.792
	l6.244-0.667c4.119-0.439,7.101-4.135,6.661-8.254C305.365,88.676,301.668,85.696,297.551,86.134z M220.086,87.821l-15.8-1.687
	c-4.113-0.439-7.814,2.543-8.254,6.661c-0.44,4.119,2.543,7.814,6.661,8.254l6.244,0.667c-0.347,0.864-0.543,1.804-0.543,2.792
	v8.358c0,4.142,3.358,7.5,7.5,7.5s7.5-3.358,7.5-7.5v-8.358c0-0.939-0.18-1.834-0.495-2.663c2.073-1.142,3.578-3.238,3.848-5.77
	C227.187,91.956,224.205,88.26,220.086,87.821z M383.8,166.918c3.675,0,6.654-2.979,6.654-6.654s-2.979-6.654-6.654-6.654
	s-6.655,2.979-6.655,6.654S380.125,166.918,383.8,166.918z"/>
<g>
</g>
<g>
</g>
<g>
</g>
<g>
</g>
<g>
</g>
<g>
</g>
<g>
</g>
<g>
</g>
<g>
</g>
<g>
</g>
<g>
</g>
<g>
</g>
<g>
</g>
<g>
</g>
<g>
</g>
</svg>
