<?xml version="1.0" encoding="iso-8859-1"?>
<!-- Generator: Adobe Illustrator 19.0.0, SVG Export Plug-In . SVG Version: 6.00 Build 0)  -->
<svg version="1.1" id="Capa_1" xmlns="http://www.w3.org/2000/svg" xmlns:xlink="http://www.w3.org/1999/xlink" x="0px" y="0px"
	 viewBox="0 0 512 512" style="enable-background:new 0 0 512 512;" xml:space="preserve">
<path style="fill:#498A68;" d="M325.365,355.647c-0.816,0-1.645-0.074-2.477-0.227c-16.992-3.125-32.344-10.654-37.817-15.002
	c-5.886-4.676-6.866-13.237-2.19-19.123c4.658-5.863,13.171-6.858,19.053-2.245c1.478,1.06,12.075,7.061,25.876,9.598
	c7.393,1.359,12.284,8.455,10.925,15.847C337.529,351.056,331.805,355.647,325.365,355.647z"/>
<path style="fill:#5CB38E;" d="M202.325,389.723c-63.515,0-136.608,0-190.118-34.163c-9.157-5.846-3.861-19.965,6.908-18.527
	c42.375,5.657,77.969-5.13,98.265-22.602L202.325,389.723z"/>
<path style="opacity:0.1;enable-background:new    ;" d="M93.422,328.844c0.708,20.283,3.822,40.53,16.324,57.366
	c30.963,3.513,62.822,3.514,92.578,3.514l-84.945-75.293C110.875,320.031,102.791,324.939,93.422,328.844z"/>
<g>
	<path style="fill:#498A68;" d="M173.891,451.678c-0.539,0-1.081-0.02-1.628-0.063c-11.531-0.886-20.158-10.953-19.271-22.483
		c0.805-10.464-0.058-45.362-1.56-53.091c-3.446-10.375,1.706-21.786,11.978-25.972c10.712-4.363,22.929,0.782,27.292,11.49
		c5.646,13.857,4.302,67.432,4.044,70.784C193.901,443.328,184.726,451.677,173.891,451.678z M151.91,377.338
		c0.003,0.008,0.007,0.016,0.01,0.024C151.916,377.354,151.913,377.346,151.91,377.338z"/>
	<path style="fill:#498A68;" d="M249.83,451.678c-0.539,0-1.082-0.02-1.628-0.063c-11.531-0.886-20.158-10.953-19.271-22.483
		c0.805-10.464-0.058-45.362-1.56-53.091c-3.446-10.375,1.706-21.786,11.978-25.972c10.709-4.363,22.929,0.78,27.292,11.49
		c5.646,13.857,4.302,67.432,4.044,70.784C269.84,443.328,260.665,451.677,249.83,451.678z M227.849,377.338
		c0.003,0.008,0.007,0.016,0.01,0.024C227.855,377.354,227.852,377.346,227.849,377.338z"/>
</g>
<path style="opacity:0.1;enable-background:new    ;" d="M271.008,412.94c-0.017-17.798-0.785-42.585-4.368-51.38
	c-4.364-10.71-16.583-15.852-27.292-11.49c-10.272,4.185-15.423,15.597-11.978,25.972c1.204,6.197,1.997,29.856,1.849,44.386
	C245.384,419.367,259.236,416.896,271.008,412.94z"/>
<path style="opacity:0.1;enable-background:new    ;" d="M163.41,350.07c-10.271,4.185-15.423,15.597-11.978,25.972
	c1.049,5.401,1.786,24.067,1.86,38.395c11.88,3.436,25.728,5.496,41.738,6.259c0.194-17.402-0.185-48.965-4.329-59.135
	C186.339,350.851,174.12,345.708,163.41,350.07z"/>
<path style="fill:#5CB38E;" d="M305.363,315.845c0,48.883-6.64,84.255-95.598,84.255s-95.598-35.372-95.598-84.255
	s42.801-88.512,95.598-88.512C262.562,227.333,305.363,266.962,305.363,315.845z"/>
<path style="fill:#9BDFC1;" d="M305.363,315.845c0-0.39-0.01-0.777-0.016-1.165c-19.911-5.11-59.407-6.596-86.892,22.612
	c-20.028,21.284-22.926,44.253-20.778,62.572c3.85,0.156,7.876,0.236,12.087,0.236C298.723,400.099,305.363,364.728,305.363,315.845
	z"/>
<path style="opacity:0.05;enable-background:new    ;" d="M191.615,228.933c-44.117,7.851-77.45,43.774-77.45,86.912
	c0,45.264,5.704,78.938,77.171,83.677C151.656,359.247,159.331,276.087,191.615,228.933z"/>
<path style="fill:#DEE2E5;" d="M325.576,105.448c0.051-1.665-0.032-3.363-0.264-5.089c-2.01-14.903-14.669-26.416-29.698-26.954
	c-17.706-0.633-32.26,13.532-32.26,31.098c0,2.089,0.206,4.129,0.598,6.102c0.549,2.762-0.179,5.651-2.091,7.718
	c-5.525,5.969-8.741,14.103-8.221,22.992c0.925,15.806,13.937,28.572,29.758,29.222c4.479,0.184,8.755-0.583,12.65-2.112
	c2.432-0.954,5.125-0.751,7.408,0.518c4.948,2.752,10.724,4.194,16.859,3.855c15.978-0.881,28.847-14.088,29.342-30.083
	c0.413-13.351-7.587-24.886-19.097-29.704C327.514,111.736,325.475,108.749,325.576,105.448z"/>
<path style="fill:#5CB38E;" d="M297.514,99.859L297.514,99.859c-16.324-24.687-43.946-39.535-73.542-39.535h-36.381
	c-51.723,0-93.652,41.929-93.652,93.652v43.058c0,46.42,37.632,84.052,84.052,84.052h192.853c34.775,0,62.966-28.191,62.966-62.966
	v-29.305c0-34.775-28.191-62.966-62.966-62.966h-24.983C326.405,125.85,308.246,116.089,297.514,99.859z"/>
<path style="fill:#DEE2E5;" d="M358.383,187.213c-32.101,0-52.278,15.381-53.834,36.942c-0.952,13.196,8.677,25.114,21.896,25.665
	c6.012,0.251,11.524-1.823,15.744-5.383c1.471-1.241,3.507-1.5,5.235-0.652c3.308,1.622,7.026,2.534,10.959,2.534
	c3.932,0,7.651-0.912,10.959-2.533c1.728-0.848,3.764-0.589,5.235,0.652c4.221,3.56,9.733,5.634,15.744,5.383
	c13.219-0.552,22.849-12.469,21.896-25.665C410.662,202.594,390.484,187.213,358.383,187.213z"/>
<g style="opacity:0.1;">
	<circle cx="144.813" cy="217.503" r="6.445"/>
	<circle cx="190.632" cy="227.332" r="6.445"/>
	<circle cx="164.413" cy="249.321" r="6.445"/>
</g>
<g>
	<ellipse style="fill:#FFA8CB;" cx="161.943" cy="129.356" rx="16.245" ry="8.334"/>
	<ellipse style="fill:#FFA8CB;" cx="275.188" cy="129.356" rx="16.245" ry="8.334"/>
</g>
<path style="opacity:0.05;enable-background:new    ;" d="M166.786,62.647c-41.708,9.462-72.847,46.757-72.847,91.329v43.058
	c0,46.42,37.632,84.052,84.052,84.052h51.003C154.716,237.868,142.125,119.068,166.786,62.647z"/>
<path style="fill:#DEE2E5;" d="M75.894,105.427c-0.051-1.665,0.032-3.363,0.264-5.089c2.01-14.903,14.669-26.416,29.698-26.954
	c17.706-0.633,32.26,13.532,32.26,31.098c0,2.089-0.206,4.129-0.598,6.102c-0.549,2.762,0.179,5.651,2.091,7.718
	c5.525,5.969,8.741,14.103,8.221,22.992c-0.925,15.806-13.936,28.572-29.758,29.222c-4.479,0.184-8.755-0.583-12.65-2.112
	c-2.432-0.954-5.125-0.751-7.408,0.518c-4.948,2.752-10.724,4.194-16.859,3.855c-15.978-0.881-28.847-14.088-29.342-30.083
	C51.4,129.342,59.4,117.807,70.91,112.99C73.956,111.716,75.995,108.729,75.894,105.427z"/>
<path style="fill:#498A68;" d="M215.613,367.636c-5.689,0-10.993-3.594-12.902-9.285c-3.153-9.401-9.558-16.496-11.97-19.167
	l-0.288-0.319c-5.027-5.588-4.573-14.193,1.015-19.221c5.589-5.027,14.194-4.572,19.221,1.015l0.257,0.285
	c3.12,3.456,12.615,13.974,17.571,28.749c2.39,7.127-1.449,14.841-8.575,17.232C218.508,367.407,217.048,367.636,215.613,367.636z"
	/>
<path style="fill:#A3E3FF;" d="M427.471,338.38v-22.556h36.227v22.556c0,4.224,1.342,8.339,3.832,11.751l18.316,25.097
	c2.616,3.584,0.056,8.622-4.382,8.622h-71.761c-4.438,0-6.998-5.038-4.382-8.622l18.316-25.097
	C426.129,346.719,427.471,342.604,427.471,338.38z"/>
<path style="fill:#FAE17C;" d="M481.465,383.849c4.438,0,6.998-5.038,4.382-8.622l-17.436-23.89
	c-13.78-0.005-30.136-2.327-43.727-2.811c-0.324,0.548-0.666,1.086-1.044,1.604l-18.316,25.097
	c-2.616,3.584-0.056,8.622,4.382,8.622H481.465z"/>
<path style="fill:#80B0E3;" d="M470.036,315.824h-48.903c-6.156,0-11.146-4.991-11.146-11.146l0,0
	c0-6.156,4.99-11.147,11.146-11.147h48.903c6.156,0,11.147,4.991,11.147,11.147l0,0
	C481.182,310.833,476.191,315.824,470.036,315.824z"/>
<path style="fill:#A3E3FF;" d="M363.851,328.505l-28.708-10.449l-13.913,38.227c-2.886,7.928,1.202,16.693,9.13,19.578l0,0
	c7.928,2.885,16.693-1.202,19.578-9.13L363.851,328.505z"/>
<path style="fill:#80B0E3;" d="M364.402,328.705l-29.81-10.85c-5.785-2.105-8.768-8.502-6.662-14.286l0,0
	c2.105-5.785,8.502-8.767,14.286-6.662l29.81,10.85c5.785,2.105,8.767,8.502,6.662,14.286l0,0
	C376.582,327.828,370.185,330.811,364.402,328.705z"/>
<g>
	<path style="fill:#806C6C;" d="M496.754,410.12H335.898c-4.278,0-7.746-3.468-7.746-7.746v-10.781c0-4.278,3.468-7.746,7.746-7.746
		h160.856c4.278,0,7.746,3.468,7.746,7.746v10.781C504.499,406.652,501.031,410.12,496.754,410.12z"/>
	<path style="fill:#806C6C;" d="M372.043,445.565h-16.076c-3.055,0-5.532-2.477-5.532-5.532v-29.912h27.141v29.912
		C377.575,443.088,375.099,445.565,372.043,445.565z"/>
</g>
<rect x="350.435" y="410.115" style="opacity:0.1;enable-background:new    ;" width="27.139" height="13.483"/>
<path style="fill:#806C6C;" d="M460.608,445.565h16.076c3.055,0,5.532-2.477,5.532-5.532v-29.912h-27.141v29.912
	C455.076,443.088,457.553,445.565,460.608,445.565z"/>
<rect x="455.081" y="410.115" style="opacity:0.1;enable-background:new    ;" width="27.139" height="13.483"/>
<path d="M184.885,343.888l0.29,0.321c2.124,2.353,7.769,8.606,10.426,16.527c2.89,8.613,10.933,14.399,20.012,14.399
	c2.282,0,4.542-0.37,6.716-1.1c11.035-3.703,17-15.692,13.299-26.728c-5.455-16.257-15.736-27.647-19.104-31.378l-0.256-0.285
	c-2.769-3.08-7.511-3.333-10.592-0.564c-3.08,2.77-3.332,7.511-0.563,10.592l0.267,0.297c2.861,3.169,11.568,12.813,16.028,26.108
	c1.072,3.195-0.656,6.666-3.852,7.739c-0.634,0.212-1.288,0.32-1.944,0.32c-2.627,0-4.955-1.676-5.792-4.17
	c-3.65-10.884-10.816-18.82-13.51-21.806l-0.288-0.319c-2.774-3.075-7.517-3.32-10.593-0.546
	C182.355,336.07,182.11,340.812,184.885,343.888z M496.754,376.348h-2.527c-0.321-1.964-1.096-3.864-2.322-5.543l-18.316-25.097
	c-1.563-2.143-2.39-4.677-2.39-7.33v-15.115c9.74-0.605,17.484-8.698,17.484-18.587c0-10.282-8.365-18.645-18.646-18.645h-48.904
	c-10.282,0-18.646,8.365-18.646,18.645c0,9.89,7.745,17.982,17.484,18.587v15.115c0,2.652-0.827,5.187-2.39,7.33l-18.316,25.096
	c-1.226,1.68-2.002,3.58-2.323,5.544h-9.371c-4.142,0-7.5,3.358-7.5,7.5c0,4.142,3.358,7.5,7.5,7.5h109.182
	c0.135,0,0.246,0.11,0.246,0.246v10.781c0,0.135-0.11,0.246-0.246,0.246H335.898c-0.135,0-0.246-0.11-0.246-0.246v-10.781
	c0-0.135,0.11-0.246,0.246-0.246h17.411c4.142,0,7.5-3.358,7.5-7.5c0-4.142-3.358-7.5-7.5-7.5h-0.466
	c1.768-2.058,3.186-4.426,4.142-7.052l11.808-32.441c7.393-0.239,14.262-4.883,16.943-12.247
	c3.516-9.662-1.483-20.382-11.145-23.898l-29.81-10.851c-9.663-3.518-20.382,1.483-23.898,11.145
	c-1.703,4.68-1.482,9.744,0.622,14.256c0.898,1.925,2.107,3.636,3.545,5.116c-4.894-1.213-9.119-2.8-12.188-4.13
	c0-0.134,0.001-0.269,0.001-0.403c0-9.331-1.421-18.458-4.22-27.259h62.203c38.854,0,70.465-31.611,70.465-70.465v-29.305
	c0-38.854-31.611-70.465-70.465-70.465h-21.582c-4.104-5.378-9.592-9.658-15.805-12.259c-0.252-0.105-0.387-0.313-0.384-0.417
	c0.064-2.104-0.046-4.23-0.329-6.319c-2.482-18.404-18.329-32.784-36.862-33.447c-6.229-0.228-12.3,1.029-17.834,3.641
	c-15.677-10.751-34.432-16.727-54.076-16.727h-36.383c-21.372,0-42.248,6.842-59.451,19.339c-6.628-4.359-14.421-6.562-22.554-6.273
	c-18.532,0.663-34.38,15.043-36.861,33.446c-0.282,2.09-0.393,4.217-0.329,6.321c0,0,0,0,0,0.001
	c0.004,0.103-0.132,0.31-0.384,0.415c-14.665,6.139-24.189,20.949-23.697,36.855c0.614,19.846,16.614,36.247,36.426,37.339
	c0.722,0.04,1.441,0.06,2.16,0.06c1.186,0,2.365-0.073,3.539-0.18v16.888c0,20.716,7.115,41.016,20.032,57.161
	c4.109,5.134,8.759,9.784,13.827,13.895c-8.469,13.725-13.112,29.135-13.58,45.082c-21.235,14.742-53.265,20.878-86.612,16.426
	c-8.438-1.127-16.07,3.48-18.988,11.465c-2.892,7.913-0.058,16.278,7.054,20.818c41.948,26.782,93.894,32.528,134.87,34.404
	c0.786,0.378,1.585,0.746,2.4,1.104c0.442,12.497,0.487,25.764,0.072,31.168c-0.583,7.574,1.819,14.921,6.763,20.689
	c4.944,5.768,11.838,9.265,19.405,9.847c0.731,0.057,1.474,0.085,2.21,0.085c14.754,0,27.2-11.535,28.332-26.258
	c0.129-1.67,0.443-12.434,0.317-25.404c2.36,0.053,4.763,0.084,7.224,0.084c4.102,0,8.061-0.074,11.882-0.222
	c0.167,9.173,0.104,17.324-0.193,21.179c-0.582,7.574,1.819,14.921,6.763,20.689c4.944,5.768,11.838,9.265,19.405,9.847
	c0.73,0.057,1.474,0.085,2.211,0.085c14.754,0,27.2-11.535,28.332-26.259c0.196-2.555,0.624-20.333,0.066-37.5
	c7.434-3.813,13.525-8.546,18.395-14.243c5.504-6.44,9.151-13.802,11.568-21.7c1.545,0.482,3.091,0.933,4.635,1.346
	c-0.109,3.514,0.586,7.031,2.115,10.311c2.066,4.429,5.432,7.977,9.634,10.289c-2.43,2.702-3.923,6.262-3.923,10.173v10.781
	c0,8.406,6.839,15.245,15.245,15.245h7.038v22.413c0,7.186,5.846,13.032,13.032,13.032h16.076c7.186,0,13.031-5.846,13.031-13.032
	v-22.413h62.501v22.413c0,7.186,5.846,13.032,13.032,13.032h16.076c7.186,0,13.031-5.846,13.031-13.032v-22.413h7.038
	c8.406,0,15.245-6.839,15.245-15.245v-10.781C511.999,383.188,505.159,376.348,496.754,376.348z M417.487,304.677
	c0-2.011,1.636-3.646,3.647-3.646h48.903c2.011,0,3.647,1.636,3.647,3.646c0,2.011-1.636,3.647-3.647,3.647h-48.904
	C419.122,308.324,417.487,306.688,417.487,304.677z M413.788,376.348l15.908-21.797c3.45-4.728,5.274-10.32,5.274-16.171v-15.056
	h21.228v15.056c0,5.853,1.824,11.445,5.274,16.171l15.908,21.797H413.788z M295.346,80.9c11.328,0.405,21.015,9.202,22.533,20.462
	c0.172,1.276,0.24,2.574,0.201,3.855c-0.056,1.837,0.239,3.637,0.818,5.331c-5.939-3.757-11.12-8.763-15.128-14.825
	c-3.531-5.34-7.546-10.244-11.954-14.687C292.979,80.905,294.158,80.857,295.346,80.9z M270.564,108.785
	c0,9.968-8.109,18.077-18.077,18.077c-9.968,0-18.076-8.109-18.076-18.077c0-9.968,8.109-18.076,18.076-18.076
	C262.456,90.709,270.564,98.817,270.564,108.785z M81.567,165.289c-12.107-0.667-21.883-10.693-22.258-22.826
	c-0.306-9.888,5.384-18.74,14.496-22.554c5.926-2.481,9.778-8.393,9.585-14.709c-0.039-1.283,0.028-2.581,0.201-3.858
	c1.518-11.26,11.206-20.056,22.533-20.461c6.488-0.23,12.618,2.113,17.27,6.604c4.657,4.494,7.222,10.531,7.222,16.999
	c0,1.564-0.153,3.125-0.454,4.639c-1.027,5.162,0.447,10.499,3.943,14.274c4.403,4.757,6.619,10.958,6.238,17.459
	c-0.698,11.939-10.616,21.675-22.577,22.166c-3.316,0.137-6.551-0.402-9.604-1.6c-4.506-1.768-9.534-1.422-13.792,0.946
	C90.487,164.527,86.065,165.538,81.567,165.289z M16.243,349.238c-1.153-0.736-1.502-1.754-1.037-3.026
	c0.339-0.929,1.123-1.989,2.916-1.747c32.938,4.397,65.043-0.75,88.826-13.828c0.823,18,3.924,35.581,14.91,49.265
	C87.27,376.955,48.233,369.663,16.243,349.238z M187.268,431.769c-0.535,6.958-6.411,12.41-13.376,12.41
	c-0.347,0-0.696-0.013-1.054-0.041c-3.579-0.275-6.836-1.928-9.173-4.653c-2.336-2.726-3.471-6.198-3.196-9.778
	c0.427-5.555,0.404-16.652,0.134-27.189c7.951,2.027,16.903,3.434,26.93,4.245C187.679,419.867,187.352,430.63,187.268,431.769z
	 M263.208,431.769c-0.535,6.958-6.411,12.41-13.376,12.41c-0.347,0-0.696-0.013-1.054-0.041c-3.579-0.275-6.837-1.928-9.173-4.653
	c-2.336-2.726-3.472-6.198-3.196-9.777c0.382-4.968,0.392-14.4,0.219-23.368c10.031-1.033,18.92-2.71,26.756-5.054
	C263.704,416.383,263.324,430.181,263.208,431.769z M193.906,288.586h98.828c3.397,8.723,5.129,17.869,5.129,27.259
	c0,25.185-2.115,43.269-12.642,55.586c-2.192,2.565-6.582,7.696-17.228,12.264c-0.246,0.089-0.485,0.192-0.718,0.305
	c-11.138,4.629-28.872,8.601-57.512,8.601c-31.675,0-50.008-4.858-60.833-10.091c-0.407-0.255-0.839-0.471-1.295-0.645
	c-7.869-4.047-11.428-8.208-13.33-10.434c-7.804-9.132-12.642-21.616-12.642-55.586c0-13.852,3.804-27.294,11.039-39.265
	c7.502,4.283,15.596,7.518,24.035,9.525c0.583,0.139,1.167,0.206,1.741,0.206c3.394,0,6.471-2.32,7.29-5.767
	c0.958-4.029-1.532-8.073-5.562-9.031c-9.036-2.149-17.35-5.837-24.718-10.73c-0.185-0.166-0.38-0.324-0.585-0.474
	c-0.349-0.254-0.714-0.466-1.088-0.652c-19.883-13.978-32.378-37.009-32.378-62.623V175.59c0.073-0.04,0.149-0.074,0.221-0.114
	c0.236-0.132,0.605-0.255,1.022-0.09c5.003,1.963,10.29,2.849,15.697,2.624c19.569-0.804,35.794-16.738,36.937-36.277
	c0.622-10.614-3.002-20.744-10.204-28.525c-0.235-0.254-0.33-0.709-0.24-1.16c0.493-2.476,0.742-5.021,0.742-7.565
	c0-7.853-2.315-15.312-6.621-21.642c14.244-9.727,31.232-15.017,48.598-15.017h36.381c13.154,0,25.833,3.181,37.119,9.028
	c-2.745-0.74-5.628-1.142-8.604-1.142c-15.658,0-28.8,10.941-32.208,25.576h-3.884c-3.408-14.635-16.549-25.576-32.209-25.576
	c-18.238,0-33.076,14.837-33.076,33.076s14.837,33.077,33.076,33.077c15.658,0,28.801-10.941,32.209-25.577h3.883
	c3.408,14.636,16.549,25.577,32.208,25.577c18.238,0,33.077-14.837,33.077-33.077c0-6.791-2.06-13.108-5.584-18.366
	c4.194,4.053,7.983,8.594,11.279,13.577c12.05,18.222,32.217,29.159,54.034,29.346c0.003,0,0.006,0.001,0.008,0.001
	c0.002,0,0.003,0,0.005,0c0.185,0.002,0.37,0.009,0.555,0.009h24.983c30.584,0,55.466,24.882,55.466,55.466v29.305
	c0,30.584-24.882,55.466-55.466,55.466H193.906c-4.142,0-7.5,3.358-7.5,7.5C186.407,285.228,189.765,288.586,193.906,288.586z
	 M202.265,108.785c0,9.968-8.109,18.077-18.077,18.077c-9.968,0-18.076-8.109-18.076-18.077c0-9.968,8.109-18.076,18.076-18.076
	C194.155,90.709,202.265,98.817,202.265,108.785z M316.857,346.368c-1.831-0.489-3.672-1.037-5.507-1.633
	c0.566-4.11,0.925-8.293,1.15-12.504c2.573,0.925,5.443,1.827,8.552,2.61L316.857,346.368z M334.978,306.134
	c0.688-1.889,2.784-2.867,4.673-2.179l29.811,10.85c1.889,0.688,2.867,2.784,2.179,4.674c-0.687,1.889-2.783,2.869-4.674,2.179
	l-0.551-0.201c0,0,0,0-0.001,0c0,0,0,0-0.001,0l-29.258-10.65c-1.235-0.449-1.819-1.374-2.058-1.885
	C334.861,308.412,334.528,307.37,334.978,306.134z M328.536,364.794c-0.878-1.882-0.97-3.994-0.259-5.946l11.349-31.179
	l14.612,5.319l-11.349,31.18c-0.71,1.952-2.138,3.51-4.021,4.388c-1.883,0.877-3.994,0.97-5.946,0.259
	C330.972,368.104,329.414,366.676,328.536,364.794z M370.077,438.065h-12.142V417.62h12.142V438.065z M474.717,438.065h-12.142
	V417.62h12.142V438.065z M244.987,104.737v8.095c0,4.142,3.358,7.5,7.5,7.5c4.142,0,7.5-3.358,7.5-7.5v-8.095
	c0-4.142-3.358-7.5-7.5-7.5C248.345,97.237,244.987,100.595,244.987,104.737z M378.921,165.186c3.56,0,6.445-2.886,6.445-6.445
	c0-3.56-2.886-6.446-6.445-6.446c-3.56,0-6.445,2.886-6.445,6.446C372.475,162.3,375.361,165.186,378.921,165.186z M326.132,257.313
	c7.058,0.29,13.94-1.854,19.555-6.078c4.015,1.714,8.277,2.582,12.695,2.582c4.418,0,8.681-0.868,12.696-2.582
	c5.274,3.967,11.664,6.105,18.273,6.104c0.426,0,0.854-0.009,1.282-0.026c8.112-0.339,15.595-3.906,21.072-10.044
	c5.703-6.391,8.616-15.012,7.992-23.654c-0.931-12.897-7.542-24.312-18.614-32.141c-10.884-7.694-25.649-11.762-42.7-11.762
	c-17.051,0-31.817,4.067-42.7,11.762c-11.073,7.828-17.683,19.242-18.614,32.14c-0.624,8.642,2.289,17.264,7.992,23.655
	C310.537,253.407,318.021,256.974,326.132,257.313z M312.029,224.694c1.314-18.213,19.509-29.982,46.354-29.982
	c26.845,0,45.039,11.769,46.354,29.982c0.334,4.619-1.206,9.207-4.223,12.589c-2.752,3.084-6.483,4.876-10.506,5.043
	c-3.864,0.167-7.635-1.124-10.596-3.622c-2.273-1.918-5.104-2.91-7.96-2.91c-1.842,0-3.694,0.413-5.413,1.255
	c-2.392,1.173-4.968,1.768-7.657,1.768c-2.689,0-5.265-0.595-7.656-1.767c-4.386-2.151-9.635-1.501-13.373,1.652
	c-2.961,2.498-6.725,3.783-10.597,3.623c-4.023-0.168-7.754-1.959-10.506-5.043C313.235,233.901,311.696,229.313,312.029,224.694z
	 M177.143,104.737v8.095c0,4.142,3.358,7.5,7.5,7.5c4.142,0,7.5-3.358,7.5-7.5v-8.095c0-4.142-3.358-7.5-7.5-7.5
	C180.501,97.237,177.143,100.595,177.143,104.737z M337.846,165.186c3.56,0,6.445-2.886,6.445-6.445c0-3.56-2.886-6.446-6.445-6.446
	c-3.56,0-6.445,2.886-6.445,6.446C331.4,162.3,334.286,165.186,337.846,165.186z"/>
<g>
</g>
<g>
</g>
<g>
</g>
<g>
</g>
<g>
</g>
<g>
</g>
<g>
</g>
<g>
</g>
<g>
</g>
<g>
</g>
<g>
</g>
<g>
</g>
<g>
</g>
<g>
</g>
<g>
</g>
</svg>
