<?xml version="1.0" encoding="iso-8859-1"?>
<!-- Generator: Adobe Illustrator 19.0.0, SVG Export Plug-In . SVG Version: 6.00 Build 0)  -->
<svg version="1.1" id="Capa_1" xmlns="http://www.w3.org/2000/svg" xmlns:xlink="http://www.w3.org/1999/xlink" x="0px" y="0px"
	 viewBox="0 0 511.999 511.999" style="enable-background:new 0 0 511.999 511.999;" xml:space="preserve">
<path style="fill:#498A68;" d="M330.122,397.892c-6.245,0-11.881-4.309-13.313-10.656c-1.661-7.36,2.958-14.673,10.317-16.334
	l0.3-0.068c4.219-0.951,15.427-3.477,22.856-8.87c6.104-4.434,14.649-3.076,19.081,3.029c4.432,6.106,3.076,14.648-3.031,19.081
	c-11.982,8.699-27.179,12.124-32.899,13.413l-0.289,0.065C332.13,397.783,331.117,397.892,330.122,397.892z"/>
<path style="fill:#5CB38E;" d="M237.6,442.314c-63.752,0-137.119,0-190.829-34.291c-9.191-5.868-3.875-20.04,6.933-18.597
	c42.533,5.678,78.261-5.149,98.634-22.687L237.6,442.314z"/>
<path style="opacity:0.1;enable-background:new    ;" d="M128.289,381.206c0.711,20.359,3.836,40.682,16.386,57.58
	c31.079,3.526,63.057,3.526,92.925,3.526l-85.262-75.574C145.807,372.36,137.692,377.286,128.289,381.206z"/>
<g>
	<path style="fill:#498A68;" d="M209.06,504.501c-0.541,0-1.086-0.021-1.634-0.063c-11.573-0.89-20.234-10.993-19.345-22.566
		c0.808-10.505-0.058-45.535-1.565-53.292c-3.459-10.414,1.714-21.869,12.025-26.069c10.748-4.375,23.014,0.785,27.393,11.536
		c5.665,13.908,4.317,67.682,4.059,71.046C229.145,496.118,219.936,504.501,209.06,504.501z M186.996,429.881
		c0.003,0.008,0.006,0.015,0.009,0.023C187.002,429.897,186.999,429.89,186.996,429.881z"/>
	<path style="fill:#498A68;" d="M285.282,504.501c-0.541,0-1.087-0.021-1.636-0.063c-11.573-0.891-20.233-10.995-19.342-22.568
		c0.809-10.501-0.057-45.53-1.565-53.288c-3.46-10.414,1.712-21.868,12.021-26.069c10.75-4.379,23.016,0.783,27.395,11.532
		c5.669,13.912,4.318,67.687,4.06,71.051C305.367,496.119,296.158,504.501,285.282,504.501z M263.219,429.883
		c0.003,0.008,0.006,0.016,0.009,0.024C263.226,429.899,263.222,429.891,263.219,429.883z"/>
</g>
<path style="opacity:0.1;enable-background:new    ;" d="M306.54,465.617c-0.017-17.865-0.787-42.744-4.385-51.572
	c-4.38-10.75-16.646-15.912-27.395-11.532c-10.31,4.201-15.481,15.656-12.021,26.069c1.209,6.221,2.004,29.968,1.855,44.552
	C280.82,472.068,294.724,469.587,306.54,465.617z"/>
<path style="opacity:0.1;enable-background:new    ;" d="M198.541,402.51c-10.311,4.2-15.484,15.655-12.025,26.069
	c1.053,5.421,1.792,24.157,1.867,38.539c11.924,3.448,25.824,5.517,41.895,6.282c0.194-17.466-0.186-49.147-4.344-59.354
	C221.555,403.295,209.289,398.135,198.541,402.51z"/>
<path style="fill:#5CB38E;" d="M341.023,368.158c0,49.066-6.665,84.571-95.957,84.571s-95.957-35.504-95.957-84.571
	s42.961-88.844,95.957-88.844S341.023,319.091,341.023,368.158z"/>
<path style="fill:#9BDFC1;" d="M341.023,368.158c0-0.391-0.01-0.78-0.016-1.17c-19.986-5.129-59.629-6.621-87.217,22.697
	c-20.103,21.364-23.012,44.419-20.856,62.806c3.865,0.157,7.905,0.237,12.132,0.237
	C334.359,452.729,341.023,417.225,341.023,368.158z"/>
<path style="opacity:0.05;enable-background:new    ;" d="M226.851,280.921c-44.282,7.88-77.74,43.938-77.74,87.237
	c0,45.433,5.725,79.233,77.459,83.99C186.742,411.723,194.445,328.252,226.851,280.921z"/>
<path style="fill:#5CB38E;" d="M333.146,151.363L333.146,151.363c-16.386-24.779-44.111-39.684-73.817-39.684h-36.517
	c-51.916,0-94.004,42.086-94.004,94.004v43.22c0,46.594,37.772,84.367,84.367,84.367h193.575c34.905,0,63.201-28.296,63.201-63.201
	v-29.414c0-34.905-28.296-63.201-63.201-63.201h-25.077C362.145,177.452,343.918,167.653,333.146,151.363z"/>
<path style="fill:#806C6C;" d="M469.952,240.654c0-34.905-28.296-63.201-63.201-63.201h-25.077
	c-19.529,0-37.756-9.799-48.528-26.089l0,0c-16.386-24.779-44.111-39.683-73.817-39.683h-36.517
	c-51.916,0-94.004,42.086-94.004,94.004v4.782h8.601c9.045,0,17.438,4.709,22.151,12.429l5.956,9.754
	c4.457,7.299,13.766,9.963,21.409,6.126l14.814-7.437c10.433-5.237,23.079-2.873,30.914,5.781l6.398,7.066
	c5.672,6.265,14.036,9.381,22.424,8.357l7.935-0.969c10.86-1.327,19.891,8.261,17.919,19.022l-1.539,8.395
	c-1.619,8.832,4.153,17.327,12.961,19.074l7.348,1.458c5.946,1.179,11.06,4.941,13.956,10.265l12.777,23.483h24.62l7.26-10.848
	c9.158-13.684,27.715-17.28,41.322-8.006l22.172,15.112c24.342-8.786,41.745-32.087,41.745-59.459V240.654z"/>
<g style="opacity:0.1;">
	<circle cx="179.87" cy="269.443" r="6.469"/>
	<circle cx="225.86" cy="279.313" r="6.469"/>
	<circle cx="199.54" cy="301.383" r="6.469"/>
</g>
<g>
	<ellipse style="fill:#FFA8CB;" cx="193.91" cy="191.482" rx="16.306" ry="8.365"/>
	<ellipse style="fill:#FFA8CB;" cx="303.38" cy="191.482" rx="16.306" ry="8.365"/>
</g>
<circle style="fill:#9BDFC1;" cx="210.89" cy="167.182" r="25.03"/>
<g style="opacity:0.5;">
	<path style="fill:#FFFFFF;" d="M217.476,166.541c-1.92,0-3.84-0.733-5.305-2.198c-2.928-2.93-2.927-7.678,0.003-10.606l0.964-0.963
		c2.929-2.928,7.678-2.927,10.606,0.003c2.928,2.93,2.927,7.678-0.003,10.606l-0.964,0.963
		C221.314,165.809,219.395,166.541,217.476,166.541z"/>
	<path style="fill:#FFFFFF;" d="M213.925,188.892c-2.963,0-5.77-1.767-6.952-4.681l-0.385-0.948
		c-1.558-3.838,0.29-8.212,4.128-9.771c3.841-1.559,8.214,0.292,9.771,4.128l0.385,0.948c1.558,3.838-0.29,8.212-4.128,9.771
		C215.82,188.714,214.864,188.892,213.925,188.892z"/>
	<path style="fill:#FFFFFF;" d="M199.885,175.427c-0.169,0-0.338-0.006-0.509-0.017l-1.02-0.068
		c-4.133-0.277-7.259-3.852-6.982-7.985c0.277-4.133,3.846-7.256,7.984-6.982l1.021,0.068c4.133,0.277,7.259,3.852,6.982,7.985
		C207.095,172.39,203.798,175.427,199.885,175.427z"/>
</g>
<circle style="fill:#9BDFC1;" cx="286.41" cy="167.182" r="25.03"/>
<g style="opacity:0.5;">
	<path style="fill:#FFFFFF;" d="M279.817,166.541c-1.92,0-3.84-0.733-5.305-2.198l-0.963-0.963
		c-2.928-2.93-2.927-7.678,0.003-10.607c2.929-2.928,7.678-2.927,10.607,0.003l0.963,0.963c2.928,2.93,2.927,7.678-0.003,10.606
		C283.655,165.809,281.736,166.541,279.817,166.541z"/>
	<path style="fill:#FFFFFF;" d="M283.368,188.892c-0.939,0-1.895-0.178-2.818-0.553c-3.838-1.558-5.686-5.933-4.128-9.771
		l0.385-0.948c1.558-3.837,5.936-5.685,9.77-4.128c3.838,1.558,5.686,5.933,4.128,9.771l-0.385,0.948
		C289.138,187.125,286.331,188.892,283.368,188.892z"/>
	<path style="fill:#FFFFFF;" d="M297.408,175.427c-3.913,0-7.21-3.037-7.476-6.999c-0.276-4.133,2.85-7.708,6.982-7.985l1.02-0.068
		c4.101-0.273,7.707,2.849,7.984,6.982c0.276,4.133-2.85,7.708-6.982,7.985l-1.021,0.068
		C297.747,175.421,297.577,175.427,297.408,175.427z"/>
</g>
<path style="opacity:0.05;enable-background:new    ;" d="M201.928,114.012c-41.865,9.497-73.119,46.933-73.119,91.672v43.219
	c0,46.594,37.772,84.367,84.367,84.367h51.194C189.813,289.889,177.175,170.645,201.928,114.012z"/>
<path style="fill:#DEE2E5;" d="M169.832,72.794c-6.359-17.77,5.3-57.715,43.693-64.332s51.86,27.609,51.016,50.321L169.832,72.794z"
	/>
<path style="opacity:0.1;enable-background:new    ;" d="M169.832,72.794c-6.359-17.77,5.3-57.715,43.693-64.332
	s51.86,27.609,51.016,50.321L169.832,72.794z"/>
<path style="fill:#DEE2E5;" d="M154.769,111.047c-3.703-12.909-9.739-55.515,41.308-69.657
	c52.318-14.494,95.267,2.503,95.591,37.668L154.769,111.047z"/>
<path style="opacity:0.05;enable-background:new    ;" d="M154.769,111.047c-3.703-12.909-9.739-55.515,41.308-69.657
	c52.318-14.494,95.267,2.503,95.591,37.668L154.769,111.047z"/>
<g>
	<path style="fill:#DEE2E5;" d="M302.376,128.536l-138.012,14.505c-14.551,1.529-26.662-11.028-24.607-25.515l0,0
		c2.121-14.949,13.612-26.841,28.48-29.472L274.62,69.228c16.705-2.956,33.036,6.845,38.285,22.978l4.359,13.397
		C320.724,116.242,313.503,127.366,302.376,128.536z"/>
	<path style="fill:#DEE2E5;" d="M165.564,29.626c6.416-13.41,36.882-27.643,48.384-19.969c9.736,6.495-11.793,53.291-29.868,57.662
		C166.005,71.69,158.224,44.968,165.564,29.626z"/>
</g>
<path style="fill:#498A68;" d="M254.773,417.299c-1.455,0-2.935-0.234-4.39-0.728c-18.943-6.427-24.027-20.492-27.39-29.799
	c-2.564-7.096,1.108-14.927,8.204-17.492c7.094-2.565,14.927,1.109,17.491,8.204c3.174,8.781,4.617,11.226,10.474,13.213
	c7.146,2.424,10.971,10.182,8.548,17.327C265.779,413.713,260.466,417.299,254.773,417.299z"/>
<path d="M406.751,169.952h-25.076c-17.061,0-32.863-8.495-42.272-22.726c-5.263-7.957-11.594-14.997-18.887-21.018
	c0.37-0.488,0.729-0.986,1.066-1.504c4.142-6.38,5.168-14.188,2.814-21.422l-4.358-13.397
	c-3.811-11.713-12.539-20.728-23.274-25.316c-4.318-12.8-14.247-22.629-27.986-28.726c-6.726-20.887-24.542-40.018-55.983-34.854
	c-5.24-1.525-11.734-1.291-19.142,0.745c-13.19,3.624-29.397,13.256-34.852,24.655c-4.212,8.804-4.474,20.292-1.306,29.883
	c-9.607,11.772-12.288,25.116-12.554,35.546c-6.68,6.41-11.237,14.994-12.608,24.655c-1.306,9.209,1.648,18.329,8.105,25.023
	c0.688,0.714,1.407,1.386,2.15,2.021c-13.773,17.74-21.277,39.49-21.277,62.165v43.219c0,20.844,7.174,41.258,20.2,57.48
	c4.104,5.111,8.741,9.742,13.793,13.839c-8.507,13.781-13.171,29.255-13.639,45.27c-21.321,14.808-53.484,20.97-86.967,16.5
	c-8.461-1.128-16.105,3.488-19.029,11.489c-2.899,7.929-0.059,16.313,7.067,20.863c42.101,26.88,94.242,32.645,135.369,34.528
	c0.795,0.382,1.604,0.755,2.428,1.117c0.444,12.552,0.49,25.881,0.073,31.307c-1.206,15.678,10.569,29.414,26.249,30.619
	c0.732,0.056,1.474,0.084,2.207,0.084c14.796,0,27.275-11.567,28.41-26.331c0.13-1.676,0.445-12.491,0.318-25.524
	c2.378,0.054,4.799,0.084,7.28,0.084c4.127,0,8.11-0.074,11.953-0.223c0.168,9.213,0.104,17.408-0.194,21.288
	c-1.207,15.678,10.566,29.414,26.241,30.621c0.732,0.057,1.478,0.085,2.215,0.085c7.413,0,14.44-2.843,19.788-8.005
	c2.98-2.877,3.064-7.625,0.187-10.605c-2.878-2.98-7.626-3.064-10.605-0.187c-2.79,2.693-6.489,4.062-10.43,3.756
	c-7.432-0.572-13.013-7.083-12.441-14.515c0.385-4.997,0.395-14.475,0.221-23.477c10.091-1.038,19.033-2.725,26.911-5.084
	c0.123,5.772,0.139,11.117,0.121,15.168c-0.019,4.142,3.325,7.515,7.467,7.533h0.034c4.126,0,7.48-3.337,7.499-7.467
	c0.023-5.421-0.013-13.105-0.274-21.104c7.466-3.827,13.582-8.577,18.471-14.298c7.804-9.131,11.891-20.11,14.022-31.846
	c9.652-2.997,17.877-6.928,24.483-11.724c9.443-6.854,11.55-20.113,4.695-29.558c-3.321-4.573-8.225-7.581-13.807-8.467
	c-4.928-0.783-9.859,0.174-14.09,2.689c-0.707-4.757-1.794-9.443-3.258-14.04h13.156c0.004,0,0.009,0.001,0.014,0.001
	s0.011-0.001,0.016-0.001h49.288c8.228,0,16.125-1.427,23.475-4.023c0.271-0.076,0.539-0.165,0.801-0.271
	c27.063-9.924,46.425-35.947,46.425-66.407v-29.414C477.452,201.668,445.736,169.952,406.751,169.952z M348.512,371.719
	c2.303-1.144,4.373-2.376,6.178-3.686c1.331-0.967,2.96-1.357,4.582-1.098c1.627,0.258,3.055,1.134,4.022,2.465
	c1.995,2.75,1.382,6.61-1.368,8.606c-3.843,2.791-8.464,5.245-13.805,7.34C348.38,380.821,348.482,376.261,348.512,371.719z
	 M223.291,22.241c0.477-2.691,0.624-5.022,0.537-7.061c8.896,0.261,19.262,3.527,26.225,15.095
	c-8.731-1.529-18.304-1.941-28.469-1.107C222.33,26.731,222.909,24.398,223.291,22.241z M172.329,32.862
	c2.585-5.402,13.365-13.387,25.294-16.664c5.542-1.521,9.306-1.4,11.251-0.734c0.247,2.75-1.137,10.052-5.728,19.625
	c-0.019,0.04-0.04,0.078-0.058,0.118c-0.644,1.338-1.349,2.719-2.122,4.139c-6.973,12.799-14.555,19.694-18.649,20.684
	c-2.11,0.512-4.886,0.66-7.643-2.743c-0.641-0.791-1.208-1.693-1.712-2.667c-0.064-0.137-0.126-0.274-0.198-0.408
	C169.755,48.038,169.414,38.956,172.329,32.862z M166.157,69.965c4.045,3.486,8.915,5.323,14.121,5.323
	c1.82,0,3.684-0.224,5.563-0.678c11.213-2.712,21.969-15.792,29.16-29.594c17.221-2.549,32.644-1.297,44.533,3.116
	c0.262,0.116,0.525,0.227,0.8,0.313c7.687,2.987,13.835,7.324,17.955,12.837c-1.653,0.088-3.315,0.267-4.978,0.561L166.93,80.669
	c-1.958,0.347-3.863,0.831-5.714,1.43C162.157,78.098,163.715,73.955,166.157,69.965z M147.182,118.58
	c0.98-6.909,4.495-12.953,9.588-17.197c0.257-0.183,0.498-0.385,0.73-0.598c3.439-2.67,7.535-4.547,12.043-5.345l106.383-18.827
	c1.531-0.271,3.062-0.402,4.575-0.402c11.284,0,21.684,7.291,25.271,18.315l4.358,13.397c0.946,2.909,0.533,6.048-1.132,8.614
	c-1.666,2.565-4.365,4.22-7.407,4.539l-138.012,14.506c-4.621,0.486-9.122-1.154-12.349-4.499
	C148.005,127.738,146.53,123.181,147.182,118.58z M286.406,149.658c9.665,0,17.527,7.863,17.527,17.527
	c0,9.665-7.862,17.527-17.527,17.527s-17.527-7.863-17.527-17.527C268.879,157.521,276.741,149.658,286.406,149.658z
	 M228.414,167.186c0,9.665-7.862,17.527-17.527,17.527c-9.665,0-17.528-7.863-17.528-17.527c0-9.664,7.863-17.527,17.528-17.527
	C220.552,149.658,228.414,157.521,228.414,167.186z M50.807,401.701c-1.17-0.747-1.523-1.78-1.052-3.071
	c0.345-0.942,1.131-2.015,2.957-1.771c33.072,4.414,65.309-0.76,89.18-13.9c0.824,18.101,3.939,35.782,15.005,49.53
	C122.157,429.534,82.94,422.217,50.807,401.701z M222.515,484.518c-0.538,7-6.448,12.482-13.455,12.482
	c-0.352,0-0.705-0.013-1.059-0.04c-7.432-0.571-13.014-7.082-12.442-14.514c0.429-5.58,0.406-16.738,0.133-27.327
	c7.995,2.041,16.999,3.457,27.087,4.271C222.927,472.56,222.598,483.375,222.515,484.518z M320.828,423.971
	c-4.255,4.978-9.886,9.043-17.036,12.236c-0.454,0.145-0.887,0.331-1.297,0.555c-9.879,4.163-22.534,6.745-38.311,7.845
	c-0.03,0-0.058-0.003-0.088-0.002c-0.214,0.007-0.425,0.028-0.634,0.052c-5.722,0.38-11.842,0.573-18.394,0.573
	c-4.969,0-9.692-0.109-14.182-0.327c-0.178-0.018-0.358-0.025-0.539-0.03c-15.968-0.811-28.924-3.028-39.198-6.74
	c-0.45-0.222-0.926-0.401-1.421-0.53c-2.028-0.78-3.949-1.62-5.762-2.523c-0.341-0.212-0.702-0.392-1.077-0.548
	c-5.536-2.903-10.04-6.414-13.584-10.56c-7.838-9.171-12.695-21.706-12.695-55.813c0-13.917,3.823-27.419,11.095-39.445
	c7.628,4.357,15.869,7.63,24.46,9.641c0.575,0.134,1.149,0.199,1.716,0.199c3.404,0,6.486-2.334,7.296-5.792
	c0.943-4.033-1.561-8.068-5.594-9.012c-16.591-3.883-31.641-13.386-42.379-26.758c-11.053-13.765-16.896-30.393-16.896-48.088
	v-30.937h1.101c6.387,0,12.422,3.386,15.75,8.837l5.956,9.754c6.441,10.546,20.133,14.464,31.176,8.92l14.814-7.437
	c7.391-3.711,16.434-2.021,21.989,4.112l6.398,7.067c7.299,8.061,18.099,12.083,28.894,10.767l7.935-0.97
	c2.783-0.339,5.48,0.635,7.402,2.676c1.922,2.041,2.734,4.793,2.229,7.549l-1.539,8.395c-2.345,12.79,6.124,25.253,18.879,27.783
	l7.348,1.457c3.772,0.749,6.989,3.115,8.827,6.493l6.746,12.399h-91.365c-4.143,0-7.5,3.358-7.5,7.5c0,4.142,3.357,7.5,7.5,7.5
	h99.516c3.416,8.764,5.157,17.954,5.157,27.389C333.524,393.444,331.4,411.602,320.828,423.971z M406.751,325.769h-35.193
	c3.302-4.481,8.074-7.532,13.575-8.598c5.836-1.129,11.762,0.091,16.678,3.441l7.472,5.092
	C408.443,325.743,407.6,325.769,406.751,325.769z M462.452,270.068c0,22.763-13.731,42.368-33.34,51l-18.852-12.85
	c-8.246-5.621-18.18-7.671-27.979-5.773c-9.797,1.898-18.249,7.511-23.8,15.804l-5.032,7.52h-16.157l-10.647-19.567
	c-3.973-7.304-10.929-12.42-19.085-14.038l-7.348-1.458c-4.758-0.944-7.918-5.594-7.043-10.365l1.539-8.396
	c1.375-7.501-0.835-14.988-6.064-20.539c-5.23-5.551-12.571-8.203-20.141-7.28l-7.935,0.97c-5.96,0.73-11.926-1.495-15.956-5.945
	l-6.397-7.067c-10.061-11.111-26.444-14.176-39.839-7.45l-14.814,7.436c-4.125,2.07-9.239,0.607-11.643-3.332l-5.956-9.754
	c-6.034-9.881-16.975-16.02-28.553-16.02h-1.037c0.604-19.434,7.659-37.94,20.123-52.805c1.787,0.331,3.612,0.508,5.459,0.508
	c1.059,0,2.125-0.056,3.194-0.168l19.146-2.012c-3.734,5.294-5.936,11.742-5.936,18.698c0,17.936,14.592,32.527,32.528,32.527
	s32.527-14.592,32.527-32.527c0-9.398-4.011-17.874-10.406-23.818l36.26-3.811c-9.23,5.746-15.389,15.979-15.389,27.629
	c0,17.936,14.592,32.527,32.527,32.527c17.936,0,32.527-14.592,32.527-32.527c0-14.057-8.965-26.058-21.476-30.591l5.703-0.599
	c1.51-0.159,2.983-0.455,4.411-0.87c7.595,5.623,14.085,12.46,19.318,20.375c12.194,18.442,32.674,29.452,54.784,29.452h25.076
	c30.714,0,55.701,24.987,55.701,55.701v29.415H462.452z M380.098,210.464c0-3.573-2.896-6.469-6.469-6.469s-6.469,2.896-6.469,6.469
	c0,3.573,2.896,6.469,6.469,6.469C377.202,216.934,380.098,214.037,380.098,210.464z M414.858,203.995
	c-3.573,0-6.469,2.896-6.469,6.469c0,3.573,2.896,6.469,6.469,6.469c3.573,0,6.469-2.896,6.469-6.469
	C421.327,206.891,418.431,203.995,414.858,203.995z M261.572,383.594c-2.728-0.926-3.077-1.044-5.83-8.659
	c-0.71-1.965-1.7-3.806-2.943-5.472c-2.477-3.32-7.179-4-10.496-1.523c-3.319,2.478-4.002,7.178-1.523,10.497
	c0.359,0.482,0.648,1.018,0.855,1.595c3.228,8.93,5.685,14.565,15.117,17.767c3.218,1.091,4.947,4.597,3.855,7.814
	c-0.849,2.503-3.193,4.185-5.833,4.185c-0.668,0-1.335-0.111-1.98-0.331c-15.529-5.269-19.53-16.345-22.746-25.245
	c-1.408-3.896-5.71-5.913-9.602-4.505c-3.896,1.407-5.913,5.706-4.506,9.602c3.616,10.011,9.669,26.765,32.034,34.354
	c2.201,0.747,4.489,1.126,6.8,1.126c9.069,0,17.122-5.773,20.038-14.365C278.561,399.382,272.62,387.343,261.572,383.594z
	 M412.077,275.102c-3.124-2.723-7.861-2.398-10.582,0.725c-1.833,2.102-4.476,3.308-7.252,3.308c-2.776,0-5.42-1.205-7.251-3.307
	c-2.723-3.124-7.46-3.448-10.582-0.727c-3.122,2.721-3.448,7.459-0.727,10.581c4.681,5.372,11.445,8.452,18.56,8.452
	c7.112,0,13.877-3.081,18.559-8.451C415.524,282.561,415.199,277.824,412.077,275.102z"/>
<g>
</g>
<g>
</g>
<g>
</g>
<g>
</g>
<g>
</g>
<g>
</g>
<g>
</g>
<g>
</g>
<g>
</g>
<g>
</g>
<g>
</g>
<g>
</g>
<g>
</g>
<g>
</g>
<g>
</g>
</svg>
