<?xml version="1.0" encoding="iso-8859-1"?>
<!-- Generator: Adobe Illustrator 19.0.0, SVG Export Plug-In . SVG Version: 6.00 Build 0)  -->
<svg version="1.1" id="Capa_1" xmlns="http://www.w3.org/2000/svg" xmlns:xlink="http://www.w3.org/1999/xlink" x="0px" y="0px"
	 viewBox="0 0 512 512" style="enable-background:new 0 0 512 512;" xml:space="preserve">
<path style="fill:#498A68;" d="M148.709,400.223c-4.245,0-8.477-1.692-11.602-5.039c-5.98-6.405-5.636-16.446,0.77-22.426
	c9.048-8.448,13.005-15.599,17.238-24.071c3.917-7.84,13.447-11.02,21.286-7.102c7.84,3.917,11.019,13.448,7.102,21.286
	c-5.073,10.153-11.103,21.07-23.97,33.084C156.476,398.809,152.588,400.223,148.709,400.223z"/>
<path style="fill:#5CB38E;" d="M277.371,411.897c74.046,0,159.26,0,221.643-39.828c10.675-6.816,4.501-23.276-8.053-21.6
	c-49.402,6.595-90.898-5.98-114.561-26.35L277.371,411.897z"/>
<path style="opacity:0.1;enable-background:new    ;" d="M404.333,340.923c-0.825,23.647-4.455,47.251-19.032,66.878
	c-36.097,4.096-73.239,4.096-107.93,4.096l99.03-87.778C383.986,330.648,393.41,336.37,404.333,340.923z"/>
<g>
	<path style="fill:#498A68;" d="M310.52,484.126c-12.634,0.001-23.329-9.735-24.313-22.542c-0.3-3.907-1.866-66.367,4.714-82.519
		c5.087-12.487,19.331-18.485,31.818-13.398c11.975,4.878,17.981,18.182,13.964,30.278c-1.75,9.009-2.756,49.696-1.818,61.897
		c1.034,13.443-9.027,25.177-22.468,26.21C311.781,484.102,311.147,484.126,310.52,484.126z M336.147,397.456
		c-0.004,0.01-0.007,0.019-0.011,0.028C336.14,397.475,336.144,397.466,336.147,397.456z"/>
	<path style="fill:#498A68;" d="M221.988,484.126c-12.633,0.001-23.328-9.735-24.313-22.54c-0.301-3.907-1.868-66.367,4.715-82.522
		c5.088-12.486,19.336-18.48,31.818-13.396c11.975,4.879,17.981,18.183,13.963,30.279c-1.751,9.01-2.757,49.695-1.818,61.895
		c1.034,13.443-9.025,25.177-22.467,26.211C223.25,484.101,222.617,484.126,221.988,484.126z M247.615,397.458
		c-0.004,0.01-0.008,0.018-0.011,0.028C247.607,397.476,247.611,397.467,247.615,397.458z"/>
</g>
<path style="opacity:0.1;enable-background:new    ;" d="M234.208,365.669c-12.483-5.086-26.73,0.91-31.818,13.396
	c-4.178,10.253-5.073,39.15-5.092,59.9c13.724,4.612,29.873,7.493,48.718,8.73c-0.172-16.939,0.752-44.521,2.155-51.746
	C252.19,383.852,246.183,370.547,234.208,365.669z"/>
<path style="opacity:0.1;enable-background:new    ;" d="M322.739,365.668c-12.487-5.088-26.731,0.911-31.818,13.398
	c-4.829,11.855-5.271,48.652-5.046,68.939c18.666-0.889,34.811-3.292,48.66-7.297c0.087-16.704,0.945-38.467,2.168-44.762
	C340.72,383.85,334.713,370.545,322.739,365.668z"/>
<path style="fill:#5CB38E;" d="M157.247,325.768c0,56.99,7.741,98.226,111.451,98.226s111.451-41.236,111.451-98.226
	s-49.898-103.189-111.451-103.189S157.247,268.778,157.247,325.768z"/>
<path style="fill:#9BDFC1;" d="M157.247,325.768c0-0.454,0.012-0.906,0.018-1.359c23.214-5.957,69.258-7.69,101.3,26.362
	c23.349,24.814,26.728,51.592,24.223,72.947c-4.489,0.182-9.181,0.275-14.09,0.275C164.988,423.994,157.247,382.757,157.247,325.768
	z"/>
<path style="opacity:0.05;enable-background:new    ;" d="M289.856,224.444c51.433,9.153,90.294,51.033,90.294,101.324
	c0,52.77-6.65,92.028-89.968,97.553C336.442,376.366,327.495,279.418,289.856,224.444z"/>
<path style="fill:#5CB38E;" d="M166.397,73.966L166.397,73.966c19.031-28.78,51.233-46.091,85.737-46.091h42.413
	c60.3,0,109.182,48.882,109.182,109.182v50.198c0,54.118-43.871,97.99-97.99,97.99H80.906c-40.541,0-73.406-32.865-73.406-73.406
	v-34.164c0-40.541,32.865-73.406,73.406-73.406h29.126C132.715,104.267,153.885,92.887,166.397,73.966z"/>
<path style="fill:#495059;" d="M56.923,218.246c0,21.269,17.242,29.889,38.512,29.889s38.512-8.62,38.512-29.889
	s-17.242-38.512-38.512-38.512S56.923,196.976,56.923,218.246z"/>
<g style="opacity:0.1;">
	<circle cx="344.417" cy="211.112" r="7.514"/>
	<circle cx="290.999" cy="222.582" r="7.514"/>
	<circle cx="321.568" cy="248.211" r="7.514"/>
</g>
<g>
	<ellipse style="fill:#FFA8CB;" cx="300.889" cy="113.076" rx="18.939" ry="9.716"/>
	<ellipse style="fill:#FFA8CB;" cx="173.744" cy="113.076" rx="18.939" ry="9.716"/>
</g>
<path style="opacity:0.05;enable-background:new    ;" d="M318.803,30.583c48.625,11.031,84.927,54.511,84.927,106.474v50.198
	c0,54.118-43.871,97.99-97.99,97.99h-59.461C332.875,234.86,347.553,96.362,318.803,30.583z"/>
<path style="fill:#F27979;" d="M143.044,377.673c-5.231,5.231-12.457,8.466-20.438,8.466c-15.963,0-28.905-12.941-28.905-28.905
	c0-20.05-23.77-47.4-23.77-80.584c0-26.893,21.801-48.693,48.693-48.693s48.693,21.801,48.693,48.693
	C167.317,309.976,163.618,357.099,143.044,377.673z"/>
<path style="fill:#CD5B5B;" d="M122.604,361.728c-2.478,0-4.494-2.016-4.494-4.493c0-13.979-5.728-26.784-11.791-40.341
	c-5.89-13.168-11.98-26.784-11.98-40.243c0-13.389,10.894-24.282,24.282-24.282s24.282,10.894,24.282,24.282
	c0,61.834-13.107,79.745-17.123,83.762C125.181,361.012,124.143,361.728,122.604,361.728z"/>
<path style="fill:#498A68;" d="M257.439,381.62c-5.134,0-10.173-2.488-13.229-7.085c-4.852-7.298-2.869-17.147,4.429-21.999
	c10.268-6.826,15.251-14.603,16.187-16.789c3.45-8.056,12.777-11.789,20.832-8.342c8.056,3.45,11.79,12.777,8.34,20.832
	c-3.545,8.28-12.707,20.699-27.79,30.728C263.509,380.76,260.458,381.62,257.439,381.62z"/>
<path d="M510.774,355.595c-3.198-8.748-11.568-13.794-20.805-12.56c-39.449,5.264-77.364-2.1-102.369-19.721
	c-0.444-18.953-6.014-37.259-16.247-53.481c5.893-4.68,11.309-9.993,16.113-15.872c15.323-18.754,23.763-42.443,23.763-66.705
	v-50.198c0-64.339-52.343-116.682-116.682-116.682h-42.413c-37.126,0-71.514,18.487-91.993,49.455
	c-11.155,16.867-29.887,26.938-50.109,26.938H80.906C36.295,96.768,0,133.062,0,177.675v34.164c0,19.58,7.088,38.475,19.958,53.202
	c11.48,13.135,26.846,22.162,43.729,25.831c2.486,14.399,8.256,27.321,13.504,39.052c4.835,10.809,9.01,20.142,9.01,27.311
	c0,20.073,16.331,36.405,36.405,36.405c1.535,0,3.054-0.105,4.554-0.291c1.057,2.54,2.549,4.9,4.468,6.955
	c4.404,4.716,10.631,7.42,17.083,7.42c5.94,0,11.602-2.233,15.943-6.287c0.758-0.708,1.503-1.424,2.237-2.146
	c2.9,3.667,6.314,7.153,10.361,10.359c3.854,3.054,8.147,5.768,12.898,8.162c-0.224,6.525-0.343,13.606-0.35,21.145
	c-0.004,4.142,3.351,7.503,7.493,7.507h0.007c4.139,0,7.496-3.353,7.5-7.493c0.005-5.322,0.068-10.401,0.184-15.209
	c9.696,3.049,20.851,5.174,33.664,6.413c-0.224,10.742-0.228,22.28,0.231,28.243c0.347,4.504-1.082,8.874-4.022,12.303
	c-2.939,3.43-7.039,5.509-11.542,5.855c-6.694,0.517-12.935-2.922-16.122-8.71c-1.999-3.628-6.561-4.95-10.188-2.95
	c-3.628,1.999-4.949,6.56-2.95,10.188c5.615,10.193,16.319,16.523,27.936,16.522c0.817,0,1.648-0.032,2.473-0.095
	c8.499-0.653,16.234-4.577,21.782-11.049c5.547-6.472,8.242-14.716,7.589-23.215c-0.363-4.709-0.431-14.833-0.205-26.077
	c4.822,0.202,9.84,0.305,15.072,0.305c3.308,0,6.531-0.043,9.679-0.126c-0.18,15.631,0.199,28.794,0.352,30.792
	c1.27,16.523,15.233,29.466,31.787,29.466h0.004c0.825,0,1.657-0.032,2.473-0.094c17.543-1.349,30.72-16.719,29.371-34.264
	c-0.496-6.45-0.433-22.423,0.109-37.264c1.257-0.54,2.482-1.102,3.681-1.682c47.655-2.167,108.14-8.804,156.897-39.932
	C510.836,373.419,513.941,364.258,510.774,355.595z M64.422,218.246c0-17.1,13.912-31.013,31.013-31.013
	s31.012,13.912,31.012,31.013c0,0.947-0.057,1.858-0.144,2.749c-2.513-0.345-5.074-0.538-7.68-0.538
	c-15.957,0-30.37,6.697-40.608,17.413C68.878,234.417,64.422,227.964,64.422,218.246z M154.416,390.473
	c-1.554,1.452-3.581,2.251-5.707,2.251c-2.347,0-4.52-0.944-6.121-2.657c-0.467-0.501-0.858-1.056-1.184-1.644
	c2.495-1.51,4.826-3.331,6.942-5.446c2.289-2.289,4.427-4.894,6.421-7.799c1.069,3.661,2.4,7.323,4.063,10.921
	C157.43,387.57,155.971,389.021,154.416,390.473z M159.733,285.17c0,0.025-0.004,0.05-0.004,0.075c0,0.014,0.002,0.027,0.002,0.04
	c-0.287,14.326-1.301,27.186-3.013,38.481c-1.063-0.476-2.191-0.845-3.389-1.056l-10.329-1.821
	c-4.075-0.717-7.969,2.004-8.688,6.084c-0.719,4.079,2.005,7.969,6.084,8.688l9.807,1.729l-3.817,21.648l-9.808-1.73
	c-4.074-0.719-7.969,2.005-8.688,6.084c-0.719,4.079,2.005,7.969,6.084,8.689l3.421,0.603c-4.002,3.835-9.229,5.956-14.789,5.956
	c-11.803,0-21.405-9.603-21.405-21.405c0-10.37-4.781-21.058-10.317-33.435c-6.306-14.098-13.453-30.079-13.453-47.149
	c0-22.714,18.479-41.193,41.193-41.193s41.193,18.479,41.193,41.193C159.817,279.546,159.788,282.384,159.733,285.17z
	 M311.842,476.575c-0.435,0.033-0.879,0.05-1.324,0.05c-0.001,0-0.001,0-0.002,0c-8.766,0-16.159-6.86-16.832-15.613
	c-0.102-1.336-0.506-14.437-0.298-30.403c12.76-0.975,24.031-2.768,33.914-5.416c-0.356,12.724-0.409,26.496,0.108,33.223
	C328.123,467.715,321.14,475.861,311.842,476.575z M341.354,403.987c-0.375,0.156-0.736,0.338-1.076,0.55
	c-2.195,1.096-4.521,2.115-6.982,3.056c-0.497,0.129-0.974,0.307-1.426,0.529c-12.076,4.384-27.282,7.001-46.007,7.955
	c-0.199,0.004-0.396,0.013-0.591,0.033c-5.249,0.256-10.77,0.384-16.575,0.384c-39.471,0-66.336-6.085-82.132-18.601
	c-4.911-3.892-8.851-8.428-11.965-13.871c-0.106-0.219-0.224-0.433-0.352-0.643c-3.655-6.609-6.126-14.546-7.611-24.315
	l68.033,11.997c0.615,2.649,1.702,5.233,3.294,7.628c4.343,6.532,11.623,10.432,19.473,10.432c4.607,0,9.076-1.352,12.923-3.91
	c16.456-10.94,26.562-24.748,30.533-34.021c5.071-11.845-0.439-25.606-12.285-30.679c-11.84-5.068-25.605,0.442-30.664,12.258
	c-0.639,1.392-4.796,7.766-13.459,13.523c-3.778,2.512-6.584,5.943-8.328,9.8l-68.243-12.034c3.64-14.229,5.845-31.357,6.599-51.313
	h116.572c4.143,0,7.5-3.358,7.5-7.5s-3.357-7.5-7.5-7.5H174.811c0.001-0.367,0.006-0.726,0.006-1.095
	c0-23.076-13.986-42.94-33.924-51.581c0.362-2.193,0.553-4.469,0.553-6.823c0-25.371-20.641-46.012-46.011-46.012
	c-25.371,0-46.012,20.641-46.012,46.012c0,14.579,7.021,25.848,19.599,32.032c-3.974,7.443-6.31,15.879-6.553,24.832
	c-27.61-8.067-47.469-33.819-47.469-63.271v-34.164c0-36.341,29.566-65.907,65.907-65.907h29.126
	c25.271,0,48.681-12.585,62.621-33.664c17.693-26.755,47.405-42.728,79.481-42.728h42.413c56.067,0,101.682,45.614,101.682,101.682
	v50.198c0,20.812-7.237,41.13-20.379,57.214c-12.964,15.866-31.063,26.963-50.965,31.248c-4.05,0.872-6.626,4.861-5.754,8.911
	c0.872,4.05,4.859,6.619,8.911,5.753c10.913-2.35,21.347-6.473,30.924-12.084c8.97,14.411,13.682,30.686,13.682,47.47
	c0,29.646-2.516,50.962-15.035,65.612C353.372,396.342,347.98,400.532,341.354,403.987z M252.793,358.782
	c11.417-7.589,17.374-16.453,18.93-20.083c1.357-3.171,4.455-5.074,7.705-5.074c1.096,0,2.21,0.217,3.28,0.675
	c4.241,1.817,6.214,6.745,4.398,10.986c-2.977,6.953-11.323,18.308-25.049,27.433c-1.379,0.917-2.976,1.401-4.618,1.401
	c-2.817,0-5.427-1.397-6.982-3.736C247.903,366.542,248.951,361.337,252.793,358.782z M494.978,365.748
	c-38.444,24.544-85.481,32.905-126.685,36.189c0.24-0.271,0.488-0.537,0.724-0.812c13.996-16.376,17.552-38.068,18.391-60.186
	c27.654,15.849,65.587,22.167,104.547,16.964c3.184-0.42,4.369,1.846,4.733,2.842C497.036,361.698,497.567,364.095,494.978,365.748z
	 M276.866,71.667c-11.511,0-20.874,9.364-20.874,20.874c0,4.142,3.357,7.5,7.5,7.5s7.5-3.358,7.5-7.5
	c0-3.239,2.636-5.875,5.875-5.875s5.875,2.636,5.875,5.875c0,4.142,3.357,7.5,7.5,7.5s7.5-3.358,7.5-7.5
	C297.74,81.031,288.376,71.667,276.866,71.667z M197.771,71.667c-11.511,0-20.874,9.364-20.874,20.874c0,4.142,3.358,7.5,7.5,7.5
	s7.5-3.358,7.5-7.5c0-3.239,2.636-5.875,5.875-5.875c3.239,0,5.875,2.636,5.875,5.875c0,4.142,3.358,7.5,7.5,7.5s7.5-3.358,7.5-7.5
	C218.645,81.031,209.281,71.667,197.771,71.667z M71.491,135.097c-4.15,0-7.514,3.364-7.514,7.514s3.364,7.514,7.514,7.514
	c4.15,0,7.514-3.364,7.514-7.514C79.005,138.461,75.641,135.097,71.491,135.097z M119.378,135.097c-4.15,0-7.514,3.364-7.514,7.514
	s3.364,7.514,7.514,7.514s7.514-3.364,7.514-7.514C126.891,138.461,123.527,135.097,119.378,135.097z"/>
<g>
</g>
<g>
</g>
<g>
</g>
<g>
</g>
<g>
</g>
<g>
</g>
<g>
</g>
<g>
</g>
<g>
</g>
<g>
</g>
<g>
</g>
<g>
</g>
<g>
</g>
<g>
</g>
<g>
</g>
</svg>
