<?xml version="1.0" encoding="iso-8859-1"?>
<!-- Generator: Adobe Illustrator 19.0.0, SVG Export Plug-In . SVG Version: 6.00 Build 0)  -->
<svg version="1.1" id="Capa_1" xmlns="http://www.w3.org/2000/svg" xmlns:xlink="http://www.w3.org/1999/xlink" x="0px" y="0px"
	 viewBox="0 0 511.999 511.999" style="enable-background:new 0 0 511.999 511.999;" xml:space="preserve">
<path style="fill:#498A68;" d="M348.546,379.929c-4.961,0-9.759-2.664-12.261-7.345c-4.767-8.92-12.409-14.969-15.286-17.247
	l-0.342-0.271c-6.006-4.771-7.007-13.507-2.236-19.513c4.77-6.007,13.507-7.008,19.513-2.236l0.306,0.242
	c3.723,2.947,15.052,11.915,22.543,25.932c3.616,6.765,1.062,15.18-5.703,18.795C352.996,379.4,350.755,379.929,348.546,379.929z"/>
<path style="fill:#CD5B5B;" d="M504.336,374.743c-1.274-8.504-9.37-14.13-17.71-12.472l-27.451,5.455
	c-3.648,0.724-7.411-0.186-10.323-2.499l-3.825-3.038c-1.068-0.848-0.793-2.539,0.488-3.005l36.687-13.353
	c7.568-2.754,11.963-10.94,9.568-18.629c-2.557-8.209-11.414-12.532-19.402-9.625l-37.084,13.498
	c-1.282,0.467-2.579-0.652-2.306-1.988l0.978-4.785c0.743-3.637,3.047-6.764,6.302-8.55l24.536-13.467
	c7.456-4.092,10.04-13.611,5.546-20.943c-4.206-6.863-13.255-8.949-20.311-5.076l-24.165,13.263
	c-10.977,6.025-18.71,16.517-21.216,28.785l-4.482,21.939c-0.494,2.419-2.209,4.408-4.529,5.252l-87.691,31.916
	c-7.568,2.754-11.963,10.94-9.567,18.629c2.557,8.209,11.414,12.532,19.401,9.625l88.088-32.061c2.32-0.844,4.912-0.423,6.846,1.112
	l17.535,13.925c9.806,7.787,22.473,10.854,34.755,8.414l27.036-5.373C499.938,390.123,505.529,382.706,504.336,374.743z"/>
<path style="fill:#5CB38E;" d="M232.72,405.376c-64.81,0-139.394,0-193.996-34.86c-9.344-5.965-3.94-20.373,7.048-18.906
	c43.239,5.772,79.559-5.234,100.27-23.064L232.72,405.376z"/>
<path style="fill:#CD5B5B;" d="M74.171,353.051c-5.659,0.195-11.497,0.097-17.493-0.327l5.057-12.327
	c1.92-4.681-2.376-9.526-7.253-8.179l-42.207,11.657c-4.095,1.131-6.02,5.823-3.899,9.504l21.861,37.94
	c2.526,4.384,8.987,3.952,10.907-0.729l6.15-14.992c6.494,3.594,13.227,6.761,20.16,9.543
	C71.226,376.538,73.468,363.597,74.171,353.051z"/>
<path style="opacity:0.1;enable-background:new    ;" d="M121.595,343.255c0.722,20.698,3.899,41.357,16.658,58.536
	c31.594,3.585,64.104,3.585,94.467,3.585l-86.677-76.829C139.405,334.262,131.155,339.271,121.595,343.255z"/>
<g>
	<path style="fill:#498A68;" d="M210.279,470.477c-6.737,0-13.367-3.178-17.524-9.117c-13.688-19.556-25.449-68.01,0.873-90.901
		c8.905-7.744,22.4-6.803,30.143,2.101c7.685,8.836,6.816,22.195-1.899,29.965c-0.576,0.988-2.074,5.703-0.709,14.884
		c1.387,9.33,4.707,16.742,6.601,19.448c6.767,9.668,4.415,22.99-5.253,29.756C218.783,469.224,214.51,470.477,210.279,470.477z
		 M221.933,402.431C221.933,402.432,221.933,402.432,221.933,402.431L221.933,402.431z"/>
	<path style="fill:#498A68;" d="M292.075,462.311c-3.043,0-6.133-0.653-9.07-2.032c-10.681-5.017-15.272-17.743-10.256-28.422
		c6.829-14.538-3.642-26.457-7.014-29.765c-8.425-8.263-8.555-21.791-0.292-30.215c8.263-8.423,21.79-8.556,30.215-0.292
		c16.616,16.298,30.715,46.619,15.769,78.44C307.791,457.767,300.1,462.311,292.075,462.311z"/>
</g>
<path style="opacity:0.1;enable-background:new    ;" d="M271.38,435.708c18.709-2.14,34.021-6.426,46.358-13.002
	c0.126-21.095-10.341-39.609-22.079-51.122c-8.426-8.264-21.953-8.131-30.215,0.292c-8.263,8.425-8.133,21.952,0.292,30.215
	c3.372,3.307,13.842,15.227,7.014,29.765C272.158,433.117,271.71,434.407,271.38,435.708z"/>
<path style="opacity:0.1;enable-background:new    ;" d="M223.773,372.56c-7.744-8.904-21.239-9.845-30.143-2.101
	c-16.386,14.251-18.011,38.404-13.603,59.329c13.337,4.187,29.196,6.591,47.888,7.308c-0.053-0.078-0.095-0.161-0.15-0.238
	c-1.894-2.706-5.214-10.118-6.601-19.448c-1.365-9.181,0.133-13.896,0.709-14.884C230.589,394.754,231.458,381.396,223.773,372.56z"
	/>
<path style="fill:#5CB38E;" d="M337.861,329.991c0,49.881-6.775,85.974-97.549,85.974s-97.549-36.093-97.549-85.974
	s43.674-90.317,97.549-90.317C294.187,239.672,337.861,280.11,337.861,329.991z"/>
<path style="fill:#9BDFC1;" d="M337.861,329.991c0-0.398-0.011-0.793-0.016-1.189c-20.318-5.214-60.62-6.731-88.664,23.074
	c-20.437,21.719-23.395,45.156-21.202,63.848c3.929,0.16,8.036,0.241,12.333,0.241C331.085,415.964,337.861,379.872,337.861,329.991
	z"/>
<path style="opacity:0.05;enable-background:new    ;" d="M221.792,241.305c-45.017,8.012-79.03,44.667-79.03,88.685
	c0,46.187,5.82,80.548,78.745,85.384C181.018,374.278,188.849,289.422,221.792,241.305z"/>
<path style="fill:#CD5B5B;" d="M315.488,119.517c24.482-17.881,27.945-53.116,18.189-74.347c-2.025-4.407-8.133-4.939-10.91-0.963
	c-10.666,15.274-34.691,33.147-47.086,35.267c-3.507,0.6-6.118,3.632-5.894,7.183c0.829,13.146,14.491,34.018,32.535,36.382
	C306.985,123.65,311.691,122.29,315.488,119.517z"/>
<path style="fill:#5CB38E;" d="M329.852,109.598L329.852,109.598c-16.658-25.191-44.843-40.342-75.043-40.342h-37.123
	c-52.778,0-95.563,42.785-95.563,95.563v43.937c0,47.368,38.399,85.767,85.767,85.767h196.788c35.484,0,64.25-28.765,64.25-64.25
	v-29.902c0-35.484-28.765-64.25-64.25-64.25h-25.492C359.333,136.12,340.803,126.159,329.852,109.598z"/>
<path style="fill:#FFFFFF;" d="M391.963,255.529L391.963,255.529c-21.757,0-39.393-17.637-39.393-39.393v-2.448
	c0-4.67,3.786-8.455,8.455-8.455h61.877c4.67,0,8.455,3.785,8.455,8.455v2.448C431.356,237.893,413.72,255.529,391.963,255.529z"/>
<g style="opacity:0.1;">
	<path d="M397.814,255.094c5.266-0.784,10.192-2.607,14.561-5.259v-44.602h-14.561V255.094z"/>
	<path d="M371.551,249.835c4.369,2.652,9.295,4.475,14.561,5.259v-49.861h-14.561V249.835z"/>
</g>
<g style="opacity:0.1;">
	<circle cx="174.036" cy="229.635" r="6.577"/>
	<circle cx="220.785" cy="239.674" r="6.577"/>
	<circle cx="194.036" cy="262.104" r="6.577"/>
</g>
<g>
	<ellipse style="fill:#FFA8CB;" cx="196.856" cy="143.966" rx="16.577" ry="8.504"/>
	<ellipse style="fill:#FFA8CB;" cx="308.144" cy="143.966" rx="16.577" ry="8.504"/>
</g>
<path style="opacity:0.05;enable-background:new    ;" d="M196.457,71.627c-42.559,9.655-74.334,47.711-74.334,93.192v43.937
	c0,47.368,38.399,85.767,85.767,85.767h52.043C184.14,250.422,171.292,129.2,196.457,71.627z"/>
<path style="fill:#CD5B5B;" d="M141.102,119.517c-24.482-17.881-27.945-53.116-18.189-74.347c2.025-4.407,8.133-4.939,10.91-0.963
	c10.666,15.274,34.691,33.147,47.086,35.267c3.507,0.6,6.118,3.632,5.894,7.183c-0.829,13.146-14.491,34.018-32.535,36.382
	C149.606,123.65,144.899,122.29,141.102,119.517z"/>
<path style="fill:#498A68;" d="M198.577,358.225c-11.965,0-22.431-4.866-31.225-14.548c-5.158-5.677-4.736-14.46,0.942-19.618
	c5.678-5.158,14.461-4.735,19.618,0.942c4.111,4.525,8.11,6.739,16.385,4.654c7.437-1.872,14.986,2.639,16.859,10.077
	c1.873,7.438-2.638,14.986-10.077,16.859C206.748,357.68,202.578,358.225,198.577,358.225z"/>
<path d="M202.464,322.383c-5.321,1.341-6.535,0.292-9.001-2.424c-7.93-8.729-21.483-9.379-30.211-1.45
	c-4.229,3.841-6.709,9.1-6.983,14.806c-0.274,5.707,1.691,11.178,5.532,15.407c10.25,11.284,22.623,17.005,36.776,17.005
	c4.604,0,9.426-0.626,14.332-1.861c1.958-0.493,3.83-1.255,5.564-2.267c3.578-2.087,4.786-6.68,2.698-10.258
	c-2.087-3.577-6.681-4.785-10.258-2.698c-0.515,0.3-1.075,0.528-1.665,0.677c-3.71,0.934-7.301,1.408-10.671,1.408
	c-9.886,0-18.284-3.955-25.673-12.091c-1.148-1.263-1.734-2.897-1.652-4.602c0.081-1.704,0.822-3.274,2.086-4.422
	c2.607-2.368,6.655-2.175,9.023,0.432c4.705,5.18,11.208,10.048,23.769,6.884c0.728-0.183,1.469-0.238,2.2-0.164
	c4.127,0.414,7.8-2.585,8.218-6.706c0.417-4.121-2.585-7.8-6.706-8.218C207.367,321.591,204.886,321.772,202.464,322.383z
	 M371.006,176.257c3.632,0,6.577-2.945,6.577-6.577c0-3.632-2.945-6.577-6.577-6.577s-6.577,2.945-6.577,6.577
	C364.429,173.313,367.373,176.257,371.006,176.257z M422.901,197.733h-61.877c-8.798,0-15.956,7.158-15.956,15.956v2.448
	c0,25.856,21.037,46.893,46.894,46.893c25.856,0,46.893-21.037,46.893-46.893v-2.448
	C438.856,204.89,431.699,197.733,422.901,197.733z M423.856,216.136c0,17.586-14.308,31.893-31.893,31.893
	c-17.587,0-31.894-14.308-31.894-31.893v-2.448c0-0.527,0.429-0.956,0.956-0.956h61.877c0.527,0,0.955,0.429,0.955,0.956
	L423.856,216.136L423.856,216.136z M511.753,373.632c-0.921-6.145-4.221-11.493-9.292-15.059c-5-3.517-11.304-4.85-17.296-3.658
	l-13.196,2.622l12.799-4.659c11.512-4.19,17.732-16.449,14.163-27.906c-1.847-5.93-5.923-10.711-11.477-13.462
	c-5.476-2.713-11.91-3.069-17.65-0.98l-13.196,4.803l11.794-6.474c5.358-2.94,9.331-8.016,10.9-13.925
	c1.592-5.994,0.68-12.213-2.567-17.511c-2.69-4.391-6.685-7.512-11.212-9.19c6.901-11.02,10.906-24.029,10.906-37.962v-29.902
	c0-39.562-32.186-71.75-71.75-71.75h-25.492c-16.962,0-32.686-8.258-42.348-22.127c10.979-19.241,12.602-44.987,3.654-64.457
	c-2.085-4.538-6.313-7.514-11.307-7.962c-4.927-0.438-9.744,1.795-12.566,5.837c-6.365,9.114-19.027,20.281-30.428,27.017
	c-9.96-3.378-20.537-5.174-31.381-5.174h-37.123c-14.271,0-28.045,2.858-40.998,8.49c-11-4.934-28.309-18.295-36.715-30.332
	c-2.823-4.042-7.638-6.275-12.567-5.837c-4.995,0.448-9.221,3.425-11.307,7.962c-9.779,21.279-7.65,53.177,10.621,74.328
	c-7.922,14.855-12.097,31.484-12.097,48.454v43.937c0,28.927,13.216,55.257,34.562,72.53c-8.663,14.02-13.406,29.768-13.871,46.066
	c-15.693,10.923-37.278,17.36-61.278,18.207c-0.042,0.001-0.083-0.004-0.124-0.002c-2.058,0.071-4.136,0.102-6.224,0.088l0.984-2.4
	c1.983-4.833,1.062-10.264-2.404-14.172c-3.466-3.909-8.748-5.474-13.783-4.082l-42.208,11.657
	c-4.205,1.162-7.566,4.143-9.222,8.178c-1.656,4.037-1.356,8.519,0.821,12.299l21.861,37.94c2.452,4.256,6.893,6.805,11.749,6.805
	c0.309,0,0.619-0.01,0.931-0.031c5.212-0.348,9.683-3.567,11.666-8.4l3.028-7.381c4.221,2.084,8.59,4.036,13.055,5.842
	c0.145,0.069,0.289,0.142,0.44,0.203c28.103,11.283,61.808,17.572,105.834,19.733c0.327,21.523,8.285,42.561,16.172,53.828
	c5.397,7.712,14.245,12.316,23.669,12.316c5.938-0.001,11.656-1.806,16.533-5.22c13.04-9.128,16.224-27.161,7.097-40.2
	c-0.835-1.194-2.477-4.555-3.817-9.259c3.309,0.106,6.706,0.165,10.218,0.165c9.853,0,18.899-0.417,27.185-1.261
	c-0.025,2.17-0.525,4.314-1.535,6.464c-3.278,6.979-3.642,14.817-1.025,22.07c2.617,7.253,7.902,13.053,14.881,16.331
	c3.876,1.82,8.001,2.744,12.258,2.744c11.145,0,21.406-6.516,26.141-16.599c6.324-13.463,8.388-27.748,6.166-41.958l83.842-30.516
	l17.361,13.787c9.569,7.599,21.548,11.431,33.726,10.792c4.136-0.217,7.314-3.747,7.096-7.883c-0.218-4.136-3.745-7.309-7.883-7.096
	c-8.528,0.448-16.911-2.236-23.612-7.558l-17.536-13.927c-3.947-3.133-9.342-4.01-14.075-2.286l-71.369,25.977
	c4.125-5.843,6.995-12.301,8.984-19.14l57.285-20.851c4.735-1.724,8.304-5.862,9.312-10.799l4.481-21.939
	c1.688-8.262,6.248-15.565,12.893-20.698c0.18-0.053,0.359-0.112,0.539-0.167c0.345-0.104,0.688-0.21,1.031-0.319
	c0.85-0.271,1.696-0.557,2.535-0.859c0.294-0.106,0.585-0.218,0.878-0.328c0.768-0.289,1.532-0.589,2.29-0.905
	c0.251-0.104,0.501-0.208,0.75-0.315c0.804-0.345,1.601-0.708,2.392-1.083c0.244-0.116,0.49-0.23,0.733-0.349
	c0.862-0.42,1.715-0.859,2.56-1.313c0.191-0.103,0.38-0.208,0.57-0.312c5.07-2.786,9.815-6.18,14.093-10.118l0.377-0.208
	c3.642-1.998,8.266-0.913,10.309,2.42c1.082,1.766,1.387,3.834,0.858,5.824c-0.529,1.992-1.814,3.634-3.619,4.625l-24.536,13.468
	c-5.195,2.851-8.855,7.816-10.042,13.624l-0.977,4.785c-0.669,3.277,0.488,6.668,3.021,8.852c2.532,2.183,6.057,2.828,9.198,1.685
	l37.084-13.498c1.933-0.704,4.016-0.589,5.862,0.326c1.843,0.913,3.198,2.505,3.814,4.482c1.164,3.734-1.067,7.929-4.972,9.351
	l-36.688,13.353c-3.142,1.144-5.426,3.905-5.962,7.205c-0.536,3.3,0.758,6.642,3.375,8.721l3.826,3.039
	c4.641,3.685,10.638,5.137,16.449,3.981l27.452-5.455c2.019-0.4,4.058,0.031,5.743,1.215c1.683,1.184,2.779,2.964,3.086,5.013
	c0.58,3.867-2.265,7.672-6.339,8.481l-3.859,0.767c-4.063,0.807-6.702,4.755-5.895,8.818c0.709,3.569,3.843,6.04,7.349,6.04
	c0.484,0,0.976-0.047,1.469-0.145l3.86-0.767C505.515,396.66,513.531,385.497,511.753,373.632z M63.022,375.099
	c-4.178-1.892-8.225-3.919-12.095-6.062c-1.873-1.037-4.1-1.224-6.119-0.514c-2.02,0.709-3.64,2.248-4.452,4.229l-5.058,12.329
	l-19.776-34.321l38.181-10.544l-3.964,9.664c-0.914,2.227-0.703,4.757,0.567,6.802c1.269,2.045,3.443,3.357,5.844,3.526
	c3.248,0.229,6.502,0.369,9.738,0.419C65.202,365.848,64.215,370.825,63.022,375.099z M327.678,50.21
	c4.587,11.555,5.216,28.375-1.024,43.136c-7.05-7.705-15.234-14.153-24.206-19.18C312.21,67.126,321.647,58.259,327.678,50.21z
	 M128.908,50.208c10.701,14.331,30.69,29.709,44.882,35.005c0.369,0.167,0.751,0.303,1.141,0.409
	c1.527,0.522,2.982,0.922,4.338,1.177c-1.321,14.709-16.523,27.564-25.977,28.803c-2.603,0.344-5.437-0.44-7.769-2.143h0.001
	C125.699,98.98,121.108,69.657,128.908,50.208z M77.005,380.754c2.191-7.296,3.393-15.002,4.037-20.574
	c20.408-1.531,39.18-6.824,54.5-15.326c0.828,18.524,3.999,36.621,15.385,50.642C121.625,392.957,97.626,388.152,77.005,380.754z
	 M218.212,460.469c-2.344,1.641-5.087,2.508-7.933,2.508c-4.532,0-8.786-2.212-11.379-5.918c-6.081-8.689-11.867-24.188-13.19-40.01
	c8.359,2.494,17.9,4.243,28.713,5.277c1.716,8.329,4.717,15.288,7.197,18.832C226.005,447.421,224.476,456.084,218.212,460.469z
	 M304.64,446.835c-2.276,4.845-7.208,7.976-12.565,7.976c-2.037,0-4.016-0.444-5.881-1.321c-3.352-1.575-5.892-4.361-7.148-7.845
	c-1.257-3.484-1.082-7.249,0.493-10.602c2.269-4.832,3.233-9.905,2.894-14.991c10.333-1.969,19.212-4.806,26.758-8.549
	C311.043,421.187,310.901,433.504,304.64,446.835z M344.218,356.24c0.238-2.116,0.429-4.247,0.58-6.388
	c1.304,1.454,2.623,3.041,3.918,4.751L344.218,356.24z M397.301,316.814l-4.437,21.721l-29.516,10.743
	c-6.339-9.417-13.672-16.042-17.991-19.613c-0.033-9.462-1.498-18.718-4.359-27.642h61.872
	C400.268,306.581,398.374,311.56,397.301,316.814z M461.429,230.273c0,16.458-7.048,31.295-18.278,41.67
	c-0.413,0.382-0.836,0.752-1.26,1.121c-0.358,0.312-0.71,0.63-1.076,0.933c-0.756,0.625-1.527,1.231-2.313,1.815
	c-0.294,0.219-0.598,0.425-0.897,0.638c-0.581,0.415-1.167,0.824-1.763,1.217c-0.315,0.207-0.633,0.409-0.952,0.611
	c-0.635,0.4-1.278,0.788-1.927,1.163c-0.269,0.156-0.537,0.314-0.809,0.466c-1.884,1.046-3.823,1.986-5.811,2.81
	c-0.217,0.09-0.438,0.172-0.657,0.259c-0.789,0.316-1.585,0.615-2.387,0.894c-0.275,0.096-0.551,0.189-0.828,0.281
	c-0.826,0.273-1.658,0.527-2.495,0.761c-4.871,1.366-9.998,2.112-15.298,2.112H220.185c-4.142,0-7.5,3.358-7.5,7.5
	c0,4.142,3.358,7.5,7.5,7.5H325.08c3.498,8.948,5.28,18.333,5.28,27.968c0,25.734-2.164,44.215-12.936,56.82
	c-2.219,2.596-4.813,4.943-7.785,7.057c-0.147,0.099-0.292,0.201-0.431,0.31c-8.641,6.004-20.472,10.047-35.96,12.257
	c-0.466,0.017-0.934,0.081-1.401,0.188c-9.221,1.234-19.695,1.842-31.537,1.842c-6.611,0-12.789-0.192-18.569-0.573
	c-0.189-0.022-0.381-0.033-0.574-0.04c-16.338-1.117-29.399-3.79-39.558-8.121c-0.39-0.212-0.8-0.391-1.23-0.533
	c-0.758-0.341-1.495-0.694-2.22-1.055c-0.187-0.117-0.38-0.227-0.58-0.328c-14.964-7.606-22.007-19.131-25.111-35.789
	c-0.052-0.289-0.103-0.579-0.153-0.874c-0.029-0.164-0.056-0.329-0.085-0.494c-1.17-7.128-1.847-16.005-1.956-27.362
	c-0.001-0.189-0.002-0.379-0.004-0.569c-0.007-0.899-0.012-1.806-0.012-2.736c0-14.196,3.906-27.968,11.335-40.229
	c7.266,4.143,15.176,7.374,23.613,9.482c0.61,0.152,1.222,0.226,1.824,0.226c3.36,0,6.419-2.275,7.27-5.684
	c1.004-4.019-1.439-8.09-5.458-9.095c-9.018-2.254-17.325-6.023-24.697-10.981c-0.107-0.087-0.208-0.178-0.321-0.26
	c-0.246-0.179-0.501-0.336-0.759-0.481c-20.508-14.3-33.447-37.984-33.447-64.214v-43.937c0-13.278,2.985-26.308,8.68-38.151
	c4.2,2.633,8.933,4.019,13.717,4.019c1.073,0,2.149-0.07,3.222-0.21c22.352-2.928,38.055-27.628,39.046-43.347
	c0.153-2.436-0.333-4.773-1.307-6.86c7.967-2.33,16.232-3.513,24.706-3.513h37.123c10.062,0,19.853,1.825,28.978,5.243
	c0.317,0.142,0.642,0.266,0.975,0.363c3.421,1.331,6.741,2.896,9.947,4.668l-24.712,5.181c-4.054,0.85-6.651,4.825-5.801,8.879
	c0.741,3.535,3.859,5.962,7.332,5.962c0.51,0,1.028-0.052,1.547-0.161l28.137-5.899c2.952-0.619,5.125-2.899,5.763-5.656
	c6.343,5.188,11.965,11.359,16.62,18.399c12.375,18.713,33.155,29.885,55.59,29.885h25.492c31.292,0,56.75,25.457,56.75,56.75
	v29.903H461.429z M287.117,106.007c-11.06,0-20.058,8.998-20.058,20.059c0,4.142,3.358,7.5,7.5,7.5c4.142,0,7.5-3.358,7.5-7.5
	c0-2.79,2.269-5.059,5.058-5.059s5.058,2.269,5.058,5.059c0,4.142,3.358,7.5,7.5,7.5c4.142,0,7.5-3.358,7.5-7.5
	C307.175,115.005,298.177,106.007,287.117,106.007z M235.006,92.211l-28.137-5.899c-4.051-0.851-8.03,1.747-8.879,5.801
	c-0.85,4.054,1.748,8.029,5.801,8.879l28.137,5.899c0.519,0.109,1.037,0.161,1.547,0.161c3.474,0,6.591-2.428,7.333-5.962
	C241.658,97.036,239.06,93.061,235.006,92.211z M217.887,106.007c-11.06,0-20.058,8.998-20.058,20.059c0,4.142,3.358,7.5,7.5,7.5
	c4.142,0,7.5-3.358,7.5-7.5c0-2.79,2.269-5.059,5.058-5.059c2.79,0,5.059,2.269,5.059,5.059c0,4.142,3.358,7.5,7.5,7.5
	s7.5-3.358,7.5-7.5C237.946,115.005,228.948,106.007,217.887,106.007z M412.92,176.257c3.632,0,6.577-2.945,6.577-6.577
	c0-3.632-2.945-6.577-6.577-6.577s-6.577,2.945-6.577,6.577C406.343,173.313,409.288,176.257,412.92,176.257z"/>
<g>
</g>
<g>
</g>
<g>
</g>
<g>
</g>
<g>
</g>
<g>
</g>
<g>
</g>
<g>
</g>
<g>
</g>
<g>
</g>
<g>
</g>
<g>
</g>
<g>
</g>
<g>
</g>
<g>
</g>
</svg>
