<?xml version="1.0" encoding="iso-8859-1"?>
<!-- Generator: Adobe Illustrator 19.0.0, SVG Export Plug-In . SVG Version: 6.00 Build 0)  -->
<svg version="1.1" id="Capa_1" xmlns="http://www.w3.org/2000/svg" xmlns:xlink="http://www.w3.org/1999/xlink" x="0px" y="0px"
	 viewBox="0 0 512 512" style="enable-background:new 0 0 512 512;" xml:space="preserve">
<path style="fill:#498A68;" d="M182.62,373.682c5.075,0,9.985-2.725,12.543-7.514c4.876-9.122,12.694-15.313,15.637-17.643
	l0.354-0.281c6.144-4.882,7.166-13.819,2.284-19.963c-4.882-6.144-13.819-7.167-19.964-2.285l-0.316,0.25
	c-3.808,3.015-15.395,12.191-23.057,26.527c-3.699,6.921-1.088,15.529,5.833,19.228C178.069,373.142,180.36,373.682,182.62,373.682z
	"/>
<path style="fill:#5CB38E;" d="M301.117,399.717c66.304,0,142.608,0,198.469-35.663c9.559-6.103,4.031-20.843-7.211-19.342
	c-44.236,5.905-81.394-5.355-102.582-23.595L301.117,399.717z"/>
<path style="opacity:0.1;enable-background:new    ;" d="M414.803,336.164c-0.739,21.175-3.989,42.311-17.042,59.885
	c-32.322,3.668-65.581,3.668-96.644,3.668l88.675-78.601C396.584,326.964,405.024,332.087,414.803,336.164z"/>
<g>
	<path style="fill:#498A68;" d="M309.029,444.209c-0.269-3.499-1.67-59.427,4.221-73.891c4.556-11.18,17.311-16.551,28.491-11.997
		c10.723,4.368,16.102,16.281,12.505,27.113c-1.567,8.067-2.468,44.5-1.628,55.425c0.925,12.037-8.083,22.545-20.119,23.47
		c-0.57,0.044-1.137,0.065-1.699,0.065C319.489,464.394,309.91,455.676,309.029,444.209z M353.737,386.812
		c0.003-0.009,0.006-0.017,0.01-0.025C353.744,386.795,353.741,386.804,353.737,386.812z"/>
	<path style="fill:#498A68;" d="M229.755,444.211c-0.269-3.499-1.674-59.427,4.222-73.896c4.558-11.18,17.318-16.55,28.492-11.993
		c10.723,4.37,16.101,16.283,12.503,27.114c-1.568,8.072-2.469,44.499-1.628,55.421c0.926,12.037-8.081,22.546-20.117,23.472
		c-0.571,0.044-1.139,0.066-1.701,0.066C240.215,464.394,230.637,455.677,229.755,444.211z M274.463,386.815
		c0.003-0.008,0.006-0.017,0.01-0.025C274.469,386.799,274.466,386.807,274.463,386.815z"/>
</g>
<path style="opacity:0.1;enable-background:new    ;" d="M229.417,423.953c0.017-18.581,0.819-44.456,4.56-53.637
	c4.558-11.18,17.318-16.55,28.492-11.993c10.723,4.37,16.101,16.283,12.503,27.114c-1.257,6.473-2.085,31.168-1.93,46.335
	C256.166,430.663,241.706,428.083,229.417,423.953z"/>
<path style="opacity:0.1;enable-background:new    ;" d="M341.742,358.321c10.723,4.368,16.102,16.281,12.505,27.113
	c-1.095,5.638-1.864,25.125-1.941,40.082c-12.402,3.586-26.859,5.737-43.572,6.534c-0.202-18.166,0.194-51.115,4.518-61.731
	C317.805,359.138,330.561,353.768,341.742,358.321z"/>
<path style="fill:#5CB38E;" d="M193.553,322.594c0,51.031,6.932,87.956,99.798,87.956s99.798-36.925,99.798-87.956
	s-44.681-92.399-99.798-92.399S193.553,271.563,193.553,322.594z"/>
<path style="fill:#9BDFC1;" d="M193.553,322.594c0-0.407,0.011-0.811,0.017-1.216c20.787-5.335,62.017-6.886,90.708,23.606
	c20.908,22.22,23.934,46.197,21.691,65.32c-4.019,0.163-8.221,0.247-12.617,0.247C200.484,410.549,193.553,373.624,193.553,322.594z
	"/>
<path style="opacity:0.05;enable-background:new    ;" d="M312.297,231.864c46.055,8.196,80.852,45.697,80.852,90.729
	c0,47.252-5.954,82.406-80.561,87.352C354.011,367.902,346,281.09,312.297,231.864z"/>
<path style="fill:#5CB38E;" d="M194.208,101.197L194.208,101.197c14.255-27.412,41.311-45.841,72.038-49.071l37.77-3.97
	c53.699-5.644,101.806,33.312,107.45,87.011l4.698,44.703c5.066,48.194-29.897,91.369-78.092,96.435L137.85,297.35
	c-36.103,3.795-68.447-22.397-72.242-58.5l-3.198-30.424c-3.795-36.103,22.397-68.448,58.5-72.242l25.938-2.726
	C167.05,131.333,184.837,119.217,194.208,101.197z"/>
<g style="opacity:0.1;">
	<circle cx="365.583" cy="206.667" r="6.728"/>
	<circle cx="319.084" cy="221.877" r="6.728"/>
	<circle cx="348.704" cy="241.836" r="6.728"/>
</g>
<g>
	
		<ellipse transform="matrix(0.1045 0.9945 -0.9945 0.1045 425.2402 -239.8367)" style="fill:#FFA8CB;" cx="345.799" cy="116.214" rx="8.7" ry="16.958"/>
	
		<ellipse transform="matrix(-0.1045 -0.9945 0.9945 -0.1045 129.4181 372.7941)" style="fill:#FFA8CB;" cx="232.546" cy="128.131" rx="8.7" ry="16.958"/>
</g>
<path style="opacity:0.05;enable-background:new    ;" d="M325.87,48.297c44.335,5.272,80.733,40.595,85.596,86.869l4.698,44.703
	c5.066,48.194-29.897,91.369-78.092,96.435l-52.952,5.566C357.522,228.896,357.63,104.184,325.87,48.297z"/>
<path style="fill:#498A68;" d="M283.245,373.7c5.077,0,9.988-2.728,12.547-7.519c4.875-9.129,12.697-15.324,15.642-17.655
	l0.354-0.28c6.144-4.882,7.166-13.82,2.284-19.964c-4.882-6.144-13.819-7.167-19.964-2.285l-0.315,0.25
	c-3.811,3.018-15.408,12.2-23.07,26.55c-3.696,6.922-1.08,15.53,5.842,19.226C278.696,373.16,280.987,373.7,283.245,373.7z"/>
<path style="fill:#FF85B6;" d="M169.993,265.506c-58.643,58.642-7.599,151.854-36.156,173.887
	c-15.128,11.672-31.81-2.087-56.56,3.454c-18.744,4.197-72.202,27.579-63.036-44.559c10.795-84.953,72.088-140.194,110.214-178.32
	c12.575-12.575,32.963-12.575,45.538,0C182.567,232.543,182.567,252.931,169.993,265.506z"/>
<path style="fill:#A3E3FF;" d="M177.332,231.323c4.344,11.48,1.904,24.941-7.339,34.183
	c-58.642,58.643-7.599,151.854-36.156,173.887c-9.858,7.606-20.38,4.414-33.36,2.8C92.961,313.256,140.543,254.045,177.332,231.323z
	"/>
<path style="fill:#FAE17C;" d="M124.454,219.968c10.456-10.456,26.31-12.209,38.586-5.277
	C112.334,249.526,43.164,342.485,55.95,448.277c-22.093,4.401-48.353,2.303-41.709-49.988
	C25.035,313.335,86.328,258.094,124.454,219.968z"/>
<path style="fill:#A3E3FF;" d="M186.062,410.78c11.313,6.909,15.979,22.511,4.355,31.415c-11.624,8.904-24.626,3.495-29.922-9.576
	C155.198,419.55,164.777,397.782,186.062,410.78z"/>
<path style="fill:#FAE17C;" d="M32.912,259.015c8.513,0.717,18.464,12.827,4.685,23.913c-13.779,11.086-24.251,7.378-28.385,0
	C5.079,275.549,6.733,256.81,32.912,259.015z"/>
<path d="M510.852,349.033c-2.992-8.185-10.818-12.908-19.47-11.755c-34.966,4.668-68.558-1.794-90.791-17.303
	c-0.514-18.92-6.569-36.863-17.702-52.468c8.658-5.965,16.357-13.367,22.723-22.013c14.103-19.153,20.499-42.737,18.012-66.409
	l-4.699-44.703c-2.939-27.964-16.592-53.109-38.442-70.804c-21.852-17.695-49.277-25.82-77.25-22.883l-37.77,3.97
	c-33.323,3.502-62.448,23.342-77.908,53.07c-8.232,15.831-23.742,26.396-41.488,28.262l-25.938,2.726
	c-19.453,2.044-36.945,11.542-49.256,26.745c-12.311,15.202-17.964,34.287-15.919,53.74l3.197,30.424
	c1.078,10.249,4.328,20.179,9.458,29.044c-6.514,7.747-12.922,15.949-18.984,24.637C25.091,327.042,11.409,361.07,6.802,397.342
	c-3.237,25.481,0.562,42.51,11.614,52.059c6.817,5.891,15.341,7.843,23.968,7.843c10.789,0,21.738-3.054,29.703-5.276
	c2.675-0.746,4.984-1.39,6.83-1.803c9.742-2.181,18.15-0.941,26.282,0.256c10.989,1.619,22.354,3.294,33.22-5.091
	c11.327-8.74,12.601-24.263,12.352-38.295c-0.073-4.142-3.492-7.427-7.632-7.366c-4.142,0.074-7.439,3.49-7.366,7.632
	c0.256,14.413-1.755,22.479-6.517,26.154c-5.563,4.293-11.326,3.682-21.872,2.127c-8.595-1.267-19.293-2.842-31.745-0.054
	c-2.224,0.498-4.707,1.19-7.582,1.993c-12.178,3.397-30.579,8.529-39.835,0.531c-6.763-5.844-9.024-19.267-6.54-38.819
	c6.589-51.859,32.617-92.262,60.561-124.649c0.221-0.226,0.426-0.463,0.614-0.71c13.145-15.165,26.685-28.567,38.799-40.557
	c2.792-2.764,5.501-5.445,8.103-8.046c4.665-4.665,10.868-7.234,17.466-7.234c6.598,0,12.801,2.569,17.466,7.234
	c9.631,9.631,9.631,25.301,0,34.932c-31.968,31.967-33.861,73.089-31.145,112.765c0.282,4.132,3.875,7.254,7.994,6.97
	c4.133-0.283,7.254-3.862,6.971-7.995c-1.522-22.233-2.041-46.509,6.163-68.821l34.279-3.603c-1.891,7.441-2.871,15.075-2.891,22.82
	c-5.408,4.461-15.454,13.583-22.57,26.899c-2.734,5.114-3.313,10.987-1.629,16.536c1.684,5.548,5.427,10.109,10.541,12.843
	c3.141,1.678,6.675,2.565,10.22,2.565c4.341,0,8.474-1.293,11.958-3.59c2.183,4.618,4.919,8.977,8.348,12.989
	c5.095,5.962,11.484,10.907,19.289,14.883c-0.591,17.96-0.143,36.643,0.062,39.323c1.17,15.2,14.018,27.107,29.249,27.107
	c0.756,0,1.523-0.029,2.278-0.087c16.14-1.243,28.261-15.385,27.019-31.525c-0.314-4.083-0.38-12.757-0.198-22.478
	c4.089,0.163,8.328,0.246,12.727,0.246c2.685,0,5.305-0.033,7.874-0.093c-0.14,13.671,0.192,25.07,0.327,26.828
	c1.167,15.203,14.016,27.111,29.248,27.111c0.751,0,1.515-0.029,2.274-0.087c7.818-0.601,14.936-4.211,20.039-10.165
	c5.104-5.954,7.584-13.54,6.982-21.357c-0.436-5.681-0.387-19.662,0.082-32.78c0.934-0.408,1.844-0.831,2.742-1.263
	c42.744-1.953,96.953-7.935,140.703-35.866C510.912,365.72,513.817,357.144,510.852,349.033z M188.548,362.635
	c-1.169,2.188-3.44,3.547-5.928,3.547c-1.104,0-2.163-0.267-3.149-0.794c-1.58-0.845-2.737-2.254-3.258-3.969
	c-0.52-1.714-0.341-3.529,0.504-5.11c2.906-5.437,6.467-10.067,9.884-13.829c0.441,6.478,1.224,12.866,2.593,19.015
	C188.976,361.876,188.749,362.258,188.548,362.635z M252.652,456.851c-7.932,0.617-14.819-5.409-15.42-13.211
	c-0.123-1.669-0.529-16.318-0.176-32.285c8.337,2.529,17.836,4.325,28.587,5.415c-0.187,9.439-0.18,19.43,0.224,24.663
	C266.473,449.326,260.546,456.243,252.652,456.851z M341.726,451.88c-2.497,2.912-5.978,4.678-9.797,4.971
	c-7.912,0.616-14.822-5.407-15.422-13.214c-0.088-1.194-0.436-12.582-0.273-26.437c10.749-0.855,20.314-2.366,28.78-4.556
	c-0.294,11.12-0.323,22.925,0.127,28.79C345.435,445.258,344.222,448.968,341.726,451.88z M358.128,391.903
	c-0.374,0.155-0.734,0.336-1.075,0.547c-1.907,0.951-3.927,1.835-6.062,2.655c-0.501,0.13-0.982,0.31-1.437,0.535
	c-10.71,3.874-24.209,6.189-40.837,7.036c-0.212,0.004-0.422,0.013-0.629,0.035c-4.666,0.226-9.575,0.339-14.737,0.339
	c-6.83,0-13.208-0.201-19.174-0.598c-0.207-0.024-0.415-0.045-0.627-0.051c-0.03-0.001-0.058,0.002-0.088,0.002
	c-16.461-1.147-29.666-3.845-39.98-8.195c-0.412-0.225-0.848-0.412-1.304-0.557c-7.491-3.341-13.392-7.598-17.851-12.816
	c-8.195-9.59-13.275-22.678-13.275-58.242c0-8.462,1.354-16.771,4.004-24.767l108.082-11.36c4.119-0.433,7.107-4.123,6.675-8.243
	c-0.433-4.119-4.119-7.108-8.243-6.675l-112.876,11.864h-0.001l-36.357,3.821c3.496-5.716,7.755-11.221,12.961-16.426
	c15.479-15.479,15.479-40.665,0-56.144c-15.48-15.48-40.665-15.48-56.146,0c-2.583,2.583-5.273,5.246-8.047,7.991
	c-10.078,9.974-21.466,21.258-32.91,33.906c-2.702-5.813-4.451-12.075-5.126-18.497l-3.197-30.424
	c-1.626-15.469,2.869-30.645,12.658-42.732c9.789-12.088,23.699-19.641,39.167-21.267l25.939-2.726
	c22.768-2.393,42.666-15.949,53.228-36.258c13.13-25.249,37.865-42.098,66.168-45.073l37.77-3.97
	c23.984-2.521,47.504,4.449,66.241,19.622c18.738,15.174,30.445,36.735,32.965,60.715l4.699,44.703
	c2.096,19.944-3.292,39.812-15.173,55.947c-11.804,16.031-28.993,27.053-48.402,31.033c-4.058,0.833-6.673,4.797-5.84,8.855
	c0.728,3.549,3.852,5.995,7.339,5.994c0.499,0,1.007-0.05,1.515-0.154c7.553-1.55,14.815-4.012,21.669-7.27
	c10.37,14.044,15.836,30.356,15.836,47.536c0,26.367-2.221,45.307-13.275,58.242C368.657,385.184,363.933,388.863,358.128,391.903z
	 M495.549,357.732c-33.69,21.51-74.84,29.088-111.181,32.126c11.921-14.433,15.177-33.187,16.009-52.373
	c24.812,13.811,58.459,19.27,92.989,14.66c2.208-0.293,3.073,1.15,3.397,2.037C497.139,355.208,497.233,356.657,495.549,357.732z
	 M189.971,404.38c-15.636-9.547-25.887-3.303-29.569-0.177c-8.278,7.027-11.227,20.456-6.857,31.233
	c3.678,9.075,10.49,15.562,18.688,17.795c2.08,0.567,4.189,0.847,6.3,0.847c5.668,0,11.343-2.02,16.446-5.93
	c6.648-5.093,10.077-12.323,9.652-20.358C204.144,418.575,198.527,409.605,189.971,404.38z M185.857,436.241
	c-2.267,1.736-5.788,3.579-9.681,2.519c-3.645-0.993-6.826-4.258-8.73-8.958c-1.879-4.635-0.61-11.387,2.662-14.165
	c1.129-0.958,2.468-1.342,3.888-1.342c2.721,0,5.741,1.409,8.157,2.885c4.329,2.643,7.273,7.119,7.499,11.4
	C189.811,431.613,188.535,434.19,185.857,436.241z M16.992,297.018c1.25,0.242,2.671,0.401,4.247,0.401
	c5.403,0,12.631-1.867,21.059-8.647c11.473-9.23,9.994-19.111,8.826-22.93c-2.331-7.625-9.726-13.639-17.583-14.3
	c-17.707-1.494-26.018,5.335-29.872,11.324c-5.251,8.156-4.199,18.018-0.999,23.728C5.77,292.127,10.856,295.829,16.992,297.018z
	 M16.28,270.986c1.956-3.039,6.356-4.649,12.556-4.649c1.094,0,2.244,0.05,3.447,0.151c1.625,0.137,3.894,1.765,4.497,3.739
	c0.797,2.606-2.092,5.415-3.885,6.857c-4.998,4.021-9.637,5.872-13.051,5.208c-2.218-0.429-3.448-1.884-4.09-3.03
	C14.975,277.87,14.329,274.015,16.28,270.986z M266.45,102.829l-4.646-3.763l3.763-4.646c2.606-3.219,2.109-7.941-1.109-10.548
	c-3.22-2.607-7.942-2.109-10.549,1.109l-3.762,4.646l-4.646-3.762c-3.22-2.607-7.943-2.109-10.548,1.109
	c-2.607,3.219-2.111,7.941,1.108,10.548l4.646,3.762l-3.763,4.647c-2.606,3.219-2.109,7.941,1.109,10.548
	c1.389,1.125,3.058,1.672,4.715,1.672c2.186,0,4.352-0.951,5.834-2.781l3.763-4.647l4.647,3.763
	c1.389,1.125,3.058,1.672,4.715,1.672c2.186,0,4.352-0.95,5.833-2.781C270.166,110.158,269.669,105.435,266.45,102.829z
	 M336.886,95.425l-4.646-3.762l3.763-4.647c2.607-3.219,2.109-7.941-1.109-10.548c-3.219-2.607-7.941-2.108-10.549,1.109
	l-3.762,4.646l-4.647-3.763c-3.219-2.607-7.942-2.109-10.548,1.109c-2.607,3.219-2.111,7.941,1.108,10.548l4.647,3.763l-3.763,4.647
	c-2.607,3.219-2.109,7.941,1.109,10.548c1.389,1.125,3.058,1.672,4.715,1.672c2.186,0,4.352-0.951,5.834-2.781l3.762-4.646
	l4.646,3.762c1.389,1.124,3.058,1.672,4.715,1.672c2.186,0,4.352-0.95,5.833-2.781C340.602,102.755,340.105,98.032,336.886,95.425z
	 M318.973,338.297c-3.51-2.194-8.138-1.129-10.335,2.383c-0.402,0.644-0.913,1.214-1.503,1.683l-0.358,0.283
	c-3.279,2.596-11.99,9.492-17.603,20.003c-1.17,2.191-3.442,3.552-5.931,3.552c-1.103,0-2.161-0.267-3.146-0.793
	c-3.264-1.743-4.501-5.815-2.759-9.078c6.926-12.972,17.602-21.425,21.121-24.212l0.311-0.247c0.394-0.313,0.816-0.579,1.257-0.793
	c3.728-1.808,5.282-6.295,3.475-10.021c-1.809-3.727-6.297-5.282-10.022-3.474c-1.428,0.692-2.786,1.547-4.041,2.544l-0.304,0.241
	c-4.113,3.257-16.632,13.17-25.03,28.897c-5.638,10.559-1.634,23.736,8.926,29.374c3.138,1.675,6.669,2.561,10.212,2.561
	c8.037,0,15.38-4.401,19.163-11.487c4.141-7.755,11.071-13.242,13.677-15.304l0.368-0.291c1.944-1.544,3.595-3.391,4.905-5.486
	C323.553,345.12,322.486,340.492,318.973,338.297z M115.413,164.519c-3.696,0.388-6.377,3.699-5.988,7.395
	c0.388,3.696,3.699,6.377,7.395,5.988c3.696-0.389,6.377-3.699,5.988-7.395C122.42,166.811,119.109,164.13,115.413,164.519z
	 M158.058,160.036c-3.696,0.388-6.377,3.699-5.988,7.395c0.388,3.696,3.699,6.377,7.395,5.988c3.696-0.388,6.377-3.699,5.988-7.395
	C165.064,162.329,161.753,159.648,158.058,160.036z"/>
<g>
</g>
<g>
</g>
<g>
</g>
<g>
</g>
<g>
</g>
<g>
</g>
<g>
</g>
<g>
</g>
<g>
</g>
<g>
</g>
<g>
</g>
<g>
</g>
<g>
</g>
<g>
</g>
<g>
</g>
</svg>
