<?xml version="1.0" encoding="iso-8859-1"?>
<!-- Generator: Adobe Illustrator 19.0.0, SVG Export Plug-In . SVG Version: 6.00 Build 0)  -->
<svg version="1.1" id="Capa_1" xmlns="http://www.w3.org/2000/svg" xmlns:xlink="http://www.w3.org/1999/xlink" x="0px" y="0px"
	 viewBox="0 0 512.001 512.001" style="enable-background:new 0 0 512.001 512.001;" xml:space="preserve">
<path style="fill:#DEE2E5;" d="M191.701,7.5h150.04c8.271,0,14.977,6.705,14.977,14.977v45.802c0,8.271-6.705,14.977-14.977,14.977
	h-41.874c-6.444,0-12.609,2.629-17.069,7.28l-10.137,10.57c-3.24,3.378-8.641,3.378-11.881,0l-10.137-10.57
	c-4.46-4.651-10.625-7.28-17.069-7.28H191.7c-8.271,0-14.977-6.705-14.977-14.977V22.477C176.724,14.205,183.429,7.5,191.701,7.5z"
	/>
<path style="fill:#498A68;" d="M162.297,418.954c-2.131,0-4.293-0.509-6.304-1.584c-6.527-3.488-8.99-11.606-5.502-18.133
	c7.227-13.524,18.157-22.177,21.749-25.02l0.295-0.234c5.795-4.602,14.223-3.637,18.826,2.158
	c4.603,5.795,3.637,14.223-2.157,18.826l-0.33,0.262c-2.776,2.197-10.148,8.034-14.747,16.639
	C171.712,416.384,167.082,418.954,162.297,418.954z"/>
<path style="fill:#5CB38E;" d="M274.045,443.506c62.529,0,134.488,0,187.167-33.633c9.014-5.755,3.801-19.655-6.8-18.24
	c-41.717,5.569-76.759-5.05-96.741-22.252L274.045,443.506z"/>
<path style="opacity:0.1;enable-background:new    ;" d="M381.258,383.572c-0.697,19.969-3.762,39.902-16.072,56.475
	c-30.482,3.459-61.847,3.459-91.142,3.459l83.626-74.125C364.076,374.895,372.035,379.727,381.258,383.572z"/>
<g>
	<path style="fill:#498A68;" d="M302.038,504.5c-10.668,0.001-19.7-8.22-20.532-19.035c-0.254-3.3-1.575-56.043,3.981-69.683
		c4.296-10.544,16.324-15.61,26.869-11.314c10.112,4.119,15.185,15.354,11.793,25.568c-1.478,7.607-2.327,41.966-1.535,52.268
		c0.873,11.352-7.623,21.261-18.973,22.134C303.103,504.48,302.567,504.5,302.038,504.5z M323.679,431.313
		c-0.003,0.008-0.006,0.016-0.009,0.023C323.673,431.328,323.676,431.32,323.679,431.313z"/>
	<path style="fill:#498A68;" d="M227.277,504.5c-10.667,0.001-19.7-8.22-20.531-19.034c-0.254-3.299-1.577-56.043,3.981-69.685
		c4.296-10.543,16.328-15.607,26.869-11.312c10.112,4.12,15.184,15.355,11.792,25.569c-1.478,7.608-2.328,41.966-1.535,52.267
		c0.873,11.351-7.621,21.261-18.973,22.134C228.342,504.479,227.807,504.5,227.277,504.5z M248.917,431.314
		c-0.003,0.008-0.007,0.016-0.01,0.024C248.911,431.329,248.914,431.322,248.917,431.314z"/>
</g>
<path style="opacity:0.1;enable-background:new    ;" d="M312.356,404.468c-10.545-4.297-22.573,0.769-26.869,11.314
	c-4.078,10.011-4.451,41.084-4.26,58.216c15.763-0.751,29.396-2.779,41.091-6.162c0.073-14.105,0.798-32.483,1.831-37.8
	C327.541,419.823,322.468,408.588,312.356,404.468z"/>
<path style="opacity:0.1;enable-background:new    ;" d="M237.596,404.469c-10.541-4.295-22.572,0.768-26.869,11.312
	c-3.528,8.658-4.283,33.06-4.3,50.582c11.589,3.895,25.226,6.327,41.141,7.372c-0.146-14.304,0.635-37.596,1.82-43.697
	C252.78,419.824,247.708,408.589,237.596,404.469z"/>
<path style="fill:#5CB38E;" d="M172.606,370.774c0,48.125,6.537,82.948,94.115,82.948s94.115-34.823,94.115-82.948
	s-42.137-87.138-94.115-87.138S172.606,322.649,172.606,370.774z"/>
<path style="fill:#9BDFC1;" d="M172.606,370.774c0-0.384,0.01-0.765,0.016-1.147c19.603-5.031,58.485-6.494,85.543,22.262
	c19.717,20.954,22.57,43.567,20.456,61.601c-3.79,0.154-7.753,0.232-11.899,0.232C179.143,453.722,172.606,418.899,172.606,370.774z
	"/>
<path style="opacity:0.05;enable-background:new    ;" d="M284.588,285.211c43.433,7.729,76.248,43.095,76.248,85.563
	c0,44.561-5.615,77.713-75.973,82.379C323.928,413.503,316.372,331.634,284.588,285.211z"/>
<path style="fill:#5CB38E;" d="M180.333,158.14L180.333,158.14c16.071-24.304,43.264-38.922,72.401-38.922h35.816
	c50.92,0,92.199,41.279,92.199,92.199v42.39c0,45.7-37.048,82.748-82.748,82.748H108.14c-34.235,0-61.988-27.753-61.988-61.988
	v-28.85c0-34.235,27.753-61.988,61.988-61.988h24.595C151.89,183.728,169.767,174.118,180.333,158.14z"/>
<g style="opacity:0.1;">
	<circle cx="330.67" cy="273.95" r="6.345"/>
	<circle cx="285.56" cy="283.64" r="6.345"/>
	<circle cx="311.37" cy="305.28" r="6.345"/>
</g>
<g>
	<ellipse style="fill:#FFA8CB;" cx="309.68" cy="178.93" rx="15.993" ry="8.205"/>
	<ellipse style="fill:#FFA8CB;" cx="202.31" cy="178.93" rx="15.993" ry="8.205"/>
</g>
<path style="opacity:0.05;enable-background:new    ;" d="M309.032,121.505c41.061,9.315,71.717,46.032,71.717,89.912v42.39
	c0,45.7-37.048,82.748-82.748,82.748h-50.212C320.916,294.007,333.31,177.051,309.032,121.505z"/>
<path style="fill:#498A68;" d="M274.736,398.909c-1.659,0-3.345-0.31-4.978-0.964c-16.207-6.491-26.808-17.355-31.509-32.289
	c-2.221-7.059,1.699-14.582,8.758-16.804c7.059-2.223,14.582,1.698,16.804,8.758c2.263,7.19,7.171,11.957,15.911,15.458
	c6.87,2.751,10.207,10.551,7.457,17.42C285.081,395.724,280.052,398.909,274.736,398.909z"/>
<g>
	<circle style="fill:#495059;" cx="319.42" cy="45.38" r="12.869"/>
	<circle style="fill:#495059;" cx="266.72" cy="45.38" r="12.869"/>
	<circle style="fill:#495059;" cx="214.03" cy="45.38" r="12.869"/>
</g>
<path d="M186.152,90.064c4.012,1.017,8.096-1.407,9.117-5.421c1.02-4.015-1.407-8.096-5.421-9.117
	c-3.311-0.841-5.624-3.821-5.624-7.247V22.477c0-4.123,3.354-7.477,7.477-7.477h150.04c4.123,0,7.477,3.354,7.477,7.477V68.28
	c0,4.123-3.353,7.477-7.477,7.477h-41.874c-8.443,0-16.638,3.495-22.482,9.588l-10.139,10.57c-0.285,0.298-0.767,0.298-1.054-0.001
	l-10.137-10.569c-5.844-6.093-14.038-9.588-22.481-9.588h-12.359c-4.142,0-7.5,3.358-7.5,7.5s3.358,7.5,7.5,7.5h12.359
	c4.377,0,8.625,1.812,11.655,4.971l10.137,10.569c2.952,3.078,7.091,4.843,11.355,4.842c4.264,0,8.401-1.766,11.352-4.842
	l10.138-10.569c3.029-3.159,7.278-4.971,11.655-4.971h41.874c12.393,0,22.477-10.083,22.477-22.477V22.477
	C364.218,10.083,354.135,0,341.741,0h-150.04c-12.394,0-22.477,10.083-22.477,22.477V68.28
	C169.224,78.572,176.185,87.53,186.152,90.064z M106.534,216.107c0-3.504-2.841-6.345-6.345-6.345s-6.345,2.841-6.345,6.345
	s2.841,6.345,6.345,6.345C103.693,222.452,106.534,219.612,106.534,216.107z M472.238,395.562
	c-2.893-7.913-10.451-12.48-18.818-11.362c-32.777,4.377-64.254-1.644-85.137-16.118c-0.47-15.658-5.026-30.786-13.32-44.271
	c20.473-16.694,33.286-42.081,33.286-70.003v-42.39c0-54.974-44.725-99.699-99.699-99.699h-35.816
	c-31.743,0-61.148,15.808-78.657,42.286c-9.203,13.917-24.657,22.225-41.341,22.225H108.14c-38.316,0-69.488,31.172-69.488,69.488
	v28.85c0,38.316,31.172,69.488,69.488,69.488h61.077c-2.684,8.491-4.062,17.289-4.105,26.28
	c-5.16,4.272-14.556,12.869-21.235,25.367c-2.631,4.923-3.188,10.577-1.567,15.919s5.225,9.733,10.147,12.363
	c3.023,1.616,6.425,2.471,9.84,2.471c4.01,0,7.835-1.147,11.102-3.193c2.039,4.224,4.57,8.219,7.721,11.906
	c4.79,5.605,10.777,10.263,18.08,14.017c-0.546,16.883-0.125,34.344,0.068,36.856c1.12,14.557,13.423,25.96,28.009,25.959
	c0.723,0,1.456-0.028,2.178-0.084c7.487-0.576,14.302-4.033,19.189-9.735s7.262-12.965,6.685-20.452
	c-0.29-3.778-0.354-11.746-0.192-20.722c3.726,0.143,7.585,0.215,11.582,0.215c2.383,0,4.708-0.03,6.994-0.08
	c-0.121,12.712,0.187,23.255,0.313,24.898c1.12,14.558,13.424,25.961,28.01,25.959c0.725,0,1.459-0.028,2.178-0.083
	c7.487-0.576,14.302-4.033,19.189-9.734c4.888-5.702,7.262-12.965,6.686-20.453c-0.407-5.302-0.364-18.317,0.069-30.6
	c0.773-0.341,1.532-0.69,2.279-1.048c40.35-1.849,91.498-7.512,132.81-33.887C472.296,411.695,475.105,403.403,472.238,395.562z
	 M167.511,408.333c-1.029,1.925-3.027,3.122-5.214,3.122c-0.97,0-1.9-0.235-2.769-0.699c-1.39-0.743-2.407-1.982-2.864-3.49
	c-0.458-1.508-0.301-3.104,0.442-4.493c2.531-4.736,5.594-8.819,8.588-12.206c0.424,5.729,1.144,11.378,2.347,16.832
	C167.864,407.71,167.677,408.023,167.511,408.333z M237.256,492.419c-2.28,2.659-5.459,4.272-8.953,4.541
	c-7.235,0.549-13.531-4.94-14.079-12.067c-0.114-1.562-0.486-15.061-0.176-29.849c7.657,2.279,16.333,3.913,26.109,4.925
	c-0.168,8.797-0.157,18.033,0.218,22.91C240.643,486.372,239.536,489.76,237.256,492.419z M312.017,492.42
	c-2.279,2.66-5.459,4.272-8.953,4.54c-7.225,0.559-13.532-4.94-14.079-12.066c-0.082-1.122-0.402-11.671-0.26-24.504
	c9.771-0.795,18.507-2.166,26.276-4.135c-0.263,10.335-0.283,21.185,0.135,26.625C315.404,486.373,314.296,489.761,312.017,492.42z
	 M340.92,425.422c-1.868,2.185-5.358,6.265-13.074,10.237c-0.457,0.174-0.891,0.391-1.299,0.647
	c-10.642,5.141-28.67,9.915-59.826,9.915c-28.173,0-45.614-3.904-56.564-8.453c-0.236-0.115-0.478-0.219-0.727-0.309
	c-10.448-4.486-14.755-9.521-16.907-12.038c-7.666-8.97-12.417-21.24-12.417-54.648c0-9.203,1.695-18.168,5.015-26.72h54.644
	c-7.742,4.966-11.56,14.668-8.669,23.853c5.409,17.183,17.478,29.632,35.874,36.999c1.481,0.593,3.028,1.017,4.597,1.259
	c0.387,0.06,0.771,0.088,1.152,0.088c3.637,0,6.831-2.652,7.402-6.358c0.632-4.094-2.176-7.924-6.27-8.556
	c-0.442-0.068-0.882-0.189-1.306-0.358c-14.018-5.614-23.15-14.893-27.143-27.578c-0.977-3.103,0.753-6.422,3.856-7.399
	c3.104-0.975,6.422,0.753,7.399,3.856c2.96,9.405,9.403,15.813,20.277,20.169c1.592,0.638,2.478,1.75,2.94,2.57
	c2.034,3.608,6.61,4.884,10.217,2.849c3.608-2.035,4.884-6.609,2.85-10.217c-2.325-4.123-6.029-7.364-10.429-9.126
	c-8.21-3.288-10.401-7.109-11.546-10.749c-1.528-4.852-4.675-8.751-8.657-11.302h16.901c4.143,0,7.5-3.358,7.5-7.5
	s-3.357-7.5-7.5-7.5H108.14c-30.045,0-54.488-24.443-54.488-54.488v-28.85c0-30.045,24.443-54.488,54.488-54.488h24.596
	c21.733,0,41.866-10.823,53.853-28.951c4.903-7.415,10.92-13.827,17.745-19.092c0.596,3.243,3.29,5.822,6.734,6.115l5.852,0.498
	c-1.134,1.314-1.825,3.022-1.825,4.894v7.969c0,4.142,3.358,7.5,7.5,7.5s7.5-3.358,7.5-7.5v-7.969c0-1.548-0.469-2.985-1.273-4.179
	c3.192-0.636,5.715-3.314,6.005-6.72c0.351-4.127-2.71-7.757-6.838-8.108l-10.211-0.868c10.704-5.253,22.619-8.098,34.956-8.098
	h35.816c46.703,0,84.699,37.996,84.699,84.699v42.39c0,25.32-12.629,48.141-32.371,61.853c-0.178,0.109-0.356,0.22-0.527,0.346
	c-0.05,0.036-0.093,0.077-0.142,0.114c-8.309,5.639-17.84,9.687-28.211,11.637c-4.071,0.766-6.75,4.686-5.985,8.757
	c0.766,4.071,4.692,6.751,8.757,5.985c9.993-1.879,19.332-5.389,27.791-10.196c7.063,11.736,10.777,24.902,10.777,38.471
	C353.337,395.543,351.26,413.324,340.92,425.422z M457.176,403.552c-31.386,20.039-69.676,27.229-103.647,30.146
	c10.659-13.418,13.702-30.585,14.522-48.166c23.419,12.821,54.982,17.858,87.354,13.536c1.69-0.224,2.426,0.77,2.746,1.644
	C458.587,401.905,458.259,402.861,457.176,403.552z M300.324,135.011l-15.707-0.038h-0.019c-4.134,0-7.49,3.346-7.5,7.481
	c-0.009,3.814,2.833,6.964,6.517,7.447c-1.08,1.299-1.73,2.968-1.73,4.79v7.969c0,4.142,3.357,7.5,7.5,7.5s7.5-3.358,7.5-7.5v-7.969
	c0-1.777-0.621-3.407-1.654-4.692l5.055,0.012h0.018c4.134,0,7.49-3.346,7.5-7.481C307.815,138.387,304.466,135.021,300.324,135.011
	z M140.627,209.762c-3.504,0-6.345,2.841-6.345,6.345s2.841,6.345,6.345,6.345s6.345-2.841,6.345-6.345
	S144.131,209.762,140.627,209.762z M139.601,284.111c-6.514-4.293-14.945-6.563-24.383-6.563h-7.601c-4.142,0-7.5,3.358-7.5,7.5
	s3.358,7.5,7.5,7.5h7.601c6.402,0,12.13,1.451,16.129,4.087c1.271,0.838,2.704,1.239,4.121,1.239c2.437,0,4.828-1.187,6.269-3.374
	C144.015,291.043,143.059,286.391,139.601,284.111z"/>
<g>
</g>
<g>
</g>
<g>
</g>
<g>
</g>
<g>
</g>
<g>
</g>
<g>
</g>
<g>
</g>
<g>
</g>
<g>
</g>
<g>
</g>
<g>
</g>
<g>
</g>
<g>
</g>
<g>
</g>
</svg>
