<?xml version="1.0" encoding="iso-8859-1"?>
<!-- Generator: Adobe Illustrator 19.0.0, SVG Export Plug-In . SVG Version: 6.00 Build 0)  -->
<svg version="1.1" id="Capa_1" xmlns="http://www.w3.org/2000/svg" xmlns:xlink="http://www.w3.org/1999/xlink" x="0px" y="0px"
	 viewBox="0 0 512.001 512.001" style="enable-background:new 0 0 512.001 512.001;" xml:space="preserve">
<path style="fill:#498A68;" d="M350.406,359.276c-5.19,0-10.268-2.579-13.248-7.29c-4.622-7.309-2.444-16.98,4.864-21.602
	l0.376-0.238c4.519-2.869,18.27-11.598,35.966-14.369c8.544-1.339,16.553,4.503,17.891,13.046
	c1.338,8.543-4.503,16.553-13.046,17.891c-11.259,1.764-20.536,7.653-24.029,9.87l-0.421,0.267
	C356.164,358.492,353.267,359.276,350.406,359.276z"/>
<path style="fill:#5CB38E;" d="M251.851,426.696c-72.393,9.888-155.705,21.268-222.014-9.34
	c-11.347-5.238-7.509-22.155,4.988-22.193c49.18-0.15,88.07-17.986,108.484-41.061L251.851,426.696z"/>
<path style="opacity:0.1;enable-background:new    ;" d="M118.246,374.262c3.965,23.009,10.666,45.602,27.538,62.843
	c35.838-0.816,72.151-5.776,106.067-10.409l-108.542-72.593C136.767,361.499,128.316,368.352,118.246,374.262z"/>
<g>
	<path style="fill:#498A68;" d="M229.765,504.502c-2.721,0.001-5.485-0.464-8.191-1.443c-12.51-4.525-18.984-18.334-14.459-30.844
		c5.472-15.128,3.189-40.267,0.415-47.873c-7.051-9.406-6.328-22.807,2.201-31.397c9.372-9.441,24.624-9.496,34.065-0.122
		c8.028,7.97,12.877,22.75,14.412,43.927c0.808,11.152,1.132,32.717-5.789,51.851C248.872,498.405,239.622,504.501,229.765,504.502z
		 M209.833,426.99c0.007,0.006,0.013,0.013,0.019,0.019C209.846,427.003,209.84,426.997,209.833,426.99z"/>
	<path style="fill:#498A68;" d="M367.422,471.154c-13.248,1.209-24.968-8.551-26.177-21.799
		c-1.22-13.367-12.288-26.556-17.681-29.835c-11.62-0.816-21.245-9.981-22.282-21.953c-1.144-13.215,8.611-24.861,21.807-26.065
		c0.038-0.004,0.076-0.007,0.114-0.01c20.539-1.778,37.815,15.937,44.289,23.636c7.198,8.558,19.591,26.416,21.729,49.851
		C390.43,458.225,380.67,469.945,367.422,471.154z M327.335,419.489c0.007-0.001,0.015-0.001,0.022-0.001
		C327.35,419.488,327.342,419.488,327.335,419.489z"/>
</g>
<path style="opacity:0.1;enable-background:new    ;" d="M371.007,410.635c1.281-1.992,2.44-4.011,3.509-6.049
	c-2.524-3.836-4.984-7.034-7.024-9.46c-6.474-7.698-23.751-25.413-44.289-23.636c-0.038,0.003-0.076,0.007-0.114,0.01
	c-13.196,1.204-22.951,12.85-21.807,26.065c1.037,11.972,10.662,21.137,22.282,21.953c4.085,2.485,11.421,10.66,15.271,20.288
	C352.877,432.013,363.471,422.355,371.007,410.635z"/>
<path style="opacity:0.1;enable-background:new    ;" d="M243.795,392.822c-9.442-9.373-24.693-9.319-34.065,0.122
	c-8.528,8.59-9.252,21.991-2.201,31.397c2.293,6.288,4.246,24.551,1.765,39.241c5.047,0.428,10.291,0.666,15.786,0.666
	c9.978,0,21.031-0.716,32.917-2.109c0.936-10.164,0.65-19.322,0.21-25.389C256.672,415.572,251.823,400.793,243.795,392.822z"/>
<path style="fill:#5CB38E;" d="M357.792,326.448c7.611,55.717,5.549,97.067-95.845,110.917
	c-101.395,13.85-114.47-25.432-122.081-81.15c-7.611-55.717,35.004-107.549,95.183-115.769
	C295.227,232.227,350.181,270.731,357.792,326.448z"/>
<path style="fill:#9BDFC1;" d="M357.792,326.448c-0.061-0.444-0.133-0.884-0.2-1.326c-23.491-2.724-68.739,1.731-95.518,39.302
	c-19.514,27.378-19.242,54.009-13.941,74.554c4.413-0.421,9.013-0.957,13.813-1.612
	C363.341,423.515,365.402,382.165,357.792,326.448z"/>
<path style="opacity:0.05;enable-background:new    ;" d="M214.611,245.096c-49.062,15.817-81.462,61.952-74.746,111.12
	c7.047,51.591,18.791,89.085,100.986,83.36C189.354,399.848,185.155,303.869,214.611,245.096z"/>
<path style="fill:#5CB38E;" d="M315.219,81.491L315.219,81.491c-22.45-25.596-56.245-38.221-89.978-33.613l-41.466,5.664
	c-58.953,8.053-100.217,62.372-92.164,121.325l6.704,49.077c7.227,52.91,55.978,89.943,108.888,82.716l219.814-30.025
	c39.636-5.414,67.379-41.935,61.965-81.571l-4.562-33.401c-5.414-39.636-41.935-67.379-81.571-61.965l-28.476,3.89
	C352.195,106.617,329.978,98.318,315.219,81.491z"/>
<circle style="fill:#495059;" cx="404.439" cy="217.311" r="25.26"/>
<g style="opacity:0.1;">
	<circle cx="159.489" cy="239.351" r="7.414"/>
	<circle cx="213.239" cy="243.421" r="7.414"/>
	<circle cx="186.779" cy="272.561" r="7.414"/>
</g>
<g>
	
		<ellipse transform="matrix(-0.1353 -0.9908 0.9908 -0.1353 29.3792 330.6946)" style="fill:#FFA8CB;" cx="158.992" cy="152.527" rx="9.587" ry="18.688"/>
	
		<ellipse transform="matrix(0.1353 0.9908 -0.9908 0.1353 379.2678 -163.519)" style="fill:#FFA8CB;" cx="283.317" cy="135.53" rx="9.587" ry="18.688"/>
</g>
<path style="opacity:0.05;enable-background:new    ;" d="M160.422,59.429c-46.066,17.278-75.751,64.636-68.811,115.438
	l6.704,49.078c7.227,52.91,55.978,89.943,108.888,82.716l58.133-7.941C173.944,261.025,141.098,127.578,160.422,59.429z"/>
<path style="fill:#498A68;" d="M224.263,371.988c-1.146,0-2.309-0.126-3.473-0.391l-0.485-0.11
	c-4.034-0.921-14.755-3.368-25.963-1.257c-8.501,1.599-16.685-3.991-18.285-12.488c-1.601-8.498,3.991-16.685,12.488-18.285
	c17.615-3.319,33.509,0.309,38.73,1.501l0.432,0.099c8.434,1.91,13.722,10.296,11.812,18.729
	C237.873,367.055,231.416,371.988,224.263,371.988z"/>
<g>
	<path style="fill:#FAE17C;" d="M366.567,58.83l-10.778,3.059c-3.851,1.093-7.599-2.022-7.228-6.008l1.036-11.156
		c0.121-1.305-0.211-2.612-0.941-3.7l-6.24-9.305c-2.229-3.325-0.425-7.851,3.48-8.731l10.93-2.462
		c1.278-0.288,2.419-1.008,3.228-2.038l6.922-8.81c2.473-3.148,7.336-2.831,9.379,0.612l5.719,9.634
		c0.669,1.127,1.706,1.989,2.936,2.44l10.517,3.86c3.758,1.379,4.959,6.102,2.317,9.109l-7.395,8.416
		c-0.865,0.984-1.364,2.237-1.413,3.546l-0.422,11.196c-0.15,4-4.271,6.602-7.947,5.018l-10.29-4.433
		C369.174,58.56,367.828,58.472,366.567,58.83z"/>
	<path style="fill:#FAE17C;" d="M56.343,110.81l-9.169,6.438c-3.276,2.3-7.84,0.593-8.804-3.292l-2.696-10.875
		c-0.315-1.272-1.059-2.396-2.107-3.184l-8.956-6.731c-3.2-2.405-2.987-7.273,0.41-9.39l9.509-5.924
		c1.112-0.693,1.952-1.748,2.377-2.988l3.634-10.598c1.299-3.787,5.994-5.089,9.057-2.511l8.573,7.213
		c1.003,0.844,2.266,1.316,3.576,1.337l11.202,0.181c4.003,0.065,6.692,4.128,5.187,7.838l-4.211,10.382
		c-0.493,1.214-0.551,2.561-0.167,3.814l3.289,10.71c1.175,3.827-1.858,7.64-5.851,7.356l-11.175-0.797
		C58.715,109.696,57.416,110.057,56.343,110.81z"/>
</g>
<path d="M20.105,99.161l8.444,6.347l2.541,10.253c1.048,4.227,4.109,7.661,8.188,9.186c1.5,0.561,3.065,0.836,4.622,0.836
	c2.677,0,5.33-0.815,7.583-2.397l8.645-6.069l10.536,0.751c4.338,0.308,8.555-1.54,11.267-4.948
	c2.711-3.408,3.566-7.928,2.288-12.09l-3.101-10.098l3.971-9.788c1.637-4.036,1.179-8.612-1.225-12.244
	c-2.403-3.631-6.438-5.841-10.792-5.912l-10.56-0.171l-8.082-6.8c-3.332-2.803-7.826-3.782-12.022-2.62
	c-4.197,1.163-7.545,4.317-8.959,8.437l-3.426,9.991l-8.965,5.585c-3.696,2.303-6.016,6.275-6.206,10.626
	C14.66,92.387,16.625,96.546,20.105,99.161z M38.496,84.218c2.568-1.6,4.524-4.057,5.506-6.921l2.78-8.109l6.56,5.519
	c2.315,1.949,5.256,3.049,8.284,3.099l8.572,0.139l-3.222,7.944c-1.138,2.805-1.275,5.943-0.386,8.835l2.517,8.196l-8.551-0.61
	c-3.017-0.212-6.045,0.624-8.522,2.363l-7.017,4.926l-2.063-8.322c-0.728-2.938-2.461-5.556-4.88-7.374l-6.854-5.151L38.496,84.218z
	 M342.07,44.67l-0.977,10.517c-0.403,4.336,1.355,8.586,4.705,11.37c3.348,2.783,7.849,3.737,12.039,2.547l10.161-2.884l9.701,4.179
	c1.674,0.722,3.452,1.078,5.222,1.078c2.458,0,4.904-0.688,7.045-2.039c3.682-2.325,5.978-6.311,6.143-10.663l0.398-10.555
	l6.971-7.934c2.875-3.271,3.951-7.744,2.877-11.964c-1.073-4.221-4.155-7.636-8.243-9.137l-9.915-3.64l-5.392-9.083
	c-2.223-3.745-6.145-6.15-10.491-6.433c-4.345-0.29-8.545,1.592-11.235,5.016l-6.526,8.306l-10.303,2.321
	c-4.249,0.956-7.748,3.943-9.36,7.988c-1.613,4.045-1.127,8.62,1.298,12.237L342.07,44.67z M358.475,27.844
	c2.953-0.666,5.608-2.342,7.477-4.721l5.297-6.741l4.376,7.372c1.544,2.602,3.96,4.609,6.801,5.653l8.048,2.954l-5.659,6.44
	c-1.998,2.274-3.16,5.191-3.274,8.214l-0.323,8.567l-7.873-3.392c-1.657-0.714-3.44-1.075-5.227-1.075
	c-1.21,0-2.421,0.166-3.597,0.499h-0.001l-8.247,2.341l0.793-8.537c0.28-3.012-0.494-6.056-2.18-8.57l-4.775-7.12L358.475,27.844z
	 M496.412,194.049l-4.563-33.401c-2.89-21.155-13.845-39.918-30.847-52.833s-38.018-18.438-59.17-15.547l-28.475,3.89
	c-19.741,2.698-39.364-4.636-52.499-19.612c-0.47-0.536-0.953-1.057-1.432-1.582c-0.016-2.17-0.154-4.361-0.456-6.568
	c-0.561-4.104-4.341-6.976-8.446-6.416c-1.289,0.176-2.457,0.671-3.435,1.393c-23.096-18.55-52.91-27.018-82.863-22.926
	l-41.467,5.664c-62.957,8.6-107.179,66.815-98.58,129.771l6.704,49.077c3.68,26.939,17.477,51.024,38.851,67.819
	c3.567,2.803,7.285,5.347,11.123,7.638c-7.804,17.2-10.792,35.804-8.709,54.356c-22.078,20.531-58.122,32.773-97.345,32.892
	c-9.253,0.028-16.792,6.11-18.76,15.135c-1.95,8.939,2.33,17.526,10.651,21.367c34.734,16.033,73.146,20.613,108.82,20.612
	c17.583,0,34.49-1.116,49.973-2.518c5.33,1.733,11.134,3.044,17.44,3.938c0.197,9.303-0.814,17.793-2.866,23.465
	c-5.924,16.379,2.582,34.524,18.961,40.449c3.467,1.253,7.079,1.889,10.736,1.889h0.006c13.258,0,25.196-8.38,29.706-20.851
	c5.959-16.476,6.881-34.517,6.601-46.798c23.421-3.395,42.329-8.391,57.188-15.22c4.408,4.732,9.802,13.075,10.517,20.903
	c0.767,8.402,4.759,16.003,11.243,21.403c5.729,4.771,12.794,7.317,20.158,7.317c0.971,0,1.948-0.044,2.926-0.134
	c8.402-0.767,16.004-4.759,21.403-11.243c5.399-6.483,7.951-14.682,7.184-23.084c-0.376-4.125-4.017-7.172-8.15-6.787
	c-4.125,0.376-7.164,4.025-6.787,8.15c0.402,4.413-0.938,8.717-3.772,12.122c-2.836,3.405-6.827,5.501-11.24,5.904
	c-4.416,0.401-8.718-0.937-12.123-3.772s-5.501-6.827-5.904-11.239c-0.924-10.13-6.323-19.975-12.006-26.936
	c8.668-5.712,15.397-12.375,20.347-20.074c0.892-1.387,1.717-2.797,2.482-4.228c0.846,0.925,1.597,1.782,2.215,2.518
	c3.294,3.917,8.076,10.323,12.154,18.596c1.306,2.649,3.966,4.186,6.733,4.186c1.113,0,2.244-0.249,3.31-0.774
	c3.716-1.831,5.243-6.327,3.412-10.043c-4.742-9.622-10.3-17.067-14.128-21.62c-1.812-2.154-4.484-5.122-7.851-8.281
	c1.748-7.056,2.493-14.422,2.593-21.936c5.704-3.133,11.208-5.146,16.398-5.959c12.615-1.976,21.271-13.846,19.295-26.46
	c-0.956-6.111-4.236-11.484-9.233-15.129c-4.999-3.645-11.117-5.126-17.227-4.167c-4.862,0.761-9.79,1.993-14.726,3.669
	c-1.713-6.228-4.01-12.263-6.881-18.076l72.432-9.894c21.155-2.89,39.918-13.845,52.833-30.847
	C493.78,236.218,499.302,215.204,496.412,194.049z M379.527,323.186c2.154-0.337,4.308,0.185,6.067,1.467
	c1.76,1.284,2.915,3.176,3.252,5.329c0.696,4.444-2.353,8.625-6.797,9.321c-4.81,0.754-9.737,2.243-14.728,4.407
	c-0.472-5.607-1.151-11.229-1.9-16.805C370.177,325.161,374.903,323.91,379.527,323.186z M259.959,64.705
	c3.907-0.534,7.794,0.486,10.938,2.874c3.143,2.388,5.167,5.856,5.702,9.767c0.375,2.745-0.361,5.348-1.921,6.793
	c-1.19,1.104-2.822,1.441-4.851,1.005c-4.052-0.876-8.039,1.706-8.91,5.754c-0.872,4.05,1.705,8.039,5.754,8.91
	c6.79,1.461,13.423-0.24,18.201-4.666c5.167-4.788,7.63-12.2,6.588-19.827c-0.271-1.983-0.733-3.91-1.373-5.76
	c4.95,3.217,9.621,6.923,13.947,11.086c-2.318,15.402-14.536,28.123-30.73,30.335c-7.228,0.985-14.406-0.899-20.213-5.311
	c-5.808-4.412-9.55-10.822-10.537-18.048c-0.736-5.385,0.669-10.733,3.956-15.061C249.798,68.229,254.574,65.44,259.959,64.705z
	 M32.981,410.547c-2.589-1.195-2.541-3.365-2.282-4.552c0.218-0.999,1.058-3.322,4.15-3.332
	c38.74-0.118,74.943-11.329,99.877-30.469c3.781,21.473,10.169,42.157,26.022,56.283c0.207,0.185,0.429,0.354,0.639,0.537
	C120.73,431.286,73.745,429.365,32.981,410.547z M245.365,486.049c-2.369,6.551-8.639,10.952-15.602,10.953h-0.003
	c-1.913,0-3.81-0.335-5.636-0.995c-8.601-3.111-13.068-12.64-9.957-21.241c3.164-8.748,3.827-19.364,3.771-27.257
	c2.337,0.09,4.711,0.152,7.164,0.152c8.024,0,16.688-0.491,25.999-1.447C251.253,457.138,250.315,472.365,245.365,486.049z
	 M468.92,244.146c-10.492,13.812-25.734,22.71-42.919,25.058l-188.502,25.749c-4.104,0.56-6.977,4.342-6.416,8.446
	s4.342,6.977,8.446,6.416l100.248-13.693c5.512,9.723,9.068,20.245,10.583,31.342c3.956,28.961,4.345,50.118-5.923,66.087
	c-4.963,7.719-12.413,14.218-22.609,19.626c-0.509,0.196-0.996,0.451-1.457,0.758c-14.359,7.284-33.931,12.516-59.44,16
	c-19.337,2.642-35.652,3.398-49.295,2.232c-0.525-0.109-1.07-0.159-1.625-0.15c-7.745-0.761-14.606-2.164-20.642-4.218
	c-0.338-0.15-0.691-0.269-1.052-0.368c-6.946-2.491-12.78-5.865-17.59-10.151c-10.509-9.364-18.094-23.015-23.43-62.078
	c-2.233-16.345,0.177-32.821,6.971-48.057c12.527,5.203,25.968,7.921,39.681,7.921c3.524,0,7.066-0.178,10.613-0.538
	c4.121-0.418,7.123-4.097,6.706-8.218c-0.417-4.121-4.099-7.12-8.218-6.706c-23.046,2.335-45.794-4.276-64.047-18.619
	c-18.296-14.376-30.106-34.994-33.256-58.055l-6.704-49.077c-3.103-22.719,1.707-44.724,12.303-63.236
	c2.368,9.159,7.693,17.209,15.342,23.019c7.437,5.649,16.323,8.626,25.504,8.626c1.928,0,3.87-0.131,5.813-0.396
	c27.867-3.807,47.441-29.576,43.635-57.442c-0.561-4.104-4.339-6.977-8.446-6.416c-4.104,0.561-6.977,4.342-6.416,8.446
	c2.687,19.672-11.131,37.862-30.803,40.55c-7.229,0.986-14.405-0.899-20.213-5.311c-5.809-4.412-9.551-10.822-10.538-18.048
	c-1.518-11.115,6.289-21.393,17.404-22.911c3.913-0.532,7.795,0.487,10.938,2.874c3.143,2.388,5.168,5.856,5.702,9.767
	c0.375,2.745-0.361,5.348-1.921,6.794c-1.19,1.104-2.822,1.442-4.851,1.005c-4.055-0.876-8.039,1.705-8.91,5.754
	c-0.872,4.05,1.705,8.038,5.754,8.91c6.787,1.461,13.423-0.24,18.201-4.666c5.167-4.788,7.63-12.2,6.588-19.827
	c-1.077-7.88-5.157-14.87-11.491-19.681c-1.547-1.175-3.184-2.183-4.888-3.024c8.412-3.731,17.476-6.357,27.04-7.664l41.467-5.664
	c6.092-0.833,12.176-1.055,18.18-0.712c-3.773,2.279-7.123,5.269-9.87,8.885c-5.711,7.517-8.152,16.809-6.874,26.164
	c1.529,11.196,7.328,21.127,16.326,27.962c7.437,5.649,16.323,8.626,25.503,8.625c1.928,0,3.87-0.131,5.813-0.396
	c19.231-2.627,34.509-15.716,40.883-32.733c16.067,14.229,37.564,20.865,59.169,17.915l28.476-3.89
	c17.185-2.347,34.256,2.138,48.067,12.629c13.811,10.492,22.711,25.734,25.058,42.919l4.563,33.401
	C483.897,213.265,479.412,230.335,468.92,244.146z M228.945,333.646c-5.599-1.279-22.638-5.167-41.787-1.559
	c-6.079,1.145-11.347,4.589-14.836,9.697s-4.779,11.269-3.634,17.347c2.362,12.545,14.494,20.838,27.044,18.47
	c9.674-1.822,19.286,0.373,22.916,1.202l0.483,0.109c1.686,0.383,3.413,0.577,5.133,0.577c2.163,0,4.314-0.304,6.395-0.905
	c3.98-1.148,6.275-5.306,5.127-9.285c-1.148-3.98-5.306-6.275-9.285-5.127c-1.313,0.378-2.703,0.417-4.05,0.112l-0.474-0.107
	c-4.452-1.017-16.275-3.716-29.02-1.316c-4.421,0.827-8.696-2.087-9.528-6.506c-0.403-2.141,0.051-4.311,1.28-6.11
	c1.229-1.799,3.085-3.013,5.226-3.416c16.082-3.029,30.827,0.337,35.664,1.441l0.454,0.104c0.757,0.171,1.479,0.445,2.147,0.814
	c3.626,2.002,8.188,0.685,10.191-2.94c2.003-3.626,0.686-8.188-2.94-10.191c-1.904-1.052-3.953-1.83-6.066-2.308L228.945,333.646z
	 M424.262,191.219c-6.968-5.293-15.579-7.556-24.252-6.373c-8.671,1.185-16.361,5.675-21.655,12.644
	c-5.293,6.969-7.557,15.581-6.372,24.252c2.241,16.402,16.325,28.332,32.439,28.332c1.471,0,2.96-0.1,4.457-0.304
	c17.9-2.445,30.473-18.996,28.028-36.896C435.721,204.203,431.231,196.513,424.262,191.219z M406.847,234.908
	c-9.702,1.326-18.678-5.491-20.003-15.196c-0.642-4.701,0.585-9.371,3.455-13.149s7.04-6.212,11.741-6.854
	c0.816-0.112,1.631-0.167,2.441-0.167c3.854,0,7.585,1.25,10.708,3.622c3.778,2.87,6.212,7.04,6.854,11.741
	C423.369,224.609,416.552,233.583,406.847,234.908z M418.176,143.275c4.057-0.554,6.897-4.292,6.343-8.35
	c-0.554-4.057-4.292-6.897-8.35-6.343c-4.057,0.554-6.897,4.292-6.343,8.35C410.381,140.989,414.119,143.829,418.176,143.275z
	 M377.702,141.32c-0.554-4.057-4.293-6.897-8.35-6.343s-6.897,4.292-6.343,8.35c0.554,4.057,4.293,6.897,8.35,6.343
	C375.416,149.115,378.256,145.377,377.702,141.32z"/>
<g>
</g>
<g>
</g>
<g>
</g>
<g>
</g>
<g>
</g>
<g>
</g>
<g>
</g>
<g>
</g>
<g>
</g>
<g>
</g>
<g>
</g>
<g>
</g>
<g>
</g>
<g>
</g>
<g>
</g>
</svg>
