<?xml version="1.0" encoding="iso-8859-1"?>
<!-- Generator: Adobe Illustrator 19.0.0, SVG Export Plug-In . SVG Version: 6.00 Build 0)  -->
<svg version="1.1" id="Capa_1" xmlns="http://www.w3.org/2000/svg" xmlns:xlink="http://www.w3.org/1999/xlink" x="0px" y="0px"
	 viewBox="0 0 512 512" style="enable-background:new 0 0 512 512;" xml:space="preserve">
<path style="fill:#5CB38E;" d="M177.508,339.977c0,47.361,6.433,81.63,92.621,81.63s92.621-34.27,92.621-81.63
	s-41.468-85.754-92.621-85.754C218.976,254.222,177.508,292.616,177.508,339.977z"/>
<path style="fill:#9BDFC1;" d="M177.508,339.977c0-0.378,0.01-0.753,0.015-1.129c19.292-4.951,57.556-6.391,84.185,21.908
	c19.404,20.622,22.212,42.875,20.131,60.622c-3.73,0.151-7.63,0.229-11.71,0.229C183.941,421.607,177.508,387.338,177.508,339.977z"
	/>
<path style="opacity:0.05;enable-background:new    ;" d="M287.712,255.772c42.744,7.607,75.037,42.411,75.037,84.204
	c0,43.854-5.526,76.479-74.767,81.071C326.427,382.027,318.991,301.458,287.712,255.772z"/>
<path style="fill:#5CB38E;" d="M185.112,130.719L185.112,130.719c15.816-23.918,42.578-38.305,71.251-38.305h35.248
	c50.112,0,90.735,40.624,90.735,90.735v41.717c0,44.975-36.46,81.434-81.434,81.434H114.066c-33.692,0-61.004-27.313-61.004-61.004
	v-28.392c0-33.692,27.313-61.004,61.004-61.004h24.205C157.122,155.901,174.714,146.443,185.112,130.719z"/>
<g style="opacity:0.1;">
	<circle cx="333.055" cy="244.696" r="6.245"/>
	<circle cx="288.665" cy="254.226" r="6.245"/>
	<circle cx="314.065" cy="275.526" r="6.245"/>
</g>
<g>
	<ellipse style="fill:#FFA8CB;" cx="315.445" cy="159.297" rx="15.739" ry="8.07"/>
	<ellipse style="fill:#FFA8CB;" cx="209.786" cy="159.297" rx="15.739" ry="8.07"/>
</g>
<path style="opacity:0.05;enable-background:new    ;" d="M311.768,94.666c40.41,9.167,70.577,45.302,70.577,88.484v41.717
	c0,44.975-36.46,81.434-81.434,81.434h-49.415C323.463,264.429,335.661,149.33,311.768,94.666z"/>
<path style="fill:#DEE2E5;" d="M200.784,106.884c-29.475-10.855-18.634-36.571-3.35-41.569c2.996-0.98,4.465-4.47,3.066-7.294
	c-6.818-13.758-0.923-32.868,13.291-40.89c15.717-8.871,34.022-3.017,44.974,5.982c2.381,1.956,5.924,1.427,7.695-1.094
	c8.134-11.575,20.279-16.358,35.751-13.879c13.293,2.13,21.504,9.672,23.453,23.006c0.5,3.423,4.087,5.343,7.314,4.094
	c8.794-3.405,19.116-0.121,25.234,6.538c8.482,9.232,6.793,20.295,3.369,26.143c-1.337,2.284-0.938,5.221,1.128,6.875
	c8.938,7.154,12.143,24.149-0.945,37.712L200.784,106.884z"/>
<path style="opacity:0.05;enable-background:new    ;" d="M242.097,57.889c-14.192-6.162-20.802-31.367-9.657-45.115
	c-6.224-0.274-12.627,0.957-18.65,4.357c-14.214,8.022-20.109,27.132-13.291,40.89c1.399,2.824-0.07,6.314-3.066,7.294
	c-15.284,4.999-26.125,30.715,3.35,41.57l65.497,2.287c-26.6-9.179-27.245-33.668-21.858-45.111
	C245.528,61.715,244.476,58.922,242.097,57.889z"/>
<g style="opacity:0.1;">
	<path d="M242.351,84.277c-2.541,0-5.02-1.292-6.429-3.626c-2.422-4.014-9.194-7.467-11.206-7.626
		c-4.14-0.145-7.365-3.617-7.221-7.757c0.145-4.14,3.664-7.374,7.77-7.233c7.007,0.245,18.546,6.655,23.501,14.867
		c2.14,3.546,0.999,8.156-2.547,10.296C245.008,83.929,243.671,84.277,242.351,84.277z"/>
	<path d="M270.509,60.613c-0.078,0-0.156-0.001-0.235-0.003c-4.14-0.128-7.393-3.587-7.265-7.728
		c0.198-6.434,11.486-17.763,19.481-19.553c4.047-0.907,8.052,1.639,8.958,5.681c0.904,4.042-1.639,8.052-5.681,8.957
		c-2.013,0.477-6.688,5.097-8.091,7.349C276.732,58.396,273.864,60.613,270.509,60.613z M278.002,53.344c0,0.003,0,0.006,0,0.01
		C278.002,53.35,278.002,53.347,278.002,53.344z"/>
	<path d="M332.181,81.549c-1.552,0-3.117-0.48-4.46-1.475c-1.897-1.406-9.297-3.292-15.694-2.154
		c-4.074,0.721-7.972-1.993-8.696-6.072c-0.726-4.078,1.993-7.972,6.071-8.697c9.511-1.691,21.224,0.405,27.251,4.872
		c3.328,2.466,4.026,7.164,1.56,10.491C336.741,80.499,334.476,81.549,332.181,81.549z"/>
</g>
<g>
	<path style="fill:#A3E3FF;" d="M458.355,372.714c-3.036-2.144-4.605-5.771-4.093-9.453c0.419-3.013,0.639-6.089,0.639-9.217
		c0-37.166-30.129-67.293-67.293-67.293c-5.8,0-11.425,0.742-16.792,2.126c-2.556,0.659-5.263,0.337-7.651-0.788
		c-5.799-2.732-12.275-4.264-19.111-4.264c-16.922,0-31.652,9.357-39.316,23.176c-2.202,3.971-6.528,6.236-11.056,5.896
		c-1.656-0.124-3.329-0.188-5.018-0.188c-18.939,0-36.042,7.831-48.269,20.425c-3.116,3.21-7.936,4-11.917,1.958
		c-9.198-4.72-19.623-7.385-30.672-7.385c-15.111,0-29.055,4.986-40.286,13.397c-2.891,2.165-6.749,2.628-10.081,1.233
		c-7.759-3.247-16.274-5.046-25.211-5.046c-33.118,0-60.482,24.611-64.815,56.539c-0.438,3.225-2.451,5.983-5.328,7.505
		c-17.243,9.121-29.032,27.174-29.186,48.001c-0.227,30.545,25.105,55.165,55.65,55.165h337.08c39.797,0,72.89-31.669,73.459-71.461
		C489.446,408.111,477.215,386.031,458.355,372.714z"/>
	<circle style="fill:#A3E3FF;" cx="442.144" cy="238.446" r="28.533"/>
	<circle style="fill:#A3E3FF;" cx="100.947" cy="103.787" r="19.412"/>
</g>
<g style="opacity:0.1;">
	<path d="M112.502,461.982c-3.642,0-6.837-2.656-7.405-6.366c-3.009-19.664,10.54-38.109,30.203-41.12
		c9.528-1.459,19.05,0.88,26.815,6.585c7.767,5.704,12.847,14.092,14.305,23.617c0.626,4.095-2.185,7.922-6.279,8.548
		c-4.095,0.627-7.922-2.184-8.549-6.279c-0.852-5.565-3.819-10.465-8.356-13.797c-4.537-3.333-10.1-4.7-15.666-3.847
		c-11.487,1.759-19.403,12.535-17.645,24.023c0.626,4.095-2.185,7.922-6.279,8.548C113.26,461.954,112.879,461.982,112.502,461.982z
		"/>
	<path d="M362.567,456.123c-2.259,0-4.491-1.016-5.968-2.95c-12.069-15.813-9.022-38.497,6.791-50.566
		c15.814-12.068,38.496-9.022,50.565,6.791c2.513,3.293,1.881,7.999-1.412,10.512c-3.294,2.514-7.998,1.88-10.512-1.412
		c-7.051-9.238-20.301-11.02-29.542-3.967c-9.238,7.051-11.018,20.304-3.967,29.542c2.513,3.293,1.881,7.999-1.412,10.512
		C365.753,455.621,364.153,456.123,362.567,456.123z"/>
	<path d="M273.068,403.685c-0.781,0-1.576-0.123-2.358-0.382c-3.933-1.302-6.064-5.545-4.763-9.477
		c1.107-3.341,0.846-6.914-0.734-10.059c-1.58-3.145-4.29-5.486-7.631-6.593c-3.343-1.106-6.913-0.845-10.059,0.734
		c-3.146,1.58-5.486,4.29-6.593,7.631c-1.303,3.932-5.546,6.064-9.477,4.762c-3.933-1.302-6.064-5.545-4.763-9.478
		c2.366-7.145,7.373-12.94,14.099-16.319c6.725-3.38,14.363-3.937,21.509-1.57c7.145,2.366,12.939,7.372,16.318,14.098
		c3.379,6.725,3.937,14.363,1.571,21.508C279.144,401.691,276.214,403.685,273.068,403.685z"/>
</g>
<path d="M442.139,274.483c19.869,0,36.033-16.164,36.033-36.033c0-19.868-16.164-36.032-36.033-36.032
	c-19.868,0-36.032,16.164-36.032,36.032C406.107,258.319,422.271,274.483,442.139,274.483z M442.139,217.418
	c11.598,0,21.033,9.435,21.033,21.032c0,11.598-9.436,21.033-21.033,21.033c-11.598,0-21.032-9.435-21.032-21.033
	C421.107,226.853,430.542,217.418,442.139,217.418z M100.943,130.698c14.84,0,26.912-12.073,26.912-26.912
	s-12.072-26.912-26.912-26.912s-26.912,12.073-26.912,26.912S86.103,130.698,100.943,130.698z M100.943,91.874
	c6.568,0,11.912,5.344,11.912,11.912c0,6.568-5.344,11.912-11.912,11.912c-6.568,0-11.912-5.344-11.912-11.912
	C89.031,97.218,94.375,91.874,100.943,91.874z M447.932,488.632c-9.838,5.474-21.008,8.368-32.302,8.368H78.551
	c-13.051,0-25.297-5.097-34.483-14.352c-8.906-8.972-13.76-20.784-13.667-33.258c0.129-17.402,9.782-33.276,25.193-41.428
	c5.04-2.666,8.499-7.573,9.252-13.125c0.759-5.587,2.327-11.016,4.662-16.134c1.719-3.769,0.057-8.217-3.712-9.936
	c-3.77-1.72-8.218-0.058-9.937,3.711c-2.943,6.454-4.921,13.297-5.877,20.341c-0.106,0.782-0.617,1.468-1.402,1.884
	c-20.296,10.736-33.01,31.648-33.18,54.575c-0.122,16.502,6.278,32.106,18.021,43.937C45.445,505.329,61.472,512,78.55,512h337.08
	c13.84,0,27.532-3.548,39.595-10.26c3.62-2.014,4.921-6.581,2.907-10.2C456.12,487.92,451.552,486.617,447.932,488.632z
	 M297.726,124.713c-9.818,0-17.807,7.988-17.807,17.806c0,4.142,3.357,7.5,7.5,7.5c4.143,0,7.5-3.358,7.5-7.5
	c0-1.547,1.259-2.806,2.807-2.806c1.547,0,2.806,1.259,2.806,2.806c0,4.142,3.357,7.5,7.5,7.5c4.143,0,7.5-3.358,7.5-7.5
	C315.532,132.7,307.545,124.713,297.726,124.713z M112.486,187.766c0-3.449-2.796-6.244-6.244-6.244
	c-3.449,0-6.245,2.796-6.245,6.244c0,3.449,2.796,6.245,6.245,6.245C109.69,194.011,112.486,191.215,112.486,187.766z
	 M462.681,366.587c-0.747-0.527-1.117-1.385-0.991-2.293c0.472-3.393,0.711-6.842,0.711-10.25c0-41.242-33.553-74.793-74.793-74.793
	c-6.119,0-12.218,0.757-18.139,2.237c13.064-15.838,20.377-35.87,20.377-56.62v-41.717c0-23.36-8.144-45.456-22.805-62.955
	l3.066,0.107c0.089,0.003,0.178,0.004,0.267,0.004c4.021,0,7.349-3.188,7.49-7.238c0.09-2.591-1.145-4.921-3.097-6.337
	c2.436-5.253,3.546-10.878,3.182-16.539c-0.505-7.873-3.788-15.046-9.083-19.981c4.629-9.224,4.785-22.712-5.133-33.507
	c-7.952-8.656-20.424-12.269-31.109-9.244c-3.08-14.734-13.37-24.184-29.228-26.725c-17.498-2.803-31.868,2.427-41.719,15.137
	c-13.347-9.968-33.885-15.256-51.574-5.272c-16.821,9.494-24.391,31.203-17.351,48.476c-10.386,4.484-17.835,15.212-18.041,26.412
	c-0.06,3.26,0.551,9.163,4.714,15.132c-1.537,1.318-2.544,3.245-2.621,5.428c-0.145,4.14,3.094,7.613,7.233,7.757l4.857,0.17
	c-3.684,3.891-7.051,8.088-10.039,12.608c-9.034,13.662-24.206,21.819-40.586,21.819h-24.205c-37.773,0-68.504,30.731-68.504,68.503
	v28.391c0,37.774,30.731,68.504,68.504,68.504h59.959c-1.153,3.68-2.057,7.427-2.714,11.222
	c-6.473,2.455-12.615,5.828-18.285,10.075c-0.753,0.563-1.809,0.687-2.69,0.318c-8.923-3.734-18.379-5.627-28.106-5.627
	c-14.931,0-29.285,4.483-41.512,12.964c-3.403,2.361-4.249,7.034-1.889,10.437c2.361,3.405,7.036,4.249,10.438,1.888
	c9.704-6.731,21.103-10.289,32.963-10.289c7.729,0,15.237,1.502,22.315,4.464c5.779,2.418,12.473,1.595,17.473-2.148
	c5.494-4.115,11.544-7.192,17.947-9.191c0.194-0.051,0.384-0.111,0.573-0.178c5.54-1.668,11.337-2.532,17.271-2.532
	c9.6,0,18.767,2.207,27.248,6.558c6.95,3.567,15.279,2.199,20.723-3.407c11.36-11.703,26.592-18.148,42.887-18.148
	c1.478,0,2.978,0.056,4.456,0.167c7.458,0.561,14.587-3.263,18.176-9.737c0.097-0.175,0.208-0.34,0.308-0.514
	c0.033-0.053,0.065-0.106,0.096-0.16c6.703-11.511,19.018-18.64,32.354-18.64c3.32,0,6.565,0.435,9.707,1.28
	c0.07,0.016,0.139,0.039,0.21,0.053c2.047,0.563,4.049,1.299,5.997,2.216c4.02,1.894,8.538,2.344,12.719,1.266
	c4.864-1.253,9.884-1.889,14.922-1.889c32.971,0,59.793,26.824,59.793,59.793c0,2.72-0.191,5.473-0.568,8.185
	c-0.9,6.477,1.857,12.842,7.196,16.612c17.566,12.403,27.869,32.624,27.563,54.09c-0.172,12.034-3.72,23.739-10.261,33.85
	c-2.249,3.478-1.254,8.121,2.225,10.371c1.259,0.814,2.671,1.204,4.066,1.204c2.459,0,4.869-1.208,6.305-3.428
	c8.072-12.48,12.451-26.929,12.663-41.783C496.966,406.727,484.291,381.846,462.681,366.587z M199.763,72.444
	c3.501-1.144,6.332-3.764,7.769-7.185c1.436-3.419,1.321-7.271-0.313-10.567c-5.115-10.322-0.227-25.112,10.258-31.029
	c12.341-6.966,27.239-2.385,36.526,5.246c2.727,2.24,6.302,3.254,9.805,2.774c3.533-0.48,6.736-2.431,8.787-5.351
	c6.521-9.279,15.82-12.807,28.429-10.786c10.325,1.654,15.796,6.956,17.219,16.686c0.563,3.844,2.81,7.171,6.166,9.128
	c3.431,2.002,7.542,2.32,11.277,0.874c5.456-2.113,12.604-0.17,17.003,4.618c6.044,6.579,4.365,13.957,2.42,17.277
	c-3.278,5.597-2.054,12.545,2.913,16.521c2.828,2.264,4.682,6.19,4.959,10.503c0.221,3.452-0.464,8.452-4.531,13.733l-156.149-5.453
	c-6.054-2.409-12.718-6.657-12.589-13.669C189.813,80.199,194.323,74.223,199.763,72.444z M235.015,327.906
	c-0.817,0.841-2.066,1.046-3.112,0.51c-10.471-5.372-22.261-8.212-34.096-8.212c-3.456,0-6.872,0.246-10.24,0.704
	c0.654-2.403,1.436-4.773,2.338-7.108h63.907C246.944,317.432,240.601,322.152,235.015,327.906z M353.197,277.127
	c-2.995-0.527-6.046-0.804-9.143-0.804c-17.243,0-33.283,8.492-43.029,22.476c-0.037,0-0.076,0.001-0.112,0.001H114.066
	c-29.503,0-53.504-24.002-53.504-53.504v-28.392c0-29.502,24.002-53.503,53.504-53.503h24.205c21.429,0,41.278-10.671,53.097-28.545
	c5.197-7.859,11.702-14.608,19.329-20.12l134.464,4.696c18.897,15.881,29.685,38.967,29.685,63.719v41.717
	C374.845,244.47,366.997,263.306,353.197,277.127z M227.507,124.713c-9.818,0-17.807,7.988-17.807,17.806c0,4.142,3.357,7.5,7.5,7.5
	c4.143,0,7.5-3.358,7.5-7.5c0-1.547,1.259-2.806,2.807-2.806c1.547,0,2.806,1.259,2.806,2.806c0,4.142,3.357,7.5,7.5,7.5
	c4.143,0,7.5-3.358,7.5-7.5C245.312,132.7,237.325,124.713,227.507,124.713z M146.037,181.522c-3.449,0-6.244,2.796-6.244,6.244
	c0,3.449,2.796,6.245,6.244,6.245s6.245-2.796,6.245-6.245C152.282,184.317,149.486,181.522,146.037,181.522z M143.524,249.959
	c-3.122-2.722-7.86-2.397-10.582,0.726c-1.718,1.972-4.198,3.103-6.803,3.103c-2.604,0-5.085-1.131-6.803-3.103
	c-2.723-3.123-7.46-3.448-10.582-0.726c-3.123,2.722-3.447,7.459-0.727,10.582c4.568,5.241,11.17,8.247,18.111,8.247
	s13.543-3.006,18.111-8.247C146.971,257.418,146.647,252.68,143.524,249.959z"/>
<g>
</g>
<g>
</g>
<g>
</g>
<g>
</g>
<g>
</g>
<g>
</g>
<g>
</g>
<g>
</g>
<g>
</g>
<g>
</g>
<g>
</g>
<g>
</g>
<g>
</g>
<g>
</g>
<g>
</g>
</svg>
