<?xml version="1.0" encoding="iso-8859-1"?>
<!-- Generator: Adobe Illustrator 19.0.0, SVG Export Plug-In . SVG Version: 6.00 Build 0)  -->
<svg version="1.1" id="Capa_1" xmlns="http://www.w3.org/2000/svg" xmlns:xlink="http://www.w3.org/1999/xlink" x="0px" y="0px"
	 viewBox="0 0 512.002 512.002" style="enable-background:new 0 0 512.002 512.002;" xml:space="preserve">
<path style="fill:#498A68;" d="M353.452,396.516c-1.405-0.074-2.821-0.349-4.216-0.845c-7.74-2.755-11.781-11.263-9.026-19.003
	c1.014-2.848-3.074-10.264-6.06-15.68c-0.739-1.338-1.471-2.669-2.175-3.99c-3.867-7.249-1.125-16.26,6.124-20.127
	c7.249-3.867,16.26-1.123,20.126,6.124c0.641,1.201,1.308,2.41,1.979,3.626c5.715,10.364,13.541,24.559,8.036,40.023
	C365.979,392.992,359.852,396.852,353.452,396.516z"/>
<path style="fill:#5CB38E;" d="M240.252,411.718c-69.324-3.633-149.102-7.814-205.553-48.163
	c-9.659-6.905-3.071-22.012,8.599-19.828c45.927,8.598,85.394-1.138,108.546-19.048L240.252,411.718z"/>
<path style="opacity:0.1;enable-background:new    ;" d="M124.871,339.041c-0.387,22.179,1.852,44.457,14.537,63.546
	c33.593,5.606,68.367,7.428,100.845,9.13l-88.407-87.038C144.424,330.42,135.32,335.314,124.871,339.041z"/>
<g>
	<path style="fill:#498A68;" d="M183.172,468.917c-7.982-0.418-15.513-5.012-19.321-12.682c-5.622-11.32-1.001-25.054,10.319-30.676
		c7.322-3.635,11.17-8.473,12.481-15.688c1.211-6.662-0.256-13.173-0.715-14.551c-4.15-11.939,2.169-24.97,14.108-29.12
		c11.936-4.151,24.984,2.176,29.134,14.115c8.224,23.666,5.785,66.163-34.65,86.24C190.876,468.369,186.971,469.116,183.172,468.917
		z"/>
	<path style="fill:#498A68;" d="M266.237,473.27c-7.982-0.418-15.513-5.012-19.32-12.682c-5.622-11.32-1.001-25.055,10.319-30.676
		c7.321-3.634,11.17-8.473,12.482-15.687c1.211-6.662-0.256-13.171-0.716-14.549c-4.152-11.939,2.165-24.971,14.104-29.122
		c11.942-4.151,24.985,2.173,29.137,14.111c8.228,23.665,5.79,66.163-34.649,86.243C273.941,472.721,270.036,473.469,266.237,473.27
		z"/>
</g>
<path style="opacity:0.1;enable-background:new    ;" d="M246.581,446.324c24.034,1.259,44.232,0.039,61.097-3.772
	c10.709-19.789,9.84-42.708,4.564-57.885c-4.152-11.938-17.195-18.261-29.137-14.111c-11.938,4.151-18.255,17.183-14.104,29.122
	c0.459,1.378,1.926,7.887,0.716,14.549c-1.311,7.214-5.162,12.053-12.482,15.687c-6.695,3.324-11.02,9.492-12.297,16.314
	C245.488,446.258,246.027,446.295,246.581,446.324z"/>
<path style="opacity:0.1;enable-background:new    ;" d="M200.044,366.2c-11.939,4.15-18.257,17.181-14.108,29.12
	c0.459,1.378,1.926,7.889,0.715,14.551c-1.31,7.215-5.16,12.054-12.481,15.688c-1.851,0.919-3.503,2.073-4.981,3.38
	c13.719,7.26,30.859,12.219,51.875,15.057c14.388-20.951,13.913-46.994,8.113-63.681C225.027,368.377,211.98,362.05,200.044,366.2z"
	/>
<path style="fill:#5CB38E;" d="M356.941,336.976c-2.796,53.355-12.067,91.582-109.162,86.493
	c-97.096-5.089-102.319-44.075-99.523-97.43s51.779-94.159,109.406-91.139C315.288,237.92,359.738,283.621,356.941,336.976z"/>
<path style="fill:#9BDFC1;" d="M356.941,336.976c0.022-0.425,0.033-0.848,0.049-1.273c-21.441-6.716-64.463-10.597-96.132,19.711
	c-23.078,22.086-27.555,46.99-26.257,67.107c4.194,0.391,8.582,0.708,13.179,0.949C344.874,428.557,354.145,390.331,356.941,336.976
	z"/>
<path style="opacity:0.05;enable-background:new    ;" d="M237.761,235.609c-48.602,6.046-87.038,43.348-89.506,90.431
	c-2.589,49.404,1.71,86.484,79.443,95.745C186.692,375.556,199.826,285.229,237.761,235.609z"/>
<path style="fill:#5CB38E;" d="M360.729,100.786L360.729,100.786c-16.406-27.879-45.704-45.666-78.007-47.359l-39.708-2.081
	c-56.453-2.958-104.617,40.408-107.576,96.861l-2.463,46.996c-2.655,50.667,36.266,93.892,86.932,96.547L430.4,302.782
	c37.956,1.989,70.337-27.168,72.326-65.123l1.676-31.985c1.989-37.956-27.167-70.337-65.123-72.326l-27.268-1.429
	C390.776,130.807,371.514,119.114,360.729,100.786z"/>
<path style="fill:#495059;" d="M442.198,246.322c0.649-12.381-8.969-20.876-21.35-21.525c-12.381-0.649-22.834,6.795-23.483,19.175
	c-0.649,12.381,3.869,27.681,20.98,28.578C435.456,273.446,441.55,258.703,442.198,246.322z"/>
<g style="opacity:0.1;">
	<circle cx="187.334" cy="220.45" r="7.041"/>
	<circle cx="236.781" cy="233.801" r="7.041"/>
	<circle cx="206.907" cy="256.304" r="7.041"/>
</g>
<g>
	
		<ellipse transform="matrix(0.0523 -0.9986 0.9986 0.0523 67.8183 321.0563)" style="fill:#FFA8CB;" cx="203.065" cy="124.797" rx="9.109" ry="17.755"/>
	
		<ellipse transform="matrix(-0.0523 0.9986 -0.9986 -0.0523 469.8412 -183.7624)" style="fill:#FFA8CB;" cx="322.116" cy="131.058" rx="9.109" ry="17.755"/>
</g>
<path style="opacity:0.05;enable-background:new    ;" d="M220.173,52.692c-46.065,7.942-82.185,46.867-84.734,95.516l-2.463,46.997
	c-2.655,50.667,36.266,93.893,86.932,96.548l55.668,2.917C196.975,243.25,190.029,112.864,220.173,52.692z"/>
<g>
	<path style="fill:#CD5B5B;" d="M314.885,48.992c-9.251-7.098-22.632-6.64-31.391,1.83c-9.386,9.075-9.49,24.133-0.754,33.836
		l23.921,26.566c4.373,4.857,11.855,5.249,16.71,0.876l26.566-23.921c9.702-8.736,11.173-23.722,2.787-33.729
		c-7.827-9.339-21.086-11.192-31.029-5.102C319.569,50.651,316.862,50.509,314.885,48.992z"/>
	<path style="fill:#CD5B5B;" d="M218.826,43.957c9.942-6.092,23.202-4.239,31.028,5.101c8.386,10.007,6.916,24.993-2.787,33.729
		l-26.566,23.921c-4.857,4.373-12.338,3.981-16.71-0.876l-23.92-26.566c-8.736-9.702-8.632-24.76,0.753-33.835
		c8.76-8.47,22.14-8.927,31.392-1.83C213.994,45.118,216.701,45.259,218.826,43.957z"/>
</g>
<path style="fill:#498A68;" d="M235.36,395.449c-3.594-0.188-7.13-1.673-9.847-4.448c-5.749-5.87-5.649-15.288,0.221-21.036
	c3.668-3.591,2.888-11.107,1.584-19.834l-0.271-1.827c-1.177-8.131,4.46-15.677,12.591-16.855
	c8.127-1.176,15.676,4.459,16.855,12.59l0.25,1.696c1.618,10.824,4.629,30.975-10.192,45.488
	C243.453,394.254,239.37,395.659,235.36,395.449z"/>
<g>
	<path style="fill:#CD5B5B;" d="M44.822,235.505c-12.588-4.716-27.188,0.286-33.999,12.572
		c-7.299,13.164-2.351,29.802,10.544,37.564l35.309,21.253c6.454,3.885,14.836,1.802,18.72-4.653l21.253-35.309
		c7.762-12.896,4.346-29.914-8.266-38.13c-11.771-7.667-27.013-5.254-35.93,4.807C50.546,235.759,47.512,236.513,44.822,235.505z"/>
	<path style="fill:#CD5B5B;" d="M461.116,334.764c-8.374-8.556-22.04-10.032-32.172-2.694c-10.856,7.863-13.148,23.152-5.675,34.281
		l20.459,30.473c3.74,5.571,11.287,7.054,16.857,3.314l30.473-20.459c11.129-7.472,14.798-22.49,7.726-33.878
		c-6.6-10.628-19.808-14.436-30.797-9.686C465.636,337.131,462.906,336.594,461.116,334.764z"/>
</g>
<path d="M63.673,316.342c7.177,0,14.186-3.649,18.148-10.234l21.252-35.308c9.866-16.39,5.112-38.05-10.598-48.283
	c-14.427-9.398-33.864-6.879-45.382,5.831c-16.126-5.841-34.481,1.032-42.833,16.09c-9.091,16.396-3.153,37.762,13.236,47.628
	l35.309,21.253C56.21,315.368,59.964,316.342,63.673,316.342z M17.381,251.713c3.651-6.584,10.621-10.447,17.823-10.447
	c2.339,0,4.704,0.408,6.986,1.263c5.555,2.082,11.938,0.497,15.874-3.946c6.592-7.436,17.864-8.941,26.222-3.496
	c9.021,5.877,11.683,18.426,5.934,27.977l-21.252,35.308c-1.745,2.9-5.528,3.839-8.426,2.094l-35.309-21.253
	C15.683,273.464,12.162,261.128,17.381,251.713z M219.434,344.766c-0.096,1.534-0.031,3.086,0.193,4.642l0.272,1.833
	c1.136,7.602,1.315,12.117,0.531,13.42c-8.761,8.638-8.892,22.792-0.277,31.59c3.938,4.02,9.197,6.396,14.814,6.69
	c0.389,0.021,0.775,0.03,1.162,0.03c5.83,0,11.485-2.292,15.668-6.388c17.558-17.192,14.05-40.671,12.366-51.942l-0.248-1.679
	c-0.434-2.987-1.44-5.804-2.994-8.37c-2.146-3.544-6.758-4.678-10.302-2.531c-3.543,2.145-4.677,6.757-2.531,10.301
	c0.508,0.839,0.839,1.766,0.984,2.771l0.252,1.711c1.52,10.168,4.063,27.187-8.021,39.019c-1.491,1.46-3.453,2.203-5.55,2.095
	c-1.849-0.097-3.582-0.88-4.881-2.205c-2.844-2.905-2.795-7.584,0.109-10.428c6.705-6.565,5.07-17.508,3.757-26.296l-0.268-1.799
	c-0.074-0.51-0.096-1.026-0.064-1.533c0.257-4.135-2.887-7.695-7.022-7.951C223.239,337.475,219.69,340.631,219.434,344.766z
	 M439.673,125.858l-27.268-1.429c-18.774-0.984-35.676-11.244-45.211-27.447c-1.998-3.396-4.232-6.692-6.635-9.872
	c7.289-11.48,6.828-26.84-2.085-37.479c-9.763-11.652-26.719-14.652-39.831-7.191c-12.258-8.791-29.437-7.578-40.362,2.987
	c-0.082,0.079-0.157,0.162-0.238,0.242l-22.226-1.165c-0.072-0.088-0.138-0.178-0.211-0.265c-9.763-11.651-26.72-14.652-39.83-7.191
	c-12.261-8.789-29.438-7.577-40.363,2.988c-8.019,7.753-10.925,19.112-8.62,29.597c-23.168,19.564-37.249,47.765-38.843,78.18
	l-2.463,46.996c-1.177,22.455,5.382,44.862,18.466,63.094c4.283,5.967,9.22,11.406,14.664,16.255
	c-10.239,14.613-16.289,31.355-17.666,48.942c-24.172,15.112-59.811,20.08-96.269,13.253c-8.818-1.649-17.103,2.776-20.613,11.016
	c-3.478,8.163-0.957,17.119,6.272,22.287c44.168,31.569,100.495,40.775,145.048,45.153c0.228,0.125,0.455,0.252,0.686,0.375
	c-1.291,1.359-2.989,2.539-5.237,3.655c-7.271,3.609-12.699,9.834-15.287,17.527c-2.588,7.693-2.025,15.934,1.584,23.203
	c4.872,9.811,14.699,16.263,25.647,16.837c0.523,0.027,1.047,0.041,1.569,0.041c4.667,0,9.308-1.086,13.515-3.175
	c22.958-11.399,33.542-28.719,38.395-43.081c2.591,0.221,5.242,0.415,7.953,0.581c-2.447,2.893-4.355,6.248-5.599,9.947
	c-2.588,7.693-2.025,15.933,1.584,23.203c4.872,9.811,14.699,16.262,25.647,16.836c0.523,0.027,1.047,0.041,1.57,0.041
	c4.667,0,9.308-1.086,13.512-3.173c0.854-0.424,1.693-0.858,2.518-1.3c3.649-1.959,5.021-6.507,3.06-10.157
	c-1.958-3.649-6.507-5.021-10.156-3.06c-0.684,0.367-1.38,0.728-2.091,1.081c-2.369,1.176-5.007,1.723-7.627,1.588
	c-5.549-0.291-10.527-3.558-12.995-8.527c-1.828-3.68-2.113-7.853-0.803-11.748c1.309-3.895,4.059-7.046,7.739-8.873
	c3.078-1.529,5.676-3.262,7.878-5.242c14.314-0.222,26.74-1.607,37.46-4.196c-1.617,5.573-3.956,10.777-7.027,15.543
	c-2.244,3.482-1.241,8.124,2.24,10.368c1.257,0.81,2.665,1.197,4.058,1.197c2.464,0,4.878-1.213,6.311-3.438
	c5.626-8.728,9.319-18.543,11.01-29.232c8.241-3.698,15.087-8.459,20.661-14.329c1.368-1.441,2.635-2.94,3.827-4.481
	c1.968,0.673,4.008,1.076,6.07,1.185c0.385,0.02,0.768,0.03,1.149,0.03c9.361,0,17.931-5.984,21.098-14.877
	c6.638-18.645-2.492-35.204-8.536-46.164c-0.654-1.185-1.304-2.362-1.927-3.529c-0.145-0.272-0.322-0.538-0.481-0.808
	c0.023-0.43,0.048-0.861,0.07-1.291c0.548-10.431-0.556-20.716-3.269-30.702l68.846,3.608c1.366,0.072,2.727,0.107,4.087,0.107
	c18.875,0,36.844-6.881,50.976-19.606c15.15-13.641,24.08-32.365,25.147-52.723l1.677-31.985
	C514.097,164.042,481.697,128.061,439.673,125.858z M287.252,57.863c0.041-0.055,0.083-0.108,0.123-0.164
	c0.412-0.516,0.848-1.017,1.332-1.486c3.185-3.079,7.377-4.649,11.577-4.649c3.539,0,7.084,1.114,10.033,3.377
	c0.001,0,0.001,0,0.002,0.001c4.41,3.381,10.555,3.703,15.294,0.8c6.936-4.248,16.117-2.733,21.361,3.523
	c5.658,6.752,4.735,17.221-2.058,23.336l-26.564,23.92c-1.776,1.599-4.521,1.455-6.119-0.32l-23.92-26.566
	C282.714,73.419,282.406,64.094,287.252,57.863z M185.839,50.823c3.184-3.08,7.377-4.649,11.577-4.649
	c3.538,0,7.083,1.114,10.032,3.376c4.413,3.385,10.558,3.706,15.296,0.803c6.936-4.25,16.118-2.733,21.361,3.522
	c5.658,6.752,4.735,17.221-2.058,23.337l-26.566,23.921c-0.859,0.774-1.976,1.172-3.124,1.106c-1.155-0.061-2.218-0.567-2.992-1.427
	l-23.92-26.566C179.328,67.454,179.505,56.947,185.839,50.823z M39.062,357.453c-1.991-1.423-1.604-3.243-1.195-4.202
	c0.346-0.81,1.427-2.643,4.053-2.15c36.008,6.741,71.631,2.795,98.319-10.454c-0.234,20.523,2.128,40.745,14.285,56.659
	C116.446,392.168,73.415,382.007,39.062,357.453z M191.191,459.837c-2.37,1.177-5.007,1.724-7.627,1.589
	c-5.549-0.291-10.527-3.558-12.996-8.527c-1.827-3.68-2.112-7.852-0.802-11.746c1.311-3.896,4.06-7.046,7.74-8.874
	c5.679-2.82,9.879-6.444,12.704-10.959c8.879,3.099,19.076,5.467,30.695,7.138C216.578,439.241,208.028,451.476,191.191,459.837z
	 M361.384,367.395c1.48,5.375,1.823,11.021-0.211,16.735c-0.944,2.653-3.339,4.519-6.077,4.85
	C358.045,382.208,360.02,374.928,361.384,367.395z M496.913,205.283l-1.677,31.985c-0.857,16.356-8.032,31.399-20.205,42.359
	c-12.172,10.96-27.889,16.53-44.238,15.666L234.79,285.021c-4.105-0.206-7.667,2.961-7.883,7.098
	c-0.217,4.138,2.96,7.667,7.098,7.883l111.235,5.83c3.344,9.936,4.761,20.258,4.212,30.752c-1.449,27.648-4.827,47.394-17.168,60.39
	c-4.832,5.087-11.043,9.143-18.766,12.212c-0.395,0.116-0.775,0.267-1.142,0.444c-11.932,4.505-27.375,6.73-46.831,6.797
	c-0.128-0.004-0.255-0.001-0.383,0.001c-5.36,0.011-11.011-0.135-16.989-0.448c-5.726-0.3-11.139-0.721-16.27-1.257
	c-0.108-0.016-0.215-0.024-0.323-0.035c-17.051-1.803-30.854-4.934-41.739-9.505c-0.421-0.231-0.868-0.423-1.341-0.573
	c-2.311-1.019-4.485-2.106-6.526-3.263c-0.329-0.23-0.68-0.429-1.047-0.605c-5.957-3.523-10.737-7.662-14.418-12.456
	c-8.092-10.539-12.716-24.563-10.761-61.854c0.811-15.469,5.898-30.249,14.785-43.139c8.045,5.247,16.839,9.335,26.091,12.054
	c0.706,0.207,1.417,0.306,2.117,0.306c3.242,0,6.233-2.119,7.193-5.389c1.168-3.975-1.106-8.143-5.082-9.311
	c-9.859-2.897-18.829-7.46-26.678-13.304c-0.173-0.171-0.355-0.337-0.549-0.494c-0.332-0.27-0.684-0.499-1.044-0.703
	c-21.132-16.527-33.593-42.625-32.114-70.855l2.463-46.996c1.311-25.012,12.405-48.292,30.742-65.047
	c0.207,0.245,0.411,0.492,0.626,0.732l23.921,26.566c3.455,3.837,8.198,6.1,13.356,6.37c0.346,0.018,0.691,0.027,1.035,0.027
	c4.781,0,9.333-1.743,12.913-4.967l26.566-23.92c8.21-7.392,11.772-18.252,10.375-28.486l7.362,0.386
	c-2.458,10.031-0.051,21.204,7.341,29.414l23.92,26.566c3.811,4.234,9.083,6.388,14.377,6.388c4.611-0.001,9.238-1.636,12.928-4.957
	l21.689-19.53c1.495,2.097,2.893,4.251,4.186,6.446c12.097,20.556,33.537,33.572,57.355,34.82l27.269,1.429
	C472.651,142.61,498.683,171.518,496.913,205.283z M446.583,162.674c-3.885-0.204-7.2,2.781-7.403,6.666
	c-0.204,3.885,2.78,7.2,6.666,7.403c3.885,0.204,7.2-2.781,7.404-6.666C453.452,166.193,450.467,162.878,446.583,162.674z
	 M421.242,217.307c-7.94-0.411-15.46,1.817-21.163,6.291c-6.157,4.83-9.78,11.927-10.202,19.983
	c-1.11,21.197,9.91,35.509,28.078,36.461c0.633,0.033,1.259,0.05,1.878,0.05c9.463,0,17.272-3.865,22.67-11.249
	c4.188-5.73,6.74-13.588,7.187-22.126v0.001c0.423-8.057-2.438-15.493-8.058-20.941
	C436.428,220.731,429.186,217.723,421.242,217.307z M434.708,245.929C434.708,245.93,434.708,245.93,434.708,245.929
	c-0.293,5.581-1.866,10.705-4.318,14.06c-2.728,3.733-6.42,5.347-11.651,5.071c-4.488-0.235-14.823-2.722-13.883-20.694
	c0.195-3.717,1.744-6.817,4.481-8.964c2.604-2.042,6.129-3.142,10.017-3.142c0.364,0,0.731,0.01,1.102,0.029
	c4.322,0.227,8.134,1.739,10.732,4.259C433.685,238.967,434.902,242.212,434.708,245.929z M465.84,328.886
	c-11.112-10.727-28.701-12.012-41.296-2.89c-13.877,10.05-17.242,30.03-7.503,44.538l20.46,30.473
	c2.925,4.358,7.372,7.315,12.523,8.327c1.277,0.251,2.559,0.375,3.831,0.375c3.859,0,7.635-1.141,10.911-3.341l30.473-20.459
	c14.507-9.74,18.956-29.506,9.917-44.063C496.95,328.633,480.183,323.163,465.84,328.886z M486.876,373.452l-30.473,20.459
	c-2.127,1.429-5.021,0.858-6.448-1.268l-20.46-30.472c-5.29-7.88-3.563-18.658,3.848-24.026c3.019-2.186,6.572-3.256,10.109-3.256
	c4.509,0,8.99,1.739,12.302,5.123c3.934,4.021,10.042,5.221,15.207,2.99c7.754-3.352,16.976-0.445,21.45,6.758
	C497.238,357.532,494.756,368.162,486.876,373.452z M401.013,174.394c3.886,0.203,7.2-2.781,7.404-6.666
	c0.204-3.885-2.78-7.2-6.666-7.404c-3.886-0.204-7.2,2.781-7.403,6.666C394.143,170.876,397.127,174.191,401.013,174.394z"/>
<g>
</g>
<g>
</g>
<g>
</g>
<g>
</g>
<g>
</g>
<g>
</g>
<g>
</g>
<g>
</g>
<g>
</g>
<g>
</g>
<g>
</g>
<g>
</g>
<g>
</g>
<g>
</g>
<g>
</g>
</svg>
