<?xml version="1.0" encoding="iso-8859-1"?>
<!-- Generator: Adobe Illustrator 19.0.0, SVG Export Plug-In . SVG Version: 6.00 Build 0)  -->
<svg version="1.1" id="Capa_1" xmlns="http://www.w3.org/2000/svg" xmlns:xlink="http://www.w3.org/1999/xlink" x="0px" y="0px"
	 viewBox="0 0 512.003 512.003" style="enable-background:new 0 0 512.003 512.003;" xml:space="preserve">
<path style="fill:#498A68;" d="M139.515,350.453c-2.987,0-6.004-0.857-8.67-2.646l-0.365-0.245
	c-4.428-2.961-17.905-11.975-27.541-26.978c-4.651-7.241-2.552-16.882,4.689-21.534c7.242-4.651,16.882-2.551,21.534,4.689
	c6.132,9.548,15.223,15.627,18.645,17.916l0.409,0.273c7.146,4.796,9.05,14.479,4.254,21.624
	C149.46,348.033,144.533,350.453,139.515,350.453z"/>
<path style="fill:#5CB38E;" d="M236.686,435.06c72.363,7.219,155.638,15.528,220.485-17.312c11.097-5.619,6.668-22.307-5.763-21.894
	c-48.921,1.628-88.248-14.707-109.386-36.92L236.686,435.06z"/>
<path style="opacity:0.1;enable-background:new    ;" d="M367.68,378.079c-3.112,23.029-8.96,45.742-25.119,63.501
	c-35.675,0.483-71.973-3.138-105.875-6.52l105.336-76.126C348.797,366.054,357.449,372.565,367.68,378.079z"/>
<g>
	<path style="fill:#498A68;" d="M252.384,504.501c-9.597,0.001-18.656-5.802-22.347-15.284
		c-15.019-38.583,7.795-81.99,30.764-96.125c11.276-6.94,26.043-3.425,32.984,7.852c6.938,11.275,3.425,26.039-7.847,32.981
		c-5.348,3.421-17.033,22.958-11.217,37.9c4.804,12.339-1.305,26.234-13.644,31.038
		C258.218,503.973,255.276,504.501,252.384,504.501z"/>
	<path style="fill:#498A68;" d="M141.095,464.229c-3.161,0.001-6.373-0.629-9.461-1.956c-12.164-5.231-17.783-19.333-12.552-31.497
		c15.207-35.356,43.617-54.739,79.913-54.47c13.241,0.084,23.906,10.886,23.821,24.126c-0.084,13.189-10.802,23.822-23.971,23.822
		c-0.191,0.001-0.379-0.002-0.571-0.002c-11.357,0-25.495,3.032-35.145,25.467C159.228,458.797,150.386,464.229,141.095,464.229z"/>
</g>
<path style="opacity:0.1;enable-background:new    ;" d="M260.8,393.091c-17.562,10.808-35.013,38.732-35.551,68.526
	c18.245,4.38,34.223,6.687,48.504,6.998c-3.233-14.398,7.209-31.511,12.183-34.692c11.274-6.941,14.786-21.706,7.847-32.981
	C286.844,389.666,272.076,386.15,260.8,393.091z"/>
<path style="opacity:0.1;enable-background:new    ;" d="M222.817,400.433c0.084-13.241-10.581-24.041-23.821-24.126
	c-29.73-0.22-54.164,12.753-70.39,36.881c9.283,10.972,22.035,20.405,38.624,28.542c9.285-15.191,21.209-17.476,31.046-17.476
	c0.192,0,0.38,0.002,0.571,0.002C212.016,424.255,222.734,413.622,222.817,400.433z"/>
<path style="fill:#5CB38E;" d="M140.999,314.486c-14.486,54.063-17.625,95.15,80.759,121.511
	c98.384,26.362,116.209-10.79,130.695-64.852c14.486-54.063-21.106-110.573-79.498-126.219
	C214.564,229.28,155.485,260.423,140.999,314.486z"/>
<path style="fill:#9BDFC1;" d="M140.999,314.486c0.115-0.431,0.242-0.856,0.363-1.284c23.535,0.249,67.656,10.31,89.397,50.758
	c15.843,29.475,12.242,55.736,4.437,75.358c-4.304-0.968-8.779-2.072-13.437-3.32C123.374,409.636,126.513,368.548,140.999,314.486z
	"/>
<path style="opacity:0.05;enable-background:new    ;" d="M292.553,252.073c46.465,21.757,72.684,71.364,59.9,119.071
	c-13.414,50.06-29.701,85.611-110.144,69.675C298.129,408.035,314.285,313.791,292.553,252.073z"/>
<path style="fill:#5CB38E;" d="M213.684,77.943L213.684,77.943c25.37-22.464,60.318-30.702,93.05-21.931l40.235,10.781
	c57.203,15.328,91.15,74.125,75.822,131.328l-12.76,47.62c-13.756,51.339-66.527,81.805-117.865,68.05L78.88,256.639
	c-38.459-10.306-61.282-49.837-50.978-88.296l8.684-32.41c10.306-38.459,49.837-61.282,88.296-50.978l27.63,7.403
	C174.03,98.126,197.005,92.711,213.684,77.943z"/>
<g style="opacity:0.1;">
	<circle cx="347.7" cy="253.294" r="7.379"/>
	<circle cx="294.117" cy="250.594" r="7.379"/>
	<circle cx="316.598" cy="282.676" r="7.379"/>
</g>
<g>
	
		<ellipse transform="matrix(-0.2588 0.9659 -0.9659 -0.2588 604.6633 -158.1224)" style="fill:#FFA8CB;" cx="362.998" cy="152.929" rx="9.542" ry="18.599"/>
	
		<ellipse transform="matrix(0.2588 -0.9659 0.9659 0.2588 63.1694 323.4744)" style="fill:#FFA8CB;" cx="242.362" cy="120.576" rx="9.542" ry="18.599"/>
</g>
<path style="opacity:0.05;enable-background:new    ;" d="M369.29,75.527c43.323,22.824,66.708,73.299,53.501,122.592l-12.76,47.62
	c-13.756,51.339-66.527,81.805-117.865,68.05l-56.407-15.114C330.715,272.89,379.844,145.235,369.29,75.527z"/>
<path style="fill:#498A68;" d="M267.363,380.849c-7.904,0-14.678-5.99-15.486-14.023c-0.862-8.563,5.38-16.204,13.944-17.067
	l0.494-0.049c4.1-0.406,14.992-1.484,24.9-7.016c7.513-4.197,17.007-1.507,21.203,6.008c4.195,7.514,1.505,17.007-6.009,21.203
	c-15.575,8.697-31.72,10.296-37.025,10.821l-0.441,0.044C268.413,380.823,267.885,380.849,267.363,380.849z"/>
<path style="fill:#495059;" d="M99.495,234.829L99.495,234.829c18.747,5.023,38.017-6.102,43.04-24.849l4.895-18.271
	c2.319-8.656-2.818-17.554-11.474-19.874l-36.542-9.792c-8.656-2.319-17.554,2.818-19.874,11.475l-4.895,18.271
	C69.622,210.536,80.748,229.806,99.495,234.829z"/>
<g>
	<path style="fill:#A3E3FF;" d="M432.964,161.118c-21.39-10.202-20.674-21.928-34.128-26.377c-6.212-2.054-8.478-9.669-4.327-14.726
		c18.669-22.739,42.45-38.344,70.397-25.638c18.471,8.397,26.708,30.086,18.54,48.602
		C474.972,162.191,451.918,170.158,432.964,161.118z"/>
	<path style="fill:#A3E3FF;" d="M174.821,79.693c22.39,7.766,30.119-1.083,42.818,5.202c5.864,2.902,12.827-0.925,13.425-7.44
		c2.688-29.299-3.275-57.11-32.09-67.701c-19.045-6.999-40.143,2.649-47.337,21.565C144.171,50.948,154.981,72.812,174.821,79.693z"
		/>
</g>
<path d="M104.294,126.066c3.936,1.055,7.983-1.281,9.038-5.218c1.055-3.937-1.281-7.983-5.218-9.038
	c-3.937-1.055-7.983,1.281-9.037,5.218C98.021,120.964,100.357,125.012,104.294,126.066z M287.558,336.145
	c-8.546,4.772-18.308,5.738-21.989,6.102l-0.5,0.05c-5.732,0.577-11.01,3.254-14.858,7.54c-2.768,3.082-2.513,7.824,0.569,10.592
	c3.081,2.768,7.824,2.512,10.592-0.569c1.346-1.499,3.192-2.436,5.193-2.637l0.487-0.049c4.525-0.448,16.546-1.637,27.819-7.932
	c1.883-1.053,4.064-1.31,6.143-0.719c2.077,0.588,3.802,1.951,4.853,3.836c1.053,1.885,1.309,4.067,0.72,6.144
	c-0.589,2.077-1.951,3.8-3.836,4.853c-14.211,7.935-29.186,9.419-34.103,9.906l-0.463,0.045c-0.975,0.099-1.982,0.019-2.927-0.238
	c-3.985-1.089-8.118,1.265-9.21,5.261c-1.09,3.996,1.266,8.12,5.262,9.21c1.967,0.537,4.003,0.809,6.05,0.809
	c0.778,0,1.565-0.04,2.315-0.116l0.447-0.044c5.688-0.564,23.003-2.278,39.94-11.736c5.384-3.006,9.274-7.928,10.956-13.861
	c1.681-5.932,0.951-12.164-2.055-17.548c-3.006-5.383-7.929-9.274-13.861-10.956C299.171,332.409,292.938,333.139,287.558,336.145z
	 M137.898,164.591l-36.542-9.791c-12.635-3.383-25.673,4.14-29.06,16.778l-4.895,18.272c-6.085,22.711,7.441,46.14,30.153,52.227
	c0,0,0,0,0.001,0c3.673,0.984,7.401,1.471,11.106,1.471c7.389,0,14.682-1.938,21.252-5.732c9.865-5.695,16.921-14.891,19.869-25.892
	l4.896-18.272c1.64-6.122,0.798-12.516-2.371-18.005C149.136,170.157,144.02,166.231,137.898,164.591z M140.186,189.768
	l-4.896,18.271c-1.911,7.131-6.484,13.093-12.879,16.784c-6.394,3.691-13.842,4.673-20.975,2.761h0.001
	c-14.723-3.945-23.491-19.132-19.546-33.854l4.896-18.271c1.245-4.648,6.04-7.419,10.688-6.17l36.542,9.792
	c2.251,0.603,4.133,2.047,5.298,4.065C140.48,185.165,140.79,187.517,140.186,189.768z M355.114,107.579
	c-11.244-3.01-22.837,3.682-25.85,14.924c-1.072,4.001,1.302,8.114,5.303,9.186c3.994,1.072,8.113-1.301,9.186-5.302
	c0.872-3.252,4.225-5.187,7.478-4.318c1.575,0.422,2.892,1.433,3.707,2.845c0.814,1.412,1.031,3.057,0.609,4.631
	c-1.072,4.001,1.302,8.114,5.303,9.186c0.65,0.174,1.303,0.258,1.946,0.258c3.311,0,6.342-2.21,7.239-5.56
	c1.46-5.445,0.711-11.134-2.107-16.016C365.111,112.531,360.56,109.039,355.114,107.579z M468.011,87.549
	c-14.967-6.805-30.038-6.977-44.791-0.516c-5.37,2.352-10.713,5.624-15.996,9.772c-15.074-18.026-35.497-31.143-58.314-37.257
	l-40.234-10.781c-23.512-6.299-48.024-4.555-70.165,4.805c-0.801-7.281-2.371-13.886-4.71-19.759
	c-5.962-14.965-16.809-25.427-32.239-31.099c-22.772-8.368-48.313,3.267-56.936,25.938c-4.251,11.178-3.775,23.368,1.339,34.326
	c5.183,11.105,14.805,19.779,26.397,23.8c0.251,0.087,0.49,0.16,0.738,0.243c-6.2,0.357-12.49-0.257-18.647-1.907l-27.629-7.403
	c-20.537-5.503-41.985-2.679-60.397,7.951c-18.413,10.632-31.584,27.795-37.086,48.332l-8.684,32.409
	c-11.359,42.393,13.889,86.123,56.281,97.482l70.234,18.819c-4.035,6.102-7.381,12.58-10.012,19.389
	c-0.601-0.797-1.17-1.599-1.69-2.407c-6.881-10.709-21.191-13.824-31.898-6.945c-10.71,6.878-13.827,21.187-6.947,31.898
	c10.34,16.098,24.539,25.717,29.476,29.021c-0.618,12.188,0.88,24.096,6.182,35.203c0.81,1.696,1.709,3.355,2.68,4.985
	c-6.482,6.35-12.189,13.806-16.986,22.278c-2.041,3.604-0.773,8.181,2.831,10.223c1.168,0.661,2.437,0.975,3.688,0.975
	c2.614,0,5.153-1.369,6.533-3.806c3.776-6.669,8.176-12.583,13.125-17.668c6.953,7.261,16.006,13.762,27.315,19.612
	c-6.172,4.978-11.269,12.089-15.23,21.299c-2.605,6.057-8.55,9.972-15.147,9.972h-0.003c-2.232,0-4.417-0.453-6.493-1.346
	c-3.458-1.487-6.224-4.021-7.999-7.328c-1.959-3.65-6.507-5.018-10.156-3.062c-3.649,1.959-5.02,6.505-3.061,10.156
	c3.347,6.236,8.777,11.214,15.291,14.015c3.96,1.703,8.138,2.566,12.419,2.566h0.005c12.596,0,23.95-7.475,28.926-19.045
	c5.868-13.645,12.933-17.941,18.357-19.618c9.33,3.671,19.783,7.053,31.439,10.177c0.043,0.012,0.084,0.022,0.127,0.034
	c-3.797,16.923-2.758,33.605,3.103,48.661c4.745,12.19,16.26,20.065,29.337,20.064c3.906,0,7.745-0.723,11.413-2.15
	c7.834-3.05,14.013-8.968,17.396-16.665c3.384-7.696,3.567-16.25,0.517-24.083c-1.742-4.477-1.294-10.655,1.133-17.074
	c8.268-0.392,15.757-1.63,22.519-3.737c9.972,0.511,20.538,0.878,31.501,0.878c39.628,0,84.301-4.778,123.7-24.729
	c8.151-4.128,12.106-12.84,9.84-21.677c-2.229-8.696-9.632-14.416-18.543-14.416c-0.232,0-0.465,0.004-0.698,0.012
	c-34.45,1.142-66.82-7.149-89.741-22.85c3.1-16.454,2.097-33.355-2.933-49.613c7.963-3.466,15.514-7.904,22.389-13.259
	c17.921-13.957,30.508-32.96,36.401-54.956l12.761-47.62c2.684-10.018,3.995-20.206,3.929-30.428
	c4.97,1.777,10.209,2.683,15.455,2.683c5.366,0,10.737-0.937,15.823-2.823c11.338-4.205,20.24-12.547,25.067-23.489
	C500.099,123.813,490.095,97.589,468.011,87.549z M128.142,336.677c-5.568-4.306-13.046-11.04-18.895-20.146
	c-2.409-3.75-1.317-8.76,2.433-11.169c3.751-2.409,8.76-1.317,11.17,2.432c2.472,3.848,5.578,7.547,9.258,11.04
	C130.598,324.751,129.213,330.717,128.142,336.677z M159.557,56.634c-3.384-7.25-3.708-15.294-0.911-22.648
	c5.715-15.026,22.648-22.739,37.74-17.191c18.564,6.822,27.704,22.611,27.765,48.103c-0.011,0.226-0.011,0.452-0.002,0.679
	c-0.014,3.547-0.197,7.274-0.556,11.195c-0.069,0.759-0.521,1.163-0.888,1.368c-0.318,0.178-0.967,0.419-1.741,0.035
	c-5.193-2.569-9.789-3.206-14.123-3.206c-2.149,0-4.235,0.156-6.296,0.311c-6.292,0.474-12.799,0.961-23.268-2.671
	C169.495,69.908,163.035,64.085,159.557,56.634z M267.46,487.149c-1.771,4.028-5.004,7.126-9.103,8.721
	c-1.925,0.749-3.934,1.129-5.972,1.129c-6.844,0.001-12.873-4.123-15.357-10.505c-5.679-14.588-4.895-28.771-2.506-39.647
	c11.901,2.637,22.757,4.297,32.656,4.973c-2.161,8.179-2.019,16.112,0.554,22.723C269.326,478.644,269.23,483.121,267.46,487.149z
	 M451.657,403.351c3.053-0.11,3.961,2.16,4.212,3.137c0.298,1.161,0.422,3.298-2.087,4.568
	c-32.219,16.317-71.048,23.627-123.734,23.017c14.397-13.519,21.789-33.172,27.5-53.198
	C382.676,396.403,416.295,404.516,451.657,403.351z M415.547,196.178l-12.761,47.621c-5.042,18.816-15.807,35.069-31.13,47.003
	c-14.833,11.552-33.291,18.212-51.975,18.753c-4.14,0.12-7.399,3.574-7.279,7.714c0.118,4.067,3.451,7.283,7.493,7.283
	c0.073,0,0.147-0.001,0.222-0.003c8.182-0.237,16.326-1.478,24.223-3.645c4.798,15.886,5.115,32.448,0.868,48.299
	c-7.527,28.094-15.32,47.653-30.888,58.344c-3.67,2.52-7.777,4.539-12.342,6.076c-0.075,0.025-0.151,0.048-0.225,0.076
	c-6.663,2.212-14.305,3.389-23.044,3.52c-0.584-0.064-1.168-0.066-1.742,0.006c-14.624-0.01-32.215-2.83-53.268-8.472
	c-11.83-3.169-22.26-6.565-31.387-10.227c-0.421-0.218-0.864-0.396-1.322-0.532c-23.743-9.728-38.359-21.327-45.17-35.596
	c-6.031-12.636-7.73-28.078,2.423-65.97c2.882-10.756,7.701-20.689,14.351-29.591l121.307,32.504
	c0.65,0.174,1.304,0.257,1.946,0.257c3.311-0.001,6.342-2.21,7.239-5.561c1.072-4.001-1.302-8.113-5.303-9.186L80.821,249.395
	C64.156,244.93,50.226,234.241,41.6,219.3s-10.918-32.349-6.452-49.015l8.684-32.41c4.465-16.665,15.154-30.595,30.096-39.221
	s32.35-10.919,49.014-6.452l27.63,7.403c20.323,5.444,41.793,2.002,59.353-9.418c1.446,0.233,2.856,0.673,4.389,1.431
	c2.368,1.172,4.933,1.755,7.495,1.755c2.838,0,5.671-0.716,8.22-2.142c4.82-2.695,7.999-7.589,8.504-13.09
	c0.261-2.844,0.428-5.612,0.521-8.317c20.411-10.154,43.587-12.502,65.739-6.566l40.234,10.781
	c20.043,5.37,37.957,16.955,51.096,32.876c-2.49,2.586-4.962,5.359-7.41,8.342c-3.505,4.27-4.68,9.986-3.143,15.291
	c1.547,5.337,5.626,9.568,10.913,11.316c4.329,1.432,6.451,3.866,9.968,7.899c3.02,3.465,6.532,7.479,12.097,11.536
	C419.62,172.994,418.619,184.713,415.547,196.178z M476.585,139.951c-3.176,7.199-9.056,12.697-16.559,15.479
	c-7.709,2.859-16.397,2.466-23.833-1.081c-2.489-1.187-4.622-2.383-6.489-3.583c-0.032-0.021-0.063-0.042-0.095-0.062
	c-5.578-3.604-8.755-7.247-11.853-10.8c-4.098-4.701-8.335-9.563-16.565-12.284c-0.82-0.271-1.112-0.898-1.214-1.248
	c-0.117-0.403-0.154-1.008,0.329-1.597c3.577-4.356,7.134-8.173,10.681-11.489c0.234-0.199,0.459-0.406,0.663-0.627
	c11.157-10.23,22.195-15.312,33.3-15.312c5.592,0,11.204,1.289,16.853,3.857C476.442,107.861,483.073,125.243,476.585,139.951z
	 M153.541,123.982c-3.937-1.055-7.983,1.281-9.038,5.218c-1.055,3.936,1.281,7.983,5.218,9.038c3.936,1.055,7.983-1.281,9.037-5.218
	C159.814,129.084,157.478,125.037,153.541,123.982z M271.852,85.269c-5.444-1.458-11.133-0.71-16.015,2.109
	c-4.882,2.818-8.374,7.37-9.834,12.816c-1.072,4.001,1.303,8.114,5.304,9.186c4.002,1.069,8.114-1.302,9.185-5.304
	c0.872-3.251,4.223-5.19,7.477-4.316c3.252,0.871,5.188,4.226,4.317,7.477c-1.072,4.001,1.303,8.114,5.304,9.186
	c0.65,0.174,1.303,0.257,1.945,0.257c3.312,0,6.342-2.21,7.239-5.561C289.789,99.877,283.095,88.282,271.852,85.269z"/>
<g>
</g>
<g>
</g>
<g>
</g>
<g>
</g>
<g>
</g>
<g>
</g>
<g>
</g>
<g>
</g>
<g>
</g>
<g>
</g>
<g>
</g>
<g>
</g>
<g>
</g>
<g>
</g>
<g>
</g>
</svg>
