<?xml version="1.0" encoding="iso-8859-1"?>
<!-- Generator: Adobe Illustrator 19.0.0, SVG Export Plug-In . SVG Version: 6.00 Build 0)  -->
<svg version="1.1" id="Capa_1" xmlns="http://www.w3.org/2000/svg" xmlns:xlink="http://www.w3.org/1999/xlink" x="0px" y="0px"
	 viewBox="0 0 512 512" style="enable-background:new 0 0 512 512;" xml:space="preserve">
<path style="fill:#498A68;" d="M153.63,407.584c-6.81,0-12.856-4.861-14.118-11.798c-1.42-7.806,3.757-15.286,11.563-16.706
	c9.536-1.735,15.889-9.422,22.613-17.56c1.708-2.066,3.473-4.203,5.265-6.18c5.328-5.881,14.414-6.327,20.293-0.998
	c5.88,5.329,6.327,14.414,0.998,20.294c-1.351,1.491-2.835,3.287-4.406,5.189c-8.339,10.091-19.761,23.913-39.621,27.526
	C155.349,407.508,154.483,407.584,153.63,407.584z"/>
<path style="fill:#806C6C;" d="M84.929,393.626l62.405,22.713c5.937,2.161,12.502-0.9,14.663-6.838l2.069-5.686
	c2.161-5.937-0.9-12.501-6.837-14.662l-62.404-22.713L84.929,393.626z"/>
<rect x="89.444" y="368.109" transform="matrix(-0.9397 -0.342 0.342 -0.9397 57.0447 775.2054)" style="opacity:0.1;enable-background:new    ;" width="14.837" height="28.93"/>
<g>
	<path style="fill:#959BA0;" d="M41.533,382.163l12.679-34.835c0.958-2.633,3.869-3.99,6.502-3.032l32.471,11.818
		c2.633,0.958,3.99,3.869,3.032,6.502L83.537,397.45c-0.958,2.633-3.869,3.99-6.502,3.032l-32.471-11.818
		C41.933,387.706,40.575,384.795,41.533,382.163z"/>
	<path style="fill:#959BA0;" d="M24.665,428.511l4.605-12.651c0.958-2.633,3.869-3.99,6.502-3.032l32.471,11.818
		c2.633,0.958,3.99,3.869,3.032,6.502l-4.605,12.651c-0.958,2.633-3.869,3.99-6.502,3.032l-32.471-11.818
		C25.064,434.055,23.706,431.144,24.665,428.511z"/>
</g>
<path style="fill:#495059;" d="M67.241,424.284L67.241,424.284c0.026-8.833,3.137-17.381,8.795-24.164l0,0l-30.473-11.091l0,0
	c-0.026,8.833-3.137,17.381-8.795,24.164l0,0L67.241,424.284z"/>
<path style="fill:#5CB38E;" d="M281.992,439.101c67.045,0,144.202,0,200.685-36.062c9.665-6.171,4.076-21.074-7.291-19.558
	c-44.731,5.972-82.303-5.415-103.728-23.858L281.992,439.101z"/>
<path style="opacity:0.1;enable-background:new    ;" d="M396.949,374.839c-0.747,21.411-4.034,42.784-17.232,60.555
	c-32.684,3.709-66.314,3.709-97.724,3.709l89.667-79.478C378.525,365.536,387.059,370.716,396.949,374.839z"/>
<g>
	<path style="fill:#498A68;" d="M312.007,504.501c-11.438,0.001-21.122-8.814-22.013-20.41c-0.273-3.538-1.692-60.092,4.269-74.719
		c4.607-11.304,17.504-16.736,28.809-12.128c10.842,4.418,16.281,16.464,12.643,27.415c-1.585,8.158-2.495,44.997-1.646,56.042
		c0.936,12.171-8.171,22.796-20.343,23.732C313.15,504.479,312.576,504.501,312.007,504.501z M335.209,426.028
		c-0.003,0.008-0.007,0.017-0.01,0.025C335.203,426.045,335.206,426.036,335.209,426.028z"/>
	<path style="fill:#498A68;" d="M231.846,504.501c-11.438,0.001-21.122-8.814-22.014-20.41c-0.272-3.538-1.691-60.091,4.269-74.719
		c4.608-11.304,17.507-16.734,28.809-12.128c10.842,4.418,16.281,16.464,12.643,27.416c-1.585,8.158-2.496,44.997-1.646,56.042
		c0.936,12.171-8.171,22.796-20.343,23.732C232.988,504.479,232.415,504.501,231.846,504.501z M255.049,426.028
		c-0.003,0.009-0.007,0.017-0.01,0.025C255.042,426.045,255.046,426.037,255.049,426.028z"/>
</g>
<path style="opacity:0.1;enable-background:new    ;" d="M242.91,397.244c-11.303-4.605-24.202,0.824-28.809,12.128
	c-3.783,9.283-4.593,35.448-4.611,54.235c12.427,4.176,27.048,6.785,44.112,7.904c-0.156-15.338,0.681-40.311,1.952-46.854
	C259.192,413.708,253.752,401.662,242.91,397.244z"/>
<path style="opacity:0.1;enable-background:new    ;" d="M323.071,397.244c-11.305-4.608-24.203,0.824-28.809,12.128
	c-4.375,10.735-4.774,44.053-4.569,62.422c16.901-0.805,31.519-2.98,44.059-6.607c0.078-15.124,0.856-34.827,1.963-40.529
	C339.352,413.708,333.913,401.662,323.071,397.244z"/>
<path style="fill:#5CB38E;" d="M173.226,361.117c0,51.601,7.009,88.939,100.913,88.939c93.904,0,100.913-37.337,100.913-88.939
	s-45.18-93.432-100.913-93.432C218.407,267.685,173.226,309.516,173.226,361.117z"/>
<path style="fill:#9BDFC1;" d="M173.226,361.117c0-0.411,0.011-0.82,0.017-1.23c21.018-5.394,62.709-6.963,91.721,23.869
	c21.141,22.468,24.201,46.714,21.933,66.05c-4.065,0.165-8.313,0.249-12.758,0.249C180.235,450.056,173.226,412.717,173.226,361.117
	z"/>
<path style="opacity:0.05;enable-background:new    ;" d="M293.296,269.374c46.57,8.287,81.755,46.208,81.755,91.743
	c0,47.78-6.021,83.326-81.46,88.329C335.477,406.931,327.376,319.149,293.296,269.374z"/>
<path style="fill:#5CB38E;" d="M181.511,133.125L181.511,133.125c17.232-26.059,46.389-41.733,77.63-41.733h38.403
	c54.598,0,98.858,44.261,98.858,98.858v45.452c0,49.001-39.723,88.725-88.725,88.725H104.104c-36.708,0-66.465-29.758-66.465-66.465
	v-30.934c0-36.707,29.758-66.465,66.465-66.465h26.372C151.014,160.561,170.183,150.256,181.511,133.125z"/>
<g style="opacity:0.1;">
	<circle cx="342.705" cy="257.302" r="6.804"/>
	<circle cx="294.338" cy="267.681" r="6.803"/>
	<circle cx="322.016" cy="290.889" r="6.803"/>
</g>
<g>
	<ellipse style="fill:#FFA8CB;" cx="316.227" cy="170.158" rx="17.149" ry="8.797"/>
	<ellipse style="fill:#FFA8CB;" cx="201.095" cy="170.158" rx="17.149" ry="8.797"/>
</g>
<path style="opacity:0.05;enable-background:new    ;" d="M319.506,93.843c44.027,9.988,76.896,49.356,76.896,96.406v45.452
	c0,49.001-39.723,88.725-88.725,88.725H253.84C332.247,278.805,345.537,153.402,319.506,93.843z"/>
<path style="fill:#498A68;" d="M277.773,390.718c-13.206,0-26.146-5.329-34.577-14.626c-5.33-5.879-4.886-14.964,0.992-20.294
	c5.88-5.331,14.964-4.886,20.294,0.992c3.64,4.014,10.542,6.022,16.783,4.883c7.803-1.423,15.288,3.751,16.712,11.556
	c1.424,7.806-3.751,15.288-11.556,16.712C283.555,390.463,280.657,390.718,277.773,390.718z"/>
<path style="fill:#FAE17C;" d="M377.135,119.519c-15.456,4.234-29.712,2.87-52.266,0.871c-2.137-0.189-4.284,0.327-6.091,1.484
	c-29.41,18.831-113.456,3.185-142.132-8.302c-4.405-1.765-4.675-7.898-0.458-10.073l12.152-6.269
	c2.705-1.395,4.518-4.036,4.932-7.05c9.457-68.742,90.618-111.754,160.399-59.317c21.666,16.281,33.196,42.755,30.833,69.754
	l-0.974,11.135C383.212,115.415,380.681,118.548,377.135,119.519z"/>
<g style="opacity:0.1;">
	<path d="M260.879,88.899c-0.442,0-0.891-0.04-1.342-0.121c-4.076-0.736-6.783-4.638-6.047-8.713
		c2.101-11.634,5.914-21.003,9.72-29.396c1.71-3.772,6.154-5.444,9.927-3.732c3.772,1.711,5.443,6.156,3.732,9.927
		c-3.938,8.68-6.91,16.402-8.62,25.867C267.595,86.356,264.436,88.899,260.879,88.899z"/>
	<path d="M229.53,83.235c-0.443,0-0.891-0.04-1.342-0.121c-4.076-0.736-6.783-4.638-6.047-8.713
		c2.102-11.633,5.914-21.003,9.72-29.396c1.711-3.773,6.155-5.443,9.927-3.733c3.773,1.711,5.443,6.156,3.732,9.927
		c-3.938,8.681-6.911,16.403-8.62,25.868C236.246,80.692,233.087,83.235,229.53,83.235z"/>
</g>
<path style="opacity:0.05;enable-background:new    ;" d="M176.19,103.498l12.152-6.269c1.529-0.788,2.759-1.984,3.626-3.411
	c62.594,0.425,113.319,17.747,128.781,27.098c-0.687,0.244-1.349,0.56-1.97,0.957c-29.41,18.831-113.456,3.185-142.132-8.302
	C172.242,111.806,171.972,105.673,176.19,103.498z"/>
<path d="M222.851,136.67c-4.142,0-7.499,3.358-7.499,7.499v8.545c0,4.142,3.358,7.499,7.499,7.499c4.142,0,7.499-3.358,7.499-7.499
	v-8.545C230.351,140.028,226.993,136.67,222.851,136.67z M493.991,387.88c-3.012-8.239-10.888-12.995-19.597-11.831
	c-35.39,4.725-69.395-1.823-91.894-17.532c-0.461-16.942-5.407-33.309-14.452-47.864c22.127-17.848,35.853-45.117,35.853-74.953
	v-45.452c0-23.617-7.696-46.143-21.88-64.622c4.992-2.494,8.479-7.486,8.981-13.222l0.974-11.135
	c2.583-29.52-10.368-58.797-33.8-76.403C324.101-0.74,284.12-6.91,248.484,7.939c-33.677,14.033-57.679,45.154-62.64,81.219
	c-0.039,0.285-0.14,0.546-0.281,0.774c-0.019,0.031-0.039,0.061-0.057,0.092c-0.159,0.227-0.362,0.415-0.603,0.54l-12.151,6.269
	c-4.599,2.372-7.303,7.057-7.057,12.227c0.245,5.158,3.374,9.553,8.163,11.473c1.825,0.731,3.819,1.461,5.943,2.185
	c-1.591,2.042-3.125,4.124-4.545,6.271c-9.968,15.074-26.708,24.073-44.78,24.073h-26.372c-40.784,0-73.965,33.181-73.965,73.965
	v30.934c0,29.955,17.911,55.789,43.576,67.406c-3.658,3.445-6.57,7.714-8.472,12.597l-1.963-0.714c-3.156-1.149-6.57-1-9.613,0.419
	c-3.044,1.419-5.353,3.939-6.501,7.094l-12.679,34.835c0,0.001,0,0.001,0,0.001c-1.781,4.895-0.32,10.192,3.281,13.53
	c-0.593,4.225-2.072,8.287-4.332,11.905c-1.611,0.077-3.208,0.466-4.713,1.168c-3.044,1.419-5.353,3.939-6.501,7.094l-4.605,12.65
	c0,0,0,0,0,0.001c-1.148,3.156-0.999,6.57,0.42,9.612c1.42,3.044,3.94,5.353,7.094,6.501l32.472,11.818
	c1.414,0.515,2.862,0.759,4.286,0.759c5.137,0,9.97-3.174,11.827-8.272l4.605-12.651c1.781-4.895,0.32-10.192-3.281-13.529
	c0.594-4.231,2.076-8.299,4.342-11.922c1.607-0.078,3.201-0.451,4.704-1.152c1.977-0.922,3.636-2.314,4.876-4.037l55.809,20.314
	c2.131,0.775,4.311,1.143,6.458,1.143c7.738,0,15.021-4.781,17.817-12.463l0.286-0.786c0.793-0.326,1.582-0.669,2.365-1.032
	c2.509,7.078,6.055,13.688,11.073,19.56c5.156,6.032,11.622,11.032,19.526,15.053c-0.287,8.618-0.324,16.931-0.295,22.778
	c0.02,4.13,3.374,7.462,7.498,7.462h0.038c4.142-0.021,7.482-3.395,7.462-7.536c-0.022-4.471-0.005-10.417,0.137-16.81
	c8.47,2.579,18.129,4.408,29.072,5.514c-0.19,9.564-0.185,19.704,0.223,25.007c0.299,3.89-0.934,7.662-3.473,10.623
	c-2.539,2.962-6.079,4.758-9.976,5.058c-0.372,0.029-0.754,0.044-1.136,0.044c-3.704,0.001-7.24-1.401-9.96-3.947
	c-3.022-2.83-7.768-2.674-10.6,0.35c-2.831,3.024-2.674,7.769,0.351,10.6c5.509,5.156,12.684,7.995,20.208,7.995h0.003
	c0.769,0,1.543-0.03,2.294-0.088c7.884-0.607,15.06-4.247,20.206-10.25s7.645-13.651,7.039-21.535
	c-0.319-4.143-0.385-12.957-0.198-22.824c4.16,0.167,8.473,0.253,12.952,0.253c2.744,0,5.423-0.033,8.046-0.096
	c-0.144,13.868,0.193,25.431,0.33,27.208c1.179,15.328,14.133,27.334,29.492,27.333c0.769,0,1.543-0.03,2.294-0.088
	c16.275-1.252,28.497-15.511,27.245-31.786c-0.443-5.754-0.392-19.924,0.083-33.207c0.966-0.421,1.907-0.858,2.834-1.305
	c43.215-1.974,98.023-8.017,142.25-36.254C494.051,404.677,496.975,396.044,493.991,387.88z M254.253,21.784
	c30.602-12.751,65.197-7.257,94.914,15.074c19.325,14.521,30.002,38.701,27.867,63.105l-0.974,11.135
	c-0.049,0.566-0.422,1.055-0.907,1.188c-13.884,3.804-26.891,2.65-48.441,0.738l-1.183-0.104c-1.19-0.104-2.383-0.069-3.562,0.072
	c-19.778-10.699-66.914-24.628-120.479-26.468C207.068,57.709,226.93,33.17,254.253,21.784z M191.779,103.894
	c1.322-0.682,2.527-1.537,3.603-2.524c46.623,0.783,85.118,10.79,106.669,19.105c-12.95,3.051-31.642,3.507-53.824,1.159
	c-20.054-2.124-39.02-6.023-53.038-9.897c-0.016-0.005-0.032-0.009-0.048-0.013c-4.391-1.215-8.299-2.427-11.596-3.581
	L191.779,103.894z M60.451,438.953l-27.909-10.158l2.944-8.089l27.91,10.158L60.451,438.953z M60.958,414.015l-12.774-4.65
	c1.613-3.201,2.844-6.582,3.665-10.07l12.774,4.65C63.01,407.146,61.779,410.527,60.958,414.015z M77.887,391.051
	c-0.001,0.003-0.003,0.007-0.004,0.01c-0.001,0.003-0.002,0.007-0.003,0.01l-0.558,1.534l-27.91-10.158l11.018-30.274l6.705,2.44
	l0,0l21.204,7.717L77.887,391.051z M157.018,401.252l-2.069,5.685c-0.743,2.042-3.009,3.1-5.05,2.355l-55.357-20.149l4.765-13.09
	l40.838,14.864c0.022,0.008,0.043,0.016,0.065,0.024l14.454,5.261c0.989,0.36,1.779,1.083,2.224,2.038
	C157.332,399.192,157.379,400.262,157.018,401.252z M161.848,383.009c1.531-0.861,2.985-1.822,4.361-2.878
	c0.134,2.154,0.302,4.3,0.517,6.431C165.324,385.149,163.693,383.939,161.848,383.009z M165.75,359.332
	c-5.729,6.81-10.221,11.314-16.017,12.368c-3.112,0.566-6.054,1.81-8.621,3.607l-37.127-13.513c0.158-2.117-0.219-4.25-1.141-6.227
	c-1.419-3.044-3.939-5.352-7.094-6.501l-16.412-5.974c2.599-6.341,8.249-10.789,15.032-11.829c2.824,0.373,5.696,0.588,8.609,0.632
	c0.33,0.101,0.662,0.192,0.987,0.31c0.846,0.308,1.712,0.454,2.563,0.454c1.127,0,2.227-0.26,3.225-0.735h60.584
	C167.461,340.781,165.923,349.955,165.75,359.332z M313.144,496.957c-0.373,0.029-0.755,0.044-1.137,0.044
	c-7.569,0.001-13.955-5.923-14.536-13.484c-0.09-1.206-0.443-12.754-0.276-26.815c10.941-0.867,20.669-2.405,29.271-4.638
	c-0.299,11.274-0.332,23.266,0.126,29.213C327.209,489.305,321.179,496.339,313.144,496.957z M339.671,431.278
	c-0.374,0.156-0.735,0.336-1.075,0.548c-1.935,0.965-3.985,1.863-6.152,2.694c-0.495,0.128-0.97,0.307-1.421,0.529
	c-10.859,3.932-24.55,6.279-41.422,7.133c-0.166,0.005-0.331,0.011-0.494,0.027c-4.739,0.231-9.724,0.347-14.97,0.347
	c-6.91,0-13.364-0.203-19.401-0.606c-0.206-0.024-0.413-0.044-0.624-0.051c-0.03-0.001-0.059,0.002-0.089,0.002
	c-16.66-1.161-30.027-3.892-40.466-8.297c-0.411-0.224-0.844-0.41-1.298-0.555c-7.592-3.384-13.573-7.697-18.092-12.985
	c-8.3-9.711-13.444-22.959-13.444-58.947c0-10.059,1.863-19.857,5.536-29.192h108.862c4.142,0,7.499-3.358,7.499-7.499
	c0-4.142-3.358-7.499-7.499-7.499H104.104c-32.514,0-58.966-26.452-58.966-58.966v-30.934c0-32.514,26.452-58.966,58.966-58.966
	h26.372c23.12,0,44.537-11.514,57.29-30.799c2.299-3.477,4.875-6.803,7.684-9.933c15.505,3.997,34.126,7.414,51.197,9.221
	c8.614,0.912,18.268,1.588,27.962,1.588c5.624,0,11.259-0.229,16.714-0.77c-2.569,1.19-4.356,3.785-4.356,6.802v8.545
	c0,4.142,3.358,7.499,7.499,7.499s7.499-3.358,7.499-7.499v-8.545c0-3.637-2.589-6.667-6.025-7.352
	c10.322-1.407,19.759-4.069,26.879-8.627c0.4-0.257,0.891-0.376,1.386-0.33l1.18,0.104c16.188,1.437,28.407,2.508,40.153,1.302
	c15.085,16.79,23.362,38.297,23.362,60.984v45.452c0,27.274-13.587,52.003-35.05,66.845c-0.149,0.093-0.298,0.185-0.442,0.29
	c-0.059,0.043-0.111,0.092-0.168,0.136c-7.486,5.076-15.907,8.962-25.036,11.339c-4.008,1.043-6.412,5.139-5.368,9.146
	c0.878,3.375,3.92,5.612,7.252,5.612c0.625,0,1.261-0.079,1.894-0.244c8.445-2.199,16.371-5.498,23.666-9.693
	c7.801,12.782,11.901,27.161,11.901,41.983c0,26.681-2.249,45.849-13.444,58.947C350.342,424.471,345.554,428.198,339.671,431.278z
	 M478.642,396.719c-34.144,21.798-75.853,29.452-112.659,32.514c12.17-14.63,15.467-33.698,16.301-53.197
	c25.084,14.006,59.141,19.547,94.095,14.88c2.287-0.302,3.189,1.193,3.526,2.114C480.294,394.096,480.391,395.602,478.642,396.719z
	 M135.758,263.546c-3.124-2.722-7.858-2.397-10.581,0.726c-2,2.295-4.886,3.611-7.918,3.611s-5.919-1.316-7.918-3.611
	c-2.722-3.123-7.459-3.448-10.58-0.726c-3.123,2.721-3.448,7.458-0.726,10.581c4.85,5.564,11.856,8.754,19.226,8.754
	c7.368,0,14.376-3.191,19.226-8.754C139.205,271.005,138.88,266.268,135.758,263.546z M138.938,188.476
	c-3.758,0-6.803,3.046-6.803,6.804s3.046,6.803,6.803,6.803c3.758,0,6.804-3.046,6.804-6.803S142.695,188.476,138.938,188.476z
	 M102.383,195.279c0-3.758-3.046-6.804-6.804-6.804c-3.758,0-6.804,3.046-6.804,6.804s3.046,6.803,6.804,6.803
	C99.337,202.083,102.383,199.036,102.383,195.279z M288.734,380.629c-0.992,1.009-2.257,1.678-3.659,1.934
	c-2.387,0.435-4.844,0.656-7.302,0.656c-11.265,0-22.114-4.548-29.021-12.164c-2.544-2.806-2.331-7.157,0.474-9.701
	c2.806-2.543,7.157-2.331,9.701,0.475c5.373,5.925,14.891,8.826,23.681,7.223c0.849-0.154,1.699-0.152,2.528,0.008
	c4.068,0.783,7.999-1.878,8.782-5.946c0.783-4.067-1.879-7.999-5.946-8.782c-2.661-0.512-5.369-0.523-8.054-0.036
	c-4.067,0.745-8.218-0.71-9.881-2.543c-8.098-8.93-21.954-9.609-30.887-1.51c-8.931,8.098-9.609,21.954-1.511,30.887
	c9.702,10.7,24.705,17.088,40.132,17.088c3.358,0,6.721-0.302,9.992-0.899c4.464-0.814,8.499-2.951,11.67-6.181
	c2.902-2.955,2.859-7.703-0.096-10.605C296.386,377.631,291.637,377.675,288.734,380.629z"/>
<g>
</g>
<g>
</g>
<g>
</g>
<g>
</g>
<g>
</g>
<g>
</g>
<g>
</g>
<g>
</g>
<g>
</g>
<g>
</g>
<g>
</g>
<g>
</g>
<g>
</g>
<g>
</g>
<g>
</g>
</svg>
