<?xml version="1.0" encoding="iso-8859-1"?>
<!-- Generator: Adobe Illustrator 19.0.0, SVG Export Plug-In . SVG Version: 6.00 Build 0)  -->
<svg version="1.1" id="Capa_1" xmlns="http://www.w3.org/2000/svg" xmlns:xlink="http://www.w3.org/1999/xlink" x="0px" y="0px"
	 viewBox="0 0 512 512" style="enable-background:new 0 0 512 512;" xml:space="preserve">
<path style="fill:#498A68;" d="M349.859,364.132c-1.855,0-3.741-0.353-5.564-1.1c-4.168-1.707-8.559-3.482-12.783-5.191
	c-9.44-3.818-17.593-7.116-21.659-8.976c-7.381-3.377-10.628-12.098-7.251-19.478c3.378-7.383,12.101-10.628,19.479-7.252
	c3.468,1.587,11.719,4.924,20.452,8.456c4.263,1.724,8.693,3.516,12.899,5.238c7.512,3.076,11.108,11.659,8.032,19.17
	C361.137,360.688,355.649,364.132,349.859,364.132z"/>
<path style="fill:#5CB38E;" d="M208.095,392.925c-67.718-10.864-145.65-23.366-196.859-68.943
	c-8.763-7.799-0.701-21.947,10.534-18.572c44.212,13.279,84.008,7.868,108.637-7.291L208.095,392.925z"/>
<path style="opacity:0.1;enable-background:new    ;" d="M102.396,309.39c-2.715,21.747-2.858,43.867,7.593,63.955
	c32.412,9.042,66.379,14.491,98.105,19.581l-77.689-94.806C122.512,302.978,113.053,306.828,102.396,309.39z"/>
<g>
	<path style="fill:#498A68;" d="M185.7,454.638c-1.788,0-3.603-0.214-5.417-0.66c-12.126-2.982-19.539-15.229-16.557-27.356
		c4.04-16.426,5.029-40.028-0.416-49.515c-6.216-10.831-2.475-24.649,8.356-30.866c10.832-6.215,24.65-2.475,30.866,8.356
		c16.974,29.575,7.233,74.182,5.108,82.824C205.103,447.733,195.864,454.638,185.7,454.638z"/>
	<path style="fill:#498A68;" d="M289.64,454.407c-0.783,0-1.572-0.04-2.368-0.123c-12.421-1.292-21.441-12.408-20.148-24.829
		c1.751-16.823-0.504-40.337-7.199-48.99c-7.641-9.877-5.83-24.077,4.046-31.719c9.878-7.643,24.078-5.83,31.72,4.047
		c20.868,26.973,17.331,72.491,16.41,81.343C310.891,445.759,301.075,454.407,289.64,454.407z"/>
</g>
<path style="opacity:0.1;enable-background:new    ;" d="M267.055,430.729c18.386-1.613,33.577-6.503,45.843-14.761
	c-0.137-18.129-3.07-44.902-17.207-63.175c-7.642-9.876-21.842-11.69-31.72-4.047c-9.876,7.642-11.688,21.843-4.046,31.719
	c6.695,8.653,8.95,32.166,7.199,48.99C267.079,429.883,267.076,430.305,267.055,430.729z"/>
<path style="opacity:0.1;enable-background:new    ;" d="M209.712,427.427c2.997-17.054,6.162-49.581-7.182-72.829
	c-6.216-10.831-20.034-14.57-30.866-8.356c-10.831,6.216-14.571,20.035-8.356,30.866c4.412,7.687,4.599,24.641,2.361,39.537
	C178.288,421.12,192.914,424.687,209.712,427.427z"/>
<path style="fill:#5CB38E;" d="M330.59,331.781c-8.362,52.12-21.491,88.696-116.338,73.481
	c-94.847-15.216-95.877-54.065-87.515-106.185s60.774-87.049,117.066-78.019S338.952,279.662,330.59,331.781z"/>
<path style="fill:#9BDFC1;" d="M330.59,331.781c0.067-0.415,0.122-0.83,0.182-1.245c-20.356-8.854-62.211-17.194-96.511,9.247
	c-24.995,19.268-32.014,43.261-32.856,63.159c4.079,0.825,8.357,1.599,12.846,2.319C309.099,420.477,322.228,383.901,330.59,331.781
	z"/>
<path style="opacity:0.05;enable-background:new    ;" d="M224.179,219.66c-48.381,0.825-90.064,33.425-97.443,79.418
	c-7.743,48.26-7.421,85.138,67.966,102.416C159.285,351.765,181.691,264.414,224.179,219.66z"/>
<path style="fill:#5CB38E;" d="M359.166,100.155L359.166,100.155c-13.182-29.113-40.092-49.67-71.648-54.732l-38.788-6.223
	c-55.147-8.847-107.024,28.686-115.871,83.833l-7.365,45.908c-7.94,49.494,25.746,96.053,75.239,103.993l205.62,32.987
	c37.076,5.948,71.955-19.286,77.904-56.364l5.013-31.245c5.948-37.076-19.286-71.955-56.364-77.904l-26.637-4.273
	C385.523,132.809,367.832,119.295,359.166,100.155z"/>
<g style="opacity:0.1;">
	<circle cx="176.235" cy="199.46" r="6.96"/>
	<circle cx="223.403" cy="217.79" r="6.96"/>
	<circle cx="191.685" cy="236.739" r="6.96"/>
</g>
<g>
	
		<ellipse transform="matrix(0.1584 -0.9874 0.9874 0.1584 61.1817 312.5092)" style="fill:#FFA8CB;" cx="213.91" cy="120.365" rx="9" ry="17.543"/>
	
		<ellipse transform="matrix(-0.1584 0.9874 -0.9874 -0.1584 519.7374 -164.9839)" style="fill:#FFA8CB;" cx="330.182" cy="139.011" rx="9" ry="17.543"/>
</g>
<path style="opacity:0.05;enable-background:new    ;" d="M226.149,38.119c-46.088,2.954-85.666,37.392-93.29,84.915l-7.365,45.908
	c-7.94,49.493,25.746,96.053,75.239,103.993l54.379,8.724C183.308,222.874,190.205,94.058,226.149,38.119z"/>
<path style="fill:#F4B9CE;" d="M381.26,251.816c5.552-1.548,12.675-1.9,20.254-0.684c4.473,0.717,8.618,1.908,12.256,3.418
	c-3.382-12.432-12.549-36.179-42.537-43.142c-7.905-1.837-15.803,3.085-17.64,10.991c-1.836,7.907,3.084,15.804,10.992,17.64
	C373.124,242.023,378.084,246.397,381.26,251.816z"/>
<path style="fill:#498A68;" d="M240.556,358.463c-4.337,0-8.633-1.911-11.534-5.576c-9.567-12.085-15.905-16.543-18.186-17.899
	c-6.978-4.147-9.271-13.165-5.124-20.143c4.147-6.977,13.166-9.272,20.143-5.124c5.588,3.322,14.672,10.342,26.214,24.922
	c5.039,6.364,3.964,15.607-2.4,20.645C246.967,357.425,243.751,358.463,240.556,358.463z"/>
<circle style="fill:#495059;" cx="447.194" cy="425.241" r="57.308"/>
<path style="fill:#959BA0;" d="M447.198,446.979c12.004,0,21.734-9.731,21.734-21.734c0-12.004-9.731-21.734-21.734-21.734H285.692
	v43.469h161.506V446.979z"/>
<circle style="fill:#495059;" cx="285.691" cy="425.241" r="57.308"/>
<circle style="fill:#959BA0;" cx="285.691" cy="425.241" r="17.981"/>
<g>
	<path style="fill:#A3E3FF;" d="M92.502,193.026c4.13-18.74-3.718-24.119,0.137-34.927c1.78-4.991-1.956-10.229-7.253-10.093
		c-23.816,0.607-45.619,8.032-51.413,32.206c-3.829,15.977,5.925,32.034,21.817,36.032C72.28,220.391,88.842,209.631,92.502,193.026
		z"/>
	<path style="fill:#A3E3FF;" d="M90.392,89.631c11.895-11.11,8.998-18.64,16.886-24.339c3.643-2.632,3.55-8.087-0.216-10.54
		C90.129,43.728,71.325,38.433,55.655,52.54c-10.357,9.324-11.26,25.231-2.077,35.666C63.107,99.031,79.852,99.475,90.392,89.631z"
		/>
	<path style="fill:#A3E3FF;" d="M406.852,80.974c-15.558-7.005-15.227-15.457-24.982-18.447c-4.504-1.381-6.256-6.826-3.347-10.532
		c13.078-16.662,29.95-28.27,50.266-19.566c13.427,5.753,19.699,21.233,14.112,34.691C437.105,81.083,420.637,87.182,406.852,80.974
		z"/>
</g>
<path d="M53.96,223.516c2.996,0.753,6.026,1.126,9.039,1.126c6.813,0,13.534-1.905,19.538-5.618
	c8.767-5.42,15.067-14.307,17.288-24.385c2.537-11.512,1.081-19.004,0.018-24.476c-0.867-4.463-1.205-6.563-0.141-9.547
	c1.672-4.689,0.93-9.893-1.985-13.916c-2.899-4.003-7.569-6.319-12.523-6.192c-22.683,0.579-51.248,7.633-58.515,37.955
	C21.921,198.323,34.158,218.534,53.96,223.516z M41.266,181.959c1.51-6.303,6.107-25.482,44.308-26.38
	c-2.488,6.979-1.408,12.539-0.455,17.445c0.947,4.873,1.926,9.912,0.058,18.386c-1.354,6.141-5.191,11.556-10.529,14.855
	c-5.18,3.203-11.229,4.163-17.029,2.703C45.749,205.983,38.413,193.867,41.266,181.959z M362.424,310.206
	c-3.923-1.318-8.179,0.794-9.498,4.72c-1.319,3.926,0.794,8.179,4.721,9.499c6.89,2.315,12.385,5.223,16.335,8.642
	c1.418,1.228,3.166,1.829,4.905,1.829c2.101,0,4.19-0.878,5.674-2.592c2.711-3.132,2.369-7.868-0.763-10.579
	C378.288,316.954,371.297,313.188,362.424,310.206z M379.672,69.698c2.491,0.763,3.68,1.989,6.363,4.935
	c3.387,3.717,8.025,8.807,17.737,13.18c4.538,2.043,9.454,3.069,14.371,3.069c4.37,0,8.742-0.811,12.848-2.437
	c8.626-3.417,15.315-9.97,18.836-18.449c7.136-17.186-0.979-37.13-18.086-44.459c-25.972-11.128-46.483,5.73-59.118,21.829
	c-2.884,3.673-3.771,8.526-2.374,12.98C371.655,64.824,375.177,68.32,379.672,69.698z M425.836,39.324
	c9.59,4.108,14.138,15.287,10.14,24.921c-1.952,4.703-5.684,8.345-10.508,10.256c-4.98,1.973-10.644,1.839-15.537-0.364
	c-6.878-3.097-9.892-6.406-12.807-9.605c-2.892-3.173-6.147-6.746-11.976-8.817C405.374,30.557,420.744,37.142,425.836,39.324z
	 M285.691,399.763c-14.05,0-25.481,11.431-25.481,25.481s11.431,25.481,25.481,25.481s25.481-11.431,25.481-25.481
	C311.173,411.195,299.741,399.763,285.691,399.763z M285.691,435.727c-5.779,0-10.482-4.702-10.482-10.482
	s4.702-10.482,10.482-10.482s10.482,4.702,10.482,10.482C296.173,431.025,291.472,435.727,285.691,435.727z M447.198,360.441
	c-24.685,0-46.862,13.804-57.839,35.57h-45.861c-4.034-7.945-9.646-14.957-16.438-20.604c1.381-3.123,2.608-6.375,3.709-9.775
	c3.567,1.443,7.202,2.916,10.685,4.342c2.689,1.1,5.517,1.659,8.405,1.659c9.054,0,17.118-5.413,20.546-13.789
	c2.247-5.487,2.223-11.521-0.068-16.989c-2.292-5.469-6.575-9.717-12.063-11.963c-4.127-1.689-8.471-3.446-12.659-5.141l-0.27-0.109
	c-2.116-0.856-4.196-1.698-6.193-2.508c0.229-6.214-0.144-12.416-1.121-18.574l67.132,10.77c4.033,0.647,8.04,0.96,12.002,0.96
	c36.4,0,68.548-26.474,74.494-63.54l5.013-31.245c3.194-19.91-1.556-39.871-13.375-56.209
	c-11.82-16.337-29.295-27.094-49.204-30.288l-26.638-4.273c-18.31-2.938-33.809-14.776-41.458-31.67
	c-14.261-31.495-43.155-53.567-77.291-59.044l-38.789-6.223c-28.647-4.597-57.374,2.239-80.882,19.248
	c-23.508,17.008-38.985,42.153-43.582,70.802l-7.365,45.908c-4.813,30,4.676,59.831,24.156,81.459
	c-11.564,13.264-19.25,29.049-22.457,46.15c-25.315,12.273-60.804,13.394-95.861,2.864c-8.531-2.561-17.175,0.932-21.512,8.695
	c-4.297,7.69-2.755,16.797,3.835,22.663c40.076,35.669,94.446,50.645,137.76,59.637c4.577,3.188,9.75,6.099,15.56,8.742
	c0.048,8.649-1.082,18.553-3.128,26.87c-1.92,7.811-0.685,15.9,3.48,22.781s10.76,11.728,18.568,13.647
	c2.365,0.582,4.79,0.877,7.209,0.877c13.885,0,25.902-9.428,29.221-22.925c0.987-4.011,3.094-13.541,4.203-25.634
	c0.925,0.132,1.854,0.267,2.766,0.389c-0.646,3.666-1.003,7.43-1.003,11.278c0,35.734,29.071,64.804,64.804,64.804
	c25.219,0,47.102-14.488,57.808-35.57h45.861c10.976,21.766,33.154,35.57,57.839,35.57c9.586,0,18.817-2.046,27.44-6.081
	c3.752-1.756,5.37-6.22,3.614-9.972c-1.755-3.751-6.222-5.37-9.972-3.614c-6.618,3.097-13.711,4.667-21.083,4.667
	c-16.265,0-31.111-7.803-40.333-20.57h40.333c16.119,0,29.234-13.114,29.234-29.235s-13.114-29.234-29.234-29.234h-40.333
	c9.223-12.767,24.068-20.57,40.333-20.57c27.463,0,49.805,22.342,49.805,49.805c0,8.585-2.217,17.044-6.412,24.466
	c-2.038,3.606-0.768,8.182,2.839,10.22c1.166,0.659,2.434,0.972,3.684,0.972c2.616,0,5.157-1.371,6.536-3.811
	c5.465-9.669,8.354-20.681,8.354-31.847C512.003,389.512,482.931,360.441,447.198,360.441z M339.722,337.544l0.27,0.109
	c4.17,1.687,8.493,3.435,12.6,5.117c1.779,0.729,3.168,2.106,3.911,3.879c0.743,1.773,0.751,3.729,0.021,5.51
	c-1.112,2.717-3.728,4.473-6.665,4.473c-0.931,0-1.846-0.182-2.721-0.54c-4.071-1.667-8.353-3.399-12.487-5.072
	c0.999-4.562,1.897-9.354,2.747-14.416C338.169,336.916,338.94,337.228,339.722,337.544z M16.222,318.379
	c-1.759-1.566-1.202-3.267-0.713-4.142c0.414-0.741,1.644-2.385,4.104-1.645c34.626,10.4,69.997,10.289,97.605,0.124
	c-2.365,20.032-2.156,40.036,7.994,56.895C88.41,360.556,47.314,346.052,16.222,318.379z M200.355,435.631
	c-1.666,6.776-7.693,11.508-14.655,11.508c-1.212,0-2.432-0.149-3.626-0.443c-3.92-0.964-7.229-3.396-9.32-6.849
	c-2.09-3.453-2.71-7.514-1.746-11.433c1.871-7.608,3.069-16.407,3.439-24.709c8.825,2.893,18.745,5.361,29.829,7.436
	C203.245,423.162,201.084,432.671,200.355,435.631z M215.44,397.857c-0.712-0.114-1.406-0.233-2.108-0.35
	c-0.022-0.003-0.043-0.008-0.064-0.011c-17.155-2.86-31.333-6.524-42.776-11.115c-0.463-0.251-0.955-0.454-1.469-0.605
	c-6.601-2.75-12.262-5.822-17.032-9.242c-0.302-0.263-0.63-0.499-0.975-0.712c-5.469-4.08-9.719-8.639-12.822-13.723
	c-9.213-15.09-8.38-34.848-4.051-61.835c2.417-15.062,8.941-29.003,18.98-40.702c6.347,5.177,13.405,9.617,21.097,13.13
	c3.767,1.721,8.217,0.063,9.939-3.705c1.721-3.768,0.063-8.217-3.705-9.939c-33.913-15.494-53.467-52.06-47.554-88.92l7.365-45.908
	c3.961-24.693,17.302-46.366,37.563-61.025c20.262-14.66,45.021-20.552,69.714-16.59l38.788,6.223
	c29.151,4.677,53.825,23.525,66.004,50.421c9.732,21.493,29.451,36.555,52.746,40.292l26.637,4.273
	c15.954,2.559,29.957,11.179,39.428,24.27c9.472,13.09,13.277,29.087,10.719,45.04l-5.013,31.245
	c-2.56,15.954-11.179,29.956-24.27,39.427c-13.091,9.472-29.09,13.277-45.04,10.719l-195.523-31.368
	c-4.091-0.655-7.937,2.127-8.593,6.217c-0.656,4.09,2.127,7.937,6.217,8.593l112.656,18.073c1.842,8.346,2.36,16.812,1.555,25.277
	c-0.005,0.047-0.009,0.095-0.013,0.142c-0.166,1.714-0.38,3.428-0.655,5.141c-2.028,12.645-4.531,25.624-8.909,36.512
	c-8.629-4.26-18.329-6.664-28.586-6.664c-26.551,0-49.412,16.056-59.414,38.963C222.768,398.964,219.152,398.452,215.44,397.857z
	 M285.691,475.05c-27.463,0-49.805-22.342-49.805-49.805c0-27.462,22.342-49.805,49.805-49.805
	c27.463,0,49.806,22.342,49.806,49.805C335.497,452.707,313.154,475.05,285.691,475.05z M447.198,411.01
	c7.85,0,14.234,6.386,14.234,14.234c0,7.85-6.386,14.235-14.234,14.235h-52.924c-0.023,0-0.045,0-0.068,0h-45.305
	c1.032-4.584,1.595-9.344,1.595-14.235c0-4.891-0.563-9.651-1.595-14.234h45.312c0.02,0,0.04,0,0.06,0H447.198z M70.875,104.145
	c0.539,0.026,1.077,0.039,1.615,0.039c8.484,0,16.796-3.258,23.021-9.072c7.479-6.986,10.119-13.045,12.046-17.471
	c1.491-3.423,2.173-4.869,4.114-6.271c3.728-2.693,5.887-7.041,5.775-11.63c-0.11-4.566-2.462-8.781-6.291-11.274
	c-16.462-10.719-40.324-19.68-60.518-1.501c-13.334,12.005-14.54,32.728-2.689,46.194C53.797,99.806,61.94,103.708,70.875,104.145z
	 M60.673,58.115c2.287-2.059,7.297-6.57,16.31-6.57c6.19,0,14.267,2.127,24.647,8.637c-4.417,3.642-6.22,7.783-7.827,11.472
	c-1.71,3.927-3.325,7.635-8.532,12.497l0,0c-3.674,3.431-8.643,5.261-13.665,5.013c-4.85-0.237-9.253-2.337-12.399-5.913
	C52.759,75.923,53.416,64.647,60.673,58.115z M315.361,98.549c0.169,0,0.34-0.006,0.511-0.018l11.711-0.787
	c4.133-0.277,7.258-3.853,6.98-7.986c-0.278-4.133-3.853-7.266-7.986-6.98l-11.711,0.787c-4.133,0.277-7.258,3.853-6.98,7.986
	C308.152,95.514,311.448,98.549,315.361,98.549z M233.007,82.675l9.786,4.111c0.949,0.399,1.933,0.587,2.901,0.587
	c2.93,0,5.712-1.728,6.918-4.597c1.605-3.819-0.191-8.215-4.01-9.819l-9.786-4.111c-3.82-1.605-8.215,0.192-9.819,4.01
	C227.393,76.675,229.188,81.071,233.007,82.675z M241.281,90.238c-4.089-0.654-7.937,2.127-8.593,6.217l-1.385,8.631
	c-0.656,4.09,2.127,7.937,6.217,8.593c0.402,0.064,0.802,0.096,1.197,0.096c3.619,0,6.804-2.626,7.396-6.313l1.385-8.631
	C248.153,94.741,245.369,90.894,241.281,90.238z M218.758,365.512c-1.632-0.293-6.662-2.713-8.451-3.932
	c-2.161-2.329-5.66-3.107-8.689-1.684c-3.749,1.762-5.359,6.229-3.597,9.978c2.514,5.349,15.503,9.973,18.272,10.434
	c0.415,0.069,0.828,0.103,1.235,0.103c3.577,0,6.709-2.583,7.339-6.231C225.57,370.117,222.816,366.241,218.758,365.512z
	 M434.788,183.731c3.795,0.609,7.366-1.974,7.975-5.77c0.609-3.795-1.974-7.366-5.77-7.975c-3.795-0.609-7.366,1.974-7.975,5.77
	C428.409,179.551,430.992,183.122,434.788,183.731z M254.324,361.168c4.648-3.68,7.585-8.95,8.27-14.838
	c0.685-5.89-0.965-11.693-4.645-16.34c-12.251-15.476-22.131-23.07-28.262-26.715c-2.222-1.321-4.628-2.237-7.15-2.721
	c-4.066-0.779-7.999,1.882-8.78,5.95c-0.782,4.068,1.882,7.999,5.95,8.78c0.812,0.156,1.59,0.454,2.315,0.884
	c5.046,3,13.334,9.448,24.166,23.132c1.193,1.507,1.728,3.389,1.506,5.298c-0.222,1.91-1.174,3.619-2.68,4.811
	c-1.626,1.286-3.322,1.556-4.46,1.556c-2.219,0-4.28-0.996-5.653-2.73c-9.967-12.592-16.955-17.742-20.235-19.692
	c-1.177-0.699-2.123-1.708-2.737-2.917c-1.875-3.693-6.388-5.168-10.082-3.292c-3.693,1.875-5.168,6.389-3.293,10.082
	c1.902,3.748,4.824,6.868,8.447,9.021c1.501,0.893,7.104,4.693,16.139,16.109c4.237,5.351,10.584,8.42,17.414,8.42
	C245.526,365.962,250.415,364.261,254.324,361.168z M390.992,176.704c3.796,0.609,7.366-1.974,7.975-5.77
	c0.609-3.795-1.974-7.366-5.77-7.975c-3.795-0.609-7.366,1.974-7.975,5.77C384.615,172.525,387.198,176.096,390.992,176.704z
	 M309.855,125.282c0.402,0.064,0.803,0.096,1.197,0.096c3.619,0,6.805-2.625,7.397-6.313l1.385-8.631
	c0.656-4.09-2.127-7.937-6.217-8.593c-4.089-0.652-7.938,2.128-8.594,6.217l-1.385,8.631
	C302.982,120.78,305.766,124.626,309.855,125.282z M381.471,259.622c4.774-1.807,11.825-2.212,18.853-1.085
	c7.032,1.128,13.601,3.718,17.571,6.928c1.388,1.122,3.055,1.668,4.71,1.668c2.188,0,4.355-0.952,5.837-2.785
	c2.604-3.221,2.104-7.944-1.117-10.548c-6.093-4.926-14.838-8.504-24.624-10.074c-9.787-1.57-19.212-0.908-26.541,1.866
	c-3.873,1.466-5.825,5.795-4.359,9.669C373.268,259.136,377.598,261.086,381.471,259.622z"/>
<g>
</g>
<g>
</g>
<g>
</g>
<g>
</g>
<g>
</g>
<g>
</g>
<g>
</g>
<g>
</g>
<g>
</g>
<g>
</g>
<g>
</g>
<g>
</g>
<g>
</g>
<g>
</g>
<g>
</g>
</svg>
