<?xml version="1.0" encoding="UTF-8" standalone="no"?>
<svg xmlns="http://www.w3.org/2000/svg" xmlns:xlink="http://www.w3.org/1999/xlink" width="40px" height="40px" viewBox="0 0 40 40" version="1.1"><title>Aww Cool</title><desc>Your unique vanillicon is crafted with love by the team at vanillaforums.com.</desc><defs/><g id="vanillicon" stroke="none" stroke-width="1" fill="none" fill-rule="evenodd"><rect id="background" fill="#930039" x="-2" y="-2" width="44" height="44"/><g id="avatar" transform="translate(3.000000, 3.000000)"><circle id="body" fill="#284CC7" cx="17" cy="17" r="16"/><g id="eyes" transform="translate(2.000000, 9.000000)" fill="#FBFDFB"><path d="M4.93809112,3.95697555 C4.32394617,5.04302166 3.40513479,5.70776665 2.88663043,5.44198321 C2.36842682,5.17534056 2.44602202,4.0795567 3.06016698,2.993797 C3.67461269,1.90775089 4.59312332,1.24271949 5.11162768,1.50878933 C5.63013204,1.77543198 5.55253684,2.87121584 4.93809112,3.95697555 L4.93809112,3.95697555 Z M13.9030435,2.95112272 C13.3959679,1.14161868 11.2338288,-0.13316804 7.95167215,0.0421115531 C2.31609518,0.342836346 2,2.50089474 2,5.53420548 C2,8.56694342 4.52815989,11.026013 6.16096742,11.026013 C10.1637369,11.026013 14.7250113,5.88190063 13.9030435,2.95112272 L13.9030435,2.95112272 Z" id="Stroke-3"/><path d="M17,2 L12.5,2 L10.5,0.5 L19,0.5 L17,2 Z" id="Fill-5"/><path d="M19.2292878,3.43675322 C18.6151394,4.52308574 17.6966237,5.18725793 17.1781165,4.9217609 C16.6596092,4.65511825 16.7372049,3.55962078 17.3513532,2.47357467 C17.9658023,1.38781495 18.884318,0.722783551 19.403126,0.988853393 C19.9213325,1.25520964 19.8437369,2.35099351 19.2292878,3.43675322 L19.2292878,3.43675322 Z M22.0485957,0.0419998968 C18.7664208,-0.133279698 16.6042697,1.14150703 16.0968905,2.95129748 C15.275219,5.88178901 19.8365187,11.0259014 23.8393103,11.0259014 C25.4721269,11.0259014 28,8.56683181 28,5.53409386 C28,2.5007831 27.6842038,0.342724691 22.0485957,0.0419998968 L22.0485957,0.0419998968 Z" id="Stroke-9"/><path d="M27,5 L30,5 L30,3 L27,3 L27,5 Z" id="Fill-10"/><path d="M0,5 L2.5,5 L2.5,3 L0,3 L0,5 Z" id="Fill-11"/><path d="M15,2.5 C13.9208932,2.5 13.1655273,3.36560654 13.1655273,4.5 L13.8878174,4.5 C13.8878174,3.93220642 14.4598117,3.5 15,3.5 C15.5867047,3.5 16.1126099,3.86930136 16.1126099,4.5 L16.8092651,4.5 C16.8092651,3.29036902 16.1154762,2.5 15,2.5 Z" id="Stroke-7"/></g><g id="mouth" transform="translate(11.000000, 21)" fill="#FBFDFB"><path d="M10.9796168,-9.09494702e-13 L1.02038319,-9.09494702e-13 C0.499756348,-9.59232693e-13 0.0662307288,0.399462416 0.0237220459,0.918350958 C0.00793646266,1.11104002 0,1.30505552 0,1.5 C0,5.06970862 2.66390125,8 6,8 C9.33609875,8 12,5.06970862 12,1.5 C12,1.30505552 11.9920635,1.11104002 11.976278,0.918350958 C11.9337693,0.399462416 11.5002437,-8.5975671e-13 10.9796168,-9.09494702e-13 Z" id="mouth"/></g><g id="circle"><path d="M1.34691999,2.03018574 C0.879178996,1.73737225 0.512324038,1.95498736 0.543655749,2.50221952 C0.543655749,2.50221952 0.500000002,7.99999996 3.50000006,10.0000005 C4.50000011,9.00000046 6.99999991,5.19783155 7.99999978,4.00000012 C3.99999988,4.00000012 1.34691999,2.03018574 1.34691999,2.03018574 Z" id="l-2" fill="#FBFDFB"/><path d="M26.8051317,2.03018568 C26.3373907,1.73737221 25.9705357,1.95498734 26.0018674,2.50221949 C26.0018674,2.50221949 25.9582117,7.99999992 28.9582117,10.0000003 C29.9582118,9.00000033 32.4582118,5.49999992 33.4582118,3.99999993 C29.4582118,3.99999992 26.8051317,2.03018568 26.8051317,2.03018568 Z" id="l-3" fill="#FBFDFB" transform="translate(29.729106, 5.949787) scale(-1, 1) translate(-29.729106, -5.949787) "/><path d="M34,17 C34,7.61115925 26.3888407,0 17,0 C7.61115925,0 0,7.61115925 0,17 C0,26.3888407 7.61115925,34 17,34 C26.3888407,34 34,26.3888407 34,17 Z M3,17 C3,9.2680135 9.2680135,3 17,3 C24.7319865,3 31,9.2680135 31,17 C31,24.7319865 24.7319865,31 17,31 C9.2680135,31 3,24.7319865 3,17 Z" id="c" fill="#FBFDFB"/></g></g></g></svg>
